<?xml version="1.0" encoding="utf-8"?>
<!-- Generator: Adobe Illustrator 16.0.0, SVG Export Plug-In . SVG Version: 6.00 Build 0)  -->
<!DOCTYPE svg PUBLIC "-//W3C//DTD SVG 1.1//EN" "http://www.w3.org/Graphics/SVG/1.1/DTD/svg11.dtd">
<svg version="1.1" id="Layer_1" xmlns="http://www.w3.org/2000/svg" xmlns:xlink="http://www.w3.org/1999/xlink" x="0px" y="0px"
	 width="1400px" height="980px" viewBox="0 0 1400 980" enable-background="new 0 0 1400 980" xml:space="preserve">
<g>
	<g>
		<g>
			<rect fill="#FFFFFF" width="1400" height="980"/>
		</g>
	</g>
	<g>
		<rect x="388.9" y="685.2" fill="#FFFFFF" width="311.6" height="213.8"/>
		<path fill="#231F20" d="M700.4,901.7H388.9c-1.5,0-2.7-1.2-2.7-2.7V685.2c0-1.5,1.2-2.7,2.7-2.7h311.6c1.5,0,2.7,1.2,2.7,2.7V899
			C703.1,900.5,701.9,901.7,700.4,901.7z M391.5,896.4h306.2V687.9H391.5V896.4z"/>
	</g>
	<g>
		<path d="M663.6,858.2h-59.5c-1.5,0-2.7-1.2-2.7-2.7V742c0-0.6,0.2-1.2,0.6-1.7l29.7-36.2c1-1.2,3.1-1.2,4.1,0l29.7,36.2
			c0.4,0.5,0.6,1.1,0.6,1.7v113.5C666.2,857,665,858.2,663.6,858.2z M606.8,852.9h54.1V742.9l-27.1-33l-27.1,33V852.9z"/>
	</g>
	<g>
		<path d="M574.4,858.2h-59.5c-1.5,0-2.7-1.2-2.7-2.7v-72.8c0-0.6,0.2-1.2,0.6-1.7l29.7-36.2c1-1.2,3.1-1.2,4.1,0l29.7,36.2
			c0.4,0.5,0.6,1.1,0.6,1.7v72.8C577,857,575.9,858.2,574.4,858.2z M517.6,852.9h54.1v-69.1l-27.1-33l-27,33V852.9z"/>
	</g>
	<g>
		<path d="M485.2,858.2h-59.5c-1.5,0-2.7-1.2-2.7-2.7v-48.8c0-0.6,0.2-1.2,0.6-1.7l29.7-36.2c1-1.2,3.1-1.2,4.1,0l29.7,36.2
			c0.4,0.5,0.6,1.1,0.6,1.7v48.8C487.9,857,486.7,858.2,485.2,858.2z M428.4,852.9h54.1v-45.2l-27.1-33l-27.1,33V852.9z"/>
	</g>
	<g>
		<g>
			<g>
				<path fill="#231F20" d="M397,465.1c-51.6,0-93.6-42-93.6-93.6s42-93.6,93.6-93.6s93.6,42,93.6,93.6S448.6,465.1,397,465.1z
					 M397,283.2c-48.7,0-88.2,39.6-88.2,88.2c0,48.7,39.6,88.2,88.2,88.2c48.7,0,88.2-39.6,88.2-88.2
					C485.2,322.8,445.6,283.2,397,283.2z"/>
			</g>
			<g>
				<path fill="#FFE262" d="M397,462.4c25.3,0,48.2-10.4,64.7-27.1v-38.5c0-14-11.4-25.4-25.4-25.4h-22.7L397,382.6l-16.6-11.1
					h-22.7c-14,0-25.4,11.4-25.4,25.4v38.5C348.8,452,371.7,462.4,397,462.4z"/>
				<path d="M397,465.1c-25.2,0-48.8-9.9-66.6-27.8c-0.5-0.5-0.8-1.2-0.8-1.9v-38.5c0-15.5,12.6-28.1,28.1-28.1h22.7
					c0.5,0,1,0.2,1.5,0.5l15.1,10.1l15.1-10.1c0.4-0.3,1-0.5,1.5-0.5h22.7c15.5,0,28.1,12.6,28.1,28.1v38.5c0,0.7-0.3,1.4-0.8,1.9
					C445.8,455.2,422.2,465.1,397,465.1z M335,434.2c16.6,16.4,38.6,25.5,62,25.5c23.4,0,45.4-9,62-25.5v-37.4
					c0-12.5-10.2-22.7-22.7-22.7h-21.9l-15.9,10.7c-0.9,0.6-2.1,0.6-3,0l-15.9-10.7h-21.9c-12.5,0-22.7,10.2-22.7,22.7V434.2z"/>
			</g>
			<g>
				<path fill="#231F20" d="M408.6,363.2h-23.2c-9.3,0-16.8-7.5-16.8-16.8V321c0-9.3,7.5-16.8,16.8-16.8h23.2
					c9.3,0,16.8,7.5,16.8,16.8v25.4C425.4,355.7,417.8,363.2,408.6,363.2z M385.3,309.5c-6.3,0-11.4,5.1-11.4,11.4v25.4
					c0,6.3,5.1,11.4,11.4,11.4h23.2c6.3,0,11.4-5.1,11.4-11.4V321c0-6.3-5.1-11.4-11.4-11.4H385.3z"/>
			</g>
			<g>
				<path fill="#231F20" d="M357.5,456.1c-1.5,0-2.7-1.2-2.7-2.7v-45.8c0-1.5,1.2-2.7,2.7-2.7s2.7,1.2,2.7,2.7v45.8
					C360.2,454.9,359,456.1,357.5,456.1z"/>
			</g>
			<g>
				<path fill="#231F20" d="M436.8,456.1c-1.5,0-2.7-1.2-2.7-2.7v-45.8c0-1.5,1.2-2.7,2.7-2.7c1.5,0,2.7,1.2,2.7,2.7v45.8
					C439.5,454.9,438.3,456.1,436.8,456.1z"/>
			</g>
			<g>
				<path fill="#231F20" d="M380.9,309.5c-0.7,0-1.4-0.3-1.9-0.8c-1-1-1-2.7,0-3.8l12.5-12.5c1-1,2.7-1,3.8,0c1,1,1,2.7,0,3.8
					l-12.5,12.5C382.3,309.3,381.6,309.5,380.9,309.5z"/>
			</g>
			<g>
				<path fill="#231F20" d="M400.5,309.5c-0.7,0-1.4-0.3-1.9-0.8c-1-1-1-2.7,0-3.8l12.5-12.5c1-1,2.7-1,3.8,0c1,1,1,2.7,0,3.8
					l-12.5,12.5C401.9,309.3,401.2,309.5,400.5,309.5z"/>
			</g>
		</g>
		<g>
			<g>
				<path fill="#231F20" d="M675.7,465.1c-51.6,0-93.6-42-93.6-93.6s42-93.6,93.6-93.6c51.6,0,93.6,42,93.6,93.6
					S727.4,465.1,675.7,465.1z M675.7,283.2c-48.7,0-88.2,39.6-88.2,88.2c0,48.7,39.6,88.2,88.2,88.2c48.7,0,88.2-39.6,88.2-88.2
					C764,322.8,724.4,283.2,675.7,283.2z"/>
			</g>
			<g>
				<path fill="#00E390" d="M675.7,462.4c25.3,0,48.2-10.4,64.7-27.1v-38.5c0-14-11.4-25.4-25.4-25.4h-22.7l-16.6,11.1l-16.6-11.1
					h-22.7c-14,0-25.4,11.4-25.4,25.4v38.5C627.5,452,650.4,462.4,675.7,462.4z"/>
				<path d="M675.7,465.1c-25.2,0-48.8-9.9-66.6-27.8c-0.5-0.5-0.8-1.2-0.8-1.9v-38.5c0-15.5,12.6-28.1,28.1-28.1h22.7
					c0.5,0,1,0.2,1.5,0.5l15.1,10.1l15.1-10.1c0.4-0.3,1-0.5,1.5-0.5H715c15.5,0,28.1,12.6,28.1,28.1v38.5c0,0.7-0.3,1.4-0.8,1.9
					C724.6,455.2,700.9,465.1,675.7,465.1z M613.7,434.2c16.6,16.4,38.6,25.5,62,25.5c23.4,0,45.4-9,62-25.5v-37.4
					c0-12.5-10.2-22.7-22.7-22.7h-21.9l-15.9,10.7c-0.9,0.6-2.1,0.6-3,0l-15.9-10.7h-21.9c-12.5,0-22.7,10.2-22.7,22.7V434.2z"/>
			</g>
			<g>
				<path fill="#231F20" d="M687.4,363.2h-23.2c-9.3,0-16.8-7.5-16.8-16.8V321c0-9.3,7.5-16.8,16.8-16.8h23.2
					c9.3,0,16.8,7.5,16.8,16.8v25.4C704.2,355.7,696.6,363.2,687.4,363.2z M664.1,309.5c-6.3,0-11.4,5.1-11.4,11.4v25.4
					c0,6.3,5.1,11.4,11.4,11.4h23.2c6.3,0,11.4-5.1,11.4-11.4V321c0-6.3-5.1-11.4-11.4-11.4H664.1z"/>
			</g>
			<g>
				<path fill="#231F20" d="M636.3,456.1c-1.5,0-2.7-1.2-2.7-2.7v-45.8c0-1.5,1.2-2.7,2.7-2.7c1.5,0,2.7,1.2,2.7,2.7v45.8
					C639,454.9,637.8,456.1,636.3,456.1z"/>
			</g>
			<g>
				<path fill="#231F20" d="M715.6,456.1c-1.5,0-2.7-1.2-2.7-2.7v-45.8c0-1.5,1.2-2.7,2.7-2.7c1.5,0,2.7,1.2,2.7,2.7v45.8
					C718.3,454.9,717.1,456.1,715.6,456.1z"/>
			</g>
			<g>
				<path fill="#231F20" d="M659.7,309.5c-0.7,0-1.4-0.3-1.9-0.8c-1-1-1-2.7,0-3.8l12.5-12.5c1-1,2.7-1,3.8,0c1,1,1,2.7,0,3.8
					l-12.5,12.5C661.1,309.3,660.4,309.5,659.7,309.5z"/>
			</g>
			<g>
				<path fill="#231F20" d="M679.3,309.5c-0.7,0-1.4-0.3-1.9-0.8c-1-1-1-2.7,0-3.8l12.5-12.5c1-1,2.7-1,3.8,0s1,2.7,0,3.8
					l-12.5,12.5C680.6,309.3,680,309.5,679.3,309.5z"/>
			</g>
		</g>
		<g>
			<g>
				<circle fill="#FFFFFF" cx="539.9" cy="619.2" r="90.9"/>
				<path fill="#231F20" d="M539.9,712.8c-51.6,0-93.6-42-93.6-93.6s42-93.6,93.6-93.6s93.6,42,93.6,93.6S591.5,712.8,539.9,712.8z
					 M539.9,531c-48.7,0-88.2,39.6-88.2,88.2c0,48.7,39.6,88.2,88.2,88.2s88.2-39.6,88.2-88.2C628.1,570.6,588.6,531,539.9,531z"/>
			</g>
			<g>
				<path fill="#00D3FB" d="M539.9,710.1c25.3,0,48.2-10.4,64.7-27.1v-38.5c0-14-11.4-25.4-25.4-25.4h-22.7l-16.6,11.1l-16.6-11.1
					h-22.7c-14,0-25.4,11.4-25.4,25.4v38.5C491.7,699.8,514.6,710.1,539.9,710.1z"/>
				<path d="M539.9,712.8c-25.2,0-48.8-9.9-66.6-27.8c-0.5-0.5-0.8-1.2-0.8-1.9v-38.5c0-15.5,12.6-28.1,28.1-28.1h22.7
					c0.5,0,1,0.2,1.5,0.5l15.1,10.1L555,617c0.4-0.3,1-0.5,1.5-0.5h22.7c15.5,0,28.1,12.6,28.1,28.1v38.5c0,0.7-0.3,1.4-0.8,1.9
					C588.7,702.9,565.1,712.8,539.9,712.8z M477.9,682c16.6,16.4,38.6,25.5,62,25.5c23.4,0,45.4-9,62-25.5v-37.4
					c0-12.5-10.2-22.7-22.7-22.7h-21.9l-15.9,10.7c-0.9,0.6-2.1,0.6-3,0l-15.9-10.7h-21.9c-12.5,0-22.7,10.2-22.7,22.7V682z"/>
			</g>
			<g>
				<path fill="#231F20" d="M551.5,610.9h-23.2c-9.3,0-16.8-7.5-16.8-16.8v-25.4c0-9.3,7.5-16.8,16.8-16.8h23.2
					c9.3,0,16.8,7.5,16.8,16.8v25.4C568.3,603.4,560.8,610.9,551.5,610.9z M528.3,557.3c-6.3,0-11.4,5.1-11.4,11.4v25.4
					c0,6.3,5.1,11.4,11.4,11.4h23.2c6.3,0,11.4-5.1,11.4-11.4v-25.4c0-6.3-5.1-11.4-11.4-11.4H528.3z"/>
			</g>
			<g>
				<path fill="#231F20" d="M500.4,703.8c-1.5,0-2.7-1.2-2.7-2.7v-45.8c0-1.5,1.2-2.7,2.7-2.7s2.7,1.2,2.7,2.7v45.8
					C503.1,702.6,501.9,703.8,500.4,703.8z"/>
			</g>
			<g>
				<path fill="#231F20" d="M579.7,703.8c-1.5,0-2.7-1.2-2.7-2.7v-45.8c0-1.5,1.2-2.7,2.7-2.7s2.7,1.2,2.7,2.7v45.8
					C582.4,702.6,581.2,703.8,579.7,703.8z"/>
			</g>
			<g>
				<path fill="#231F20" d="M523.9,557.3c-0.7,0-1.4-0.3-1.9-0.8c-1-1-1-2.7,0-3.8l12.5-12.5c1-1,2.7-1,3.8,0s1,2.7,0,3.8
					l-12.5,12.5C525.2,557,524.6,557.3,523.9,557.3z"/>
			</g>
			<g>
				<path fill="#231F20" d="M543.4,557.3c-0.7,0-1.4-0.3-1.9-0.8c-1-1-1-2.7,0-3.8l12.5-12.5c1-1,2.7-1,3.8,0c1,1,1,2.7,0,3.8
					l-12.5,12.5C544.8,557,544.1,557.3,543.4,557.3z"/>
			</g>
		</g>
		<g>
			<path fill="#231F20" d="M584.8,374.2h-96.9c-1.5,0-2.7-1.2-2.7-2.7c0-1.5,1.2-2.7,2.7-2.7h96.9c1.5,0,2.7,1.2,2.7,2.7
				C587.5,373,586.3,374.2,584.8,374.2z"/>
		</g>
		<g>
			<path fill="#231F20" d="M449,621.9h-52c-1.5,0-2.7-1.2-2.7-2.7V462.4c0-1.5,1.2-2.7,2.7-2.7c1.5,0,2.7,1.2,2.7,2.7v154.1H449
				c1.5,0,2.7,1.2,2.7,2.7S450.5,621.9,449,621.9z"/>
		</g>
		<g>
			<path fill="#231F20" d="M675.7,621.9h-44.9c-1.5,0-2.7-1.2-2.7-2.7s1.2-2.7,2.7-2.7h42.3v-93.1c0-1.5,1.2-2.7,2.7-2.7
				c1.5,0,2.7,1.2,2.7,2.7v95.7C678.4,620.7,677.2,621.9,675.7,621.9z"/>
		</g>
		<g>
			<path fill="#231F20" d="M698.7,549.1c-0.7,0-1.4-0.3-1.9-0.8l-21.1-21.1l-21.1,21.1c-1,1-2.7,1-3.8,0c-1-1-1-2.7,0-3.8l23-23
				c0.5-0.5,1.2-0.8,1.9-0.8l0,0c0.7,0,1.4,0.3,1.9,0.8l23,23c1,1,1,2.7,0,3.8C700.1,548.8,699.4,549.1,698.7,549.1z"/>
		</g>
	</g>
	<g>
		<polygon fill="#FFFFFF" points="800.3,80.9 800.3,173.6 715,242.5 800.3,242.5 800.3,279.2 1091.5,279.2 1091.5,80.9 		"/>
		<path d="M1091.5,281.8H800.3c-1.5,0-2.7-1.2-2.7-2.7v-34H715c-1.1,0-2.1-0.7-2.5-1.8c-0.4-1.1,0-2.3,0.8-3l84.3-68.1V80.9
			c0-1.5,1.2-2.7,2.7-2.7h291.2c1.5,0,2.7,1.2,2.7,2.7v198.3C1094.2,280.6,1093,281.8,1091.5,281.8z M803,276.5h285.9V83.5H803v90.1
			c0,0.8-0.4,1.6-1,2.1l-79.4,64.1h77.7c1.5,0,2.7,1.2,2.7,2.7V276.5z"/>
	</g>
	<g>
		<rect x="848.4" y="122.2" fill="#00D3FB" width="196.3" height="29.6"/>
	</g>
	<g>
		<rect x="229.5" y="116.5" fill="#FFE262" width="66.7" height="25.7"/>
	</g>
	<g>
		<rect x="229.5" y="155.3" fill="#FFE262" width="66.7" height="25.4"/>
	</g>
	<g>
		<rect x="848.4" y="171.3" fill="#00D3FB" width="196.3" height="29.6"/>
	</g>
	<g>
		<rect x="848.4" y="220.5" fill="#00D3FB" width="196.3" height="29.6"/>
	</g>
	<g>
		<path d="M1056.7,174H835.1c-1.5,0-2.7-1.2-2.7-2.7c0-1.5,1.2-2.7,2.7-2.7h221.6c1.5,0,2.7,1.2,2.7,2.7
			C1059.4,172.8,1058.2,174,1056.7,174z"/>
	</g>
	<g>
		<path d="M1056.7,223.2H835.1c-1.5,0-2.7-1.2-2.7-2.7c0-1.5,1.2-2.7,2.7-2.7h221.6c1.5,0,2.7,1.2,2.7,2.7
			C1059.4,222,1058.2,223.2,1056.7,223.2z"/>
	</g>
	<g>
		<polygon fill="#FFFFFF" points="1295.8,218.9 1211.6,131.3 1211.6,218.9 945.9,218.9 945.9,446.7 1320.2,446.7 1320.2,218.9 		"/>
		<path d="M1320.2,449.4H945.9c-1.5,0-2.7-1.2-2.7-2.7V218.9c0-1.5,1.2-2.7,2.7-2.7h263v-84.9c0-1.1,0.7-2.1,1.7-2.5
			c1-0.4,2.2-0.2,2.9,0.6l83.4,86.7h23.2c1.5,0,2.7,1.2,2.7,2.7v227.8C1322.9,448.2,1321.7,449.4,1320.2,449.4z M948.6,444h368.9
			V221.6h-21.7c-0.7,0-1.4-0.3-1.9-0.8l-79.6-82.8v80.9c0,1.5-1.2,2.7-2.7,2.7h-263V444z"/>
	</g>
	<g>
		<rect x="1116.7" y="259.2" fill="#FFFFFF" width="165.6" height="145.1"/>
		<path d="M1282.3,407h-165.6c-1.5,0-2.7-1.2-2.7-2.7V259.2c0-1.5,1.2-2.7,2.7-2.7h165.6c1.5,0,2.7,1.2,2.7,2.7v145.1
			C1285,405.8,1283.8,407,1282.3,407z M1119.4,401.6h160.2V261.8h-160.2V401.6z"/>
	</g>
	<g>
		<g>
			<path fill="#231F20" d="M1251.4,407h-103.7c-1.5,0-2.7-1.2-2.7-2.7V359c0-12.7,10.3-23,23-23h18.2c0.5,0,1.1,0.2,1.5,0.5
				l11.8,7.9l11.8-7.9c0.4-0.3,1-0.5,1.5-0.5h18.2c12.7,0,23,10.3,23,23v45.3C1254,405.8,1252.8,407,1251.4,407z M1150.3,401.6h98.4
				V359c0-9.8-7.9-17.7-17.7-17.7h-17.4l-12.6,8.5c-0.9,0.6-2.1,0.6-3,0l-12.6-8.5H1168c-9.8,0-17.7,7.9-17.7,17.7V401.6z"/>
		</g>
		<g>
			<path fill="#231F20" d="M1208.8,332.5h-18.6c-7.7,0-14-6.3-14-14v-20.4c0-7.7,6.3-14,14-14h18.6c7.7,0,14,6.3,14,14v20.4
				C1222.8,326.2,1216.5,332.5,1208.8,332.5z M1190.2,289.5c-4.8,0-8.6,3.9-8.6,8.6v20.4c0,4.8,3.9,8.6,8.6,8.6h18.6
				c4.8,0,8.6-3.9,8.6-8.6v-20.4c0-4.8-3.9-8.6-8.6-8.6H1190.2z"/>
		</g>
		<g>
			<path fill="#231F20" d="M1167.9,407c-1.5,0-2.7-1.2-2.7-2.7v-36.7c0-1.5,1.2-2.7,2.7-2.7c1.5,0,2.7,1.2,2.7,2.7v36.7
				C1170.5,405.8,1169.4,407,1167.9,407z"/>
		</g>
		<g>
			<path fill="#231F20" d="M1231.5,407c-1.5,0-2.7-1.2-2.7-2.7v-36.7c0-1.5,1.2-2.7,2.7-2.7s2.7,1.2,2.7,2.7v36.7
				C1234.1,405.8,1232.9,407,1231.5,407z"/>
		</g>
		<g>
			<path fill="#231F20" d="M1186.7,289.5c-0.7,0-1.4-0.3-1.9-0.8c-1-1-1-2.7,0-3.8l10-10c1-1,2.7-1,3.8,0s1,2.7,0,3.8l-10,10
				C1188,289.2,1187.4,289.5,1186.7,289.5z"/>
		</g>
		<g>
			<path fill="#231F20" d="M1202.3,289.5c-0.7,0-1.4-0.3-1.9-0.8c-1-1-1-2.7,0-3.8l10-10c1-1,2.7-1,3.8,0s1,2.7,0,3.8l-10,10
				C1203.7,289.2,1203,289.5,1202.3,289.5z"/>
		</g>
	</g>
	<g>
		<g>
			<path fill="#231F20" d="M194.4,219H98c-1.5,0-2.7-1.2-2.7-2.7v-42.1c0-11.9,9.7-21.6,21.6-21.6h16.9c0.5,0,1,0.2,1.5,0.5
				l10.9,7.3l10.9-7.3c0.4-0.3,1-0.5,1.5-0.5h16.9c11.9,0,21.6,9.7,21.6,21.6v42.1C197.1,217.8,195.9,219,194.4,219z M100.7,213.7
				h91.1v-39.5c0-9-7.3-16.3-16.3-16.3h-16.1l-11.7,7.9c-0.9,0.6-2.1,0.6-3,0l-11.7-7.9h-16.1c-9,0-16.3,7.3-16.3,16.3V213.7z"/>
		</g>
		<g>
			<path fill="#231F20" d="M154.9,149.8h-17.3c-7.3,0-13.2-5.9-13.2-13.2v-19c0-7.3,5.9-13.2,13.2-13.2h17.3
				c7.3,0,13.2,5.9,13.2,13.2v19C168.1,143.9,162.2,149.8,154.9,149.8z M137.6,109.8c-4.3,0-7.9,3.5-7.9,7.8v19
				c0,4.3,3.5,7.9,7.9,7.9h17.3c4.3,0,7.9-3.5,7.9-7.9v-19c0-4.3-3.5-7.8-7.9-7.8H137.6z"/>
		</g>
		<g>
			<path fill="#231F20" d="M116.8,219c-1.5,0-2.7-1.2-2.7-2.7v-34.2c0-1.5,1.2-2.7,2.7-2.7c1.5,0,2.7,1.2,2.7,2.7v34.2
				C119.5,217.8,118.3,219,116.8,219z"/>
		</g>
		<g>
			<path fill="#231F20" d="M175.9,219c-1.5,0-2.7-1.2-2.7-2.7v-34.2c0-1.5,1.2-2.7,2.7-2.7c1.5,0,2.7,1.2,2.7,2.7v34.2
				C178.6,217.8,177.4,219,175.9,219z"/>
		</g>
		<g>
			<path fill="#231F20" d="M134.3,109.8c-0.7,0-1.4-0.3-1.9-0.8c-1-1-1-2.7,0-3.8l9.3-9.3c1-1,2.7-1,3.8,0c1,1,1,2.7,0,3.8l-9.3,9.3
				C135.6,109.5,135,109.8,134.3,109.8z"/>
		</g>
		<g>
			<path fill="#231F20" d="M148.9,109.8c-0.7,0-1.4-0.3-1.9-0.8c-1-1-1-2.7,0-3.8l9.3-9.3c1-1,2.7-1,3.8,0c1,1,1,2.7,0,3.8l-9.3,9.3
				C150.2,109.5,149.5,109.8,148.9,109.8z"/>
		</g>
	</g>
	<g>
		<path d="M1056.7,124.8H835.1c-1.5,0-2.7-1.2-2.7-2.7c0-1.5,1.2-2.7,2.7-2.7h221.6c1.5,0,2.7,1.2,2.7,2.7
			C1059.4,123.6,1058.2,124.8,1056.7,124.8z"/>
	</g>
	<g>
		<rect x="992.9" y="266.1" fill="#FF8F81" width="90.1" height="31.4"/>
	</g>
	<g>
		<rect x="992.9" y="311.2" fill="#FF8F81" width="90.1" height="31.4"/>
	</g>
	<g>
		<path d="M1089.9,268.8H982.7c-1.5,0-2.7-1.2-2.7-2.7s1.2-2.7,2.7-2.7h107.2c1.5,0,2.7,1.2,2.7,2.7S1091.4,268.8,1089.9,268.8z"/>
	</g>
	<g>
		<path d="M1089.9,313.8H982.7c-1.5,0-2.7-1.2-2.7-2.7s1.2-2.7,2.7-2.7h107.2c1.5,0,2.7,1.2,2.7,2.7S1091.4,313.8,1089.9,313.8z"/>
	</g>
	<g>
		<polygon fill="#FFFFFF" points="860,337.3 860,390.2 806.6,390.2 860,466.2 860,522.9 1071.8,522.9 1071.8,337.3 		"/>
		<path d="M1071.8,525.6H860c-1.5,0-2.7-1.2-2.7-2.7V467l-52.9-75.2c-0.6-0.8-0.6-1.9-0.2-2.8s1.4-1.4,2.4-1.4h50.8v-50.3
			c0-1.5,1.2-2.7,2.7-2.7h211.8c1.5,0,2.7,1.2,2.7,2.7v185.6C1074.5,524.4,1073.3,525.6,1071.8,525.6z M862.7,520.2h206.5V340H862.7
			v50.3c0,1.5-1.2,2.7-2.7,2.7h-48.3l50.5,71.7c0.3,0.5,0.5,1,0.5,1.5V520.2z"/>
	</g>
	<g>
		<rect x="897.2" y="372.7" fill="#FFFFFF" width="134.8" height="118.1"/>
		<path d="M1032,493.5H897.2c-1.5,0-2.7-1.2-2.7-2.7V372.7c0-1.5,1.2-2.7,2.7-2.7H1032c1.5,0,2.7,1.2,2.7,2.7v118.1
			C1034.7,492.3,1033.5,493.5,1032,493.5z M899.9,488.2h129.4V375.4H899.9V488.2z"/>
	</g>
	<g>
		<g>
			<rect x="390.7" y="87.2" fill="#00E390" width="97.8" height="25.7"/>
			<path d="M488.5,115.6h-97.8c-1.5,0-2.7-1.2-2.7-2.7V87.2c0-1.5,1.2-2.7,2.7-2.7h97.8c1.5,0,2.7,1.2,2.7,2.7v25.7
				C491.1,114.4,489.9,115.6,488.5,115.6z M393.4,110.2h92.4V89.9h-92.4V110.2z"/>
		</g>
	</g>
	<g>
		<g>
			<rect x="390.7" y="138.9" fill="#00E390" width="139.5" height="25.7"/>
			<path d="M530.2,167.3H390.7c-1.5,0-2.7-1.2-2.7-2.7v-25.7c0-1.5,1.2-2.7,2.7-2.7h139.5c1.5,0,2.7,1.2,2.7,2.7v25.7
				C532.9,166.1,531.7,167.3,530.2,167.3z M393.4,161.9h134.2v-20.3H393.4V161.9z"/>
		</g>
	</g>
	<g>
		<g>
			<rect x="390.7" y="190.7" fill="#00E390" width="247.1" height="25.7"/>
			<path d="M637.8,219H390.7c-1.5,0-2.7-1.2-2.7-2.7v-25.7c0-1.5,1.2-2.7,2.7-2.7h247.1c1.5,0,2.7,1.2,2.7,2.7v25.7
				C640.5,217.8,639.3,219,637.8,219z M393.4,213.7h241.8v-20.3H393.4V213.7z"/>
		</g>
	</g>
	<g>
		<path d="M341.5,219H73.6c-1.5,0-2.7-1.2-2.7-2.7V80.9c0-1.5,1.2-2.7,2.7-2.7h267.8c1.5,0,2.7,1.2,2.7,2.7v135.5
			C344.1,217.8,342.9,219,341.5,219z M76.3,213.7h262.5V83.5H76.3V213.7z"/>
	</g>
	<g>
		<polygon fill="#00E390" points="515.8,83.4 544.6,100.1 515.8,116.7 		"/>
		<path d="M515.8,119.4c-0.5,0-0.9-0.1-1.3-0.4c-0.8-0.5-1.3-1.4-1.3-2.3V83.4c0-1,0.5-1.8,1.3-2.3c0.8-0.5,1.8-0.5,2.7,0L546,97.7
			c0.8,0.5,1.3,1.4,1.3,2.3c0,1-0.5,1.8-1.3,2.3L517.1,119C516.7,119.3,516.3,119.4,515.8,119.4z M518.5,88v24l20.8-12L518.5,88z"/>
	</g>
	<g>
		<polygon fill="#00E390" points="559.3,135.1 588.1,151.8 559.3,168.4 		"/>
		<path d="M559.3,171.1c-0.5,0-0.9-0.1-1.3-0.4c-0.8-0.5-1.3-1.4-1.3-2.3v-33.3c0-1,0.5-1.8,1.3-2.3c0.8-0.5,1.8-0.5,2.7,0
			l28.8,16.6c0.8,0.5,1.3,1.4,1.3,2.3c0,1-0.5,1.8-1.3,2.3l-28.8,16.6C560.2,171,559.7,171.1,559.3,171.1z M561.9,139.8v24l20.8-12
			L561.9,139.8z"/>
	</g>
	<g>
		<polygon fill="#00E390" points="663.6,186.9 692.4,203.5 663.6,220.1 		"/>
		<path d="M663.6,222.8c-0.5,0-0.9-0.1-1.3-0.4c-0.8-0.5-1.3-1.4-1.3-2.3v-33.3c0-1,0.5-1.8,1.3-2.3c0.8-0.5,1.8-0.5,2.7,0
			l28.8,16.6c0.8,0.5,1.3,1.4,1.3,2.3c0,1-0.5,1.8-1.3,2.3l-28.8,16.6C664.5,222.7,664,222.8,663.6,222.8z M666.2,191.5v24l20.8-12
			L666.2,191.5z"/>
	</g>
	<g>
		<path fill="#231F20" d="M309.6,119.4H216c-1.5,0-2.7-1.2-2.7-2.7c0-1.5,1.2-2.7,2.7-2.7h93.6c1.5,0,2.7,1.2,2.7,2.7
			C312.3,118.2,311.1,119.4,309.6,119.4z"/>
	</g>
	<g>
		<path fill="#231F20" d="M309.6,157.9H216c-1.5,0-2.7-1.2-2.7-2.7c0-1.5,1.2-2.7,2.7-2.7h93.6c1.5,0,2.7,1.2,2.7,2.7
			C312.3,156.7,311.1,157.9,309.6,157.9z"/>
	</g>
	<g>
		<path d="M326.3,515.9H73.6c-1.5,0-2.7-1.2-2.7-2.7c0-1.5,1.2-2.7,2.7-2.7h252.7c1.5,0,2.7,1.2,2.7,2.7
			C329,514.7,327.8,515.9,326.3,515.9z"/>
	</g>
	<g>
		<path d="M127,515.9H98c-1.5,0-2.7-1.2-2.7-2.7v-71.3c0-1.5,1.2-2.7,2.7-2.7h29c1.5,0,2.7,1.2,2.7,2.7v71.3
			C129.7,514.7,128.5,515.9,127,515.9z M100.7,510.6h23.7v-66h-23.7V510.6z"/>
	</g>
	<g>
		<path d="M172.7,515.9h-29c-1.5,0-2.7-1.2-2.7-2.7V333.7c0-1.5,1.2-2.7,2.7-2.7h29c1.5,0,2.7,1.2,2.7,2.7v179.5
			C175.3,514.7,174.2,515.9,172.7,515.9z M146.3,510.6H170V336.4h-23.7V510.6z"/>
	</g>
	<g>
		<path d="M218.3,515.9h-29c-1.5,0-2.7-1.2-2.7-2.7v-89.1c0-1.5,1.2-2.7,2.7-2.7h29c1.5,0,2.7,1.2,2.7,2.7v89.1
			C221,514.7,219.8,515.9,218.3,515.9z M192,510.6h23.7v-83.8H192V510.6z"/>
	</g>
	<g>
		<path d="M264,515.9h-29c-1.5,0-2.7-1.2-2.7-2.7V265.4c0-1.5,1.2-2.7,2.7-2.7h29c1.5,0,2.7,1.2,2.7,2.7v247.8
			C266.6,514.7,265.4,515.9,264,515.9z M237.6,510.6h23.7V268.1h-23.7V510.6z"/>
	</g>
	<g>
		<polygon fill="#FFFFFF" points="293,575.4 81.7,575.4 81.7,898.8 333.4,898.8 333.4,614.3 		"/>
		<path d="M333.4,901.5H81.7c-1.5,0-2.7-1.2-2.7-2.7V575.4c0-1.5,1.2-2.7,2.7-2.7H293c0.7,0,1.4,0.3,1.9,0.7l40.4,38.9
			c0.5,0.5,0.8,1.2,0.8,1.9v284.5C336,900.3,334.8,901.5,333.4,901.5z M84.4,896.2h246.3V615.5l-38.8-37.4H84.4V896.2z"/>
	</g>
	<g>
		<polygon fill="#FFFFFF" points="293,614.3 333.4,614.3 293,575.4 		"/>
		<path d="M333.4,617H293c-1.5,0-2.7-1.2-2.7-2.7v-38.9c0-1.1,0.6-2,1.6-2.5c1-0.4,2.1-0.2,2.9,0.5l40.4,38.9c0.8,0.8,1,1.9,0.6,2.9
			C335.4,616.3,334.4,617,333.4,617z M295.6,611.7h31.1l-31.1-29.9V611.7z"/>
	</g>
	<g>
		<circle fill="#FFFFFF" cx="134" cy="655.3" r="29.9"/>
		<path d="M134,687.9c-18,0-32.6-14.6-32.6-32.6s14.6-32.6,32.6-32.6c18,0,32.6,14.6,32.6,32.6S151.9,687.9,134,687.9z M134,628.1
			c-15,0-27.2,12.2-27.2,27.2c0,15,12.2,27.2,27.2,27.2c15,0,27.2-12.2,27.2-27.2C161.2,640.3,149,628.1,134,628.1z"/>
	</g>
	<g>
		<circle fill="#FFFFFF" cx="134" cy="737.1" r="29.9"/>
		<path d="M134,769.7c-18,0-32.6-14.6-32.6-32.6s14.6-32.6,32.6-32.6c18,0,32.6,14.6,32.6,32.6S151.9,769.7,134,769.7z M134,709.9
			c-15,0-27.2,12.2-27.2,27.2c0,15,12.2,27.2,27.2,27.2c15,0,27.2-12.2,27.2-27.2C161.2,722.1,149,709.9,134,709.9z"/>
	</g>
	<g>
		<circle fill="#FFFFFF" cx="134" cy="819" r="29.9"/>
		<path d="M134,851.5c-18,0-32.6-14.6-32.6-32.6c0-18,14.6-32.6,32.6-32.6c18,0,32.6,14.6,32.6,32.6
			C166.6,836.9,151.9,851.5,134,851.5z M134,791.8c-15,0-27.2,12.2-27.2,27.2c0,15,12.2,27.2,27.2,27.2c15,0,27.2-12.2,27.2-27.2
			C161.2,804,149,791.8,134,791.8z"/>
	</g>
	<g>
		<rect x="196.5" y="642.9" fill="#FF8F81" width="102.3" height="31.4"/>
	</g>
	<g>
		<rect x="196.5" y="727.8" fill="#FF8F81" width="102.3" height="31.4"/>
	</g>
	<g>
		<rect x="196.5" y="812.7" fill="#FF8F81" width="102.3" height="31.4"/>
	</g>
	<g>
		<path d="M306,645.6H189.3c-1.5,0-2.7-1.2-2.7-2.7c0-1.5,1.2-2.7,2.7-2.7H306c1.5,0,2.7,1.2,2.7,2.7
			C308.7,644.4,307.5,645.6,306,645.6z"/>
	</g>
	<g>
		<path d="M306,730.5H189.3c-1.5,0-2.7-1.2-2.7-2.7s1.2-2.7,2.7-2.7H306c1.5,0,2.7,1.2,2.7,2.7S307.5,730.5,306,730.5z"/>
	</g>
	<g>
		<path d="M306,815.4H189.3c-1.5,0-2.7-1.2-2.7-2.7c0-1.5,1.2-2.7,2.7-2.7H306c1.5,0,2.7,1.2,2.7,2.7
			C308.7,814.2,307.5,815.4,306,815.4z"/>
	</g>
	<g>
		<path d="M135.6,671.9c-0.7,0-1.4-0.3-1.9-0.8l-13.9-13.9c-1-1-1-2.7,0-3.8c1-1,2.7-1,3.8,0l12,12l35.5-35.5c1-1,2.7-1,3.8,0
			c1,1,1,2.7,0,3.8l-37.4,37.4C137,671.6,136.3,671.9,135.6,671.9z"/>
	</g>
	<g>
		<path d="M135.6,752.5c-0.7,0-1.4-0.3-1.9-0.8l-13.9-13.9c-1-1-1-2.7,0-3.8s2.7-1,3.8,0l12,12l35.5-35.5c1-1,2.7-1,3.8,0
			c1,1,1,2.7,0,3.8l-37.4,37.4C137,752.2,136.3,752.5,135.6,752.5z"/>
	</g>
	<g>
		<path d="M135.6,834.1c-0.7,0-1.4-0.3-1.9-0.8l-13.9-13.9c-1-1-1-2.7,0-3.8c1-1,2.7-1,3.8,0l12,12l35.5-35.5c1-1,2.7-1,3.8,0
			c1,1,1,2.7,0,3.8l-37.4,37.4C137,833.9,136.3,834.1,135.6,834.1z"/>
	</g>
	<g>
		<g>
			<path d="M945.5,469.5c-1.5,0-2.7-1.2-2.7-2.7v-70.2c0-1.5,1.2-2.7,2.7-2.7c1.5,0,2.7,1.2,2.7,2.7v70.2
				C948.2,468.3,947,469.5,945.5,469.5z"/>
		</g>
		<g>
			<path d="M983.7,469.5c-1.5,0-2.7-1.2-2.7-2.7v-70.2c0-1.5,1.2-2.7,2.7-2.7c1.5,0,2.7,1.2,2.7,2.7v70.2
				C986.4,468.3,985.2,469.5,983.7,469.5z"/>
		</g>
		<g>
			<path d="M999.7,415.4h-70.2c-1.5,0-2.7-1.2-2.7-2.7s1.2-2.7,2.7-2.7h70.2c1.5,0,2.7,1.2,2.7,2.7S1001.2,415.4,999.7,415.4z"/>
		</g>
		<g>
			<path d="M999.7,453.5h-70.2c-1.5,0-2.7-1.2-2.7-2.7s1.2-2.7,2.7-2.7h70.2c1.5,0,2.7,1.2,2.7,2.7S1001.2,453.5,999.7,453.5z"/>
		</g>
	</g>
	<g>
		<g>
			<g>
				<path fill="#231F20" d="M923.6,855.8H784c-1.5,0-2.7-1.2-2.7-2.7v-61c0-16.6,13.5-30.1,30.1-30.1h24.5c0.5,0,1,0.2,1.5,0.5
					l16.4,11l16.4-11c0.4-0.3,1-0.5,1.5-0.5h24.5c16.6,0,30.1,13.5,30.1,30.1v61C926.3,854.6,925.1,855.8,923.6,855.8z M786.6,850.4
					h134.3v-58.4c0-13.6-11.1-24.7-24.7-24.7h-23.7l-17.2,11.6c-0.9,0.6-2.1,0.6-3,0l-17.2-11.6h-23.7c-13.6,0-24.7,11.1-24.7,24.7
					V850.4z"/>
			</g>
			<g>
				<path fill="#231F20" d="M866.3,755.5h-25.1c-9.9,0-17.9-8-17.9-17.9v-27.5c0-9.9,8-17.9,17.9-17.9h25.1c9.9,0,17.9,8,17.9,17.9
					v27.5C884.3,747.5,876.2,755.5,866.3,755.5z M841.2,697.6c-6.9,0-12.6,5.6-12.6,12.6v27.5c0,6.9,5.6,12.6,12.6,12.6h25.1
					c6.9,0,12.6-5.6,12.6-12.6v-27.5c0-6.9-5.6-12.6-12.6-12.6H841.2z"/>
			</g>
			<g>
				<path fill="#231F20" d="M811.2,855.8c-1.5,0-2.7-1.2-2.7-2.7v-49.5c0-1.5,1.2-2.7,2.7-2.7s2.7,1.2,2.7,2.7v49.5
					C813.9,854.6,812.7,855.8,811.2,855.8z"/>
			</g>
			<g>
				<path fill="#231F20" d="M896.8,855.8c-1.5,0-2.7-1.2-2.7-2.7v-49.5c0-1.5,1.2-2.7,2.7-2.7s2.7,1.2,2.7,2.7v49.5
					C899.5,854.6,898.3,855.8,896.8,855.8z"/>
			</g>
			<g>
				<path fill="#231F20" d="M836.5,697.6c-0.7,0-1.4-0.3-1.9-0.8c-1-1-1-2.7,0-3.8l13.5-13.5c1-1,2.7-1,3.8,0s1,2.7,0,3.8
					l-13.5,13.5C837.9,697.3,837.2,697.6,836.5,697.6z"/>
			</g>
			<g>
				<path fill="#231F20" d="M857.6,697.6c-0.7,0-1.4-0.3-1.9-0.8c-1-1-1-2.7,0-3.8l13.5-13.5c1-1,2.7-1,3.8,0s1,2.7,0,3.8
					l-13.5,13.5C859,697.3,858.3,697.6,857.6,697.6z"/>
			</g>
		</g>
		<g>
			<path d="M1116.3,901.5H749.1c-1.5,0-2.7-1.2-2.7-2.7V642.1c0-1.5,1.2-2.7,2.7-2.7h367.2c1.5,0,2.7,1.2,2.7,2.7v256.7
				C1119,900.3,1117.8,901.5,1116.3,901.5z M751.8,896.2h361.8V644.8H751.8V896.2z"/>
		</g>
		<g>
			<path fill="#FFFFFF" d="M981.3,612.7h-97.1c-5.1,0-9.3,4.2-9.3,9.3v24.5v12.9h115.7v-12.9V622
				C990.6,616.8,986.5,612.7,981.3,612.7z"/>
			<path d="M990.6,662.1H874.9c-1.5,0-2.7-1.2-2.7-2.7V622c0-6.6,5.4-12,12-12h97.1c6.6,0,12,5.4,12,12v37.4
				C993.3,660.9,992.1,662.1,990.6,662.1z M877.5,656.7h110.4V622c0-3.7-3-6.6-6.6-6.6h-97.1c-3.7,0-6.6,3-6.6,6.6V656.7z"/>
		</g>
		<g>
			<rect x="951" y="704.3" fill="#00D3FB" width="130.4" height="27.3"/>
		</g>
		<g>
			<rect x="951" y="766" fill="#00D3FB" width="130.4" height="27.3"/>
		</g>
		<g>
			<rect x="951" y="827.7" fill="#00D3FB" width="130.4" height="27.3"/>
		</g>
		<g>
			<path fill="#FFFFFF" d="M922.6,585.8v26.9h20.2v-26.9c5.3-3.4,8.9-9.3,8.9-16.1c0-10.5-8.5-19-19-19c-10.5,0-19,8.5-19,19
				C913.7,576.5,917.3,582.4,922.6,585.8z"/>
			<path d="M942.8,615.3h-20.2c-1.5,0-2.7-1.2-2.7-2.7v-25.5c-5.6-4.1-8.9-10.5-8.9-17.5c0-12,9.7-21.7,21.7-21.7
				c12,0,21.7,9.7,21.7,21.7c0,7-3.3,13.4-8.9,17.5v25.5C945.5,614.1,944.3,615.3,942.8,615.3z M925.3,610h14.8v-24.2
				c0-0.9,0.5-1.8,1.2-2.3c4.8-3,7.7-8.2,7.7-13.8c0-9-7.3-16.3-16.3-16.3s-16.3,7.3-16.3,16.3c0,5.6,2.9,10.8,7.7,13.8
				c0.8,0.5,1.3,1.3,1.3,2.3V610z"/>
		</g>
		<g>
			<path d="M1094.8,707H937.6c-1.5,0-2.7-1.2-2.7-2.7c0-1.5,1.2-2.7,2.7-2.7h157.3c1.5,0,2.7,1.2,2.7,2.7
				C1097.5,705.8,1096.3,707,1094.8,707z"/>
		</g>
		<g>
			<path d="M1094.8,768.7H937.6c-1.5,0-2.7-1.2-2.7-2.7c0-1.5,1.2-2.7,2.7-2.7h157.3c1.5,0,2.7,1.2,2.7,2.7
				C1097.5,767.5,1096.3,768.7,1094.8,768.7z"/>
		</g>
		<g>
			<path d="M1094.8,830.4H937.6c-1.5,0-2.7-1.2-2.7-2.7c0-1.5,1.2-2.7,2.7-2.7h157.3c1.5,0,2.7,1.2,2.7,2.7
				C1097.5,829.2,1096.3,830.4,1094.8,830.4z"/>
		</g>
	</g>
	<g>
		<path fill="#231F20" d="M1320.2,815.4c-1.5,0-2.7-1.2-2.7-2.7V495.4c0-1.5,1.2-2.7,2.7-2.7s2.7,1.2,2.7,2.7v317.4
			C1322.9,814.2,1321.7,815.4,1320.2,815.4z"/>
	</g>
	<g>
		<path d="M485.2,878.7h-59.5c-1.5,0-2.7-1.2-2.7-2.7s1.2-2.7,2.7-2.7h59.5c1.5,0,2.7,1.2,2.7,2.7S486.7,878.7,485.2,878.7z"/>
	</g>
	<g>
		<path d="M574.4,878.7h-59.5c-1.5,0-2.7-1.2-2.7-2.7s1.2-2.7,2.7-2.7h59.5c1.5,0,2.7,1.2,2.7,2.7S575.9,878.7,574.4,878.7z"/>
	</g>
	<g>
		<path d="M663.6,878.7h-59.5c-1.5,0-2.7-1.2-2.7-2.7s1.2-2.7,2.7-2.7h59.5c1.5,0,2.7,1.2,2.7,2.7S665,878.7,663.6,878.7z"/>
	</g>
	<g>
		<g>
			<path fill="#FFFFFF" d="M1335.8,779.7c0,49.9-40.4,90.3-90.3,90.3c-49.9,0-90.3-40.4-90.3-90.3c0-49.9,40.4-90.3,90.3-90.3
				C1295.4,689.4,1335.8,729.8,1335.8,779.7z"/>
			<path d="M1245.5,872.7c-51.3,0-93-41.7-93-93s41.7-93,93-93s93,41.7,93,93S1296.8,872.7,1245.5,872.7z M1245.5,692
				c-48.3,0-87.6,39.3-87.6,87.6c0,48.3,39.3,87.6,87.6,87.6c48.3,0,87.6-39.3,87.6-87.6C1333.1,731.3,1293.8,692,1245.5,692z"/>
		</g>
		<g>
			<line fill="#FFFFFF" x1="1292" y1="733.2" x2="1199" y2="826.2"/>
			<path d="M1199,828.9c-0.7,0-1.4-0.3-1.9-0.8c-1-1-1-2.7,0-3.8l93-93c1-1,2.7-1,3.8,0s1,2.7,0,3.8l-93,93
				C1200.4,828.6,1199.7,828.9,1199,828.9z"/>
		</g>
		<g>
			<path fill="#FFFFFF" d="M1227.3,761.5c-7.8,7.8-20.3,7.8-28.1,0c-7.8-7.8-7.8-20.3,0-28.1c7.8-7.8,20.3-7.8,28.1,0
				C1235.1,741.1,1235.1,753.7,1227.3,761.5z"/>
			<path d="M1213.3,770c-6,0-11.7-2.4-15.9-6.6c-4.3-4.3-6.6-9.9-6.6-15.9c0-6,2.3-11.7,6.6-15.9c4.3-4.3,9.9-6.6,15.9-6.6l0,0
				c6,0,11.7,2.3,15.9,6.6c4.3,4.3,6.6,9.9,6.6,15.9c0,6-2.4,11.7-6.6,15.9C1224.9,767.6,1219.3,770,1213.3,770z M1213.3,730.2
				c-4.6,0-8.9,1.8-12.2,5c-3.2,3.2-5,7.6-5,12.1s1.8,8.9,5,12.2c6.5,6.5,17.8,6.5,24.3,0c3.2-3.2,5-7.6,5-12.2s-1.8-8.9-5-12.1
				C1222.2,732,1217.9,730.2,1213.3,730.2z"/>
		</g>
		<g>
			<path fill="#FFFFFF" d="M1291.8,826c-7.8,7.8-20.3,7.8-28.1,0c-7.8-7.8-7.8-20.3,0-28.1c7.8-7.8,20.3-7.8,28.1,0
				C1299.5,805.6,1299.5,818.2,1291.8,826z"/>
			<path d="M1277.7,834.5c-6,0-11.7-2.3-15.9-6.6c-8.8-8.8-8.8-23.1,0-31.9c4.3-4.3,9.9-6.6,15.9-6.6c6,0,11.7,2.3,15.9,6.6
				c8.8,8.8,8.8,23.1,0,31.9C1289.4,832.1,1283.8,834.5,1277.7,834.5z M1277.7,794.7c-4.6,0-8.9,1.8-12.2,5
				c-6.7,6.7-6.7,17.6,0,24.3c6.5,6.5,17.8,6.5,24.3,0c6.7-6.7,6.7-17.6,0-24.3C1286.7,796.5,1282.3,794.7,1277.7,794.7z"/>
		</g>
	</g>
	<g>
		<polygon fill="#FF8F81" points="1191.7,625.6 1320.2,625.6 1320.2,523.5 1191.7,523.5 1139.7,574.5 		"/>
		<path d="M1320.2,628.2h-128.5c-0.7,0-1.4-0.3-1.9-0.8l-52-51c-0.5-0.5-0.8-1.2-0.8-1.9c0-0.7,0.3-1.4,0.8-1.9l52-51
			c0.5-0.5,1.2-0.8,1.9-0.8h128.5c1.5,0,2.7,1.2,2.7,2.7v102.1C1322.9,627,1321.7,628.2,1320.2,628.2z M1192.8,622.9h124.8v-96.7
			h-124.8l-49.2,48.4L1192.8,622.9z"/>
	</g>
	<g>
		<path d="M1320.2,556.2h-112.9c-1.5,0-2.7-1.2-2.7-2.7s1.2-2.7,2.7-2.7h112.9c1.5,0,2.7,1.2,2.7,2.7S1321.7,556.2,1320.2,556.2z"/>
	</g>
	<g>
		<path d="M1320.2,598.1H1230c-1.5,0-2.7-1.2-2.7-2.7s1.2-2.7,2.7-2.7h90.2c1.5,0,2.7,1.2,2.7,2.7S1321.7,598.1,1320.2,598.1z"/>
	</g>
</g>
</svg>
