<?xml version="1.0" encoding="utf-8"?>
<!-- Generator: Adobe Illustrator 16.0.0, SVG Export Plug-In . SVG Version: 6.00 Build 0)  -->
<!DOCTYPE svg PUBLIC "-//W3C//DTD SVG 1.1//EN" "http://www.w3.org/Graphics/SVG/1.1/DTD/svg11.dtd">
<svg version="1.1" id="Layer_1" xmlns="http://www.w3.org/2000/svg" xmlns:xlink="http://www.w3.org/1999/xlink" x="0px" y="0px"
	 width="1400px" height="980px" viewBox="0 0 1400 980" enable-background="new 0 0 1400 980" xml:space="preserve">
<g>
	<g>
		<rect fill="#FFFFFF" width="1399.993" height="980"/>
	</g>
</g>
<g>
	<circle fill="#7EC56F" cx="699.995" cy="490" r="338.589"/>
	<path d="M699.996,829.852c-187.394,0-339.852-152.457-339.852-339.852c0-187.394,152.458-339.852,339.852-339.852
		c187.396,0,339.851,152.458,339.851,339.852C1039.847,677.395,887.392,829.852,699.996,829.852z M699.996,152.674
		c-186,0-337.326,151.323-337.326,337.326s151.325,337.325,337.326,337.325c186.002,0,337.326-151.322,337.326-337.325
		S885.998,152.674,699.996,152.674z"/>
</g>
<g>
	<path fill="#FFFCB8" d="M736.871,246.992c0,20.372-16.512,36.875-36.873,36.875c-20.364,0-36.873-16.504-36.873-36.875
		c0-20.359,16.509-36.868,36.873-36.868C720.359,210.124,736.871,226.632,736.871,246.992z"/>
	<path d="M699.998,285.13c-21.028,0-38.136-17.108-38.136-38.139c0-21.025,17.108-38.131,38.136-38.131
		c21.027,0,38.136,17.106,38.136,38.131C738.134,268.022,721.025,285.13,699.998,285.13z M699.998,211.387
		c-19.637,0-35.61,15.974-35.61,35.605c0,19.637,15.974,35.613,35.61,35.613s35.61-15.976,35.61-35.613
		C735.608,227.36,719.635,211.387,699.998,211.387z"/>
</g>
<g>
	<polygon fill="#FFFCB8" points="719.144,297.453 680.852,297.453 699.998,330.611 	"/>
	<path d="M699.998,331.875c-0.452,0-0.868-0.242-1.093-0.631l-19.146-33.159c-0.227-0.39-0.227-0.873,0-1.263
		c0.224-0.39,0.641-0.631,1.092-0.631h38.292c0.451,0,0.868,0.242,1.093,0.631c0.227,0.39,0.227,0.873,0,1.263l-19.146,33.159
		C700.866,331.633,700.449,331.875,699.998,331.875z M683.04,298.716l16.958,29.37l16.958-29.37H683.04z"/>
</g>
<g>
	<polygon fill="#58595B" points="770.345,297.453 719.144,297.453 699.998,330.611 680.852,297.453 629.651,297.453 
		629.651,405.154 663.125,405.154 663.125,347.584 663.125,405.154 736.871,405.154 736.871,347.584 736.871,405.154 
		770.345,405.154 	"/>
	<path d="M770.345,406.417H629.651c-0.698,0-1.263-0.564-1.263-1.263V297.453c0-0.698,0.565-1.263,1.263-1.263h51.201
		c0.452,0,0.869,0.242,1.093,0.631l18.053,31.264l18.053-31.264c0.225-0.39,0.642-0.631,1.093-0.631h51.201
		c0.698,0,1.263,0.565,1.263,1.263v107.701C771.607,405.853,771.043,406.417,770.345,406.417z M738.134,403.892h30.948V298.716
		h-49.211l-18.78,32.527c-0.449,0.779-1.737,0.779-2.186,0l-18.781-32.527h-49.211v105.175h30.948v-56.308
		c0-0.698,0.565-1.263,1.263-1.263c0.698,0,1.263,0.565,1.263,1.263v56.308h71.221v-56.308c0-0.698,0.564-1.263,1.263-1.263
		s1.263,0.565,1.263,1.263V403.892z"/>
</g>
<g>
	<circle fill="#FFFCB8" cx="490.186" cy="528.936" r="29.901"/>
	<path d="M490.185,560.103c-17.185,0-31.163-13.98-31.163-31.167c0-17.183,13.979-31.163,31.163-31.163s31.166,13.98,31.166,31.163
		C521.351,546.122,507.37,560.103,490.185,560.103z M490.185,500.298c-15.791,0-28.637,12.846-28.637,28.638
		c0,15.793,12.846,28.642,28.637,28.642c15.793,0,28.64-12.849,28.64-28.642C518.825,513.144,505.979,500.298,490.185,500.298z"/>
</g>
<g>
	<polygon fill="#FFFCB8" points="505.712,569.855 474.658,569.855 490.185,596.749 	"/>
	<path d="M490.185,598.012c-0.452,0-0.868-0.241-1.093-0.631l-15.53-26.894c-0.224-0.39-0.224-0.873,0-1.263
		c0.227-0.39,0.644-0.632,1.095-0.632h31.054c0.452,0,0.869,0.242,1.095,0.632c0.225,0.39,0.225,0.873,0,1.263l-15.529,26.894
		C491.053,597.771,490.636,598.012,490.185,598.012z M476.846,571.119l13.339,23.104l13.339-23.104H476.846z"/>
</g>
<g>
	<polygon fill="#FF9D74" points="547.235,569.855 505.712,569.855 490.185,596.749 474.658,569.855 433.14,569.855 433.14,657.197 
		460.285,657.197 460.285,610.513 460.285,657.197 520.087,657.197 520.087,610.513 520.087,657.197 547.235,657.197 	"/>
	<path d="M547.235,658.461H433.14c-0.701,0-1.263-0.565-1.263-1.264v-87.342c0-0.697,0.562-1.263,1.263-1.263h41.518
		c0.452,0,0.868,0.242,1.095,0.632l14.432,24.999l14.432-24.999c0.227-0.39,0.644-0.632,1.095-0.632h41.523
		c0.698,0,1.263,0.565,1.263,1.263v87.342C548.498,657.896,547.933,658.461,547.235,658.461z M521.351,655.935h24.621v-84.815
		h-39.529l-15.165,26.262c-0.449,0.779-1.737,0.779-2.186,0l-15.165-26.262h-39.524v84.815h24.619v-45.422
		c0-0.698,0.565-1.263,1.263-1.263c0.698,0,1.263,0.564,1.263,1.263v45.422h57.277v-45.422c0-0.698,0.565-1.263,1.263-1.263
		c0.698,0,1.263,0.564,1.263,1.263V655.935z"/>
</g>
<g>
	<circle fill="#FFFCB8" cx="630.059" cy="528.936" r="29.901"/>
	<path d="M630.06,560.103c-17.185,0-31.165-13.98-31.165-31.167c0-17.183,13.98-31.163,31.165-31.163
		c17.185,0,31.163,13.98,31.163,31.163C661.223,546.122,647.245,560.103,630.06,560.103z M630.06,500.298
		c-15.793,0-28.639,12.846-28.639,28.638c0,15.793,12.846,28.642,28.639,28.642c15.792,0,28.637-12.849,28.637-28.642
		C658.697,513.144,645.852,500.298,630.06,500.298z"/>
</g>
<g>
	<polygon fill="#FFFCB8" points="645.587,569.855 614.533,569.855 630.06,596.749 	"/>
	<path d="M630.06,598.012c-0.451,0-0.868-0.241-1.092-0.631l-15.53-26.894c-0.225-0.39-0.225-0.873,0-1.263
		c0.227-0.39,0.644-0.632,1.095-0.632h31.054c0.452,0,0.868,0.242,1.095,0.632c0.225,0.39,0.225,0.873,0,1.263l-15.53,26.894
		C630.929,597.771,630.512,598.012,630.06,598.012z M616.721,571.119l13.339,23.104l13.339-23.104H616.721z"/>
</g>
<g>
	<polygon fill="#FF9D74" points="687.107,569.855 645.587,569.855 630.06,596.749 614.533,569.855 573.013,569.855 573.013,657.197 
		600.158,657.197 600.158,610.513 600.158,657.197 659.96,657.197 659.96,610.513 659.96,657.197 687.107,657.197 	"/>
	<path d="M687.107,658.461H573.013c-0.698,0-1.263-0.565-1.263-1.264v-87.342c0-0.697,0.565-1.263,1.263-1.263h41.52
		c0.451,0,0.868,0.242,1.095,0.632l14.432,24.999l14.432-24.999c0.227-0.39,0.644-0.632,1.095-0.632h41.52
		c0.698,0,1.263,0.565,1.263,1.263v87.342C688.371,657.896,687.806,658.461,687.107,658.461z M661.223,655.935h24.622v-84.815
		h-39.527l-15.165,26.262c-0.449,0.779-1.736,0.779-2.185,0l-15.165-26.262h-39.527v84.815h24.619v-45.422
		c0-0.698,0.565-1.263,1.263-1.263c0.698,0,1.263,0.564,1.263,1.263v45.422h57.276v-45.422c0-0.698,0.565-1.263,1.263-1.263
		c0.698,0,1.263,0.564,1.263,1.263V655.935z"/>
</g>
<g>
	<path fill="#FFFCB8" d="M799.836,528.936c0,16.516-13.392,29.904-29.903,29.904c-16.511,0-29.902-13.389-29.902-29.904
		c0-16.515,13.392-29.9,29.902-29.9C786.444,499.035,799.836,512.421,799.836,528.936z"/>
	<path d="M769.933,560.103c-17.185,0-31.165-13.98-31.165-31.167c0-17.183,13.98-31.163,31.165-31.163
		c17.186,0,31.166,13.98,31.166,31.163C801.099,546.122,787.118,560.103,769.933,560.103z M769.933,500.298
		c-15.791,0-28.639,12.846-28.639,28.638c0,15.793,12.848,28.642,28.639,28.642c15.792,0,28.64-12.849,28.64-28.642
		C798.572,513.144,785.725,500.298,769.933,500.298z"/>
</g>
<g>
	<polygon fill="#FFFCB8" points="785.46,569.855 754.408,569.855 769.933,596.749 	"/>
	<path d="M769.933,598.012c-0.451,0-0.868-0.241-1.095-0.631l-15.524-26.894c-0.228-0.39-0.228-0.873,0-1.263
		c0.227-0.39,0.641-0.632,1.095-0.632h31.052c0.452,0,0.868,0.242,1.093,0.632c0.228,0.39,0.228,0.873,0,1.263l-15.524,26.894
		C770.801,597.771,770.385,598.012,769.933,598.012z M756.594,571.119l13.339,23.104l13.34-23.104H756.594z"/>
</g>
<g>
	<polygon fill="#FF9D74" points="826.98,569.855 785.46,569.855 769.933,596.749 754.408,569.855 712.884,569.855 712.884,657.197 
		740.03,657.197 740.03,610.513 740.03,657.197 799.836,657.197 799.836,610.513 799.836,657.197 826.98,657.197 	"/>
	<path d="M826.98,658.461H712.884c-0.698,0-1.264-0.565-1.264-1.264v-87.342c0-0.697,0.565-1.263,1.264-1.263h41.524
		c0.449,0,0.868,0.242,1.093,0.632l14.432,24.999l14.435-24.999c0.225-0.39,0.642-0.632,1.093-0.632h41.521
		c0.698,0,1.263,0.565,1.263,1.263v87.342C828.243,657.896,827.679,658.461,826.98,658.461z M801.099,655.935h24.619v-84.815h-39.53
		l-15.159,26.262c-0.454,0.779-1.736,0.779-2.19,0l-15.16-26.262h-39.531v84.815h24.621v-45.422c0-0.698,0.565-1.263,1.263-1.263
		c0.698,0,1.264,0.564,1.264,1.263v45.422h57.278v-45.422c0-0.698,0.565-1.263,1.264-1.263c0.697,0,1.263,0.564,1.263,1.263V655.935
		z"/>
</g>
<g>
	<path fill="#FFFCB8" d="M939.708,528.936c0,16.516-13.389,29.904-29.899,29.904c-16.514,0-29.902-13.389-29.902-29.904
		c0-16.515,13.389-29.9,29.902-29.9C926.319,499.035,939.708,512.421,939.708,528.936z"/>
	<path d="M909.809,560.103c-17.185,0-31.166-13.98-31.166-31.167c0-17.183,13.981-31.163,31.166-31.163
		c17.182,0,31.162,13.98,31.162,31.163C940.971,546.122,926.99,560.103,909.809,560.103z M909.809,500.298
		c-15.791,0-28.64,12.846-28.64,28.638c0,15.793,12.849,28.642,28.64,28.642s28.637-12.849,28.637-28.642
		C938.445,513.144,925.6,500.298,909.809,500.298z"/>
</g>
<g>
	<polygon fill="#FFFCB8" points="925.333,569.855 894.278,569.855 909.809,596.749 	"/>
	<path d="M909.809,598.012c-0.454,0-0.868-0.241-1.096-0.631l-15.529-26.894c-0.225-0.39-0.225-0.873,0-1.263
		c0.227-0.39,0.644-0.632,1.095-0.632h31.055c0.451,0,0.868,0.242,1.095,0.632c0.225,0.39,0.225,0.873,0,1.263l-15.526,26.894
		C910.677,597.771,910.257,598.012,909.809,598.012z M896.467,571.119l13.342,23.104l13.337-23.104H896.467z"/>
</g>
<g>
	<polygon fill="#FF9D74" points="966.855,569.855 925.333,569.855 909.809,596.749 894.278,569.855 852.759,569.855 
		852.759,657.197 879.906,657.197 879.906,610.513 879.906,657.197 939.708,657.197 939.708,610.513 939.708,657.197 
		966.855,657.197 	"/>
	<path d="M966.855,658.461H852.759c-0.698,0-1.263-0.565-1.263-1.264v-87.342c0-0.697,0.564-1.263,1.263-1.263h41.52
		c0.452,0,0.868,0.242,1.096,0.632l14.435,24.999l14.43-24.999c0.227-0.39,0.644-0.632,1.095-0.632h41.522
		c0.698,0,1.263,0.565,1.263,1.263v87.342C968.118,657.896,967.554,658.461,966.855,658.461z M940.971,655.935h24.622v-84.815
		h-39.529l-15.162,26.262c-0.452,0.779-1.737,0.779-2.188,0l-15.164-26.262h-39.527v84.815h24.621v-45.422
		c0-0.698,0.565-1.263,1.264-1.263c0.697,0,1.263,0.564,1.263,1.263v45.422h57.276v-45.422c0-0.698,0.564-1.263,1.263-1.263
		s1.263,0.564,1.263,1.263V655.935z"/>
</g>
<g>
	<path fill="#C9B162" d="M821.006,430.787c0,14.156-11.472,25.63-25.625,25.63H604.615c-14.153,0-25.63-11.475-25.63-25.63l0,0
		c0-14.153,11.478-25.633,25.63-25.633h190.766C809.534,405.154,821.006,416.634,821.006,430.787L821.006,430.787z"/>
	<path d="M795.381,457.68H604.615c-14.827,0-26.893-12.064-26.893-26.893s12.066-26.896,26.893-26.896h190.766
		c14.826,0,26.889,12.066,26.889,26.896S810.207,457.68,795.381,457.68z M604.615,406.417c-13.435,0-24.367,10.932-24.367,24.37
		c0,13.436,10.932,24.367,24.367,24.367h190.766c13.436,0,24.362-10.932,24.362-24.367c0-13.438-10.927-24.37-24.362-24.37H604.615z
		"/>
</g>
<g>
	<g>
		<path fill="#FFFFFF" d="M611.43,252.623c3.969,0,8.135-0.471,12.373-1.396l5.848-1.28l-3.959-4.487
			c-6.317-7.163-9.681-18.425-11.383-26.609l-0.04-0.183l0.111-0.158c7.326-9.886,11.198-21.435,11.198-33.393
			c0-33.008-29.56-59.859-65.888-59.859c-36.328,0-65.885,26.851-65.885,59.859c0,33.003,29.557,59.857,65.885,59.857
			c8.292,0,16.393-1.384,24.066-4.122l0.279-0.096l0.19,0.229C590.646,248.704,599.803,252.623,611.43,252.623z"/>
		<path d="M611.43,253.886c-11.795,0-21.146-3.919-27.798-11.649c-7.632,2.654-15.688,4-23.941,4
			c-37.026,0-67.148-27.418-67.148-61.12c0-33.703,30.122-61.122,67.148-61.122s67.15,27.418,67.15,61.122
			c0,12.109-3.877,23.8-11.22,33.839c1.741,8.157,5.012,18.857,11.018,25.667l3.959,4.486c0.296,0.335,0.392,0.804,0.254,1.229
			c-0.141,0.427-0.493,0.745-0.932,0.841l-5.846,1.28C619.74,253.407,615.485,253.886,611.43,253.886z M584.036,239.493
			c0.37,0,0.728,0.163,0.972,0.457l0.192,0.229c6.172,7.419,14.997,11.181,26.23,11.181c3.875,0,7.947-0.458,12.104-1.366
			l3.751-0.821l-2.541-2.876c-6.509-7.383-9.94-18.86-11.672-27.189c-0.071-0.34-0.04-0.88,0.163-1.164
			c7.291-9.852,11.08-21.139,11.08-32.826c0-32.31-28.992-58.596-64.625-58.596s-64.622,26.287-64.622,58.596
			c0,32.31,28.99,58.594,64.622,58.594c8.16,0,16.112-1.362,23.642-4.048l0.291-0.101
			C583.76,239.516,583.898,239.493,584.036,239.493z"/>
	</g>
	<g>
		<path fill="#FF9D74" d="M585.077,188.945c0,5.424,4.4,9.827,9.837,9.827c5.426,0,9.827-4.403,9.827-9.827
			c0-5.438-4.4-9.839-9.827-9.839C589.478,179.106,585.077,183.507,585.077,188.945z"/>
		<path d="M594.914,200.035c-6.12,0-11.1-4.975-11.1-11.09c0-6.122,4.98-11.102,11.1-11.102c6.117,0,11.089,4.98,11.089,11.102
			C606.003,195.06,601.031,200.035,594.914,200.035z M594.914,180.369c-4.726,0-8.574,3.848-8.574,8.576
			c0,4.721,3.848,8.564,8.574,8.564c4.723,0,8.564-3.843,8.564-8.564C603.478,184.217,599.637,180.369,594.914,180.369z"/>
	</g>
	<g>
		<path fill="#FF9D74" d="M550.658,188.945c0,5.424,4.393,9.827,9.825,9.827c5.436,0,9.841-4.403,9.841-9.827
			c0-5.438-4.405-9.839-9.841-9.839C555.051,179.106,550.658,183.507,550.658,188.945z"/>
		<path d="M560.483,200.035c-6.115,0-11.087-4.975-11.087-11.09c0-6.122,4.973-11.102,11.087-11.102
			c6.125,0,11.104,4.98,11.104,11.102C571.587,195.06,566.607,200.035,560.483,200.035z M560.483,180.369
			c-4.721,0-8.562,3.848-8.562,8.576c0,4.721,3.84,8.564,8.562,8.564c4.731,0,8.579-3.843,8.579-8.564
			C569.062,184.217,565.214,180.369,560.483,180.369z"/>
	</g>
	<g>
		<path fill="#FF9D74" d="M516.225,188.945c0,5.424,4.403,9.827,9.842,9.827c5.429,0,9.832-4.403,9.832-9.827
			c0-5.438-4.403-9.839-9.832-9.839C520.627,179.106,516.225,183.507,516.225,188.945z"/>
		<path d="M526.066,200.035c-6.122,0-11.104-4.975-11.104-11.09c0-6.122,4.982-11.102,11.104-11.102
			c6.117,0,11.095,4.98,11.095,11.102C537.161,195.06,532.184,200.035,526.066,200.035z M526.066,180.369
			c-4.731,0-8.579,3.848-8.579,8.576c0,4.721,3.848,8.564,8.579,8.564c4.726,0,8.569-3.843,8.569-8.564
			C534.635,184.217,530.792,180.369,526.066,180.369z"/>
	</g>
</g>
<g>
	<path d="M843.4,492.163c-5.335,0-9.679-4.341-9.679-9.679c0-5.338,4.344-9.679,9.679-9.679s9.679,4.341,9.679,9.679
		C853.079,487.822,848.735,492.163,843.4,492.163z M843.4,475.331c-3.944,0-7.153,3.209-7.153,7.153
		c0,3.944,3.209,7.153,7.153,7.153s7.153-3.209,7.153-7.153C850.554,478.54,847.345,475.331,843.4,475.331z"/>
</g>
<g>
	<g>
		<path d="M566.292,491.263c-0.326,0-0.646-0.123-0.893-0.37l-15.034-15.034c-0.493-0.493-0.493-1.292,0-1.786s1.292-0.493,1.786,0
			l15.034,15.034c0.493,0.494,0.493,1.292,0,1.786C566.938,491.14,566.612,491.263,566.292,491.263z"/>
	</g>
	<g>
		<path d="M551.255,491.263c-0.321,0-0.646-0.123-0.893-0.37c-0.493-0.494-0.493-1.292,0-1.786l15.036-15.034
			c0.494-0.493,1.293-0.493,1.786,0s0.493,1.292,0,1.786l-15.037,15.034C551.901,491.14,551.581,491.263,551.255,491.263z"/>
	</g>
</g>
<g>
	<rect x="520.087" y="698.97" fill="#6DAB60" width="31.168" height="31.167"/>
</g>
<g>
	<rect x="577.643" y="698.97" fill="#6DAB60" width="31.17" height="31.167"/>
</g>
<g>
	<rect x="635.201" y="698.97" fill="#6DAB60" width="31.167" height="31.167"/>
</g>
<g>
	<rect x="692.756" y="698.97" fill="#6DAB60" width="31.17" height="31.167"/>
</g>
<g>
	<rect x="692.756" y="754.537" fill="#6DAB60" width="31.17" height="31.167"/>
</g>
<g>
	<rect x="864.319" y="344.052" fill="#6DAB60" width="31.173" height="31.168"/>
</g>
<g>
	<rect x="918.624" y="344.052" fill="#6DAB60" width="31.173" height="31.168"/>
</g>
<g>
	<rect x="864.319" y="399.619" fill="#6DAB60" width="31.173" height="31.168"/>
</g>
<g>
	<rect x="510.478" y="399.619" fill="#6DAB60" width="31.168" height="31.168"/>
</g>
<g>
	<rect x="750.313" y="698.97" fill="#6DAB60" width="31.168" height="31.167"/>
</g>
<g>
	<path d="M586.532,298.716h-71.931c-0.698,0-1.263-0.565-1.263-1.263c0-0.698,0.565-1.263,1.263-1.263h71.931
		c0.701,0,1.263,0.565,1.263,1.263C587.795,298.151,587.233,298.716,586.532,298.716z"/>
</g>
<g>
	<path d="M879.365,298.716h-71.93c-0.701,0-1.264-0.565-1.264-1.263c0-0.698,0.563-1.263,1.264-1.263h71.93
		c0.698,0,1.264,0.565,1.264,1.263C880.629,298.151,880.063,298.716,879.365,298.716z"/>
</g>
<g>
	<path d="M926.135,298.716h-27.147c-0.698,0-1.263-0.565-1.263-1.263c0-0.698,0.564-1.263,1.263-1.263h27.147
		c0.698,0,1.263,0.565,1.263,1.263C927.397,298.151,926.833,298.716,926.135,298.716z"/>
</g>
<g>
	<path d="M586.532,322.837H474.658c-0.698,0-1.263-0.565-1.263-1.263c0-0.698,0.565-1.263,1.263-1.263h111.875
		c0.701,0,1.263,0.565,1.263,1.263C587.795,322.272,587.233,322.837,586.532,322.837z"/>
</g>
<g>
	<path d="M915.989,678.341H781.481c-0.698,0-1.263-0.564-1.263-1.263s0.564-1.263,1.263-1.263h134.508
		c0.698,0,1.264,0.564,1.264,1.263S916.688,678.341,915.989,678.341z"/>
</g>
<g>
	<path d="M751.251,678.341h-46.065c-0.701,0-1.264-0.564-1.264-1.263s0.563-1.263,1.264-1.263h46.065
		c0.695,0,1.263,0.564,1.263,1.263S751.946,678.341,751.251,678.341z"/>
</g>
<g>
	<path d="M677.303,678.341h-22.732c-0.698,0-1.263-0.564-1.263-1.263s0.565-1.263,1.263-1.263h22.732
		c0.698,0,1.263,0.564,1.263,1.263S678.001,678.341,677.303,678.341z"/>
</g>
<g>
	<path d="M843.4,536.266c-0.698,0-1.263-0.564-1.263-1.263v-27.784c0-0.697,0.564-1.263,1.263-1.263s1.263,0.565,1.263,1.263v27.784
		C844.663,535.701,844.099,536.266,843.4,536.266z"/>
</g>
<g>
	<path d="M843.4,457.68c-0.698,0-1.263-0.565-1.263-1.263v-25.63c0-0.698,0.564-1.263,1.263-1.263s1.263,0.564,1.263,1.263v25.63
		C844.663,457.115,844.099,457.68,843.4,457.68z"/>
</g>
<g>
	<path d="M535.671,483.747h-25.194c-0.7,0-1.263-0.565-1.263-1.263c0-0.698,0.563-1.263,1.263-1.263h25.194
		c0.698,0,1.263,0.565,1.263,1.263C536.934,483.182,536.369,483.747,535.671,483.747z"/>
</g>
<g>
	<path d="M689.384,483.747h-43.797c-0.698,0-1.263-0.565-1.263-1.263c0-0.698,0.565-1.263,1.263-1.263h43.797
		c0.7,0,1.263,0.565,1.263,1.263C690.647,483.182,690.084,483.747,689.384,483.747z"/>
</g>
<g>
	<path d="M712.884,483.747h-12.597c-0.698,0-1.263-0.565-1.263-1.263c0-0.698,0.565-1.263,1.263-1.263h12.597
		c0.697,0,1.263,0.565,1.263,1.263C714.146,483.182,713.581,483.747,712.884,483.747z"/>
</g>
<g>
	<path d="M558.773,533.108c-0.698,0-1.263-0.564-1.263-1.263v-24.627c0-0.697,0.564-1.263,1.263-1.263s1.263,0.565,1.263,1.263
		v24.627C560.036,532.544,559.472,533.108,558.773,533.108z"/>
</g>
<g>
	<path d="M1229.441,151.157c-10.365,0-18.798-8.433-18.798-18.8c0-10.364,8.433-18.795,18.798-18.795
		c10.361,0,18.795,8.431,18.795,18.795C1248.236,142.724,1239.803,151.157,1229.441,151.157z M1229.441,116.087
		c-8.972,0-16.272,7.299-16.272,16.27c0,8.974,7.301,16.275,16.272,16.275c8.971,0,16.27-7.301,16.27-16.275
		C1245.711,123.386,1238.412,116.087,1229.441,116.087z"/>
</g>
<g>
	<path d="M1229.441,173.386c-0.451,0-0.868-0.242-1.093-0.631l-9.106-15.769c-0.225-0.39-0.225-0.873,0-1.263
		c0.227-0.39,0.644-0.631,1.095-0.631h18.208c0.452,0,0.868,0.242,1.096,0.631c0.225,0.39,0.225,0.873,0,1.263l-9.106,15.769
		C1230.31,173.145,1229.893,173.386,1229.441,173.386z M1222.524,157.617l6.917,11.98l6.916-11.98H1222.524z"/>
</g>
<g>
	<path d="M1262.893,208.829h-66.903c-0.698,0-1.263-0.565-1.263-1.263v-51.211c0-0.698,0.564-1.263,1.263-1.263h24.348
		c0.451,0,0.868,0.242,1.095,0.631l8.01,13.875l8.009-13.875c0.227-0.39,0.644-0.631,1.095-0.631h24.348
		c0.698,0,1.264,0.564,1.264,1.263v51.211C1264.156,208.264,1263.591,208.829,1262.893,208.829z M1248.236,206.303h13.394v-48.686
		h-22.354l-8.741,15.138c-0.449,0.779-1.737,0.779-2.186,0l-8.742-15.138h-22.354v48.686h13.392v-26.111
		c0-0.698,0.567-1.263,1.263-1.263c0.7,0,1.263,0.565,1.263,1.263v26.111h32.542v-26.111c0-0.698,0.564-1.263,1.263-1.263
		s1.263,0.565,1.263,1.263V206.303z"/>
</g>
<g>
	<path d="M1290.174,275.765h-45.633c-0.451,0-0.867-0.242-1.092-0.632c-0.228-0.39-0.228-0.873,0-1.263l32.243-55.851
		c0.231-0.402,0.725-0.606,1.124-0.631c0.464,0.012,0.884,0.276,1.093,0.688c8.977,17.589,13.527,36.574,13.527,56.425
		C1291.437,275.2,1290.871,275.765,1290.174,275.765z M1246.729,273.239h42.174c-0.181-18.208-4.282-35.657-12.2-51.922
		L1246.729,273.239z"/>
</g>
<g>
	<path d="M1252.691,364.202c-0.249,0-0.501-0.074-0.721-0.227c-11.64-8.083-24.353-14.459-37.79-18.946
		c-0.351-0.119-0.632-0.382-0.77-0.725c-0.141-0.343-0.124-0.73,0.049-1.058c7.126-13.67,12.062-28.316,14.667-43.536
		c0.086-0.515,0.482-0.922,0.991-1.026l14.331-24.814c0.225-0.39,0.641-0.631,1.092-0.631h45.633c0.697,0,1.263,0.565,1.263,1.263
		c0,33.955-13.448,65.686-37.864,89.345C1253.327,364.081,1253.01,364.202,1252.691,364.202z M1216.376,343.105
		c12.821,4.42,24.981,10.54,36.175,18.203c23.156-22.803,36.026-53.101,36.353-85.543h-43.634l-14.559,25.216
		c-0.081,0.138-0.188,0.259-0.306,0.355C1227.791,315.901,1223.075,329.938,1216.376,343.105z"/>
</g>
<g>
	<path d="M1081.283,364.202c-0.318,0-0.637-0.121-0.881-0.355c-24.417-23.667-37.864-55.395-37.864-89.345
		c0-0.698,0.564-1.263,1.263-1.263h58.628c0.701,0,1.264,0.565,1.264,1.263c0,24.197,5.658,47.327,16.814,68.744
		c0.17,0.328,0.189,0.715,0.052,1.058c-0.139,0.343-0.42,0.606-0.772,0.725c-13.438,4.487-26.15,10.863-37.783,18.946
		C1081.786,364.127,1081.532,364.202,1081.283,364.202z M1045.071,275.765c0.325,32.438,13.196,62.735,36.353,85.543
		c11.188-7.664,23.346-13.781,36.17-18.203c-10.71-21.04-16.23-43.681-16.423-67.34H1045.071z"/>
</g>
<g>
	<path d="M1102.429,275.765h-58.628c-0.698,0-1.263-0.565-1.263-1.263c0-33.953,13.447-65.685,37.864-89.357
		c0.435-0.419,1.105-0.476,1.604-0.128c11.627,8.09,24.34,14.467,37.78,18.956c0.353,0.118,0.634,0.382,0.772,0.725
		c0.138,0.343,0.118,0.73-0.052,1.058c-11.156,21.408-16.814,44.537-16.814,68.746C1103.692,275.2,1103.13,275.765,1102.429,275.765
		z M1045.071,273.239h56.1c0.192-23.672,5.713-46.313,16.423-67.343c-12.826-4.423-24.981-10.545-36.173-18.213
		C1058.268,210.496,1045.396,240.798,1045.071,273.239z"/>
</g>
<g>
	<path d="M1119.387,345.093c-0.461,0-0.897-0.251-1.119-0.678c-11.347-21.782-17.102-45.304-17.102-69.913
		c0-0.698,0.567-1.263,1.263-1.263h64.556c0.701,0,1.264,0.565,1.264,1.263v61.591c0,0.698-0.563,1.263-1.264,1.263
		c-16.058,0-31.938,2.582-47.198,7.673C1119.656,345.073,1119.52,345.093,1119.387,345.093z M1103.697,275.765
		c0.192,23.383,5.678,45.752,16.318,66.529c14.805-4.822,30.167-7.331,45.706-7.459v-59.07H1103.697z"/>
</g>
<g>
	<path d="M1166.984,275.765h-64.556c-0.695,0-1.263-0.565-1.263-1.263c0-24.621,5.755-48.143,17.102-69.915
		c0.285-0.55,0.93-0.812,1.519-0.614c15.271,5.091,31.151,7.671,47.198,7.671c0.701,0,1.264,0.565,1.264,1.263v61.596
		C1168.248,275.2,1167.686,275.765,1166.984,275.765z M1103.697,273.239h62.024v-59.075c-15.529-0.128-30.896-2.637-45.706-7.457
		C1109.375,227.474,1103.89,249.846,1103.697,273.239z"/>
</g>
<g>
	<path d="M1214.693,275.765h-47.709c-0.695,0-1.263-0.565-1.263-1.263v-61.596c0-0.698,0.567-1.263,1.263-1.263
		c3.813,0,7.77-0.16,11.771-0.474c0.479-0.049,0.947,0.205,1.194,0.626l35.84,62.074c0.224,0.39,0.224,0.873,0,1.263
		C1215.562,275.523,1215.145,275.765,1214.693,275.765z M1168.248,273.239h44.258l-34.348-59.492
		c-3.354,0.247-6.68,0.387-9.91,0.417V273.239z"/>
</g>
<g>
	<path d="M1214.58,345.093c-0.134,0-0.267-0.02-0.399-0.064c-15.256-5.091-31.134-7.673-47.196-7.673
		c-0.695,0-1.263-0.565-1.263-1.263v-61.591c0-0.698,0.567-1.263,1.263-1.263h47.709c0.451,0,0.868,0.242,1.096,0.631l14.676,25.421
		c0.146,0.254,0.199,0.555,0.147,0.843c-2.648,15.478-7.666,30.376-14.913,44.28C1215.478,344.841,1215.039,345.093,1214.58,345.093
		z M1168.248,334.834c15.544,0.128,30.906,2.637,45.705,7.459c6.793-13.263,11.531-27.431,14.095-42.137l-14.085-24.392h-45.715
		V334.834z"/>
</g>
<g>
	<path d="M1119.387,206.434c-0.133,0-0.269-0.02-0.399-0.064c-13.67-4.566-26.597-11.053-38.427-19.281
		c-0.309-0.215-0.506-0.558-0.538-0.935c-0.029-0.375,0.111-0.745,0.38-1.009c20.429-19.792,47.24-32.07,75.495-34.572
		c0.353-0.017,0.71,0.091,0.972,0.333c0.264,0.244,0.407,0.589,0.402,0.947l-0.016,0.597c-0.01,0.276-0.02,0.553-0.02,0.829
		c0,1.934,0.084,3.929,0.247,5.937c0.034,0.409-0.134,0.809-0.446,1.07c-15.145,12.706-27.436,28.003-36.53,45.467
		C1120.285,206.182,1119.848,206.434,1119.387,206.434z M1083.278,185.892c10.986,7.474,22.915,13.436,35.492,17.737
		c9.094-17.172,21.249-32.255,36.146-44.857c-0.136-1.857-0.205-3.703-0.205-5.493c0-0.02,0-0.037,0-0.057
		C1128.062,155.898,1102.804,167.452,1083.278,185.892z"/>
</g>
<g>
	<path d="M1166.984,214.169c-16.318,0-32.468-2.625-47.997-7.799c-0.351-0.119-0.634-0.382-0.772-0.725
		c-0.138-0.343-0.118-0.73,0.053-1.056c9.247-17.762,21.745-33.319,37.146-46.236c0.362-0.303,0.86-0.382,1.3-0.197
		c0.434,0.18,0.732,0.592,0.77,1.061c0.923,11.322,4.578,22.421,10.577,32.103c0.123,0.2,0.188,0.432,0.188,0.666v20.921
		C1168.248,213.604,1167.686,214.169,1166.984,214.169z M1121.2,204.436c14.437,4.655,29.399,7.074,44.521,7.203v-19.296
		c-5.668-9.252-9.279-19.74-10.518-30.495C1141.273,173.914,1129.848,188.225,1121.2,204.436z"/>
</g>
<g>
	<path d="M1166.984,214.169c-0.695,0-1.263-0.565-1.263-1.263v-20.921c0-0.565,0.375-1.058,0.918-1.213
		c0.542-0.168,1.119,0.069,1.418,0.545l0.836,1.337l11.056,19.143c0.217,0.375,0.225,0.836,0.021,1.219
		c-0.199,0.385-0.584,0.639-1.019,0.671C1174.888,214.006,1170.862,214.169,1166.984,214.169z M1168.248,196.584v15.054
		c2.777-0.027,5.626-0.136,8.504-0.326L1168.248,196.584z"/>
</g>
<g>
	<path d="M1229.616,301.612c-0.449,0-0.868-0.239-1.095-0.631l-61.781-107.008c-0.18-0.276-0.387-0.609-0.594-0.945l-0.232-0.375
		c-6.208-10.024-9.994-21.514-10.946-33.23c-0.171-2.077-0.257-4.144-0.257-6.144c0-0.304,0.01-0.607,0.02-0.91l0.015-0.56
		c0.784-40.494,34.37-73.435,74.871-73.435c41.306,0,74.908,33.602,74.908,74.905c0,14.506-4.171,28.593-12.062,40.741
		l-61.752,106.961C1230.484,301.37,1230.067,301.612,1229.616,301.612z M1229.616,80.899c-39.135,0-71.588,31.832-72.345,70.957
		l-0.016,0.594c-0.01,0.276-0.02,0.553-0.02,0.829c0,1.934,0.084,3.932,0.247,5.937c0.923,11.322,4.578,22.421,10.577,32.103
		l0.833,1.334l60.723,105.17l60.692-105.124c7.659-11.793,11.689-25.406,11.689-39.421
		C1301.998,113.369,1269.528,80.899,1229.616,80.899z"/>
</g>
<g>
	<path d="M1167.325,398.943c-0.55,0-1.036-0.357-1.204-0.88c-0.168-0.528,0.027-1.1,0.479-1.416
		c19.617-13.739,35.82-32.206,46.86-53.401c0.286-0.55,0.933-0.814,1.52-0.614c13.665,4.565,26.595,11.048,38.432,19.271
		c0.312,0.214,0.509,0.557,0.54,0.932c0.03,0.377-0.108,0.748-0.379,1.011c-23.258,22.542-53.886,35.006-86.242,35.097
		C1167.327,398.943,1167.325,398.943,1167.325,398.943z M1215.196,345.372c-10.579,19.957-25.675,37.492-43.854,50.97
		c29.695-1.048,57.687-12.755,79.353-33.24C1239.702,355.63,1227.771,349.671,1215.196,345.372z"/>
</g>
<g>
	<path d="M1166.64,398.943c0,0-0.003,0-0.005,0c-32.357-0.091-62.982-12.557-86.232-35.097c-0.271-0.264-0.409-0.634-0.38-1.011
		c0.032-0.375,0.229-0.718,0.54-0.932c11.83-8.224,24.758-14.706,38.425-19.271c0.59-0.195,1.233,0.064,1.52,0.614
		c11.038,21.193,27.243,39.658,46.857,53.401c0.452,0.316,0.646,0.888,0.479,1.416
		C1167.676,398.586,1167.189,398.943,1166.64,398.943z M1083.278,363.099c21.662,20.49,49.643,32.194,79.346,33.242
		c-18.182-13.482-33.274-31.013-43.854-50.97C1106.193,349.673,1094.265,355.63,1083.278,363.099z"/>
</g>
<g>
	<path d="M1166.982,399.183c-0.249,0-0.496-0.074-0.711-0.219c-0.007-0.005-0.162-0.114-0.17-0.119
		c-0.449-0.321-0.735-0.959-0.567-1.482s0.558-0.945,1.105-0.945l0.345,0.002l0.341-0.002c0.558,0,1.051,0.365,1.208,0.9
		c0.163,0.533-0.049,1.11-0.513,1.416l-0.695-0.748v0.195l0.357,0.79C1167.471,399.111,1167.227,399.183,1166.982,399.183z"/>
</g>
<g>
	<path d="M1166.984,398.946c-0.005,0-0.183-0.002-0.188-0.002c-0.254-0.002-0.673-0.081-0.883-0.229
		c-19.945-13.973-36.422-32.751-47.646-54.299c-0.171-0.328-0.19-0.715-0.053-1.058c0.139-0.343,0.422-0.607,0.772-0.725
		c15.52-5.177,31.669-7.802,47.997-7.802c0.701,0,1.264,0.565,1.264,1.263v61.591
		C1168.248,398.381,1167.686,398.946,1166.984,398.946z M1121.2,344.563c10.704,20.051,26.047,37.593,44.521,50.918v-58.12
		C1150.592,337.488,1135.627,339.911,1121.2,344.563z"/>
</g>
<g>
	<path d="M1167.325,398.943c-0.698,0-1.604-0.563-1.604-1.26v-61.591c0-0.698,0.567-1.263,1.263-1.263
		c16.334,0,32.48,2.625,47.995,7.802c0.351,0.118,0.632,0.382,0.77,0.725c0.141,0.343,0.123,0.73-0.05,1.058
		c-11.225,21.553-27.704,40.329-47.649,54.299C1167.838,398.864,1167.584,398.943,1167.325,398.943z M1168.248,337.36v58.115
		c18.475-13.32,33.814-30.862,44.517-50.913C1198.345,339.911,1183.383,337.488,1168.248,337.36z"/>
</g>
<g>
	<g>
		<path d="M1152.939,655.044c-28.686,0-52.025-23.344-52.025-52.037c0-28.687,23.34-52.025,52.025-52.025
			c28.687,0,52.025,23.339,52.025,52.025C1204.965,631.7,1181.626,655.044,1152.939,655.044z M1152.939,553.507
			c-27.295,0-49.499,22.205-49.499,49.5c0,27.3,22.204,49.512,49.499,49.512c27.296,0,49.5-22.212,49.5-49.512
			C1202.439,575.712,1180.235,553.507,1152.939,553.507z"/>
	</g>
	<g>
		<path d="M1152.939,719.402c-0.448,0-0.868-0.241-1.092-0.631l-26.361-45.654c-0.224-0.39-0.224-0.873,0-1.263
			c0.228-0.39,0.645-0.632,1.096-0.632h52.719c0.451,0,0.868,0.242,1.092,0.632c0.228,0.39,0.228,0.873,0,1.263l-26.357,45.654
			C1153.809,719.161,1153.394,719.402,1152.939,719.402z M1128.77,673.748l24.17,41.866l24.173-41.866H1128.77z"/>
	</g>
	<g>
		<path d="M1249.793,822.018H1056.09c-0.698,0-1.264-0.564-1.264-1.263v-148.27c0-0.698,0.565-1.263,1.264-1.263h70.492
			c0.451,0,0.868,0.242,1.095,0.632l25.263,43.76l25.269-43.76c0.224-0.39,0.641-0.632,1.093-0.632h70.492
			c0.698,0,1.263,0.564,1.263,1.263v148.27C1251.056,821.453,1250.491,822.018,1249.793,822.018z M1204.965,819.492h43.565V673.748
			h-68.502l-25.993,45.023c-0.451,0.779-1.736,0.779-2.188,0l-25.996-45.023h-68.499v145.744h43.562v-77.991
			c0-0.698,0.563-1.263,1.264-1.263c0.695,0,1.263,0.564,1.263,1.263v77.991h98.999v-77.991c0-0.698,0.564-1.263,1.263-1.263
			s1.263,0.564,1.263,1.263V819.492z"/>
	</g>
	<g>
		<g>
			
				<rect x="1276.974" y="835.597" transform="matrix(0.7071 -0.7071 0.7071 0.7071 -235.1794 1165.4707)" fill="#FFFFFF" width="24.679" height="62.072"/>
			<path fill="#231F20" d="M1302.533,898.568c-0.335,0-0.656-0.134-0.893-0.37l-43.891-43.894c-0.236-0.236-0.37-0.557-0.37-0.893
				c0-0.335,0.134-0.656,0.37-0.893l17.449-17.446c0.493-0.493,1.292-0.493,1.785,0l43.894,43.888
				c0.236,0.237,0.369,0.558,0.369,0.894c0,0.335-0.133,0.655-0.369,0.893l-17.451,17.451
				C1303.189,898.435,1302.869,898.568,1302.533,898.568z M1260.429,853.412l42.104,42.107l15.666-15.665l-42.107-42.103
				L1260.429,853.412z"/>
		</g>
		<g>
			<path fill="#FFFFFF" d="M1248.175,732.401c-25.707-25.707-67.388-25.707-93.094,0c-25.704,25.707-25.704,67.385,0.005,93.092
				c23.926,23.926,61.67,25.554,87.512,4.942l10.851,10.849l10.518-10.518l-10.851-10.849
				C1273.729,794.076,1272.101,756.33,1248.175,732.401z"/>
			<path fill="#231F20" d="M1201.591,846.02c-17.905,0-34.739-6.973-47.397-19.634c-26.161-26.158-26.161-68.719-0.006-94.877
				c12.674-12.671,29.521-19.649,47.44-19.649s34.767,6.979,47.439,19.649c23.892,23.894,26.274,61.662,5.732,88.309l10.06,10.057
				c0.236,0.236,0.369,0.557,0.369,0.893c0,0.335-0.133,0.656-0.369,0.893l-10.518,10.518c-0.494,0.493-1.293,0.493-1.786,0
				l-10.059-10.056C1230.845,841.092,1216.363,846.02,1201.591,846.02z M1201.628,714.386c-17.244,0-33.459,6.714-45.654,18.908
				c-25.171,25.175-25.169,66.135,0.005,91.306c12.183,12.186,28.381,18.895,45.612,18.895c14.58,0,28.864-4.987,40.22-14.045
				c0.504-0.402,1.224-0.357,1.68,0.094l9.958,9.955l8.731-8.731l-9.957-9.955c-0.456-0.454-0.496-1.179-0.097-1.68
				c20.487-25.685,18.406-62.585-4.844-85.838C1235.087,721.1,1218.872,714.386,1201.628,714.386z"/>
		</g>
		<g>
			<path fill="#FFFFFF" d="M1268.605,826.124l-4.64,4.643l-10.518,10.518l-4.64,4.637c-2.39,2.393-2.393,6.271,0.003,8.665
				c2.39,2.391,6.27,2.391,8.66,0l19.797-19.799c2.393-2.391,2.39-6.268,0-8.658
				C1274.873,823.734,1270.998,823.734,1268.605,826.124z"/>
			<path fill="#231F20" d="M1253.143,857.643c-1.976,0-3.831-0.77-5.225-2.163c-2.881-2.881-2.881-7.57-0.002-10.451l19.797-19.797
				c2.795-2.792,7.656-2.792,10.448,0.005c1.394,1.394,2.163,3.249,2.163,5.222c0,1.974-0.77,3.828-2.163,5.222l-19.797,19.8
				C1256.971,856.873,1255.116,857.643,1253.143,857.643z M1272.935,825.594c-1.298,0-2.519,0.506-3.437,1.424l-19.797,19.797
				c-1.896,1.896-1.894,4.982,0.003,6.879c1.833,1.833,5.037,1.838,6.874,0l19.797-19.799c0.92-0.918,1.424-2.139,1.424-3.437
				c0-1.297-0.506-2.519-1.424-3.436C1275.455,826.103,1274.231,825.594,1272.935,825.594z"/>
		</g>
		<g>
			<path fill="#FFFFFF" d="M1329.818,878.678c2.389,2.393,2.393,6.27,0,8.662l-19.796,19.797c-2.393,2.391-6.272,2.388-8.663,0l0,0
				c-2.388-2.388-2.388-6.27,0.002-8.662l19.797-19.797C1323.551,876.287,1327.429,876.29,1329.818,878.678L1329.818,878.678z"/>
			<path fill="#231F20" d="M1305.69,910.19c-1.973,0-3.828-0.767-5.224-2.16c-2.881-2.879-2.879-7.567,0.002-10.449l19.797-19.797
				c2.79-2.787,7.654-2.787,10.446,0c2.876,2.884,2.876,7.57,0,10.449l-19.797,19.797
				C1309.519,909.424,1307.664,910.19,1305.69,910.19z M1325.487,878.149c-1.297,0-2.519,0.503-3.436,1.421l-19.797,19.797
				c-1.897,1.896-1.897,4.982-0.003,6.877c1.836,1.835,5.042,1.835,6.877,0l19.797-19.797c1.895-1.895,1.895-4.98-0.002-6.877
				C1328.009,878.652,1326.787,878.149,1325.487,878.149z"/>
		</g>
		<g>
			<circle fill="#FFFFFF" cx="1201.629" cy="778.949" r="49.936"/>
			<path fill="#231F20" d="M1201.631,830.147c-13.676,0-26.536-5.325-36.205-14.997c-9.669-9.669-14.997-22.527-14.997-36.202
				c0-13.677,5.328-26.535,14.997-36.204s22.527-14.995,36.202-14.995c13.677,0,26.533,5.326,36.204,14.997
				c19.96,19.962,19.96,52.445,0,72.407C1228.161,824.822,1215.305,830.147,1201.631,830.147z M1201.628,730.275
				c-13.001,0-25.224,5.062-34.416,14.254c-9.193,9.193-14.257,21.415-14.257,34.417c0,13.001,5.063,25.226,14.257,34.419
				c9.195,9.195,21.417,14.256,34.419,14.256c13.001,0,25.223-5.061,34.416-14.254c18.976-18.978,18.976-49.857,0-68.835
				C1226.854,735.337,1214.629,730.275,1201.628,730.275z"/>
		</g>
	</g>
	<g>
		<path fill="#231F20" d="M1225.413,757.481h-47.568c-0.698,0-1.263-0.564-1.263-1.263s0.564-1.263,1.263-1.263h47.568
			c0.698,0,1.263,0.564,1.263,1.263S1226.111,757.481,1225.413,757.481z"/>
	</g>
	<g>
		<path fill="#231F20" d="M1225.413,806.315h-47.568c-0.698,0-1.263-0.565-1.263-1.263c0-0.698,0.564-1.264,1.263-1.264h47.568
			c0.698,0,1.263,0.565,1.263,1.264C1226.676,805.75,1226.111,806.315,1225.413,806.315z"/>
	</g>
	<g>
		<path fill="#231F20" d="M1237.201,780.211h-71.144c-0.698,0-1.264-0.564-1.264-1.263s0.565-1.263,1.264-1.263h71.144
			c0.698,0,1.263,0.564,1.263,1.263S1237.899,780.211,1237.201,780.211z"/>
	</g>
</g>
<g>
	<path fill="#231F20" d="M1214.693,555.421c-0.227,0-0.454-0.062-0.653-0.183c-0.378-0.229-0.609-0.639-0.609-1.08V530.2h-100.43
		c-0.698,0-1.263-0.564-1.263-1.263v-90.546c0-0.698,0.564-1.263,1.263-1.263h218.608c0.701,0,1.264,0.564,1.264,1.263v90.546
		c0,0.698-0.563,1.263-1.264,1.263h-68.433l-47.896,25.078C1215.096,555.374,1214.896,555.421,1214.693,555.421z M1114.264,527.675
		h100.43c0.698,0,1.263,0.564,1.263,1.263v23.134l46.323-24.254c0.182-0.094,0.382-0.143,0.587-0.143h67.48v-88.021h-216.083
		V527.675z"/>
</g>
<g>
	<path fill="#231F20" d="M1312.183,461.126H1132.43c-0.697,0-1.263-0.564-1.263-1.263s0.565-1.263,1.263-1.263h179.753
		c0.696,0,1.263,0.564,1.263,1.263S1312.879,461.126,1312.183,461.126z"/>
</g>
<g>
	<path fill="#231F20" d="M1312.183,481.333H1132.43c-0.697,0-1.263-0.565-1.263-1.263c0-0.698,0.565-1.263,1.263-1.263h179.753
		c0.696,0,1.263,0.565,1.263,1.263C1313.445,480.768,1312.879,481.333,1312.183,481.333z"/>
</g>
<g>
	<path fill="#231F20" d="M1312.183,501.539H1132.43c-0.697,0-1.263-0.565-1.263-1.264c0-0.697,0.565-1.263,1.263-1.263h179.753
		c0.696,0,1.263,0.565,1.263,1.263C1313.445,500.974,1312.879,501.539,1312.183,501.539z"/>
</g>
<g>
	<g>
		<rect x="201.148" y="96.919" fill="#FFFFFF" width="206.014" height="146.518"/>
		<path fill="#231F20" d="M407.162,244.7H201.148c-0.701,0-1.263-0.565-1.263-1.263V96.919c0-0.698,0.563-1.263,1.263-1.263h206.014
			c0.698,0,1.263,0.565,1.263,1.263v146.518C408.425,244.135,407.86,244.7,407.162,244.7z M202.411,242.174h203.489V98.183H202.411
			V242.174z"/>
	</g>
	<g>
		<rect x="365.896" y="128.889" fill="#FFFFFF" width="17.273" height="91.611"/>
		<path fill="#231F20" d="M383.169,221.764h-17.273c-0.7,0-1.263-0.565-1.263-1.263v-91.611c0-0.698,0.563-1.263,1.263-1.263h17.273
			c0.698,0,1.263,0.565,1.263,1.263V220.5C384.433,221.199,383.868,221.764,383.169,221.764z M367.159,219.238h14.748v-89.086
			h-14.748V219.238z"/>
	</g>
	<g>
		<rect x="331.344" y="150.694" fill="#FFFFFF" width="17.276" height="69.807"/>
		<path fill="#231F20" d="M348.62,221.764h-17.276c-0.696,0-1.263-0.565-1.263-1.263v-69.807c0-0.698,0.567-1.263,1.263-1.263
			h17.276c0.698,0,1.263,0.565,1.263,1.263V220.5C349.883,221.199,349.318,221.764,348.62,221.764z M332.607,219.238h14.75v-67.281
			h-14.75V219.238z"/>
	</g>
	<g>
		<rect x="296.797" y="170.18" fill="#FFFFFF" width="17.274" height="50.321"/>
		<path fill="#231F20" d="M314.071,221.764h-17.274c-0.7,0-1.263-0.565-1.263-1.263V170.18c0-0.698,0.563-1.263,1.263-1.263h17.274
			c0.698,0,1.263,0.565,1.263,1.263V220.5C315.333,221.199,314.769,221.764,314.071,221.764z M298.06,219.238h14.748v-47.795H298.06
			V219.238z"/>
	</g>
	<g>
		<rect x="262.245" y="182.972" fill="#FFFFFF" width="17.276" height="37.529"/>
		<path fill="#231F20" d="M279.521,221.764h-17.276c-0.695,0-1.263-0.565-1.263-1.263v-37.529c0-0.698,0.567-1.263,1.263-1.263
			h17.276c0.698,0,1.263,0.565,1.263,1.263V220.5C280.784,221.199,280.219,221.764,279.521,221.764z M263.508,219.238h14.75v-35.003
			h-14.75V219.238z"/>
	</g>
	<g>
		<path fill="#FFFFFF" d="M170.848,102.235c0,14.725-11.928,26.654-26.644,26.654c-14.721,0-26.649-11.929-26.649-26.654
			c0-14.716,11.928-26.647,26.649-26.647C158.92,75.588,170.848,87.52,170.848,102.235z"/>
		<path fill="#231F20" d="M144.204,130.152c-15.392,0-27.912-12.523-27.912-27.917c0-15.389,12.521-27.91,27.912-27.91
			c15.387,0,27.907,12.521,27.907,27.91C172.111,117.629,159.591,130.152,144.204,130.152z M144.204,76.852
			c-14,0-25.386,11.388-25.386,25.384c0,14,11.386,25.391,25.386,25.391c13.996,0,25.381-11.391,25.381-25.391
			C169.585,88.24,158.2,76.852,144.204,76.852z"/>
	</g>
	<g>
		<polygon fill="#FFFFFF" points="158.042,138.708 130.367,138.708 144.204,162.674 		"/>
		<path fill="#231F20" d="M144.204,163.937c-0.454,0-0.868-0.242-1.095-0.632l-13.837-23.965c-0.227-0.39-0.227-0.873,0-1.263
			s0.641-0.631,1.095-0.631h27.675c0.449,0,0.869,0.242,1.093,0.631c0.225,0.39,0.225,0.873,0,1.263l-13.837,23.965
			C145.072,163.695,144.653,163.937,144.204,163.937z M132.552,139.972l11.652,20.176l11.647-20.176H132.552z"/>
	</g>
	<g>
		<polygon fill="#FFFFFF" points="195.045,138.708 158.042,138.708 144.204,162.674 130.367,138.708 93.363,138.708 93.363,226.162 
			117.555,226.162 117.555,174.938 117.555,302.292 170.848,302.292 170.848,174.938 227.678,159.968 245.931,138.708 		"/>
		<path fill="#231F20" d="M170.848,303.556h-53.293c-0.701,0-1.263-0.565-1.263-1.263v-74.868H93.363
			c-0.701,0-1.263-0.565-1.263-1.263v-87.453c0-0.698,0.562-1.263,1.263-1.263h37.004c0.449,0,0.868,0.242,1.093,0.631
			l12.745,22.071l12.742-22.071c0.227-0.39,0.642-0.631,1.095-0.631h87.89c0.493,0,0.942,0.286,1.147,0.735
			c0.207,0.449,0.133,0.977-0.19,1.352l-18.253,21.26c-0.165,0.192-0.387,0.333-0.636,0.397l-55.888,14.723v126.38
			C172.111,302.991,171.549,303.556,170.848,303.556z M118.818,301.03h50.768V174.938c0-0.575,0.387-1.076,0.942-1.221
			l56.451-14.869l16.206-18.876H158.77l-13.473,23.333c-0.452,0.78-1.736,0.78-2.188,0l-13.473-23.333H94.625v84.927h21.667v-49.96
			c0-0.698,0.563-1.263,1.263-1.263c0.695,0,1.263,0.565,1.263,1.263V301.03z"/>
	</g>
</g>
<g>
	<g>
		<g>
			<path d="M108.448,468.203c-12.407,0-22.495-10.093-22.495-22.498s10.088-22.495,22.495-22.495
				c12.402,0,22.493,10.091,22.493,22.495S120.851,468.203,108.448,468.203z M108.448,425.735c-11.011,0-19.969,8.959-19.969,19.97
				c0,11.013,8.958,19.972,19.969,19.972c11.011,0,19.967-8.958,19.967-19.972C128.416,434.694,119.459,425.735,108.448,425.735z"/>
		</g>
		<g>
			<path d="M108.448,495.123c-0.454,0-0.868-0.241-1.095-0.632l-11.026-19.096c-0.225-0.39-0.225-0.874,0-1.263
				c0.227-0.39,0.644-0.631,1.095-0.631h22.049c0.451,0,0.868,0.242,1.093,0.631c0.227,0.39,0.227,0.874,0,1.263l-11.023,19.096
				C109.317,494.882,108.897,495.123,108.448,495.123z M99.611,476.027l8.837,15.307l8.835-15.307H99.611z"/>
		</g>
		<g>
			<path d="M148.955,538.042H67.937c-0.695,0-1.263-0.565-1.263-1.263v-62.016c0-0.698,0.567-1.263,1.263-1.263h29.486
				c0.451,0,0.868,0.242,1.095,0.631l9.93,17.202l9.931-17.202c0.225-0.39,0.642-0.631,1.093-0.631h29.483
				c0.701,0,1.263,0.565,1.263,1.263v62.016C150.218,537.477,149.655,538.042,148.955,538.042z M130.941,535.516h16.75v-59.489
				h-27.493l-10.658,18.464c-0.451,0.78-1.736,0.78-2.188,0l-10.661-18.464H69.2v59.489h16.753v-31.885
				c0-0.698,0.563-1.264,1.263-1.264c0.695,0,1.263,0.565,1.263,1.264v31.885h39.937v-31.885c0-0.698,0.565-1.264,1.263-1.264
				c0.698,0,1.263,0.565,1.263,1.264V535.516z"/>
		</g>
	</g>
	<g>
		<g>
			<path d="M276.67,468.203c-12.402,0-22.496-10.093-22.496-22.498s10.093-22.495,22.496-22.495
				c12.404,0,22.495,10.091,22.495,22.495S289.074,468.203,276.67,468.203z M276.67,425.735c-11.011,0-19.97,8.959-19.97,19.97
				c0,11.013,8.958,19.972,19.97,19.972c11.011,0,19.969-8.958,19.969-19.972C296.639,434.694,287.681,425.735,276.67,425.735z"/>
		</g>
		<g>
			<path d="M276.67,495.123c-0.449,0-0.868-0.241-1.093-0.632l-11.023-19.096c-0.227-0.39-0.227-0.874,0-1.263
				c0.225-0.39,0.642-0.631,1.093-0.631h22.049c0.452,0,0.868,0.242,1.095,0.631c0.225,0.39,0.225,0.874,0,1.263l-11.025,19.096
				C277.538,494.882,277.124,495.123,276.67,495.123z M267.834,476.027l8.835,15.307l8.837-15.307H267.834z"/>
		</g>
		<g>
			<path d="M317.181,538.042h-81.018c-0.701,0-1.263-0.565-1.263-1.263v-62.016c0-0.698,0.563-1.263,1.263-1.263h29.483
				c0.452,0,0.868,0.242,1.093,0.631l9.931,17.202l9.93-17.202c0.227-0.39,0.644-0.631,1.095-0.631h29.486
				c0.695,0,1.263,0.565,1.263,1.263v62.016C318.444,537.477,317.876,538.042,317.181,538.042z M299.165,535.516h16.753v-59.489
				h-27.493l-10.66,18.464c-0.452,0.78-1.737,0.78-2.188,0l-10.658-18.464h-27.493v59.489h16.748v-31.885
				c0-0.698,0.567-1.264,1.263-1.264c0.7,0,1.263,0.565,1.263,1.264v31.885h39.939v-31.885c0-0.698,0.565-1.264,1.263-1.264
				c0.698,0,1.263,0.565,1.263,1.264V535.516z"/>
		</g>
	</g>
	<g>
		<path d="M273.261,411.027c-0.323,0-0.646-0.124-0.893-0.37l-11.497-11.494c-0.493-0.494-0.493-1.292,0-1.786
			c0.494-0.493,1.292-0.493,1.786,0l10.604,10.602l10.602-10.602c0.493-0.493,1.292-0.493,1.786,0c0.494,0.494,0.494,1.292,0,1.786
			l-11.494,11.494C273.907,410.904,273.584,411.027,273.261,411.027z"/>
	</g>
	<g>
		<path d="M125.692,567.967c-0.323,0-0.646-0.124-0.893-0.37l-10.604-10.602l-10.604,10.602c-0.493,0.493-1.292,0.493-1.786,0
			c-0.494-0.493-0.494-1.293,0-1.786l11.497-11.494c0.493-0.493,1.292-0.493,1.786,0l11.497,11.494c0.493,0.493,0.493,1.293,0,1.786
			C126.339,567.843,126.016,567.967,125.692,567.967z"/>
	</g>
	<g>
		<path d="M273.261,411.027c-0.698,0-1.263-0.565-1.263-1.263v-47.832H109.711v47.832c0,0.698-0.567,1.263-1.263,1.263
			c-0.7,0-1.263-0.565-1.263-1.263v-49.095c0-0.698,0.563-1.263,1.263-1.263h164.813c0.698,0,1.263,0.564,1.263,1.263v49.095
			C274.524,410.462,273.959,411.027,273.261,411.027z"/>
	</g>
	<g>
		<path d="M279.008,605.558H114.196c-0.698,0-1.263-0.565-1.263-1.264v-49.095c0-0.698,0.565-1.263,1.263-1.263
			c0.698,0,1.263,0.564,1.263,1.263v47.832h162.287v-47.832c0-0.698,0.565-1.263,1.263-1.263c0.698,0,1.263,0.564,1.263,1.263
			v49.095C280.271,604.992,279.706,605.558,279.008,605.558z"/>
	</g>
</g>
<g>
	<g>
		<path d="M352.621,691.823H136.928c-0.698,0-1.263-0.564-1.263-1.263v-24.849c0-0.697,0.564-1.263,1.263-1.263h215.693
			c0.7,0,1.263,0.565,1.263,1.263v24.849C353.884,691.259,353.321,691.823,352.621,691.823z M138.19,689.298h213.167v-22.322H138.19
			V689.298z"/>
	</g>
	<g>
		<path d="M352.621,859.809H136.928c-0.698,0-1.263-0.565-1.263-1.264V690.561c0-0.698,0.564-1.263,1.263-1.263h215.693
			c0.7,0,1.263,0.564,1.263,1.263v167.984C353.884,859.243,353.321,859.809,352.621,859.809z M138.19,857.282h213.167V691.823
			H138.19V857.282z"/>
	</g>
	<g>
		<path d="M352.621,898.568H136.928c-0.698,0-1.263-0.565-1.263-1.264v-38.76c0-0.697,0.564-1.263,1.263-1.263h215.693
			c0.7,0,1.263,0.565,1.263,1.263v38.76C353.884,898.003,353.321,898.568,352.621,898.568z M138.19,896.042h213.167v-36.233H138.19
			V896.042z"/>
	</g>
	<g>
		<path d="M291.6,879.19h-93.646c-0.698,0-1.263-0.564-1.263-1.263s0.565-1.263,1.263-1.263H291.6c0.698,0,1.263,0.564,1.263,1.263
			S292.298,879.19,291.6,879.19z"/>
	</g>
	<g>
		<g>
			<path d="M289.41,825.648c-0.173,0-0.345-0.034-0.508-0.106c-0.458-0.202-0.754-0.656-0.754-1.156v-45.724h-86.74v45.724
				c0,0.5-0.296,0.954-0.755,1.156c-0.454,0.2-0.989,0.114-1.361-0.225c-13.899-12.734-21.874-30.839-21.874-49.674
				c0-37.145,30.218-67.363,67.36-67.363c37.142,0,67.36,30.219,67.36,67.363c0,18.835-7.975,36.939-21.874,49.674
				C290.024,825.535,289.718,825.648,289.41,825.648z M200.144,776.137h89.266c0.698,0,1.263,0.564,1.263,1.263v44.026
				c12.069-12.111,18.938-28.633,18.938-45.782c0-35.751-29.083-64.837-64.834-64.837c-35.751,0-64.834,29.086-64.834,64.837
				c0,17.149,6.87,33.671,18.938,45.782v-44.026C198.881,776.701,199.446,776.137,200.144,776.137z M244.777,770.042
				c-13.596,0-24.656-11.063-24.656-24.659s11.061-24.655,24.656-24.655s24.656,11.06,24.656,24.655
				S258.373,770.042,244.777,770.042z M244.777,723.253c-12.205,0-22.13,9.928-22.13,22.13c0,12.205,9.926,22.133,22.13,22.133
				s22.13-9.928,22.13-22.133C266.907,733.181,256.981,723.253,244.777,723.253z"/>
		</g>
		<g>
			<path d="M244.777,770.042c-13.596,0-24.656-11.063-24.656-24.659s11.061-24.655,24.656-24.655s24.656,11.06,24.656,24.655
				S258.373,770.042,244.777,770.042z M244.777,723.253c-12.205,0-22.13,9.928-22.13,22.13c0,12.205,9.926,22.133,22.13,22.133
				s22.13-9.928,22.13-22.133C266.907,733.181,256.981,723.253,244.777,723.253z"/>
		</g>
		<g>
			<path d="M244.777,799.7c-0.452,0-0.868-0.242-1.095-0.632l-12.146-21.037c-0.227-0.391-0.227-0.873,0-1.264
				c0.225-0.39,0.641-0.631,1.093-0.631h24.296c0.451,0,0.868,0.241,1.093,0.631c0.227,0.391,0.227,0.873,0,1.264l-12.146,21.037
				C245.645,799.458,245.228,799.7,244.777,799.7z M234.817,778.662l9.96,17.249l9.96-17.249H234.817z"/>
		</g>
		<g>
			<path d="M244.777,843.001c-8.189,0-16.21-1.466-23.842-4.356c0,0-0.002-0.002-0.005-0.002c-8.021-3.037-15.3-7.521-21.639-13.325
				c-0.259-0.239-0.41-0.577-0.41-0.932v-46.986c0-0.698,0.565-1.263,1.263-1.263h32.485c0.451,0,0.868,0.241,1.093,0.631
				l11.055,19.144l11.055-19.144c0.225-0.39,0.641-0.631,1.093-0.631h32.485c0.698,0,1.263,0.564,1.263,1.263v46.986
				c0,0.354-0.15,0.692-0.409,0.932c-6.272,5.745-13.473,10.197-21.398,13.236c-0.123,0.071-0.259,0.123-0.404,0.152
				C260.874,841.556,252.907,843.001,244.777,843.001z M222.646,836.585c14.198,5.163,30.053,5.165,44.261,0.003v-27.382
				c0-0.698,0.567-1.263,1.263-1.263c0.701,0,1.263,0.564,1.263,1.263v26.402c6.882-2.829,13.167-6.785,18.714-11.783v-45.163
				h-30.495l-11.78,20.406c-0.454,0.779-1.737,0.779-2.19,0l-11.78-20.406h-30.495v45.163c5.547,4.998,11.834,8.954,18.714,11.783
				v-26.402c0-0.698,0.563-1.263,1.263-1.263c0.695,0,1.263,0.564,1.263,1.263V836.585z"/>
		</g>
	</g>
</g>
<g>
	<g>
		<path fill="#231F20" d="M964.154,866.384c-0.178,0-0.354-0.037-0.521-0.11c-38.947-17.602-45.679-74.373-45.742-74.942
			c-0.037-0.354,0.071-0.703,0.303-0.97c0.232-0.267,0.563-0.424,0.915-0.435c31.572-0.91,43.228-19.343,43.938-20.515
			c0.444-0.816,1.885-0.762,2.262,0.084c1.562,2.435,13.552,19.558,43.898,20.431c0.35,0.011,0.686,0.168,0.917,0.435
			c0.229,0.267,0.341,0.616,0.302,0.967c-0.064,0.572-6.791,57.344-45.751,74.945C964.51,866.347,964.332,866.384,964.154,866.384z
			 M920.587,792.401c1.266,8.584,9.677,55.577,43.567,71.331c33.924-15.764,42.314-62.747,43.577-71.331
			c-27.219-1.243-39.983-15.33-43.574-20.147C960.575,777.079,947.841,791.158,920.587,792.401z"/>
	</g>
	<g>
		<path fill="#231F20" d="M1006.21,807.347h-26.814c-0.698,0-1.263-0.565-1.263-1.264c0-0.697,0.564-1.263,1.263-1.263h26.814
			c0.698,0,1.263,0.565,1.263,1.263C1007.473,806.781,1006.908,807.347,1006.21,807.347z"/>
	</g>
	<g>
		<path fill="#231F20" d="M999.291,827.393h-42.669c-0.698,0-1.264-0.565-1.264-1.264c0-0.697,0.565-1.263,1.264-1.263h42.669
			c0.698,0,1.263,0.565,1.263,1.263C1000.554,826.827,999.989,827.393,999.291,827.393z"/>
	</g>
	<g>
		<path fill="#231F20" d="M987.02,848.097h-22.865c-0.697,0-1.263-0.564-1.263-1.263s0.565-1.263,1.263-1.263h22.865
			c0.698,0,1.264,0.564,1.264,1.263S987.718,848.097,987.02,848.097z"/>
	</g>
</g>
<g>
	<path d="M351.284,302.396c-1.105-0.992-2.319-1.867-3.631-2.578c-4.428-2.432-9.541-2.98-14.402-1.571
		c-4.837,1.423-8.853,4.645-11.285,9.087c-4.22,7.718-2.627,17.227,3.89,23.109c1.098,0.987,2.313,1.862,3.633,2.575
		c4.43,2.424,9.541,2.982,14.395,1.569c4.852-1.426,8.865-4.647,11.287-9.087C359.396,317.785,357.798,308.287,351.284,302.396z
		 M343.285,332.525c-4.309,1.268-8.847,0.785-12.774-1.383c-1.167-0.634-2.257-1.404-3.224-2.282
		c-5.782-5.217-7.2-13.655-3.456-20.5c2.166-3.949,5.715-6.798,10.019-8.053c4.319-1.268,8.855-0.77,12.785,1.376
		c1.154,0.646,2.239,1.401,3.219,2.281c5.777,5.232,7.197,13.667,3.451,20.524C351.161,328.401,347.597,331.277,343.285,332.525z"/>
</g>
<g>
	<path d="M363.276,289.141c-2.136-1.931-4.499-3.606-7.04-5.004c-17.796-9.738-40.203-3.182-49.941,14.617
		c-6.413,11.716-5.969,25.958,1.125,37.255l-1.749,39.007l-0.049-0.025l-0.03,1.658l0,0l0.005,0.022l33.255-23.459
		c13.347-0.108,25.588-7.415,31.992-19.136C379.053,319.083,375.942,300.603,363.276,289.141z M338.505,351.079h-0.333
		l-30.253,21.339l1.65-36.642l0.015-0.343l-0.178-0.284c-6.852-10.697-7.328-24.251-1.248-35.371
		c9.181-16.763,30.29-22.937,47.05-13.769c2.4,1.314,4.627,2.901,6.64,4.716c11.931,10.798,14.851,28.203,7.131,42.321
		C362.884,344.192,351.21,351.089,338.505,351.079z"/>
</g>
<g>
	<g>
		<path d="M989.479,235.207c-23.833,0-43.223-19.393-43.223-43.227c0-23.83,19.39-43.217,43.223-43.217
			c23.834,0,43.224,19.388,43.224,43.217C1032.703,215.814,1013.313,235.207,989.479,235.207z M989.479,151.288
			c-22.441,0-40.696,18.255-40.696,40.691c0,22.443,18.255,40.701,40.696,40.701c22.44,0,40.698-18.258,40.698-40.701
			C1030.178,169.543,1011.92,151.288,989.479,151.288z"/>
	</g>
	<g>
		<path d="M983.707,214.038c-0.335,0-0.656-0.133-0.893-0.37l-19.55-19.555c-0.494-0.494-0.494-1.292,0-1.786
			c0.493-0.493,1.292-0.493,1.785,0l18.657,18.662l32.752-32.751c0.493-0.494,1.292-0.494,1.785,0c0.494,0.493,0.494,1.292,0,1.786
			l-33.644,33.644C984.363,213.905,984.043,214.038,983.707,214.038z"/>
	</g>
</g>
<g>
	<g>
		<path d="M433.143,860.318c-1.344,0-2.664-0.057-3.919-0.17l-1.884-0.165c-0.686-0.06-1.199-0.659-1.149-1.347l0.133-1.897
			c0.086-1.188-0.025-2.341-0.326-3.423c-1.436-5.232-6.985-8.545-12.407-7.045c-1.845,0.511-3.502,1.539-4.792,2.975l-1.263,1.408
			c-0.461,0.509-1.243,0.563-1.764,0.113l-1.436-1.235c-3.059-2.649-5.747-5.72-7.987-9.129l-1.031-1.568
			c-0.375-0.572-0.227-1.34,0.335-1.731l1.542-1.071c3.522-2.435,5.123-6.837,3.988-10.956c-1.14-4.124-4.775-7.089-9.042-7.378
			l-1.875-0.126c-0.684-0.047-1.207-0.629-1.177-1.314l0.082-1.879c0.167-4.016,0.888-7.984,2.141-11.796l0.592-1.806
			c0.217-0.653,0.917-1.016,1.579-0.809l1.815,0.569c1.837,0.572,3.843,0.612,5.708,0.106c2.595-0.713,4.756-2.397,6.088-4.743
			c1.329-2.349,1.665-5.071,0.942-7.671c-0.311-1.125-0.824-2.198-1.529-3.188l-1.1-1.551c-0.399-0.561-0.273-1.34,0.281-1.747
			l1.534-1.129c3.283-2.405,6.912-4.339,10.784-5.75l1.753-0.637c0.644-0.234,1.35,0.084,1.604,0.716l0.693,1.727
			c1.85,4.625,7.168,7.301,12.037,5.959c3.33-0.92,5.927-3.448,6.946-6.761l0.548-1.788c0.2-0.654,0.888-1.023,1.539-0.849
			l1.801,0.491c3.823,1.048,7.523,2.637,11.001,4.723l1.608,0.97c0.587,0.355,0.785,1.11,0.449,1.707l-0.925,1.628
			c-1.31,2.328-1.638,5.034-0.925,7.617c1.443,5.227,7.02,8.512,12.395,7.039c0.348-0.091,0.659-0.199,1.058-0.355l1.742-0.715
			c0.636-0.262,1.371,0.037,1.643,0.679l0.74,1.751c0.78,1.833,1.456,3.749,2.013,5.692c0.538,1.961,0.932,3.927,1.208,6.023
			l0.247,1.848c0.089,0.674-0.37,1.298-1.041,1.411l-1.84,0.313c-0.415,0.066-0.772,0.143-1.11,0.231
			c-2.597,0.721-4.765,2.412-6.092,4.761c-1.322,2.338-1.658,5.054-0.937,7.642c0.7,2.575,2.373,4.73,4.711,6.075l1.616,0.93
			c0.592,0.341,0.807,1.088,0.486,1.689l-0.883,1.65c-1.897,3.534-4.258,6.793-7.02,9.687l-1.302,1.358
			c-0.474,0.496-1.256,0.523-1.761,0.063l-1.394-1.264c-2.494-2.269-6.144-3.145-9.425-2.249c-4.953,1.369-8.075,6.223-7.256,11.287
			l0.296,1.864c0.108,0.679-0.343,1.32-1.019,1.443l-1.853,0.338C438.666,860.063,435.903,860.318,433.143,860.318z
			 M428.796,857.576l0.649,0.057c3.613,0.323,7.671,0.15,11.45-0.556l0.642-0.118l-0.104-0.641
			c-1.021-6.337,2.883-12.41,9.082-14.124c4.134-1.122,8.673-0.024,11.795,2.814l0.481,0.437l0.452-0.469
			c2.602-2.73,4.83-5.804,6.62-9.134l0.301-0.567l-0.555-0.32c-2.92-1.683-5.01-4.379-5.888-7.595
			c-0.898-3.233-0.479-6.63,1.176-9.556c1.66-2.938,4.368-5.052,7.625-5.952c0.421-0.116,0.861-0.207,1.361-0.288l0.631-0.109
			l-0.084-0.641c-0.264-1.98-0.636-3.836-1.139-5.671c-0.525-1.833-1.169-3.65-1.907-5.392l-0.254-0.603l-0.604,0.247
			c-0.521,0.205-0.922,0.343-1.347,0.451c-1.093,0.301-2.223,0.454-3.342,0.454c-5.644,0-10.633-3.809-12.138-9.262
			c-0.891-3.227-0.481-6.613,1.159-9.531l0.318-0.563l-0.553-0.333c-3.275-1.969-6.763-3.466-10.364-4.452l-0.617-0.17l-0.192,0.619
			c-1.273,4.144-4.519,7.304-8.688,8.455c-1.1,0.306-2.232,0.459-3.362,0.459c-5.099,0-9.795-3.18-11.689-7.913l-0.237-0.592
			l-0.604,0.22c-3.65,1.329-7.067,3.152-10.155,5.411l-0.533,0.393l0.382,0.538c0.876,1.228,1.517,2.567,1.907,3.976
			c0.9,3.249,0.481,6.655-1.184,9.59c-1.662,2.934-4.368,5.04-7.614,5.936c-2.336,0.634-4.834,0.587-7.133-0.134l-0.624-0.197
			l-0.207,0.622c-1.179,3.589-1.86,7.328-2.018,11.111l-0.025,0.651l0.644,0.042c5.335,0.362,9.879,4.07,11.31,9.225
			c1.418,5.155-0.584,10.663-4.987,13.707l-0.528,0.367l0.355,0.541c2.111,3.214,4.645,6.109,7.525,8.604l0.496,0.427l0.437-0.489
			c1.611-1.795,3.688-3.083,6.001-3.722c6.751-1.859,13.719,2.27,15.513,8.806c0.377,1.359,0.518,2.8,0.412,4.277L428.796,857.576z"
			/>
	</g>
	<g>
		<path d="M433.143,841.097c-13.423,0-24.343-10.92-24.343-24.341c0-13.423,10.92-24.345,24.343-24.345
			c13.421,0,24.338,10.922,24.338,24.345C457.48,830.177,446.563,841.097,433.143,841.097z M433.143,794.937
			c-12.029,0-21.817,9.788-21.817,21.819c0,12.03,9.788,21.814,21.817,21.814c12.027,0,21.812-9.784,21.812-21.814
			C454.955,804.725,445.17,794.937,433.143,794.937z"/>
	</g>
</g>
</svg>
