<?xml version="1.0" encoding="utf-8"?>
<!-- Generator: Adobe Illustrator 16.0.0, SVG Export Plug-In . SVG Version: 6.00 Build 0)  -->
<!DOCTYPE svg PUBLIC "-//W3C//DTD SVG 1.1//EN" "http://www.w3.org/Graphics/SVG/1.1/DTD/svg11.dtd">
<svg version="1.1" id="Layer_1" xmlns="http://www.w3.org/2000/svg" xmlns:xlink="http://www.w3.org/1999/xlink" x="0px" y="0px"
	 width="1400px" height="980px" viewBox="0 0 1400 980" enable-background="new 0 0 1400 980" xml:space="preserve">
<g>
	<g>
		<rect x="-6804.6" y="-1485.2" fill="#FFFFFF" width="371.8" height="260.3"/>
	</g>
	<g>
		<rect x="-6693.9" y="-1419.2" fill="#E6E7E8" width="144.3" height="86.4"/>
		<path d="M-6549.5-1332.3h-144.3c-0.3,0-0.5-0.2-0.5-0.5v-86.4c0-0.3,0.2-0.5,0.5-0.5h144.3c0.3,0,0.5,0.2,0.5,0.5v86.4
			C-6549-1332.6-6549.2-1332.3-6549.5-1332.3z M-6693.4-1333.3h143.3v-85.4h-143.3V-1333.3z"/>
	</g>
	<g>
		<rect x="-6689.3" y="-1414.6" fill="#DBF2FF" width="135.1" height="77.2"/>
		<path d="M-6554.1-1336.9h-135.1c-0.3,0-0.5-0.2-0.5-0.5v-77.2c0-0.3,0.2-0.5,0.5-0.5h135.1c0.3,0,0.5,0.2,0.5,0.5v77.2
			C-6553.6-1337.2-6553.9-1336.9-6554.1-1336.9z M-6688.8-1337.9h134.1v-76.2h-134.1V-1337.9z"/>
	</g>
	<g>
		<path d="M-6549.5-1315.1h-144.3c-0.3,0-0.5-0.2-0.5-0.5v-17.3c0-0.3,0.2-0.5,0.5-0.5h144.3c0.3,0,0.5,0.2,0.5,0.5v17.3
			C-6549-1315.3-6549.2-1315.1-6549.5-1315.1z M-6693.4-1316.1h143.3v-16.3h-143.3V-1316.1z"/>
	</g>
	<g>
		<rect x="-6681" y="-1408.1" fill="#FFD1C8" width="15.8" height="15.8"/>
		<path d="M-6665.2-1391.8h-15.8c-0.3,0-0.5-0.2-0.5-0.5v-15.8c0-0.3,0.2-0.5,0.5-0.5h15.8c0.3,0,0.5,0.2,0.5,0.5v15.8
			C-6664.7-1392-6664.9-1391.8-6665.2-1391.8z M-6680.5-1392.8h14.8v-14.8h-14.8V-1392.8z"/>
	</g>
	<g>
		<rect x="-6625.7" y="-1408.1" fill="#FFEAB3" width="38" height="38"/>
		<path d="M-6587.7-1369.6h-38c-0.3,0-0.5-0.2-0.5-0.5v-38c0-0.3,0.2-0.5,0.5-0.5h38c0.3,0,0.5,0.2,0.5,0.5v38
			C-6587.2-1369.8-6587.4-1369.6-6587.7-1369.6z M-6625.2-1370.6h37v-37h-37V-1370.6z"/>
	</g>
	<g>
		<rect x="-6599.7" y="-1382.1" fill="#FFD1C8" width="38" height="38"/>
		<path d="M-6561.7-1343.5h-38c-0.3,0-0.5-0.2-0.5-0.5v-38c0-0.3,0.2-0.5,0.5-0.5h38c0.3,0,0.5,0.2,0.5,0.5v38
			C-6561.2-1343.8-6561.4-1343.5-6561.7-1343.5z M-6599.2-1344.5h37v-37h-37V-1344.5z"/>
	</g>
	<g>
		<rect x="-6681" y="-1385.9" fill="#E6E7E8" width="15.8" height="15.8"/>
		<path d="M-6665.2-1369.6h-15.8c-0.3,0-0.5-0.2-0.5-0.5v-15.8c0-0.3,0.2-0.5,0.5-0.5h15.8c0.3,0,0.5,0.2,0.5,0.5v15.8
			C-6664.7-1369.8-6664.9-1369.6-6665.2-1369.6z M-6680.5-1370.6h14.8v-14.8h-14.8V-1370.6z"/>
	</g>
	<g>
		<rect x="-6681" y="-1363.7" fill="#FFEAB3" width="15.8" height="15.8"/>
		<path d="M-6665.2-1347.4h-15.8c-0.3,0-0.5-0.2-0.5-0.5v-15.8c0-0.3,0.2-0.5,0.5-0.5h15.8c0.3,0,0.5,0.2,0.5,0.5v15.8
			C-6664.7-1347.6-6664.9-1347.4-6665.2-1347.4z M-6680.5-1348.4h14.8v-14.8h-14.8V-1348.4z"/>
	</g>
	<g>
		<g>
			<polygon fill="#FFFFFF" points="-6576.2,-1349.1 -6582.8,-1365.9 -6566.1,-1359.2 -6573.7,-1356.7 			"/>
			<path d="M-6576.2-1348.6c-0.2,0-0.4-0.1-0.5-0.3l-6.6-16.7c-0.1-0.2,0-0.4,0.1-0.5c0.1-0.1,0.4-0.2,0.5-0.1l16.7,6.6
				c0.2,0.1,0.3,0.3,0.3,0.5c0,0.2-0.1,0.4-0.3,0.5l-7.4,2.4l-2.4,7.4C-6575.8-1348.8-6576-1348.6-6576.2-1348.6
				C-6576.2-1348.6-6576.2-1348.6-6576.2-1348.6z M-6581.9-1365l5.7,14.4l2.1-6.3c0-0.2,0.2-0.3,0.3-0.3l6.3-2.1L-6581.9-1365z"/>
		</g>
		<g>
			<path d="M-6564.5-1347c-0.1,0-0.3,0-0.4-0.1l-9.2-9.2c-0.2-0.2-0.2-0.5,0-0.7c0.2-0.2,0.5-0.2,0.7,0l9.2,9.2
				c0.2,0.2,0.2,0.5,0,0.7C-6564.2-1347.1-6564.4-1347-6564.5-1347z"/>
		</g>
	</g>
	<g>
		<rect x="-6638.9" y="-1315.6" fill="#E6E7E8" width="34.3" height="15.5"/>
		<path d="M-6604.5-1299.6h-34.3c-0.3,0-0.5-0.2-0.5-0.5v-15.5c0-0.3,0.2-0.5,0.5-0.5h34.3c0.3,0,0.5,0.2,0.5,0.5v15.5
			C-6604-1299.8-6604.2-1299.6-6604.5-1299.6z M-6638.4-1300.6h33.3v-14.5h-33.3V-1300.6z"/>
	</g>
	<g>
		<path d="M-6599.4-1299.6h-44.6c-0.3,0-0.5-0.2-0.5-0.5s0.2-0.5,0.5-0.5h44.6c0.3,0,0.5,0.2,0.5,0.5S-6599.1-1299.6-6599.4-1299.6z
			"/>
	</g>
	<g>
		<g>
			<rect x="-6759.6" y="-1328" fill="#E6E7E8" width="51.2" height="12.5"/>
			<path d="M-6708.4-1315.1h-51.2c-0.3,0-0.5-0.2-0.5-0.5v-12.5c0-0.3,0.2-0.5,0.5-0.5h51.2c0.3,0,0.5,0.2,0.5,0.5v12.5
				C-6707.9-1315.3-6708.1-1315.1-6708.4-1315.1z M-6759.1-1316.1h50.2v-11.5h-50.2V-1316.1z"/>
		</g>
		<g>
			<polygon fill="#D2FFCF" points="-6741.1,-1368.2 -6721,-1356.6 -6741.1,-1345 			"/>
			<path d="M-6741.1-1344.5c-0.1,0-0.2,0-0.3-0.1c-0.2-0.1-0.3-0.3-0.3-0.4v-23.2c0-0.2,0.1-0.3,0.3-0.4c0.2-0.1,0.3-0.1,0.5,0
				l20.1,11.6c0.2,0.1,0.3,0.3,0.3,0.4s-0.1,0.3-0.3,0.4l-20.1,11.6C-6740.9-1344.5-6741-1344.5-6741.1-1344.5z M-6740.6-1367.3
				v21.5l18.6-10.7L-6740.6-1367.3z"/>
		</g>
		<g>
			<path d="M-6734-1338c-10.2,0-18.6-8.3-18.6-18.6s8.3-18.6,18.6-18.6s18.6,8.3,18.6,18.6S-6723.7-1338-6734-1338z M-6734-1374.1
				c-9.7,0-17.6,7.9-17.6,17.6s7.9,17.6,17.6,17.6s17.6-7.9,17.6-17.6S-6724.3-1374.1-6734-1374.1z"/>
		</g>
		<g>
			<path d="M-6729.2-1321.3h-9.4c-0.3,0-0.5-0.2-0.5-0.5s0.2-0.5,0.5-0.5h9.4c0.3,0,0.5,0.2,0.5,0.5S-6729-1321.3-6729.2-1321.3z"/>
		</g>
		<g>
			<rect x="-6759.6" y="-1393.6" fill="#E6E7E8" width="51.2" height="8.5"/>
			<path d="M-6708.4-1384.6h-51.2c-0.3,0-0.5-0.2-0.5-0.5v-8.5c0-0.3,0.2-0.5,0.5-0.5h51.2c0.3,0,0.5,0.2,0.5,0.5v8.5
				C-6707.9-1384.8-6708.1-1384.6-6708.4-1384.6z M-6759.1-1385.6h50.2v-7.5h-50.2V-1385.6z"/>
		</g>
		<g>
			<path d="M-6708.4-1327.5h-51.2c-0.3,0-0.5-0.2-0.5-0.5v-57.1c0-0.3,0.2-0.5,0.5-0.5h51.2c0.3,0,0.5,0.2,0.5,0.5v57.1
				C-6707.9-1327.8-6708.1-1327.5-6708.4-1327.5z M-6759.1-1328.5h50.2v-56.1h-50.2V-1328.5z"/>
		</g>
		<g>
			<path d="M-6741.1-1386.4c-0.3,0-0.5-0.2-0.5-0.5v-5c0-0.3,0.2-0.5,0.5-0.5s0.5,0.2,0.5,0.5v5
				C-6740.6-1386.6-6740.8-1386.4-6741.1-1386.4z"/>
		</g>
		<g>
			<path d="M-6734-1386.4c-0.3,0-0.5-0.2-0.5-0.5v-5c0-0.3,0.2-0.5,0.5-0.5s0.5,0.2,0.5,0.5v5
				C-6733.5-1386.6-6733.7-1386.4-6734-1386.4z"/>
		</g>
		<g>
			<path d="M-6726.8-1386.4c-0.3,0-0.5-0.2-0.5-0.5v-5c0-0.3,0.2-0.5,0.5-0.5s0.5,0.2,0.5,0.5v5
				C-6726.3-1386.6-6726.5-1386.4-6726.8-1386.4z"/>
		</g>
	</g>
	<g>
		<path d="M-6605.6-1362.6h-50.5c-0.3,0-0.5-0.2-0.5-0.5s0.2-0.5,0.5-0.5h50.5c0.3,0,0.5,0.2,0.5,0.5S-6605.3-1362.6-6605.6-1362.6z
			"/>
	</g>
	<g>
		<path d="M-6605.6-1355h-50.5c-0.3,0-0.5-0.2-0.5-0.5s0.2-0.5,0.5-0.5h50.5c0.3,0,0.5,0.2,0.5,0.5S-6605.3-1355-6605.6-1355z"/>
	</g>
	<g>
		<path d="M-6629.2-1347.4h-26.8c-0.3,0-0.5-0.2-0.5-0.5s0.2-0.5,0.5-0.5h26.8c0.3,0,0.5,0.2,0.5,0.5S-6629-1347.4-6629.2-1347.4z"
			/>
	</g>
	<g>
		<path d="M-6637.9-1369.6h-18.2c-0.3,0-0.5-0.2-0.5-0.5s0.2-0.5,0.5-0.5h18.2c0.3,0,0.5,0.2,0.5,0.5S-6637.6-1369.6-6637.9-1369.6z
			"/>
	</g>
	<g>
		<path d="M-6637.9-1377.5h-18.2c-0.3,0-0.5-0.2-0.5-0.5s0.2-0.5,0.5-0.5h18.2c0.3,0,0.5,0.2,0.5,0.5S-6637.6-1377.5-6637.9-1377.5z
			"/>
	</g>
	<g>
		<path d="M-6637.9-1407.6h-18.2c-0.3,0-0.5-0.2-0.5-0.5s0.2-0.5,0.5-0.5h18.2c0.3,0,0.5,0.2,0.5,0.5S-6637.6-1407.6-6637.9-1407.6z
			"/>
	</g>
	<g>
		<path d="M-6645.3-1399.7h-10.7c-0.3,0-0.5-0.2-0.5-0.5s0.2-0.5,0.5-0.5h10.7c0.3,0,0.5,0.2,0.5,0.5S-6645.1-1399.7-6645.3-1399.7z
			"/>
	</g>
	<g>
		<path d="M-6636.8-1399.7h-4.1c-0.3,0-0.5-0.2-0.5-0.5s0.2-0.5,0.5-0.5h4.1c0.3,0,0.5,0.2,0.5,0.5S-6636.5-1399.7-6636.8-1399.7z"
			/>
	</g>
	<g>
		<path d="M-6625.7-1385.4h-30.3c-0.3,0-0.5-0.2-0.5-0.5s0.2-0.5,0.5-0.5h30.3c0.3,0,0.5,0.2,0.5,0.5S-6625.5-1385.4-6625.7-1385.4z
			"/>
	</g>
	<g>
		<g>
			<g>
				<path d="M-6722.6-1271.6h-25.5c-6.9,0-12.5-5.6-12.5-12.5v-4c0-6.9,5.6-12.5,12.5-12.5h25.5c6.9,0,12.5,5.6,12.5,12.5v4
					C-6710.1-1277.2-6715.8-1271.6-6722.6-1271.6z M-6748.1-1299.6c-6.3,0-11.5,5.2-11.5,11.5v4c0,6.3,5.2,11.5,11.5,11.5h25.5
					c6.3,0,11.5-5.2,11.5-11.5v-4c0-6.3-5.2-11.5-11.5-11.5H-6748.1z"/>
			</g>
			<g>
				<path fill="#DBF2FF" d="M-6728.4-1283.8c-1.3,0-2.3-1-2.3-2.3l0,0c0-1.3,1-2.3,2.3-2.3h10.1c1.3,0,2.3,1,2.3,2.3l0,0
					c0,1.3-1,2.3-2.3,2.3H-6728.4z"/>
				<path d="M-6718.4-1283.3h-10.1c-1.5,0-2.8-1.3-2.8-2.8c0-1.5,1.3-2.8,2.8-2.8h10.1c1.5,0,2.8,1.3,2.8,2.8
					C-6715.6-1284.6-6716.8-1283.3-6718.4-1283.3z M-6728.4-1287.9c-1,0-1.8,0.8-1.8,1.8c0,1,0.8,1.8,1.8,1.8h10.1
					c1,0,1.8-0.8,1.8-1.8c0-1-0.8-1.8-1.8-1.8H-6728.4z"/>
			</g>
			<g>
				<path d="M-6733.2-1285.6c-0.3,0-0.5-0.2-0.5-0.5c0-2.7,2-4.8,4.6-5.1v-8.9c0-0.3,0.2-0.5,0.5-0.5s0.5,0.2,0.5,0.5v9.4
					c0,0.3-0.2,0.5-0.5,0.5c-2.3,0-4.1,1.9-4.1,4.1C-6732.7-1285.8-6733-1285.6-6733.2-1285.6z"/>
			</g>
			<g>
				<path d="M-6728.6-1271.6c-0.3,0-0.5-0.2-0.5-0.5v-4.7c0-0.3,0.2-0.5,0.5-0.5s0.5,0.2,0.5,0.5v4.7
					C-6728.1-1271.8-6728.3-1271.6-6728.6-1271.6z"/>
			</g>
		</g>
		<g>
			<path d="M-6705.8-1285.6h-4.8c-0.3,0-0.5-0.2-0.5-0.5s0.2-0.5,0.5-0.5h4.8c0.3,0,0.5,0.2,0.5,0.5S-6705.5-1285.6-6705.8-1285.6z"
				/>
		</g>
		<g>
			<path d="M-6698.3-1285.6h-4.7c-0.3,0-0.5-0.2-0.5-0.5s0.2-0.5,0.5-0.5h4.7c0.3,0,0.5,0.2,0.5,0.5S-6698-1285.6-6698.3-1285.6z"/>
		</g>
	</g>
	<g>
		<g>
			<polygon fill="#FFEAB3" points="-6526,-1365 -6519.5,-1365 -6519.5,-1362.3 -6507.5,-1362.3 -6495.7,-1362.3 -6495.7,-1365 
				-6489.2,-1365 -6489.2,-1362.3 -6489.1,-1362.3 -6479,-1368.6 -6479,-1385.2 -6536,-1385.2 -6536,-1368.6 -6526,-1362.4 			"/>
			<path d="M-6489.1-1361.8L-6489.1-1361.8c-0.4,0-0.6-0.2-0.6-0.5v-2.2h-5.5v2.2c0,0.3-0.2,0.5-0.5,0.5h-23.8
				c-0.3,0-0.5-0.2-0.5-0.5v-2.2h-5.5v2.1c0,0.2-0.1,0.3-0.3,0.4c-0.2,0.1-0.4,0.1-0.5,0l-10-6.2c-0.1-0.1-0.2-0.3-0.2-0.4v-16.7
				c0-0.3,0.2-0.5,0.5-0.5h57c0.3,0,0.5,0.2,0.5,0.5v16.7c0,0.2-0.1,0.3-0.2,0.4l-10.1,6.3
				C-6488.9-1361.8-6489-1361.8-6489.1-1361.8z M-6519-1362.8h22.8v-2.2c0-0.3,0.2-0.5,0.5-0.5h6.5c0.3,0,0.5,0.2,0.5,0.5v1.8
				l9.2-5.7v-15.9h-56v15.9l9,5.6v-1.7c0-0.3,0.2-0.5,0.5-0.5h6.5c0.3,0,0.5,0.2,0.5,0.5V-1362.8z"/>
		</g>
		<g>
			<polygon fill="#FFEAB3" points="-6489.1,-1362.3 -6489.2,-1362.3 -6489.2,-1357.2 -6495.7,-1357.2 -6495.7,-1362.3 
				-6507.5,-1362.3 -6519.5,-1362.3 -6519.5,-1357.2 -6526,-1357.2 -6526,-1362.4 -6536,-1368.6 -6536,-1344.7 -6479,-1344.7 
				-6479,-1368.6 			"/>
			<path d="M-6479-1344.2h-57c-0.3,0-0.5-0.2-0.5-0.5v-23.8c0-0.2,0.1-0.3,0.3-0.4c0.2-0.1,0.4-0.1,0.5,0l10,6.2
				c0.1,0.1,0.2,0.3,0.2,0.4v4.6h5.5v-4.6c0-0.3,0.2-0.5,0.5-0.5h23.8c0.3,0,0.5,0.2,0.5,0.5v4.6h5.5v-4.6c0-0.3,0.2-0.5,0.4-0.5
				l10-6.2c0.2-0.1,0.3-0.1,0.5,0c0.2,0.1,0.3,0.3,0.3,0.4v23.8C-6478.5-1344.5-6478.7-1344.2-6479-1344.2z M-6535.5-1345.2h56
				v-22.4l-9.2,5.7v4.7c0,0.3-0.2,0.5-0.5,0.5h-6.5c-0.3,0-0.5-0.2-0.5-0.5v-4.6h-22.8v4.6c0,0.3-0.2,0.5-0.5,0.5h-6.5
				c-0.3,0-0.5-0.2-0.5-0.5v-4.9l-9-5.6V-1345.2z"/>
		</g>
		<g>
			<path d="M-6519.5-1356.7h-6.5c-0.3,0-0.5-0.2-0.5-0.5v-7.8c0-0.3,0.2-0.5,0.5-0.5h6.5c0.3,0,0.5,0.2,0.5,0.5v7.8
				C-6519-1357-6519.2-1356.7-6519.5-1356.7z M-6525.5-1357.7h5.5v-6.8h-5.5V-1357.7z"/>
		</g>
		<g>
			<path d="M-6489.2-1356.7h-6.5c-0.3,0-0.5-0.2-0.5-0.5v-7.8c0-0.3,0.2-0.5,0.5-0.5h6.5c0.3,0,0.5,0.2,0.5,0.5v7.8
				C-6488.7-1357-6488.9-1356.7-6489.2-1356.7z M-6495.2-1357.7h5.5v-6.8h-5.5V-1357.7z"/>
		</g>
		<g>
			<path d="M-6494.6-1384.7c-0.3,0-0.5-0.2-0.5-0.5v-4.8c0-2.7-2.2-4.9-4.9-4.9h-15.1c-2.7,0-4.9,2.2-4.9,4.9v4.8
				c0,0.3-0.2,0.5-0.5,0.5s-0.5-0.2-0.5-0.5v-4.8c0-3.2,2.6-5.9,5.9-5.9h15.1c3.2,0,5.9,2.6,5.9,5.9v4.8
				C-6494.1-1385-6494.3-1384.7-6494.6-1384.7z"/>
		</g>
	</g>
	<g>
		<rect x="-6535.4" y="-1328.8" fill="#DBF2FF" width="52.4" height="67.6"/>
		<path d="M-6483.1-1260.7h-52.4c-0.3,0-0.5-0.2-0.5-0.5v-67.6c0-0.3,0.2-0.5,0.5-0.5h52.4c0.3,0,0.5,0.2,0.5,0.5v67.6
			C-6482.6-1260.9-6482.8-1260.7-6483.1-1260.7z M-6534.9-1261.7h51.4v-66.6h-51.4V-1261.7z"/>
	</g>
	<g>
		<rect x="-6528.3" y="-1321.8" fill="#FFD1C8" width="9.8" height="9.8"/>
		<path d="M-6518.4-1311.5h-9.8c-0.3,0-0.5-0.2-0.5-0.5v-9.8c0-0.3,0.2-0.5,0.5-0.5h9.8c0.3,0,0.5,0.2,0.5,0.5v9.8
			C-6517.9-1311.7-6518.1-1311.5-6518.4-1311.5z M-6527.8-1312.5h8.8v-8.8h-8.8V-1312.5z"/>
	</g>
	<g>
		<rect x="-6528.3" y="-1304" fill="#FFD1C8" width="9.8" height="9.8"/>
		<path d="M-6518.4-1293.6h-9.8c-0.3,0-0.5-0.2-0.5-0.5v-9.8c0-0.3,0.2-0.5,0.5-0.5h9.8c0.3,0,0.5,0.2,0.5,0.5v9.8
			C-6517.9-1293.8-6518.1-1293.6-6518.4-1293.6z M-6527.8-1294.6h8.8v-8.8h-8.8V-1294.6z"/>
	</g>
	<g>
		<path d="M-6518.4-1275.7h-9.8c-0.3,0-0.5-0.2-0.5-0.5v-9.8c0-0.3,0.2-0.5,0.5-0.5h9.8c0.3,0,0.5,0.2,0.5,0.5v9.8
			C-6517.9-1276-6518.1-1275.7-6518.4-1275.7z M-6527.8-1276.7h8.8v-8.8h-8.8V-1276.7z"/>
	</g>
	<g>
		<path d="M-6490.6-1321.3h-22.7c-0.3,0-0.5-0.2-0.5-0.5s0.2-0.5,0.5-0.5h22.7c0.3,0,0.5,0.2,0.5,0.5S-6490.3-1321.3-6490.6-1321.3z
			"/>
	</g>
	<g>
		<path d="M-6490.6-1297.4h-22.7c-0.3,0-0.5-0.2-0.5-0.5s0.2-0.5,0.5-0.5h22.7c0.3,0,0.5,0.2,0.5,0.5S-6490.3-1297.4-6490.6-1297.4z
			"/>
	</g>
	<g>
		<path d="M-6499.1-1280.2h-14.2c-0.3,0-0.5-0.2-0.5-0.5s0.2-0.5,0.5-0.5h14.2c0.3,0,0.5,0.2,0.5,0.5S-6498.8-1280.2-6499.1-1280.2z
			"/>
	</g>
	<g>
		<path d="M-6484.5-1284.9h-28.8c-0.3,0-0.5-0.2-0.5-0.5s0.2-0.5,0.5-0.5h28.8c0.3,0,0.5,0.2,0.5,0.5S-6484.2-1284.9-6484.5-1284.9z
			"/>
	</g>
	<g>
		<path d="M-6499.1-1275.7h-14.2c-0.3,0-0.5-0.2-0.5-0.5s0.2-0.5,0.5-0.5h14.2c0.3,0,0.5,0.2,0.5,0.5S-6498.8-1275.7-6499.1-1275.7z
			"/>
	</g>
	<g>
		<path d="M-6500.1-1311.5h-13.2c-0.3,0-0.5-0.2-0.5-0.5s0.2-0.5,0.5-0.5h13.2c0.3,0,0.5,0.2,0.5,0.5S-6499.8-1311.5-6500.1-1311.5z
			"/>
	</g>
	<g>
		<path fill="#E6E7E8" d="M-6539.1-1304c-11.1,0-20.4,7.8-22.7,18.2h-37.6c-2.8,0-5.1,2.3-5.1,5.1c0,2.8,2.3,5.1,5.1,5.1h37.6
			c2.3,10.4,11.6,18.2,22.7,18.2c12.9,0,23.3-10.4,23.3-23.3S-6526.3-1304-6539.1-1304z M-6539.1-1263.5c-9.5,0-17.2-7.7-17.2-17.2
			c0-9.5,7.7-17.2,17.2-17.2c9.5,0,17.2,7.7,17.2,17.2C-6521.9-1271.2-6529.6-1263.5-6539.1-1263.5z"/>
		<path d="M-6539.1-1256.9c-10.9,0-20.6-7.6-23.1-18.2h-37.2c-3.1,0-5.6-2.5-5.6-5.6c0-3.1,2.5-5.6,5.6-5.6h37.2
			c2.5-10.6,12.2-18.2,23.1-18.2c13.1,0,23.8,10.7,23.8,23.8C-6515.4-1267.6-6526-1256.9-6539.1-1256.9z M-6599.4-1285.3
			c-2.5,0-4.6,2.1-4.6,4.6c0,2.5,2.1,4.6,4.6,4.6h37.6c0.2,0,0.4,0.2,0.5,0.4c2.3,10.3,11.6,17.8,22.2,17.8
			c12.6,0,22.8-10.2,22.8-22.8c0-12.6-10.2-22.8-22.8-22.8c-10.6,0-19.9,7.5-22.2,17.8c-0.1,0.2-0.3,0.4-0.5,0.4H-6599.4z
			 M-6539.1-1263c-9.8,0-17.7-8-17.7-17.7c0-9.8,8-17.7,17.7-17.7l0,0c9.8,0,17.7,8,17.7,17.7S-6529.4-1263-6539.1-1263z
			 M-6539.1-1297.4c-9.2,0-16.7,7.5-16.7,16.7c0,9.2,7.5,16.7,16.7,16.7s16.7-7.5,16.7-16.7S-6529.9-1297.4-6539.1-1297.4
			L-6539.1-1297.4z"/>
	</g>
	<g>
		<circle fill="#FFFFFF" cx="-6539.1" cy="-1280.7" r="17.2"/>
		<path d="M-6539.1-1263c-9.8,0-17.7-8-17.7-17.7c0-9.8,8-17.7,17.7-17.7c9.8,0,17.7,8,17.7,17.7S-6529.4-1263-6539.1-1263z
			 M-6539.1-1297.4c-9.2,0-16.7,7.5-16.7,16.7c0,9.2,7.5,16.7,16.7,16.7s16.7-7.5,16.7-16.7S-6529.9-1297.4-6539.1-1297.4z"/>
	</g>
	<g>
		<path d="M-6710.5-1452.9c1.7-2.3,4.2-3.4,7.4-3.4c3.2,0,5.7,1.1,7.4,3.4c1.5,2,2.3,4.7,2.3,8c0,3.3-0.8,6-2.3,8
			c-1.7,2.2-4.2,3.3-7.4,3.3s-5.7-1.1-7.4-3.3c-1.5-2-2.3-4.7-2.3-8C-6712.7-1448.2-6712-1450.8-6710.5-1452.9z M-6709.7-1437.6
			c1.5,2.1,3.7,3.2,6.6,3.2c2.9,0,5.1-1.1,6.6-3.2c1.3-1.8,2-4.3,2-7.3c0-3-0.7-5.4-2-7.3c-1.5-2.1-3.7-3.2-6.6-3.2
			c-2.9,0-5.1,1.1-6.6,3.2c-1.3,1.9-2,4.3-2,7.3C-6711.7-1441.9-6711-1439.4-6709.7-1437.6z"/>
		<path d="M-6689.4-1455.8h12.7v1h-11.7v9h9.3v0.9h-9.3v10.9h-1V-1455.8z"/>
		<path d="M-6673.5-1455.8h12.7v1h-11.7v9h9.3v0.9h-9.3v10.9h-1V-1455.8z"/>
		<path d="M-6657.5-1455.8h1v21.8h-1V-1455.8z"/>
		<path d="M-6637.4-1435.5c-1.5,1.3-3.5,2-5.9,2c-3.1,0-5.5-1.1-7-3.4c-1.4-2-2-4.6-2-7.8s0.7-5.9,2.1-8c1.6-2.3,4-3.5,7.2-3.5
			c2.2,0,4,0.6,5.5,1.8c1.1,0.8,1.8,1.9,2.3,3.1l-0.9,0.5c-1-3-3.3-4.5-7-4.5c-2.7,0-4.8,1.1-6.2,3.4c-1.2,1.9-1.8,4.3-1.8,7.2
			c0,2.9,0.6,5.3,1.7,7.1c1.4,2.2,3.4,3.3,6.1,3.3c2.2,0,3.9-0.6,5.3-1.8c1.1-0.9,1.7-2.1,2.1-3.5l0.9,0.5
			C-6635.5-1437.8-6636.3-1436.5-6637.4-1435.5z"/>
		<path d="M-6630.8-1455.8h13.3v1h-12.3v9h9.7v0.9h-9.7v9.9h12.6v1h-13.6V-1455.8z"/>
		<path d="M-6605.5-1455.8h1v21.8h-1V-1455.8z"/>
		<path d="M-6585.4-1435.5c-1.5,1.3-3.5,2-5.9,2c-3.1,0-5.5-1.1-7-3.4c-1.4-2-2-4.6-2-7.8s0.7-5.9,2.1-8c1.6-2.3,4-3.5,7.2-3.5
			c2.2,0,4,0.6,5.5,1.8c1.1,0.8,1.8,1.9,2.3,3.1l-0.9,0.5c-1-3-3.3-4.5-7-4.5c-2.7,0-4.8,1.1-6.2,3.4c-1.2,1.9-1.8,4.3-1.8,7.2
			c0,2.9,0.6,5.3,1.7,7.1c1.4,2.2,3.4,3.3,6.1,3.3c2.2,0,3.9-0.6,5.3-1.8c1.1-0.9,1.7-2.1,2.1-3.5l0.9,0.5
			C-6583.6-1437.8-6584.3-1436.5-6585.4-1435.5z"/>
		<path d="M-6577.4-1452.9c1.7-2.3,4.2-3.4,7.4-3.4c3.2,0,5.7,1.1,7.4,3.4c1.5,2,2.3,4.7,2.3,8c0,3.3-0.8,6-2.3,8
			c-1.7,2.2-4.2,3.3-7.4,3.3s-5.7-1.1-7.4-3.3c-1.5-2-2.3-4.7-2.3-8C-6579.7-1448.2-6578.9-1450.8-6577.4-1452.9z M-6576.7-1437.6
			c1.5,2.1,3.7,3.2,6.6,3.2c2.9,0,5.1-1.1,6.6-3.2c1.3-1.8,2-4.3,2-7.3c0-3-0.7-5.4-2-7.3c-1.5-2.1-3.7-3.2-6.6-3.2
			s-5.1,1.1-6.6,3.2c-1.3,1.9-2,4.3-2,7.3C-6578.6-1441.9-6578-1439.4-6576.7-1437.6z"/>
		<path d="M-6556.3-1455.8h1l13.7,20.1v-20.1h1v21.8h-1l-13.7-20v20h-1V-1455.8z"/>
		<path d="M-6535.8-1440.6c0.1,1.9,0.7,3.4,1.9,4.5c1.1,1.1,2.7,1.7,4.6,1.7c1.7,0,3.1-0.4,4.2-1.3c1.3-0.9,1.9-2.2,1.9-3.8
			c0-1.7-0.7-2.9-2-3.8c-0.7-0.4-2.1-1-4.4-1.6c0,0-0.2-0.1-0.4-0.1c-2.5-0.7-4.1-1.4-4.8-2c-1-0.9-1.5-2.1-1.5-3.6
			c0-1.9,0.6-3.3,1.9-4.3c1.2-0.9,2.7-1.4,4.6-1.4c2,0,3.7,0.6,4.9,1.7c1.3,1.1,2,2.7,2.1,4.7h-1c0-1.8-0.6-3.1-1.8-4.1
			c-1.1-0.9-2.5-1.4-4.3-1.4c-1.6,0-2.9,0.4-3.9,1.2c-1.1,0.8-1.6,2.1-1.6,3.6c0,1.1,0.4,2.1,1.3,2.9c0.7,0.6,2.1,1.2,4.3,1.8
			c0,0,0.1,0,0.2,0c0.1,0,0.2,0,0.3,0.1c2.3,0.6,3.9,1.2,4.8,1.8c1.5,1,2.3,2.4,2.3,4.2c0,2-0.7,3.6-2.2,4.7c-1.3,1-3,1.5-5.1,1.5
			c-2.2,0-4-0.6-5.2-1.9c-1.3-1.2-2-3-2.2-5.2H-6535.8z"/>
	</g>
	<g>
		<path d="M-6491.6-1444.2h-18.7c-0.3,0-0.5-0.2-0.5-0.5s0.2-0.5,0.5-0.5h18.7c0.3,0,0.5,0.2,0.5,0.5S-6491.3-1444.2-6491.6-1444.2z
			"/>
	</g>
	<g>
		<path d="M-6725.1-1444.2h-18.7c-0.3,0-0.5-0.2-0.5-0.5s0.2-0.5,0.5-0.5h18.7c0.3,0,0.5,0.2,0.5,0.5S-6724.8-1444.2-6725.1-1444.2z
			"/>
	</g>
	<g>
		<path d="M-6705.8-1418.7h-28.6c-0.3,0-0.5-0.2-0.5-0.5s0.2-0.5,0.5-0.5h28.6c0.3,0,0.5,0.2,0.5,0.5S-6705.5-1418.7-6705.8-1418.7z
			"/>
	</g>
	<g>
		<path d="M-6723.4-1409.5h-27.6c-0.3,0-0.5-0.2-0.5-0.5s0.2-0.5,0.5-0.5h27.6c0.3,0,0.5,0.2,0.5,0.5S-6723.1-1409.5-6723.4-1409.5z
			"/>
	</g>
	<g>
		<path d="M-6735.4-1427.8h-11.4c-0.3,0-0.5-0.2-0.5-0.5s0.2-0.5,0.5-0.5h11.4c0.3,0,0.5,0.2,0.5,0.5S-6735.1-1427.8-6735.4-1427.8z
			"/>
	</g>
	<g>
		<path d="M-6519.5-1421h-18c-0.3,0-0.5-0.2-0.5-0.5s0.2-0.5,0.5-0.5h18c0.3,0,0.5,0.2,0.5,0.5S-6519.2-1421-6519.5-1421z"/>
	</g>
	<g>
		<path d="M-6501.9-1428.8h-4.7c-0.3,0-0.5-0.2-0.5-0.5s0.2-0.5,0.5-0.5h4.7c0.3,0,0.5,0.2,0.5,0.5S-6501.7-1428.8-6501.9-1428.8z"
			/>
	</g>
	<g>
		<path d="M-6501.9-1406h-34c-0.3,0-0.5-0.2-0.5-0.5s0.2-0.5,0.5-0.5h34c0.3,0,0.5,0.2,0.5,0.5S-6501.7-1406-6501.9-1406z"/>
	</g>
	<g>
		<g>
			<path fill="#FFD1C8" d="M-6627.6-1305.3h-48.7c-2.2,0-4,1.8-4,4v33.6c0,2.2,1.8,4,4,4h32.6l12.1,12.1v-12.1h4c2.2,0,4-1.8,4-4
				v-33.6C-6623.6-1303.5-6625.4-1305.3-6627.6-1305.3z"/>
			<path d="M-6631.5-1251.1c-0.1,0-0.3-0.1-0.4-0.1l-12-12h-32.4c-2.5,0-4.5-2-4.5-4.5v-33.6c0-2.5,2-4.5,4.5-4.5h48.7
				c2.5,0,4.5,2,4.5,4.5v33.6c0,2.5-2,4.5-4.5,4.5h-3.5v11.6c0,0.2-0.1,0.4-0.3,0.5C-6631.4-1251.1-6631.5-1251.1-6631.5-1251.1z
				 M-6676.3-1304.8c-1.9,0-3.5,1.6-3.5,3.5v33.6c0,1.9,1.6,3.5,3.5,3.5h32.6c0.1,0,0.3,0.1,0.4,0.1l11.3,11.3v-10.9
				c0-0.3,0.2-0.5,0.5-0.5h4c1.9,0,3.5-1.6,3.5-3.5v-33.6c0-1.9-1.6-3.5-3.5-3.5H-6676.3z"/>
		</g>
		<g>
			<line fill="#FFFFFF" x1="-6673.7" y1="-1295.1" x2="-6664.2" y2="-1295.1"/>
			<path d="M-6664.2-1294.6h-9.5c-0.3,0-0.5-0.2-0.5-0.5s0.2-0.5,0.5-0.5h9.5c0.3,0,0.5,0.2,0.5,0.5S-6663.9-1294.6-6664.2-1294.6z"
				/>
		</g>
		<g>
			<line fill="#FFFFFF" x1="-6654.8" y1="-1295.1" x2="-6630.1" y2="-1295.1"/>
			<path d="M-6630.1-1294.6h-24.7c-0.3,0-0.5-0.2-0.5-0.5s0.2-0.5,0.5-0.5h24.7c0.3,0,0.5,0.2,0.5,0.5S-6629.8-1294.6-6630.1-1294.6
				z"/>
		</g>
		<g>
			<line fill="#FFFFFF" x1="-6673.7" y1="-1287.9" x2="-6659.8" y2="-1287.9"/>
			<path d="M-6659.8-1287.4h-14c-0.3,0-0.5-0.2-0.5-0.5s0.2-0.5,0.5-0.5h14c0.3,0,0.5,0.2,0.5,0.5S-6659.5-1287.4-6659.8-1287.4z"/>
		</g>
		<g>
			<line fill="#FFFFFF" x1="-6654.5" y1="-1287.9" x2="-6648.8" y2="-1287.9"/>
			<path d="M-6648.8-1287.4h-5.8c-0.3,0-0.5-0.2-0.5-0.5s0.2-0.5,0.5-0.5h5.8c0.3,0,0.5,0.2,0.5,0.5S-6648.5-1287.4-6648.8-1287.4z"
				/>
		</g>
		<g>
			<line fill="#FFFFFF" x1="-6643.4" y1="-1287.9" x2="-6630.1" y2="-1287.9"/>
			<path d="M-6630.1-1287.4h-13.3c-0.3,0-0.5-0.2-0.5-0.5s0.2-0.5,0.5-0.5h13.3c0.3,0,0.5,0.2,0.5,0.5S-6629.8-1287.4-6630.1-1287.4
				z"/>
		</g>
		<g>
			<line fill="#FFFFFF" x1="-6651.9" y1="-1280.8" x2="-6630.1" y2="-1280.8"/>
			<path d="M-6630.1-1280.3h-21.8c-0.3,0-0.5-0.2-0.5-0.5s0.2-0.5,0.5-0.5h21.8c0.3,0,0.5,0.2,0.5,0.5S-6629.8-1280.3-6630.1-1280.3
				z"/>
		</g>
		<g>
			<line fill="#FFFFFF" x1="-6673.7" y1="-1280.8" x2="-6668" y2="-1280.8"/>
			<path d="M-6668-1280.3h-5.8c-0.3,0-0.5-0.2-0.5-0.5s0.2-0.5,0.5-0.5h5.8c0.3,0,0.5,0.2,0.5,0.5S-6667.7-1280.3-6668-1280.3z"/>
		</g>
		<g>
			<line fill="#FFFFFF" x1="-6673.7" y1="-1273.7" x2="-6642.4" y2="-1273.7"/>
			<path d="M-6642.4-1273.2h-31.3c-0.3,0-0.5-0.2-0.5-0.5s0.2-0.5,0.5-0.5h31.3c0.3,0,0.5,0.2,0.5,0.5S-6642.2-1273.2-6642.4-1273.2
				z"/>
		</g>
	</g>
	<g>
		<path d="M-6528.4-1278.5c-0.1,0-0.3,0-0.4-0.1l-8.9-8.9c-0.2-0.2-0.2-0.5,0-0.7s0.5-0.2,0.7,0l8.9,8.9c0.2,0.2,0.2,0.5,0,0.7
			C-6528.1-1278.6-6528.3-1278.5-6528.4-1278.5z"/>
	</g>
	<g>
		<path d="M-6533.7-1270.7c-0.1,0-0.3,0-0.4-0.1l-15.8-15.8c-0.2-0.2-0.2-0.5,0-0.7c0.2-0.2,0.5-0.2,0.7,0l15.8,15.8
			c0.2,0.2,0.2,0.5,0,0.7C-6533.4-1270.7-6533.5-1270.7-6533.7-1270.7z"/>
	</g>
</g>
<g>
	<g>
		<g>
			<g>
				<g>
					<g>
						<g>
							<g>
								<rect y="0" fill="#FFFFFF" width="1400" height="980"/>
							</g>
						</g>
					</g>
				</g>
			</g>
		</g>
	</g>
	<g>
		<g>
			<g>
				<g>
					<g>
						<g>
							<circle fill="#6D4C6D" cx="700" cy="490" r="281.9"/>
						</g>
					</g>
				</g>
			</g>
		</g>
		<g>
			<g>
				<g>
					<g>
						<g>
							<path d="M700,773.2c-156.1,0-283.2-127-283.2-283.2c0-156.1,127-283.2,283.2-283.2c156.1,0,283.2,127,283.2,283.2
								C983.2,646.1,856.1,773.2,700,773.2z M700,209.3c-154.8,0-280.7,125.9-280.7,280.7c0,154.8,125.9,280.7,280.7,280.7
								c154.8,0,280.7-125.9,280.7-280.7C980.7,335.2,854.8,209.3,700,209.3z"/>
						</g>
					</g>
				</g>
			</g>
		</g>
	</g>
	<g>
		<g>
			<g>
				<g>
					<g>
						<g>
							<path fill="#CBFF96" d="M878.3,427.3c9.3-15.4,14.7-33.5,14.7-52.8c0-22.2-7.1-42.7-19-59.4l-83.5,59.4L878.3,427.3z"/>
						</g>
					</g>
				</g>
			</g>
		</g>
		<g>
			<g>
				<g>
					<g>
						<g>
							<path d="M878.3,428.5c-0.2,0-0.4-0.1-0.6-0.2l-87.8-52.8c-0.4-0.2-0.6-0.6-0.6-1c0-0.4,0.2-0.8,0.5-1.1l83.5-59.4
								c0.6-0.4,1.3-0.3,1.7,0.3c12.6,17.6,19.2,38.4,19.2,60.1c0,18.9-5.1,37.4-14.8,53.5C879.1,428.3,878.7,428.5,878.3,428.5z
								 M792.8,374.4l85.1,51.2c9.1-15.5,13.9-33.1,13.9-51.1c0-20.8-6.2-40.7-18.1-57.7L792.8,374.4z"/>
						</g>
					</g>
				</g>
			</g>
		</g>
	</g>
	<g>
		<g>
			<g>
				<g>
					<g>
						<g>
							<path fill="#FFF88F" d="M869.3,302.5c-18.6-26.1-49-43.1-83.5-43.1v102.5L869.3,302.5z"/>
						</g>
					</g>
				</g>
			</g>
		</g>
		<g>
			<g>
				<g>
					<g>
						<g>
							<path d="M785.8,363.1c-0.2,0-0.4,0-0.6-0.1c-0.4-0.2-0.7-0.6-0.7-1.1V259.4c0-0.7,0.6-1.2,1.2-1.2c33.4,0,65,16.3,84.5,43.6
								c0.2,0.3,0.3,0.6,0.2,0.9c-0.1,0.3-0.2,0.6-0.5,0.8l-83.5,59.4C786.3,363,786.1,363.1,785.8,363.1z M787.1,260.7v98.8
								l80.5-57.3C848.8,276.5,818.8,261.1,787.1,260.7z"/>
						</g>
					</g>
				</g>
			</g>
		</g>
	</g>
	<g>
		<g>
			<g>
				<g>
					<g>
						<g>
							<path fill="#FF8B87" d="M772.9,380V263.8c-64.2,0-116.2,52-116.2,116.2c0,64.2,52,116.2,116.2,116.2
								c42.3,0,79.2-22.6,99.6-56.3L772.9,380z"/>
						</g>
					</g>
				</g>
			</g>
		</g>
		<g>
			<g>
				<g>
					<g>
						<g>
							<path d="M772.9,497.4c-64.7,0-117.4-52.7-117.4-117.4c0-64.7,52.7-117.4,117.4-117.4c0.7,0,1.2,0.6,1.2,1.2v115.5l99,59.5
								c0.3,0.2,0.5,0.4,0.6,0.8c0.1,0.3,0,0.7-0.1,0.9C852.1,476.2,814.5,497.4,772.9,497.4z M771.7,265.1
								C708.9,265.7,658,317,658,380c0,63.4,51.6,115,115,115c40.2,0,76.7-20.4,97.9-54.6l-98.5-59.3c-0.4-0.2-0.6-0.6-0.6-1.1
								V265.1z"/>
						</g>
					</g>
				</g>
			</g>
		</g>
	</g>
	<g>
		<g>
			<g>
				<g>
					<g>
						<g>
							<polygon fill="#8FF0FF" points="751.9,391.6 486.2,391.6 486.2,753.9 684.9,753.9 751.9,686.9 							"/>
						</g>
					</g>
				</g>
			</g>
		</g>
		<g>
			<g>
				<g>
					<g>
						<g>
							<path d="M684.9,755.2H486.2c-0.7,0-1.2-0.6-1.2-1.2V391.6c0-0.7,0.6-1.2,1.2-1.2h265.7c0.7,0,1.2,0.6,1.2,1.2v295.4
								c0,0.3-0.1,0.6-0.4,0.9l-67,67C685.5,755,685.2,755.2,684.9,755.2z M487.4,752.7h197l66.3-66.3V392.8H487.4V752.7z"/>
						</g>
					</g>
				</g>
			</g>
		</g>
	</g>
	<g>
		<g>
			<g>
				<g>
					<g>
						<g>
							<polygon fill="#7ACEDB" points="684.9,753.9 751.9,686.9 684.9,686.9 							"/>
						</g>
					</g>
				</g>
			</g>
		</g>
		<g>
			<g>
				<g>
					<g>
						<g>
							<path d="M684.9,755.2c-0.2,0-0.3,0-0.5-0.1c-0.5-0.2-0.8-0.6-0.8-1.1v-67c0-0.7,0.6-1.2,1.2-1.2h67c0.5,0,0.9,0.3,1.1,0.8
								c0.2,0.5,0.1,1-0.3,1.3l-67,67C685.5,755,685.2,755.2,684.9,755.2z M686.1,688.2v62.8l62.8-62.8H686.1z"/>
						</g>
					</g>
				</g>
			</g>
		</g>
	</g>
	<g>
		<g>
			<g>
				<g>
					<g>
						<g>
							<line fill="#FFFFFF" x1="559.7" y1="433.3" x2="678.3" y2="433.3"/>
						</g>
					</g>
				</g>
			</g>
		</g>
		<g>
			<g>
				<g>
					<g>
						<g>
							<path d="M678.3,434.5H559.7c-0.7,0-1.2-0.6-1.2-1.2s0.6-1.2,1.2-1.2h118.6c0.7,0,1.2,0.6,1.2,1.2S679,434.5,678.3,434.5z"/>
						</g>
					</g>
				</g>
			</g>
		</g>
	</g>
	<g>
		<g>
			<g>
				<g>
					<g>
						<g>
							<rect x="519.1" y="468.4" fill="#FFF88F" width="73.2" height="73.2"/>
						</g>
					</g>
				</g>
			</g>
		</g>
		<g>
			<g>
				<g>
					<g>
						<g>
							<path d="M592.3,542.9h-73.2c-0.7,0-1.2-0.6-1.2-1.2v-73.2c0-0.7,0.6-1.2,1.2-1.2h73.2c0.7,0,1.2,0.6,1.2,1.2v73.2
								C593.5,542.3,593,542.9,592.3,542.9z M520.3,540.4h70.7v-70.7h-70.7V540.4z"/>
						</g>
					</g>
				</g>
			</g>
		</g>
	</g>
	<g>
		<g>
			<g>
				<g>
					<g>
						<g>
							<line fill="#FFFFFF" x1="612.4" y1="468.4" x2="718.4" y2="468.4"/>
						</g>
					</g>
				</g>
			</g>
		</g>
		<g>
			<g>
				<g>
					<g>
						<g>
							<path d="M718.4,469.7h-106c-0.7,0-1.2-0.6-1.2-1.2c0-0.7,0.6-1.2,1.2-1.2h106c0.7,0,1.2,0.6,1.2,1.2
								C719.6,469.1,719.1,469.7,718.4,469.7z"/>
						</g>
					</g>
				</g>
			</g>
		</g>
	</g>
	<g>
		<g>
			<g>
				<g>
					<g>
						<g>
							<line fill="#FFFFFF" x1="612.4" y1="505" x2="718.4" y2="505"/>
						</g>
					</g>
				</g>
			</g>
		</g>
		<g>
			<g>
				<g>
					<g>
						<g>
							<path d="M718.4,506.3h-106c-0.7,0-1.2-0.6-1.2-1.2c0-0.7,0.6-1.2,1.2-1.2h106c0.7,0,1.2,0.6,1.2,1.2
								C719.6,505.7,719.1,506.3,718.4,506.3z"/>
						</g>
					</g>
				</g>
			</g>
		</g>
	</g>
	<g>
		<g>
			<g>
				<g>
					<g>
						<g>
							<line fill="#FFFFFF" x1="612.4" y1="541.6" x2="718.4" y2="541.6"/>
						</g>
					</g>
				</g>
			</g>
		</g>
		<g>
			<g>
				<g>
					<g>
						<g>
							<path d="M718.4,542.9h-106c-0.7,0-1.2-0.6-1.2-1.2c0-0.7,0.6-1.2,1.2-1.2h106c0.7,0,1.2,0.6,1.2,1.2
								C719.6,542.3,719.1,542.9,718.4,542.9z"/>
						</g>
					</g>
				</g>
			</g>
		</g>
	</g>
	<g>
		<g>
			<g>
				<g>
					<g>
						<g>
							<line fill="#FFFFFF" x1="519.1" y1="578.2" x2="718.4" y2="578.2"/>
						</g>
					</g>
				</g>
			</g>
		</g>
		<g>
			<g>
				<g>
					<g>
						<g>
							<path d="M718.4,579.5H519.1c-0.7,0-1.2-0.6-1.2-1.2s0.6-1.2,1.2-1.2h199.3c0.7,0,1.2,0.6,1.2,1.2S719.1,579.5,718.4,579.5z"
								/>
						</g>
					</g>
				</g>
			</g>
		</g>
	</g>
	<g>
		<g>
			<g>
				<g>
					<g>
						<g>
							<line fill="#FFFFFF" x1="519.1" y1="614.8" x2="718.4" y2="614.8"/>
						</g>
					</g>
				</g>
			</g>
		</g>
		<g>
			<g>
				<g>
					<g>
						<g>
							<path d="M718.4,616.1H519.1c-0.7,0-1.2-0.6-1.2-1.2s0.6-1.2,1.2-1.2h199.3c0.7,0,1.2,0.6,1.2,1.2S719.1,616.1,718.4,616.1z"
								/>
						</g>
					</g>
				</g>
			</g>
		</g>
	</g>
	<g>
		<g>
			<g>
				<g>
					<g>
						<g>
							<line fill="#FFFFFF" x1="612.4" y1="651.5" x2="718.4" y2="651.5"/>
						</g>
					</g>
				</g>
			</g>
		</g>
		<g>
			<g>
				<g>
					<g>
						<g>
							<path d="M718.4,652.7h-106c-0.7,0-1.2-0.6-1.2-1.2s0.6-1.2,1.2-1.2h106c0.7,0,1.2,0.6,1.2,1.2S719.1,652.7,718.4,652.7z"/>
						</g>
					</g>
				</g>
			</g>
		</g>
	</g>
	<g>
		<g>
			<g>
				<g>
					<g>
						<g>
							<path fill="#231F20" d="M911.6,542.9H772.2c-0.7,0-1.2-0.6-1.2-1.2c0-0.7,0.6-1.2,1.2-1.2h139.5c0.7,0,1.2,0.6,1.2,1.2
								C912.9,542.3,912.3,542.9,911.6,542.9z"/>
						</g>
					</g>
				</g>
			</g>
		</g>
	</g>
	<g>
		<g>
			<g>
				<g>
					<g>
						<g>
							<path fill="#231F20" d="M858.9,579.5h-86.7c-0.7,0-1.2-0.6-1.2-1.2s0.6-1.2,1.2-1.2h86.7c0.7,0,1.2,0.6,1.2,1.2
								S859.6,579.5,858.9,579.5z"/>
						</g>
					</g>
				</g>
			</g>
		</g>
	</g>
	<g>
		<g>
			<g>
				<g>
					<g>
						<g>
							<path fill="#231F20" d="M815.5,616.1h-43.4c-0.7,0-1.2-0.6-1.2-1.2s0.6-1.2,1.2-1.2h43.4c0.7,0,1.2,0.6,1.2,1.2
								S816.2,616.1,815.5,616.1z"/>
						</g>
					</g>
				</g>
			</g>
		</g>
	</g>
	<g>
		<g>
			<g>
				<g>
					<g>
						<g>
							<rect x="613.5" y="351.7" fill="#593F59" width="28.4" height="28.4"/>
						</g>
					</g>
				</g>
			</g>
		</g>
	</g>
	<g>
		<g>
			<g>
				<g>
					<g>
						<g>
							<rect x="768.8" y="637.3" fill="#593F59" width="28.4" height="28.4"/>
						</g>
					</g>
				</g>
			</g>
		</g>
	</g>
	<g>
		<g>
			<g>
				<g>
					<g>
						<g>
							<rect x="815.5" y="637.3" fill="#593F59" width="28.4" height="28.4"/>
						</g>
					</g>
				</g>
			</g>
		</g>
	</g>
	<g>
		<g>
			<g>
				<g>
					<g>
						<g>
							<rect x="907.4" y="482" fill="#593F59" width="28.4" height="28.4"/>
						</g>
					</g>
				</g>
			</g>
		</g>
	</g>
	<g>
		<g>
			<g>
				<g>
					<g>
						<g>
							<rect x="861.7" y="482" fill="#593F59" width="28.4" height="28.4"/>
						</g>
					</g>
				</g>
			</g>
		</g>
	</g>
	<g>
		<g>
			<g>
				<g>
					<g>
						<g>
							<rect x="907.4" y="433.3" fill="#593F59" width="28.4" height="28.4"/>
						</g>
					</g>
				</g>
			</g>
		</g>
	</g>
	<g>
		<g>
			<g>
				<g>
					<g>
						<g>
							<rect x="613.5" y="307.3" fill="#593F59" width="28.4" height="28.4"/>
						</g>
					</g>
				</g>
			</g>
		</g>
	</g>
	<g>
		<g>
			<g>
				<g>
					<g>
						<g>
							<rect x="567.9" y="351.7" fill="#593F59" width="28.4" height="28.4"/>
						</g>
					</g>
				</g>
			</g>
		</g>
	</g>
	<g>
		<g>
			<g>
				<g>
					<g>
						<g>
							<rect x="522.2" y="351.7" fill="#593F59" width="28.4" height="28.4"/>
						</g>
					</g>
				</g>
			</g>
		</g>
	</g>
	<g>
		<g>
			<g>
				<g>
					<g>
						<g>
							<path d="M793.9,721.7h-21.7c-0.7,0-1.2-0.6-1.2-1.2s0.6-1.2,1.2-1.2h21.7c0.7,0,1.2,0.6,1.2,1.2S794.5,721.7,793.9,721.7z"/>
						</g>
					</g>
				</g>
			</g>
		</g>
	</g>
	<g>
		<g>
			<g>
				<g>
					<g>
						<g>
							<path d="M783,734.9c-0.7,0-1.2-0.6-1.2-1.2v-25.1c0-0.7,0.6-1.2,1.2-1.2s1.2,0.6,1.2,1.2v25.1
								C784.2,734.4,783.7,734.9,783,734.9z"/>
						</g>
					</g>
				</g>
			</g>
		</g>
	</g>
	<g>
		<g>
			<g>
				<g>
					<g>
						<g>
							<path d="M768.8,740.3h-22c-0.7,0-1.2-0.6-1.2-1.2c0-0.7,0.6-1.2,1.2-1.2h22c0.7,0,1.2,0.6,1.2,1.2
								C770.1,739.7,769.5,740.3,768.8,740.3z"/>
						</g>
					</g>
				</g>
			</g>
		</g>
	</g>
	<g>
		<g>
			<g>
				<g>
					<g>
						<g>
							<path d="M825.6,702.9h-28.4c-0.7,0-1.2-0.6-1.2-1.2c0-0.7,0.6-1.2,1.2-1.2h28.4c0.7,0,1.2,0.6,1.2,1.2
								C826.8,702.3,826.2,702.9,825.6,702.9z"/>
						</g>
					</g>
				</g>
			</g>
		</g>
	</g>
	<g>
		<g>
			<g>
				<g>
					<g>
						<g>
							<path d="M577.7,332.5c-6.1,0-11.1-5-11.1-11.1c0-6.1,5-11.1,11.1-11.1c6.1,0,11.1,5,11.1,11.1
								C588.8,327.6,583.8,332.5,577.7,332.5z M577.7,312.8c-4.8,0-8.6,3.9-8.6,8.6c0,4.8,3.9,8.6,8.6,8.6c4.8,0,8.6-3.9,8.6-8.6
								C586.3,316.7,582.5,312.8,577.7,312.8z"/>
						</g>
					</g>
				</g>
			</g>
		</g>
	</g>
	<g>
		<g>
			<g>
				<g>
					<g>
						<g>
							<path d="M543.2,322.7h-24.1c-0.7,0-1.2-0.6-1.2-1.2c0-0.7,0.6-1.2,1.2-1.2h24.1c0.7,0,1.2,0.6,1.2,1.2
								C544.4,322.1,543.9,322.7,543.2,322.7z"/>
						</g>
					</g>
				</g>
			</g>
		</g>
	</g>
	<g>
		<g>
			<g>
				<g>
					<g>
						<g>
							<path d="M486.2,475.6h-27.4c-0.7,0-1.2-0.6-1.2-1.2s0.6-1.2,1.2-1.2h27.4c0.7,0,1.2,0.6,1.2,1.2S486.8,475.6,486.2,475.6z"/>
						</g>
					</g>
				</g>
			</g>
		</g>
	</g>
	<g>
		<g>
			<g>
				<g>
					<g>
						<g>
							<path d="M486.2,497.4h-49.6c-0.7,0-1.2-0.6-1.2-1.2s0.6-1.2,1.2-1.2h49.6c0.7,0,1.2,0.6,1.2,1.2S486.8,497.4,486.2,497.4z"/>
						</g>
					</g>
				</g>
			</g>
		</g>
	</g>
	<g>
		<g>
			<g>
				<g>
					<g>
						<g>
							<path d="M472.4,534.1h-11.1c-0.7,0-1.2-0.6-1.2-1.2s0.6-1.2,1.2-1.2h11.1c0.7,0,1.2,0.6,1.2,1.2S473.1,534.1,472.4,534.1z"/>
						</g>
					</g>
				</g>
			</g>
		</g>
	</g>
	<g>
		<g>
			<g>
				<g>
					<g>
						<g>
							<path d="M715.8,250.5h-77.1c-0.7,0-1.2-0.6-1.2-1.2c0-0.7,0.6-1.2,1.2-1.2h77.1c0.7,0,1.2,0.6,1.2,1.2
								C717,250,716.5,250.5,715.8,250.5z"/>
						</g>
					</g>
				</g>
			</g>
		</g>
	</g>
	<g>
		<g>
			<g>
				<g>
					<g>
						<g>
							<path d="M691.8,274h-78.3c-0.7,0-1.2-0.6-1.2-1.2s0.6-1.2,1.2-1.2h78.3c0.7,0,1.2,0.6,1.2,1.2S692.5,274,691.8,274z"/>
						</g>
					</g>
				</g>
			</g>
		</g>
	</g>
	<g>
		<g>
			<g>
				<g>
					<g>
						<g>
							<path d="M660.9,300.5c-0.7,0-1.2-0.6-1.2-1.2v-66.6c0-0.7,0.6-1.2,1.2-1.2s1.2,0.6,1.2,1.2v66.6
								C662.2,299.9,661.6,300.5,660.9,300.5z"/>
						</g>
					</g>
				</g>
			</g>
		</g>
	</g>
	<g>
		<g>
			<g>
				<g>
					<g>
						<g>
							<path d="M1092.2,546.3c-9.2,0-18.1-3.5-25.8-10c-14-12-22.4-32.5-22.4-54.8c0-14.2,3.4-27.7,9.7-39c0.2-0.4,0.6-0.6,1.1-0.6
								h74.9c0.4,0,0.9,0.2,1.1,0.6c6.3,11.3,9.7,24.8,9.7,39c0,22.3-8.4,42.8-22.4,54.8C1110.3,542.9,1101.4,546.3,1092.2,546.3z
								 M1055.5,444.3c-5.9,10.8-9,23.6-9,37.2c0,21.6,8.1,41.4,21.6,52.9c7.3,6.2,15.6,9.5,24.2,9.5c8.6,0,16.9-3.3,24.2-9.5
								c13.5-11.5,21.6-31.3,21.6-52.9c0-13.5-3.1-26.3-9-37.2H1055.5z"/>
						</g>
					</g>
				</g>
			</g>
		</g>
	</g>
	<g>
		<g>
			<g>
				<g>
					<g>
						<g>
							<path d="M1089.4,423.1c-0.2,0-0.4-0.1-0.6-0.2l-57.3-34.1c-0.4-0.2-0.6-0.6-0.6-1.1v-84.2c0-0.7,0.6-1.2,1.2-1.2h138.7
								c0.7,0,1.2,0.6,1.2,1.2v84.2c0,0.7-0.6,1.2-1.2,1.2H1084l6.5,32.6c0.1,0.5-0.1,1-0.5,1.2
								C1089.9,423,1089.6,423.1,1089.4,423.1z M1033.3,387.1l54.3,32.3l-6.3-31.4c-0.1-0.4,0-0.7,0.3-1c0.2-0.3,0.6-0.5,1-0.5h87
								v-81.8h-136.2V387.1z"/>
						</g>
					</g>
				</g>
			</g>
		</g>
	</g>
	<g>
		<g>
			<g>
				<g>
					<g>
						<g>
							<path d="M1151.2,326.3h-99.7c-0.7,0-1.2-0.6-1.2-1.2s0.6-1.2,1.2-1.2h99.7c0.7,0,1.2,0.6,1.2,1.2S1151.9,326.3,1151.2,326.3z
								"/>
						</g>
					</g>
				</g>
			</g>
		</g>
	</g>
	<g>
		<g>
			<g>
				<g>
					<g>
						<g>
							<path d="M1151.2,346.9h-99.7c-0.7,0-1.2-0.6-1.2-1.2s0.6-1.2,1.2-1.2h99.7c0.7,0,1.2,0.6,1.2,1.2S1151.9,346.9,1151.2,346.9z
								"/>
						</g>
					</g>
				</g>
			</g>
		</g>
	</g>
	<g>
		<g>
			<g>
				<g>
					<g>
						<g>
							<path d="M1151.2,367.5h-99.7c-0.7,0-1.2-0.6-1.2-1.2s0.6-1.2,1.2-1.2h99.7c0.7,0,1.2,0.6,1.2,1.2S1151.9,367.5,1151.2,367.5z
								"/>
						</g>
					</g>
				</g>
			</g>
		</g>
	</g>
	<g>
		<g>
			<g>
				<g>
					<g>
						<g>
							<path d="M1235,546.3c-9.2,0-18.1-3.5-25.8-10c-14-12-22.4-32.5-22.4-54.8c0-14.2,3.3-27.7,9.7-39c0.2-0.4,0.6-0.6,1.1-0.6
								h74.9c0.4,0,0.9,0.2,1.1,0.6c6.3,11.3,9.7,24.8,9.7,39c0,22.3-8.4,42.8-22.4,54.8C1253.1,542.9,1244.2,546.3,1235,546.3z
								 M1198.3,444.3c-5.9,10.8-9,23.7-9,37.2c0,21.6,8.1,41.4,21.6,52.9c7.3,6.2,15.6,9.5,24.2,9.5c8.6,0,16.9-3.3,24.2-9.5
								c13.5-11.5,21.6-31.3,21.6-52.9c0-13.5-3.1-26.3-9-37.2H1198.3z"/>
						</g>
					</g>
				</g>
			</g>
		</g>
	</g>
	<g>
		<g>
			<g>
				<g>
					<g>
						<g>
							<path d="M1177.8,604.7L1177.8,604.7l-171.2,0c-0.5,0-0.9-0.3-1.1-0.7c-0.2-0.4-0.2-0.9,0.1-1.3
								c10.5-15.2,24.9-27.4,41.5-35.3l19-32.7c0.2-0.3,0.5-0.5,0.9-0.6c0.4-0.1,0.7,0,1,0.3c7.3,6.2,15.6,9.5,24.2,9.5
								c8.6,0,16.9-3.3,24.2-9.5c0.3-0.2,0.6-0.3,1-0.3c0.4,0.1,0.7,0.3,0.9,0.6l19,32.7c9.9,4.7,19.1,11,27.2,18.6
								c0.2,0.2,0.4,0.6,0.4,0.9c0,0.3-0.1,0.7-0.4,0.9c-4.7,4.4-8.9,9.2-12.6,14.3l26,0c0.7,0,1.2,0.6,1.2,1.2
								C1179,604.1,1178.5,604.7,1177.8,604.7z M1009,602.2l139.8,0c3.8-5.4,8.2-10.6,13-15.2c-7.8-7.1-16.5-13-26-17.5
								c-0.3-0.2-0.5-0.4-0.7-0.7l-18.3-31.5c-7.5,6-15.9,9.1-24.7,9.1c-8.7,0-17.2-3.1-24.7-9.1l-18.4,31.6
								c-0.1,0.3-0.3,0.5-0.6,0.7C1032.9,576.9,1019.2,588.1,1009,602.2z"/>
						</g>
					</g>
				</g>
			</g>
		</g>
	</g>
	<g>
		<g>
			<g>
				<g>
					<g>
						<g>
							<path d="M1320.6,604.7l-171.2,0c-0.5,0-0.9-0.3-1.1-0.7c-0.2-0.4-0.2-0.9,0.1-1.3c4.2-6,9-11.6,14.4-16.7
								c8.1-7.6,17.2-13.9,27.2-18.6l19-32.7c0.2-0.3,0.5-0.5,0.9-0.6c0.4-0.1,0.7,0,1,0.3c7.3,6.2,15.6,9.5,24.2,9.5
								c8.6,0,16.9-3.3,24.2-9.5c0.3-0.2,0.6-0.3,1-0.3c0.4,0.1,0.7,0.3,0.9,0.6l19,32.7c16.7,7.9,31,20.1,41.5,35.3
								c0.3,0.4,0.3,0.9,0.1,1.3S1321.1,604.7,1320.6,604.7z M1151.8,602.2l166.4,0c-10.2-14-23.9-25.3-39.6-32.7
								c-0.3-0.1-0.5-0.4-0.6-0.7l-18.3-31.5c-7.5,6-15.9,9.1-24.7,9.1c-8.7,0-17.2-3.1-24.7-9.1l-18.4,31.6
								c-0.1,0.3-0.3,0.5-0.6,0.7c-9.9,4.6-18.9,10.8-26.9,18.4C1159.8,592.2,1155.5,597.1,1151.8,602.2z"/>
						</g>
					</g>
				</g>
			</g>
		</g>
	</g>
	<g>
		<g>
			<g>
				<g>
					<g>
						<g>
							<polygon fill="#FFFFFF" points="1130.6,276.8 1130.6,378.5 1237,378.5 1228.8,419.6 1297.9,378.5 1297.9,276.8 							"/>
						</g>
					</g>
				</g>
			</g>
		</g>
		<g>
			<g>
				<g>
					<g>
						<g>
							<path d="M1228.8,420.8c-0.3,0-0.5-0.1-0.7-0.2c-0.4-0.3-0.6-0.8-0.5-1.2l7.9-39.7h-104.9c-0.7,0-1.2-0.6-1.2-1.2V276.8
								c0-0.7,0.6-1.2,1.2-1.2h167.3c0.7,0,1.2,0.6,1.2,1.2v101.6c0,0.4-0.2,0.8-0.6,1.1l-69.1,41.1
								C1229.2,420.8,1229,420.8,1228.8,420.8z M1131.9,377.2H1237c0.4,0,0.7,0.2,1,0.5c0.2,0.3,0.3,0.7,0.3,1l-7.7,38.4l66.1-39.4
								v-99.7h-164.8V377.2z"/>
						</g>
					</g>
				</g>
			</g>
		</g>
	</g>
	<g>
		<g>
			<g>
				<g>
					<g>
						<g>
							<line fill="#FFFFFF" x1="1154.1" y1="302.8" x2="1274.4" y2="302.8"/>
						</g>
					</g>
				</g>
			</g>
		</g>
		<g>
			<g>
				<g>
					<g>
						<g>
							<path d="M1274.4,304h-120.3c-0.7,0-1.2-0.6-1.2-1.2s0.6-1.2,1.2-1.2h120.3c0.7,0,1.2,0.6,1.2,1.2S1275.1,304,1274.4,304z"/>
						</g>
					</g>
				</g>
			</g>
		</g>
	</g>
	<g>
		<g>
			<g>
				<g>
					<g>
						<g>
							<line fill="#FFFFFF" x1="1154.1" y1="327.7" x2="1274.4" y2="327.7"/>
						</g>
					</g>
				</g>
			</g>
		</g>
		<g>
			<g>
				<g>
					<g>
						<g>
							<path d="M1274.4,328.9h-120.3c-0.7,0-1.2-0.6-1.2-1.2c0-0.7,0.6-1.2,1.2-1.2h120.3c0.7,0,1.2,0.6,1.2,1.2
								C1275.7,328.3,1275.1,328.9,1274.4,328.9z"/>
						</g>
					</g>
				</g>
			</g>
		</g>
	</g>
	<g>
		<g>
			<g>
				<g>
					<g>
						<g>
							<line fill="#FFFFFF" x1="1154.1" y1="352.6" x2="1274.4" y2="352.6"/>
						</g>
					</g>
				</g>
			</g>
		</g>
		<g>
			<g>
				<g>
					<g>
						<g>
							<path d="M1274.4,353.8h-120.3c-0.7,0-1.2-0.6-1.2-1.2c0-0.7,0.6-1.2,1.2-1.2h120.3c0.7,0,1.2,0.6,1.2,1.2
								C1275.7,353.2,1275.1,353.8,1274.4,353.8z"/>
						</g>
					</g>
				</g>
			</g>
		</g>
	</g>
	<g>
		<g>
			<g>
				<g>
					<g>
						<g>
							<g>
								<path d="M1029.7,173.8c-9.2,0-18.1-3.5-25.8-10c-14-12-22.4-32.5-22.4-54.8c0-14.2,3.3-27.7,9.7-39c0.2-0.4,0.6-0.6,1.1-0.6
									h74.9c0.4,0,0.9,0.2,1.1,0.6c5.5,9.9,8.8,21.7,9.5,34.1c0.1,1.6,0.2,3.3,0.2,4.9c0,8.8-1.3,17.3-3.8,25.4
									c-3.9,12.2-10.3,22.4-18.6,29.4c-2.1,1.8-4.4,3.4-6.9,4.8C1042.6,172,1036.2,173.8,1029.7,173.8z M992.9,71.8
									c-5.9,10.8-9,23.7-9,37.2c0,21.6,8.1,41.4,21.6,52.9c12.4,10.6,28.3,12.4,41.9,4.6c2.3-1.3,4.5-2.9,6.5-4.6
									c8-6.8,14.1-16.6,17.8-28.3c2.5-7.8,3.7-16.1,3.7-24.6c0-1.6-0.1-3.2-0.1-4.8c-0.7-11.8-3.7-22.9-8.9-32.4H992.9z"/>
							</g>
						</g>
					</g>
				</g>
			</g>
		</g>
		<g>
			<g>
				<g>
					<g>
						<g>
							<g>
								<path d="M1115.3,232.1l-171.2,0c-0.5,0-0.9-0.3-1.1-0.7c-0.2-0.4-0.2-0.9,0.1-1.3c4.2-6,9-11.6,14.4-16.7
									c8.1-7.6,17.2-13.9,27.2-18.6l19-32.7c0.2-0.3,0.5-0.5,0.9-0.6c0.4-0.1,0.7,0,1,0.3c12.4,10.6,28.3,12.4,41.9,4.6
									c2.3-1.3,4.5-2.9,6.5-4.6c0.3-0.2,0.6-0.3,1-0.3c0.4,0.1,0.7,0.3,0.9,0.6l19,32.7c0.5,0.3,1,0.5,1.6,0.8l1,0.5
									c15.6,7.9,29.1,19.7,38.9,34c0.3,0.4,0.3,0.9,0.1,1.3C1116.1,231.8,1115.7,232.1,1115.3,232.1z M946.5,229.6l166.4,0
									c-9.5-13.1-22.1-23.8-36.7-31.2l-1-0.5c-0.6-0.3-1.2-0.6-1.9-0.9c-0.3-0.1-0.5-0.4-0.6-0.7l-18.3-31.5
									c-1.8,1.4-3.7,2.7-5.7,3.9c-14.1,8.1-30.6,6.6-43.6-3.9l-18.4,31.6c-0.1,0.3-0.3,0.5-0.6,0.7c-9.9,4.6-18.9,10.8-26.9,18.4
									C954.5,219.7,950.2,224.5,946.5,229.6z"/>
							</g>
						</g>
					</g>
				</g>
			</g>
		</g>
		<g>
			<g>
				<g>
					<g>
						<g>
							<g>
								<g>
									<path d="M1125.6,105.3h-26.8c-0.7,0-1.2-0.6-1.2-1.2V70.5c0-0.7,0.6-1.2,1.2-1.2h26.8c0.7,0,1.2,0.6,1.2,1.2v33.6
										C1126.9,104.8,1126.3,105.3,1125.6,105.3z M1100,102.8h24.4V71.8H1100V102.8z"/>
								</g>
							</g>
						</g>
					</g>
				</g>
			</g>
			<g>
				<g>
					<g>
						<g>
							<g>
								<g>
									<path d="M1098.8,105.3h-22.3c-0.7,0-1.2-0.5-1.2-1.2c-0.7-12-3.9-23.4-9.2-33c-0.2-0.4-0.2-0.8,0-1.2
										c0.2-0.4,0.6-0.6,1.1-0.6h31.7c0.7,0,1.2,0.6,1.2,1.2v33.6C1100,104.8,1099.5,105.3,1098.8,105.3z M1077.7,102.8h19.9V71.8
										h-28.4C1074,81,1076.9,91.6,1077.7,102.8z"/>
								</g>
							</g>
						</g>
					</g>
				</g>
			</g>
			<g>
				<g>
					<g>
						<g>
							<g>
								<g>
									<path d="M1179.3,105.3h-26.8c-0.7,0-1.2-0.6-1.2-1.2V70.5c0-0.7,0.6-1.2,1.2-1.2h26.8c0.7,0,1.2,0.6,1.2,1.2v33.6
										C1180.5,104.8,1179.9,105.3,1179.3,105.3z M1153.7,102.8h24.4V71.8h-24.4V102.8z"/>
								</g>
							</g>
						</g>
					</g>
				</g>
			</g>
			<g>
				<g>
					<g>
						<g>
							<g>
								<g>
									<path d="M1152.4,105.3h-26.8c-0.7,0-1.2-0.6-1.2-1.2V70.5c0-0.7,0.6-1.2,1.2-1.2h26.8c0.7,0,1.2,0.6,1.2,1.2v33.6
										C1153.7,104.8,1153.1,105.3,1152.4,105.3z M1126.9,102.8h24.4V71.8h-24.4V102.8z"/>
								</g>
							</g>
						</g>
					</g>
				</g>
			</g>
			<g>
				<g>
					<g>
						<g>
							<g>
								<g>
									<path d="M1258.7,105.3h-79.4c-0.7,0-1.2-0.6-1.2-1.2V70.5c0-0.7,0.6-1.2,1.2-1.2h79.4c0.7,0,1.2,0.6,1.2,1.2v33.6
										C1259.9,104.8,1259.4,105.3,1258.7,105.3z M1180.5,102.8h77V71.8h-77V102.8z"/>
								</g>
							</g>
						</g>
					</g>
				</g>
			</g>
			<g>
				<g>
					<g>
						<g>
							<g>
								<g>
									<path d="M1098.8,168.7H1072c-0.7,0-1.2-0.6-1.2-1.2v-31c0-0.1,0-0.3,0.1-0.4l0.2-0.6c0.2-0.6,0.4-1.2,0.6-1.8
										c0.2-0.5,0.6-0.9,1.2-0.9h25.9c0.7,0,1.2,0.6,1.2,1.2v33.6C1100,168.1,1099.5,168.7,1098.8,168.7z M1073.2,166.2h24.4
										v-31.1h-23.8c-0.1,0.4-0.3,0.7-0.4,1.1l-0.2,0.4V166.2z"/>
								</g>
							</g>
						</g>
					</g>
				</g>
			</g>
			<g>
				<g>
					<g>
						<g>
							<g>
								<g>
									<path d="M1072,168.7h-14.6c-0.4,0-0.8-0.2-1.1-0.6l-2.7-4.7c-0.3-0.5-0.2-1.2,0.3-1.6c7.3-6.2,13.2-15.2,17-25.8
										c0.2-0.6,0.8-0.9,1.4-0.8c0.6,0.1,1,0.6,1,1.2v31C1073.2,168.1,1072.7,168.7,1072,168.7z M1058.1,166.2h12.7v-23.5
										c-3.7,8.1-8.6,15-14.5,20.3L1058.1,166.2z"/>
								</g>
							</g>
						</g>
					</g>
				</g>
			</g>
			<g>
				<g>
					<g>
						<g>
							<g>
								<g>
									<path d="M1125.6,168.7h-26.8c-0.7,0-1.2-0.6-1.2-1.2v-33.6c0-0.7,0.6-1.2,1.2-1.2h26.8c0.7,0,1.2,0.6,1.2,1.2v33.6
										C1126.9,168.1,1126.3,168.7,1125.6,168.7z M1100,166.2h24.4v-31.1H1100V166.2z"/>
								</g>
							</g>
						</g>
					</g>
				</g>
			</g>
			<g>
				<g>
					<g>
						<g>
							<g>
								<g>
									<path d="M1152.4,168.7h-26.8c-0.7,0-1.2-0.6-1.2-1.2v-33.6c0-0.7,0.6-1.2,1.2-1.2h26.8c0.7,0,1.2,0.6,1.2,1.2v33.6
										C1153.7,168.1,1153.1,168.7,1152.4,168.7z M1126.9,166.2h24.4v-31.1h-24.4V166.2z"/>
								</g>
							</g>
						</g>
					</g>
				</g>
			</g>
			<g>
				<g>
					<g>
						<g>
							<g>
								<g>
									<path d="M1258.7,168.7h-106.2c-0.7,0-1.2-0.6-1.2-1.2v-33.6c0-0.7,0.6-1.2,1.2-1.2h106.2c0.7,0,1.2,0.6,1.2,1.2v33.6
										C1259.9,168.1,1259.4,168.7,1258.7,168.7z M1153.7,166.2h103.8v-31.1h-103.8V166.2z"/>
								</g>
							</g>
						</g>
					</g>
				</g>
			</g>
			<g>
				<g>
					<g>
						<g>
							<g>
								<g>
									<path d="M1179.3,232.1h-26.8c-0.7,0-1.2-0.6-1.2-1.2v-33.6c0-0.7,0.6-1.2,1.2-1.2h26.8c0.7,0,1.2,0.6,1.2,1.2v33.6
										C1180.5,231.5,1179.9,232.1,1179.3,232.1z M1153.7,229.6h24.4v-31.1h-24.4V229.6z"/>
								</g>
							</g>
						</g>
					</g>
				</g>
			</g>
			<g>
				<g>
					<g>
						<g>
							<g>
								<g>
									<path d="M1125.6,232.1h-10.4c-0.4,0-0.8-0.2-1-0.5c-4.6-6.6-10.1-12.8-16.3-18.3c-0.3-0.2-0.4-0.6-0.4-0.9v-15
										c0-0.7,0.6-1.2,1.2-1.2h26.8c0.7,0,1.2,0.6,1.2,1.2v33.6C1126.9,231.5,1126.3,232.1,1125.6,232.1z M1115.9,229.6h8.5v-31.1
										H1100v13.3C1106,217.2,1111.4,223.2,1115.9,229.6z"/>
								</g>
							</g>
						</g>
					</g>
				</g>
			</g>
			<g>
				<g>
					<g>
						<g>
							<g>
								<g>
									<path d="M1098.8,213.6c-0.3,0-0.6-0.1-0.8-0.3c-6.6-5.9-14-10.9-21.8-14.9c-0.5-0.3-0.8-0.8-0.6-1.4
										c0.1-0.6,0.6-0.9,1.2-0.9h22c0.7,0,1.2,0.6,1.2,1.2v15c0,0.5-0.3,0.9-0.7,1.1C1099.2,213.5,1099,213.6,1098.8,213.6z
										 M1081.7,198.5c5.6,3.2,10.9,6.9,15.9,11.1v-11.1H1081.7z"/>
								</g>
							</g>
						</g>
					</g>
				</g>
			</g>
			<g>
				<g>
					<g>
						<g>
							<g>
								<g>
									<path d="M1152.4,232.1h-26.8c-0.7,0-1.2-0.6-1.2-1.2v-33.6c0-0.7,0.6-1.2,1.2-1.2h26.8c0.7,0,1.2,0.6,1.2,1.2v33.6
										C1153.7,231.5,1153.1,232.1,1152.4,232.1z M1126.9,229.6h24.4v-31.1h-24.4V229.6z"/>
								</g>
							</g>
						</g>
					</g>
				</g>
			</g>
			<g>
				<g>
					<g>
						<g>
							<g>
								<g>
									<path d="M1258.7,232.1h-25.8c-0.7,0-1.2-0.6-1.2-1.2v-33.6c0-0.7,0.6-1.2,1.2-1.2h25.8c0.7,0,1.2,0.6,1.2,1.2v33.6
										C1259.9,231.5,1259.4,232.1,1258.7,232.1z M1234.1,229.6h23.3v-31.1h-23.3V229.6z"/>
								</g>
							</g>
						</g>
					</g>
				</g>
			</g>
			<g>
				<g>
					<g>
						<g>
							<g>
								<g>
									<path d="M1206.1,232.1h-26.8c-0.7,0-1.2-0.6-1.2-1.2v-33.6c0-0.7,0.6-1.2,1.2-1.2h26.8c0.7,0,1.2,0.6,1.2,1.2v33.6
										C1207.3,231.5,1206.8,232.1,1206.1,232.1z M1180.5,229.6h24.4v-31.1h-24.4V229.6z"/>
								</g>
							</g>
						</g>
					</g>
				</g>
			</g>
			<g>
				<g>
					<g>
						<g>
							<g>
								<g>
									<path d="M1232.9,232.1h-26.8c-0.7,0-1.2-0.6-1.2-1.2v-33.6c0-0.7,0.6-1.2,1.2-1.2h26.8c0.7,0,1.2,0.6,1.2,1.2v33.6
										C1234.1,231.5,1233.6,232.1,1232.9,232.1z M1207.3,229.6h24.4v-31.1h-24.4V229.6z"/>
								</g>
							</g>
						</g>
					</g>
				</g>
			</g>
		</g>
	</g>
	<g>
		<g>
			<g>
				<g>
					<g>
						<g>
							<path d="M324.7,224.4c-9.2,0-18.1-3.5-25.8-10c-14-12-22.4-32.5-22.4-54.8c0-14.2,3.4-27.7,9.7-39c0.2-0.4,0.6-0.6,1.1-0.6
								h74.9c0.4,0,0.9,0.2,1.1,0.6c6.3,11.3,9.7,24.8,9.7,39c0,22.3-8.4,42.8-22.4,54.8C342.8,220.9,333.9,224.4,324.7,224.4z
								 M288,122.4c-5.9,10.8-9,23.7-9,37.2c0,21.6,8.1,41.4,21.6,52.9c7.3,6.2,15.6,9.5,24.2,9.5c8.6,0,16.9-3.3,24.2-9.5
								c13.5-11.5,21.6-31.3,21.6-52.9c0-13.5-3.1-26.3-9-37.2H288z"/>
						</g>
					</g>
				</g>
			</g>
		</g>
	</g>
	<g>
		<g>
			<g>
				<g>
					<g>
						<g>
							<path d="M410.3,282.7l-171.2,0c-0.5,0-0.9-0.3-1.1-0.7c-0.2-0.4-0.2-0.9,0.1-1.3c4.2-6,9-11.6,14.4-16.7
								c8.1-7.6,17.2-13.9,27.2-18.6l19-32.7c0.2-0.3,0.5-0.5,0.9-0.6c0.4-0.1,0.7,0,1,0.3c7.3,6.2,15.6,9.5,24.2,9.5
								c8.6,0,16.9-3.3,24.2-9.5c0.3-0.2,0.6-0.3,1-0.3c0.4,0.1,0.7,0.3,0.9,0.6l19,32.7c16.6,7.9,31,20.1,41.5,35.3
								c0.3,0.4,0.3,0.9,0.1,1.3C411.2,282.4,410.8,282.7,410.3,282.7z M241.5,280.2l166.4,0c-10.2-14.1-23.9-25.3-39.6-32.7
								c-0.3-0.1-0.5-0.4-0.6-0.7l-18.3-31.5c-7.5,6-15.9,9.1-24.7,9.1c-8.7,0-17.2-3.1-24.7-9.1l-18.4,31.6
								c-0.1,0.3-0.3,0.5-0.6,0.7c-9.9,4.6-18.9,10.8-26.9,18.4C249.5,270.3,245.3,275.1,241.5,280.2z"/>
						</g>
					</g>
				</g>
			</g>
		</g>
	</g>
	<g>
		<g>
			<g>
				<g>
					<g>
						<g>
							<path d="M425.3,311.3c-0.3,0-0.6-0.1-0.9-0.4c-0.5-0.5-0.5-1.3,0-1.7c26.6-26.6,41.3-62,41.3-99.6
								c0-77.7-63.2-140.9-140.9-140.9c-21.9,0-42.9,4.9-62.4,14.6c-0.6,0.3-1.4,0.1-1.7-0.6c-0.3-0.6-0.1-1.4,0.6-1.7
								c19.9-9.8,41.2-14.8,63.5-14.8c79.1,0,143.4,64.3,143.4,143.4c0,38.3-14.9,74.3-42,101.4
								C425.9,311.1,425.6,311.3,425.3,311.3z"/>
						</g>
					</g>
				</g>
			</g>
		</g>
	</g>
	<g>
		<g>
			<g>
				<g>
					<g>
						<g>
							<path fill="none" stroke="#000000" stroke-linecap="round" stroke-linejoin="round" stroke-miterlimit="10" d="M261.8,82"/>
						</g>
					</g>
				</g>
			</g>
		</g>
	</g>
	<g>
		<g>
			<g>
				<g>
					<g>
						<g>
							<path fill="none" stroke="#000000" stroke-linecap="round" stroke-linejoin="round" stroke-miterlimit="10" d="M324.7,209.5"
								/>
						</g>
					</g>
				</g>
			</g>
		</g>
	</g>
	<g>
		<g>
			<g>
				<g>
					<g>
						<g>
							<path fill="none" stroke="#000000" stroke-linecap="round" stroke-linejoin="round" stroke-miterlimit="10" d="M224.2,109"/>
						</g>
					</g>
				</g>
			</g>
		</g>
	</g>
	<g>
		<g>
			<g>
				<g>
					<g>
						<g>
							<path d="M324.7,352.9c-79.1,0-143.4-64.3-143.4-143.4c0-38.3,14.9-74.3,42-101.4c0.5-0.5,1.3-0.5,1.7,0
								c0.5,0.5,0.5,1.3,0,1.7c-26.6,26.6-41.3,62-41.3,99.6c0,77.7,63.2,140.9,140.9,140.9c21.9,0,42.9-4.9,62.4-14.6
								c0.6-0.3,1.3-0.1,1.7,0.6c0.3,0.6,0.1,1.4-0.6,1.7C368.4,347.9,347,352.9,324.7,352.9z"/>
						</g>
					</g>
				</g>
			</g>
		</g>
	</g>
	<g>
		<g>
			<g>
				<g>
					<g>
						<g>
							<path fill="none" stroke="#000000" stroke-linecap="round" stroke-linejoin="round" stroke-miterlimit="10" d="M387.7,337"/>
						</g>
					</g>
				</g>
			</g>
		</g>
	</g>
	<g>
		<g>
			<g>
				<g>
					<g>
						<g>
							<path fill="none" stroke="#000000" stroke-linecap="round" stroke-linejoin="round" stroke-miterlimit="10" d="M425.3,310"/>
						</g>
					</g>
				</g>
			</g>
		</g>
	</g>
	<g>
		<g>
			<g>
				<g>
					<g>
						<g>
							<path d="M382.2,356.3c-0.1,0-0.2,0-0.4-0.1c-0.7-0.2-1-0.9-0.8-1.5l5.1-16.9l-16.9-5.1c-0.7-0.2-1-0.9-0.8-1.5
								c0.2-0.7,0.9-1,1.5-0.8l18.1,5.5c0.7,0.2,1,0.9,0.8,1.5l-5.5,18.1C383.2,356,382.7,356.3,382.2,356.3z"/>
						</g>
					</g>
				</g>
			</g>
		</g>
	</g>
	<g>
		<g>
			<g>
				<g>
					<g>
						<g>
							<path d="M279.9,88.4c-0.1,0-0.2,0-0.4-0.1l-18.1-5.5c-0.7-0.2-1-0.9-0.8-1.5l5.5-18.1c0.2-0.7,0.9-1,1.5-0.8
								c0.7,0.2,1,0.9,0.8,1.5l-5.1,16.9l16.9,5.1c0.7,0.2,1,0.9,0.8,1.5C280.9,88.1,280.4,88.4,279.9,88.4z"/>
						</g>
					</g>
				</g>
			</g>
		</g>
	</g>
	<g>
		<g>
			<g>
				<g>
					<g>
						<g>
							<path fill="#FFFFFF" d="M236.4,109c0,6.7-5.4,12.1-12.1,12.1c-6.7,0-12.1-5.4-12.1-12.1c0-6.7,5.4-12.1,12.1-12.1
								C230.9,96.9,236.4,102.3,236.4,109z"/>
						</g>
					</g>
				</g>
			</g>
		</g>
		<g>
			<g>
				<g>
					<g>
						<g>
							<path d="M224.2,122.4c-7.4,0-13.4-6-13.4-13.4c0-7.4,6-13.4,13.4-13.4c7.4,0,13.4,6,13.4,13.4
								C237.6,116.4,231.6,122.4,224.2,122.4z M224.2,98.1c-6,0-10.9,4.9-10.9,10.9c0,6,4.9,10.9,10.9,10.9c6,0,10.9-4.9,10.9-10.9
								C235.1,103,230.2,98.1,224.2,98.1z"/>
						</g>
					</g>
				</g>
			</g>
		</g>
	</g>
	<g>
		<g>
			<g>
				<g>
					<g>
						<g>
							<circle fill="#FFFFFF" cx="425.3" cy="310" r="12.1"/>
						</g>
					</g>
				</g>
			</g>
		</g>
		<g>
			<g>
				<g>
					<g>
						<g>
							<path d="M425.3,323.4c-7.4,0-13.4-6-13.4-13.4c0-7.4,6-13.4,13.4-13.4s13.4,6,13.4,13.4C438.6,317.4,432.6,323.4,425.3,323.4
								z M425.3,299.1c-6,0-10.9,4.9-10.9,10.9c0,6,4.9,10.9,10.9,10.9c6,0,10.9-4.9,10.9-10.9C436.2,304,431.3,299.1,425.3,299.1z"
								/>
						</g>
					</g>
				</g>
			</g>
		</g>
	</g>
	<g>
		<g>
			<g>
				<g>
					<g>
						<g>
							<circle fill="#FFFFFF" cx="522.2" cy="188.7" r="14.2"/>
						</g>
					</g>
				</g>
			</g>
		</g>
		<g>
			<g>
				<g>
					<g>
						<g>
							<path d="M522.2,204.1c-8.5,0-15.4-6.9-15.4-15.4s6.9-15.4,15.4-15.4s15.4,6.9,15.4,15.4S530.7,204.1,522.2,204.1z
								 M522.2,175.7c-7.1,0-12.9,5.8-12.9,12.9s5.8,12.9,12.9,12.9s12.9-5.8,12.9-12.9S529.4,175.7,522.2,175.7z"/>
						</g>
					</g>
				</g>
			</g>
		</g>
	</g>
	<g>
		<g>
			<g>
				<g>
					<g>
						<g>
							<path d="M627.7,136.5h-96.5c-0.7,0-1.2-0.6-1.2-1.2s0.6-1.2,1.2-1.2h96.5c0.7,0,1.2,0.6,1.2,1.2S628.3,136.5,627.7,136.5z"/>
						</g>
					</g>
				</g>
			</g>
		</g>
	</g>
	<g>
		<g>
			<g>
				<g>
					<g>
						<g>
							<path d="M618.7,173.4h-22.5c-0.7,0-1.2-0.6-1.2-1.2c0-0.7,0.6-1.2,1.2-1.2h22.5c0.7,0,1.2,0.6,1.2,1.2
								C620,172.8,619.4,173.4,618.7,173.4z"/>
						</g>
					</g>
				</g>
			</g>
		</g>
	</g>
	<g>
		<g>
			<g>
				<g>
					<g>
						<g>
							<path d="M944.1,164h-91.5c-0.7,0-1.2-0.6-1.2-1.2s0.6-1.2,1.2-1.2h91.5c0.7,0,1.2,0.6,1.2,1.2S944.8,164,944.1,164z"/>
						</g>
					</g>
				</g>
			</g>
		</g>
	</g>
	<g>
		<g>
			<g>
				<g>
					<g>
						<g>
							<path d="M944.1,122.8h-31.6c-0.7,0-1.2-0.6-1.2-1.2s0.6-1.2,1.2-1.2h31.6c0.7,0,1.2,0.6,1.2,1.2S944.8,122.8,944.1,122.8z"/>
						</g>
					</g>
				</g>
			</g>
		</g>
	</g>
	<g>
		<g>
			<g>
				<g>
					<g>
						<g>
							<g>
								<path d="M164.1,458.6c-4.8,0-9.5-1.8-13.5-5.3c-7.3-6.2-11.6-16.8-11.6-28.3c0-7.3,1.7-14.3,5-20.1c0.2-0.4,0.6-0.6,1.1-0.6
									h38.1c0.4,0,0.9,0.2,1.1,0.6c3.3,5.8,5,12.8,5,20.1c0,11.5-4.3,22.1-11.6,28.3C173.6,456.8,168.9,458.6,164.1,458.6z
									 M145.8,406.7c-2.8,5.3-4.3,11.7-4.3,18.3c0,10.8,4,20.7,10.8,26.5c7.2,6.1,16.7,6.1,23.8,0c6.7-5.7,10.8-15.6,10.8-26.4
									c0-6.6-1.5-13-4.3-18.3H145.8z"/>
							</g>
						</g>
					</g>
				</g>
			</g>
		</g>
		<g>
			<g>
				<g>
					<g>
						<g>
							<g>
								<path d="M193.2,488.3L193.2,488.3h-72.6c-0.5,0-0.9-0.3-1.1-0.7c-0.2-0.4-0.2-0.9,0.1-1.3c5.4-7.8,12.7-14,21.2-18.1
									l9.6-16.5c0.2-0.3,0.5-0.5,0.9-0.6c0.4-0.1,0.7,0,1,0.3c7.2,6.1,16.7,6.1,23.8,0c0.3-0.2,0.6-0.3,1-0.3
									c0.4,0.1,0.7,0.3,0.9,0.6l9.6,16.5c5.1,2.4,9.7,5.6,13.8,9.5c2.8,2.6,5.2,5.5,7.4,8.6c0.3,0.4,0.3,0.9,0.1,1.3
									c-0.2,0.4-0.6,0.7-1.1,0.7L193.2,488.3z M123,485.8l82.2,0c-1.7-2.2-3.6-4.3-5.6-6.3c-4-3.8-8.6-6.9-13.5-9.2
									c-0.3-0.1-0.5-0.4-0.6-0.7l-8.9-15.4c-7.5,5.7-17.2,5.7-24.7,0l-9,15.4c-0.1,0.3-0.3,0.5-0.6,0.7
									C134.6,473.9,128.1,479.2,123,485.8z"/>
							</g>
						</g>
					</g>
				</g>
			</g>
		</g>
	</g>
	<g>
		<g>
			<g>
				<g>
					<g>
						<g>
							<polygon fill="#FFFFFF" points="119.4,519.8 119.4,519.8 208.8,519.8 208.8,519.8 208.8,519.8 208.8,519.8 119.4,519.8 
								119.4,519.8 							"/>
						</g>
					</g>
				</g>
			</g>
		</g>
		<g>
			<g>
				<g>
					<g>
						<g>
							<path d="M208.8,521h-89.4c-0.7,0-1.2-0.6-1.2-1.2s0.6-1.2,1.2-1.2h89.4c0.7,0,1.2,0.6,1.2,1.2S209.5,521,208.8,521z"/>
						</g>
					</g>
				</g>
			</g>
		</g>
	</g>
	<g>
		<g>
			<g>
				<g>
					<g>
						<g>
							<polygon fill="#FFFFFF" points="119.4,551.5 119.4,551.5 208.8,551.5 208.8,551.5 208.8,551.5 208.8,551.5 119.4,551.5 
								119.4,551.5 							"/>
						</g>
					</g>
				</g>
			</g>
		</g>
		<g>
			<g>
				<g>
					<g>
						<g>
							<path d="M208.8,552.7h-89.4c-0.7,0-1.2-0.6-1.2-1.2c0-0.7,0.6-1.2,1.2-1.2h89.4c0.7,0,1.2,0.6,1.2,1.2
								C210,552.2,209.5,552.7,208.8,552.7z"/>
						</g>
					</g>
				</g>
			</g>
		</g>
	</g>
	<g>
		<g>
			<g>
				<g>
					<g>
						<g>
							<polygon fill="#FFFFFF" points="119.4,583.2 119.4,583.2 208.8,583.2 208.8,583.2 208.8,583.2 208.8,583.2 119.4,583.2 
								119.4,583.2 							"/>
						</g>
					</g>
				</g>
			</g>
		</g>
		<g>
			<g>
				<g>
					<g>
						<g>
							<path d="M208.8,584.4h-89.4c-0.7,0-1.2-0.6-1.2-1.2s0.6-1.2,1.2-1.2h89.4c0.7,0,1.2,0.6,1.2,1.2S209.5,584.4,208.8,584.4z"/>
						</g>
					</g>
				</g>
			</g>
		</g>
	</g>
	<g>
		<g>
			<g>
				<g>
					<g>
						<g>
							<path d="M239.2,666.9c-0.2,0-0.5-0.1-0.7-0.2l-58.4-40.2h-91c-0.7,0-1.2-0.6-1.2-1.2V373.9c0-0.3,0.1-0.6,0.4-0.9
								c0.2-0.2,0.5-0.4,0.9-0.4h150.1c0.7,0,1.2,0.6,1.2,1.2l0,291.8c0,0.5-0.3,0.9-0.7,1.1C239.5,666.8,239.4,666.9,239.2,666.9z
								 M90.3,624h90.2c0.2,0,0.5,0.1,0.7,0.2l56.8,39.1l0-288.2H90.3V624z"/>
						</g>
					</g>
				</g>
			</g>
		</g>
	</g>
	<g>
		<g>
			<g>
				<g>
					<g>
						<g>
							<rect x="885.6" y="653.7" fill="#FFFFFF" width="235.8" height="27.2"/>
						</g>
					</g>
				</g>
			</g>
		</g>
		<g>
			<g>
				<g>
					<g>
						<g>
							<path d="M1121.3,682.1H885.6c-0.7,0-1.2-0.6-1.2-1.2v-27.2c0-0.7,0.6-1.2,1.2-1.2h235.8c0.7,0,1.2,0.6,1.2,1.2v27.2
								C1122.6,681.5,1122,682.1,1121.3,682.1z M886.8,679.6h233.3v-24.7H886.8V679.6z"/>
						</g>
					</g>
				</g>
			</g>
		</g>
	</g>
	<g>
		<g>
			<g>
				<g>
					<g>
						<g>
							<rect x="885.6" y="680.9" fill="#FFFFFF" width="235.8" height="183.6"/>
						</g>
					</g>
				</g>
			</g>
		</g>
		<g>
			<g>
				<g>
					<g>
						<g>
							<path d="M1121.3,865.7H885.6c-0.7,0-1.2-0.6-1.2-1.2V680.9c0-0.7,0.6-1.2,1.2-1.2h235.8c0.7,0,1.2,0.6,1.2,1.2v183.6
								C1122.6,865.2,1122,865.7,1121.3,865.7z M886.8,863.3h233.3V682.1H886.8V863.3z"/>
						</g>
					</g>
				</g>
			</g>
		</g>
	</g>
	<g>
		<g>
			<g>
				<g>
					<g>
						<g>
							<rect x="885.6" y="864.5" fill="#FFFFFF" width="235.8" height="42.4"/>
						</g>
					</g>
				</g>
			</g>
		</g>
		<g>
			<g>
				<g>
					<g>
						<g>
							<path d="M1121.3,908.1H885.6c-0.7,0-1.2-0.6-1.2-1.2v-42.4c0-0.7,0.6-1.2,1.2-1.2h235.8c0.7,0,1.2,0.6,1.2,1.2v42.4
								C1122.6,907.5,1122,908.1,1121.3,908.1z M886.8,905.6h233.3v-39.9H886.8V905.6z"/>
						</g>
					</g>
				</g>
			</g>
		</g>
	</g>
	<g>
		<g>
			<g>
				<g>
					<g>
						<g>
							<path fill="#FFFFFF" d="M1003.4,701.6c-39.9,0-72.3,32.4-72.3,72.3c0,21.1,9,40.1,23.5,53.3c6.7,6.1,14.6,11,23.2,14.3
								c7.9,3,16.6,4.7,25.6,4.7c9,0,17.6-1.7,25.6-4.7c8.7-3.3,16.5-8.2,23.2-14.3c14.4-13.2,23.5-32.2,23.5-53.3
								C1075.7,734,1043.3,701.6,1003.4,701.6z"/>
						</g>
					</g>
				</g>
			</g>
		</g>
		<g>
			<g>
				<g>
					<g>
						<g>
							<path d="M1003.4,847.4c-8.9,0-17.7-1.6-26-4.8c-8.8-3.3-16.7-8.2-23.6-14.5c-15.2-13.9-23.9-33.6-23.9-54.2
								c0-40.5,33-73.5,73.5-73.5c40.5,0,73.5,33,73.5,73.5c0,20.5-8.7,40.3-23.9,54.2c-6.9,6.3-14.9,11.2-23.6,14.5
								C1021.1,845.8,1012.4,847.4,1003.4,847.4z M1003.4,702.8c-39.2,0-71,31.9-71,71c0,19.9,8.4,38.9,23.1,52.4
								c6.7,6.1,14.4,10.8,22.8,14.1c16.1,6.1,34.2,6.1,50.3,0c8.5-3.2,16.1-7.9,22.8-14.1c14.7-13.4,23.1-32.5,23.1-52.4
								C1074.5,734.7,1042.6,702.8,1003.4,702.8z"/>
						</g>
					</g>
				</g>
			</g>
		</g>
	</g>
	<g>
		<g>
			<g>
				<g>
					<g>
						<g>
							<line fill="#FFFFFF" x1="887.9" y1="885.7" x2="936.7" y2="885.7"/>
						</g>
					</g>
				</g>
			</g>
		</g>
		<g>
			<g>
				<g>
					<g>
						<g>
							<path d="M936.7,886.9h-48.8c-0.7,0-1.2-0.6-1.2-1.2s0.6-1.2,1.2-1.2h48.8c0.7,0,1.2,0.6,1.2,1.2S937.4,886.9,936.7,886.9z"/>
						</g>
					</g>
				</g>
			</g>
		</g>
	</g>
	<g>
		<g>
			<g>
				<g>
					<g>
						<g>
							<line fill="#FFFFFF" x1="976.7" y1="885.7" x2="1121.3" y2="885.7"/>
						</g>
					</g>
				</g>
			</g>
		</g>
		<g>
			<g>
				<g>
					<g>
						<g>
							<path d="M1121.3,886.9H976.7c-0.7,0-1.2-0.6-1.2-1.2s0.6-1.2,1.2-1.2h144.6c0.7,0,1.2,0.6,1.2,1.2S1122,886.9,1121.3,886.9z"
								/>
						</g>
					</g>
				</g>
			</g>
		</g>
	</g>
	<g>
		<g>
			<g>
				<g>
					<g>
						<g>
							<path fill="#FFFFFF" d="M967.5,885.7c0,6.1-4.9,11-11,11c-6.1,0-11-4.9-11-11c0-6.1,4.9-11,11-11
								C962.6,874.7,967.5,879.6,967.5,885.7z"/>
						</g>
					</g>
				</g>
			</g>
		</g>
		<g>
			<g>
				<g>
					<g>
						<g>
							<path d="M956.5,897.9c-6.7,0-12.2-5.5-12.2-12.2c0-6.7,5.5-12.2,12.2-12.2c6.7,0,12.2,5.5,12.2,12.2
								C968.7,892.4,963.3,897.9,956.5,897.9z M956.5,875.9c-5.4,0-9.7,4.4-9.7,9.7c0,5.4,4.4,9.7,9.7,9.7c5.4,0,9.7-4.4,9.7-9.7
								C966.3,880.3,961.9,875.9,956.5,875.9z"/>
						</g>
					</g>
				</g>
			</g>
		</g>
	</g>
	<g>
		<g>
			<g>
				<g>
					<g>
						<g>
							<line fill="#FFFFFF" x1="1121.3" y1="667.3" x2="1059.1" y2="667.3"/>
						</g>
					</g>
				</g>
			</g>
		</g>
		<g>
			<g>
				<g>
					<g>
						<g>
							<path d="M1121.3,668.5h-62.2c-0.7,0-1.2-0.6-1.2-1.2s0.6-1.2,1.2-1.2h62.2c0.7,0,1.2,0.6,1.2,1.2S1122,668.5,1121.3,668.5z"
								/>
						</g>
					</g>
				</g>
			</g>
		</g>
	</g>
	<g>
		<g>
			<g>
				<g>
					<g>
						<g>
							<g>
								<path fill="#FFFFFF" d="M982.1,724.3h42.7c3.4,6.1,5.4,13.6,5.4,21.9c0,12.9-5,24.3-12.5,30.7c-4.1,3.5-9,5.6-14.2,5.6
									s-10.1-2-14.2-5.6c-7.5-6.4-12.5-17.7-12.5-30.7C976.7,737.9,978.7,730.3,982.1,724.3z"/>
							</g>
						</g>
					</g>
				</g>
			</g>
			<g>
				<g>
					<g>
						<g>
							<g>
								<path d="M1003.4,783.6c-5.3,0-10.5-2-15-5.8c-8.1-6.9-13-18.7-13-31.6c0-8.2,1.9-15.9,5.6-22.5c0.2-0.4,0.6-0.6,1.1-0.6
									h42.7c0.4,0,0.9,0.2,1.1,0.6c3.7,6.5,5.6,14.3,5.6,22.5c0,12.9-4.8,24.7-13,31.6C1014,781.6,1008.8,783.6,1003.4,783.6z
									 M982.8,725.5c-3.2,6-4.9,13.1-4.9,20.6c0,12.2,4.5,23.3,12.1,29.7c8.1,6.9,18.8,6.9,26.9,0c7.6-6.4,12.1-17.6,12.1-29.7
									c0-7.5-1.7-14.6-4.9-20.6H982.8z"/>
							</g>
						</g>
					</g>
				</g>
			</g>
		</g>
		<g>
			<g>
				<g>
					<g>
						<g>
							<g>
								<path fill="#FFFFFF" d="M978.3,795.6L978.3,795.6l10.9-18.8h0c4.1,3.5,9,5.6,14.2,5.6s10.1-2,14.2-5.6h0l10.9,18.8h0
									c5.7,2.7,11,6.3,15.5,10.6c3,2.8,5.7,6,8.1,9.4l-16.2,0h-81.3C960.6,807,968.8,800.1,978.3,795.6z"/>
							</g>
						</g>
					</g>
				</g>
			</g>
			<g>
				<g>
					<g>
						<g>
							<g>
								<path d="M1036,816.8L1036,816.8h-81.3c-0.5,0-0.9-0.3-1.1-0.7c-0.2-0.4-0.2-0.9,0.1-1.3c6-8.7,14.2-15.6,23.7-20.2
									l10.8-18.5c0.2-0.3,0.5-0.5,0.9-0.6c0.4-0.1,0.7,0,1,0.3c8.1,6.9,18.8,6.9,26.9,0c0.3-0.2,0.6-0.3,1-0.3
									c0.4,0.1,0.7,0.3,0.9,0.6l10.8,18.5c5.7,2.7,10.9,6.3,15.4,10.6c3.1,2.9,5.9,6.1,8.2,9.6c0.3,0.4,0.3,0.9,0.1,1.3
									c-0.2,0.4-0.6,0.7-1.1,0.7L1036,816.8z M957.1,814.3l92.6,0c-1.9-2.6-4.1-5-6.5-7.3c-4.5-4.3-9.6-7.7-15.2-10.4
									c-0.3-0.1-0.5-0.4-0.6-0.7l-10.1-17.3c-8.4,6.5-19.3,6.5-27.8,0L979.4,796c-0.1,0.3-0.3,0.5-0.6,0.7
									C970.3,800.7,962.8,806.8,957.1,814.3z"/>
							</g>
						</g>
					</g>
				</g>
			</g>
		</g>
	</g>
	<g>
		<g>
			<g>
				<g>
					<g>
						<g>
							<g>
								<g>
									<rect x="278.5" y="488.8" fill="#FFFFFF" width="90.3" height="129.5"/>
								</g>
							</g>
						</g>
					</g>
				</g>
				<g>
					<g>
						<g>
							<g>
								<g>
									<path d="M368.8,619.5h-90.3c-0.7,0-1.2-0.6-1.2-1.2V488.8c0-0.7,0.6-1.2,1.2-1.2h90.3c0.7,0,1.2,0.6,1.2,1.2v129.5
										C370.1,619,369.5,619.5,368.8,619.5z M279.7,617.1h87.8V490h-87.8V617.1z"/>
								</g>
							</g>
						</g>
					</g>
				</g>
			</g>
			<g>
				<g>
					<g>
						<g>
							<g>
								<g>
									<path fill="#FFFFFF" d="M368.8,481.1c0-7.9-6.4-14.3-14.3-14.3h-61.8c-7.9,0-14.3,6.4-14.3,14.3v7.7h90.3V481.1z"/>
								</g>
							</g>
						</g>
					</g>
				</g>
				<g>
					<g>
						<g>
							<g>
								<g>
									<path d="M368.8,490h-90.3c-0.7,0-1.2-0.6-1.2-1.2v-7.7c0-8.5,7-15.5,15.5-15.5h61.8c8.5,0,15.5,6.9,15.5,15.5v7.7
										C370.1,489.5,369.5,490,368.8,490z M279.7,487.6h87.8v-6.5c0-7.2-5.8-13-13-13h-61.8c-7.2,0-13,5.8-13,13V487.6z"/>
								</g>
							</g>
						</g>
					</g>
				</g>
			</g>
			<g>
				<g>
					<g>
						<g>
							<g>
								<g>
									<path fill="#FFFFFF" d="M278.5,618.3v7.9c0,7.9,6.4,14.3,14.3,14.3h61.8c7.9,0,14.3-6.4,14.3-14.3v-7.9H278.5z"/>
								</g>
							</g>
						</g>
					</g>
				</g>
				<g>
					<g>
						<g>
							<g>
								<g>
									<path d="M354.6,641.7h-61.8c-8.5,0-15.5-7-15.5-15.5v-7.9c0-0.7,0.6-1.2,1.2-1.2h90.3c0.7,0,1.2,0.6,1.2,1.2v7.9
										C370.1,634.8,363.1,641.7,354.6,641.7z M279.7,619.5v6.7c0,7.2,5.8,13,13,13h61.8c7.2,0,13-5.8,13-13v-6.7H279.7z"/>
								</g>
							</g>
						</g>
					</g>
				</g>
			</g>
		</g>
		<g>
			<g>
				<g>
					<g>
						<g>
							<g>
								<path fill="#FFFFFF" d="M337.9,629.4c0,2.8-2.3,5-5.1,5h-18.4c-2.8,0-5.1-2.3-5.1-5l0,0c0-2.8,2.3-5.1,5.1-5.1h18.4
									C335.7,624.3,337.9,626.6,337.9,629.4L337.9,629.4z"/>
							</g>
						</g>
					</g>
				</g>
			</g>
			<g>
				<g>
					<g>
						<g>
							<g>
								<path d="M332.9,635.7h-18.4c-3.5,0-6.3-2.8-6.3-6.3c0-3.5,2.8-6.3,6.3-6.3h18.4c3.5,0,6.3,2.8,6.3,6.3
									C339.2,632.9,336.3,635.7,332.9,635.7z M314.5,625.6c-2.1,0-3.8,1.7-3.8,3.8c0,2.1,1.7,3.8,3.8,3.8h18.4
									c2.1,0,3.8-1.7,3.8-3.8c0-2.1-1.7-3.8-3.8-3.8H314.5z"/>
							</g>
						</g>
					</g>
				</g>
			</g>
		</g>
		<g>
			<g>
				<g>
					<g>
						<g>
							<g>
								<line fill="#FFFFFF" x1="321.2" y1="513.1" x2="293.9" y2="540.4"/>
							</g>
						</g>
					</g>
				</g>
			</g>
			<g>
				<g>
					<g>
						<g>
							<g>
								<path d="M293.9,541.6c-0.3,0-0.6-0.1-0.9-0.4c-0.5-0.5-0.5-1.3,0-1.7l27.4-27.4c0.5-0.5,1.3-0.5,1.7,0
									c0.5,0.5,0.5,1.3,0,1.7l-27.3,27.4C294.5,541.5,294.2,541.6,293.9,541.6z"/>
							</g>
						</g>
					</g>
				</g>
			</g>
		</g>
		<g>
			<g>
				<g>
					<g>
						<g>
							<g>
								<line fill="#FFFFFF" x1="354" y1="562.2" x2="326.7" y2="589.6"/>
							</g>
						</g>
					</g>
				</g>
			</g>
			<g>
				<g>
					<g>
						<g>
							<g>
								<path d="M326.7,590.8c-0.3,0-0.6-0.1-0.9-0.4c-0.5-0.5-0.5-1.3,0-1.7l27.4-27.4c0.5-0.5,1.3-0.5,1.7,0
									c0.5,0.5,0.5,1.3,0,1.7l-27.3,27.4C327.3,590.7,327,590.8,326.7,590.8z"/>
							</g>
						</g>
					</g>
				</g>
			</g>
		</g>
		<g>
			<g>
				<g>
					<g>
						<g>
							<g>
								<line fill="#FFFFFF" x1="350" y1="523.5" x2="293.3" y2="580.2"/>
							</g>
						</g>
					</g>
				</g>
			</g>
			<g>
				<g>
					<g>
						<g>
							<g>
								<path d="M293.3,581.4c-0.3,0-0.6-0.1-0.9-0.4c-0.5-0.5-0.5-1.3,0-1.7l56.7-56.7c0.5-0.5,1.3-0.5,1.7,0
									c0.5,0.5,0.5,1.3,0,1.7l-56.7,56.7C293.9,581.3,293.6,581.4,293.3,581.4z"/>
							</g>
						</g>
					</g>
				</g>
			</g>
		</g>
	</g>
	<g>
		<g>
			<g>
				<g>
					<g>
						<g>
							<circle fill="#FFFFFF" cx="309.4" cy="405.5" r="17.3"/>
						</g>
					</g>
				</g>
			</g>
		</g>
		<g>
			<g>
				<g>
					<g>
						<g>
							<path d="M309.4,424c-10.2,0-18.5-8.3-18.5-18.5s8.3-18.5,18.5-18.5s18.5,8.3,18.5,18.5S319.6,424,309.4,424z M309.4,389.4
								c-8.9,0-16.1,7.2-16.1,16.1s7.2,16.1,16.1,16.1s16.1-7.2,16.1-16.1S318.3,389.4,309.4,389.4z"/>
						</g>
					</g>
				</g>
			</g>
		</g>
	</g>
	<g>
		<g>
			<g>
				<g>
					<g>
						<g>
							<path d="M378.6,406.7H354c-0.7,0-1.2-0.6-1.2-1.2s0.6-1.2,1.2-1.2h24.6c0.7,0,1.2,0.6,1.2,1.2S379.3,406.7,378.6,406.7z"/>
						</g>
					</g>
				</g>
			</g>
		</g>
	</g>
	<g>
		<g>
			<g>
				<g>
					<g>
						<g>
							<g>
								<path d="M1214.5,741.3c-0.6,0-1.1-0.4-1.2-1l-0.3-1.2c-0.5-2.4-1.7-4.6-3.5-6.4c-2.4-2.4-5.6-3.7-9-3.7
									c-3.4,0-6.7,1.3-9.1,3.8c-1.1,1.1-1.9,2.3-2.6,3.7l-0.5,1.1c-0.3,0.6-1,0.9-1.6,0.6l-1.1-0.5c-4.2-1.9-8.1-4.3-11.6-7.3
									l-0.9-0.8c-0.5-0.4-0.6-1.2-0.2-1.7l0.7-0.9c4.1-5.1,3.6-12.4-1-17c-2.4-2.4-5.6-3.7-9-3.7c-1,0-1.9,0.1-2.8,0.3l-1.2,0.3
									c-0.7,0.2-1.3-0.2-1.5-0.9l-0.3-1.2c-1.1-4.3-1.6-8.8-1.5-13.3l0-1.2c0-0.7,0.6-1.2,1.2-1.2l1.2,0c3.4,0,6.6-1.4,9-3.8
									c5-5,5-13.2-0.1-18.1c-0.3-0.3-0.7-0.6-1.1-0.9l-0.9-0.7c-0.5-0.4-0.6-1.2-0.2-1.7l0.7-1c1.5-1.9,2.9-3.6,4.5-5.2
									c1.6-1.6,3.3-3.1,5.2-4.5l0.9-0.7c0.5-0.4,1.3-0.3,1.7,0.2l0.7,0.9c0.3,0.4,0.6,0.7,0.9,1.1c2.4,2.4,5.6,3.7,9,3.7
									c3.4,0,6.7-1.3,9.1-3.8c2.4-2.4,3.7-5.6,3.7-9v-1.2c0-0.7,0.5-1.2,1.2-1.2l1.2,0c4.4-0.1,9,0.3,13.3,1.4l1.2,0.3
									c0.6,0.2,1,0.8,0.9,1.5l-0.3,1.2c-0.9,4.3,0.4,8.7,3.5,11.8c2.4,2.4,5.6,3.7,9,3.7c2.9,0,5.8-1,8-2.8l0.9-0.7
									c0.5-0.4,1.3-0.3,1.7,0.2l0.8,0.9c2.9,3.5,5.4,7.3,7.3,11.5l0.5,1.1c0.3,0.6,0,1.3-0.6,1.6l-1.1,0.5
									c-1.4,0.6-2.6,1.5-3.6,2.5c-5,5-4.9,13.1,0.1,18.1c1.7,1.7,3.9,2.9,6.3,3.4l1.2,0.3c0.7,0.1,1.1,0.8,1,1.5l-0.2,1.2
									c-0.9,4.4-2.4,8.8-4.4,12.8l-0.5,1.1c-0.3,0.6-1,0.8-1.6,0.6l-1.1-0.5c-1.7-0.8-3.6-1.2-5.5-1.2c-3.4,0-6.7,1.3-9.1,3.8
									c-3.8,3.8-4.8,9.7-2.4,14.6l0.5,1.1c0.3,0.6,0.1,1.3-0.5,1.6l-1,0.6c-4,2.1-8.2,3.6-12.7,4.5l-1.2,0.2
									C1214.7,741.3,1214.6,741.3,1214.5,741.3z M1200.6,726.6c4.1,0,7.9,1.6,10.8,4.4c2.1,2.1,3.5,4.7,4.2,7.6l0,0
									c4.2-0.9,8.3-2.3,12-4.3l0,0c-2.8-5.8-1.7-12.8,2.9-17.4c2.9-2.9,6.7-4.5,10.8-4.5c2.3,0,4.5,0.5,6.6,1.5
									c2-3.9,3.4-8,4.2-12.2c-2.9-0.6-5.5-2-7.5-4.1c-6-5.9-6-15.6-0.1-21.6c1.2-1.2,2.7-2.2,4.3-3c-1.8-4-4.2-7.6-7-10.9l0,0
									c-2.7,2.2-6.1,3.4-9.6,3.4c-4,0-7.9-1.6-10.7-4.4c-3.7-3.7-5.3-9-4.2-14.1l0,0l0,0c-4.2-1-8.4-1.5-12.7-1.3
									c0,4.1-1.6,7.9-4.4,10.7c-2.9,2.9-6.7,4.5-10.8,4.5c-4,0-7.9-1.6-10.8-4.4c-0.4-0.4-0.8-0.8-1.1-1.3
									c-1.7,1.3-3.4,2.8-4.9,4.3c-1.4,1.5-2.8,3.1-4.2,4.9c0.4,0.4,0.8,0.7,1.2,1.1c6,6,6,15.7,0.1,21.6
									c-2.8,2.9-6.6,4.5-10.7,4.5c-0.1,4.3,0.4,8.5,1.4,12.6c1.1-0.2,2.2-0.4,3.4-0.4c4.1,0,7.9,1.6,10.8,4.4
									c5.5,5.5,6,14.2,1.2,20.3h0c3.3,2.8,7.1,5.1,11,6.9c0.8-1.6,1.8-3.1,3-4.4C1192.6,728.2,1196.5,726.6,1200.6,726.6z"/>
							</g>
						</g>
					</g>
				</g>
			</g>
		</g>
		<g>
			<g>
				<g>
					<g>
						<g>
							<g>
								<path d="M1205.6,717.9c-14.2,0-25.7-11.5-25.7-25.7c0-14.2,11.5-25.7,25.7-25.7c14.2,0,25.7,11.5,25.7,25.7
									C1231.3,706.4,1219.8,717.9,1205.6,717.9z M1205.6,668.9c-12.8,0-23.3,10.4-23.3,23.3c0,12.8,10.4,23.3,23.3,23.3
									c12.8,0,23.3-10.4,23.3-23.3C1228.8,679.4,1218.4,668.9,1205.6,668.9z"/>
							</g>
						</g>
					</g>
				</g>
			</g>
		</g>
	</g>
	<g>
		<g>
			<g>
				<g>
					<g>
						<g>
							<g>
								<rect x="194.1" y="737.6" fill="#FFFFFF" width="243.3" height="173.1"/>
							</g>
						</g>
					</g>
				</g>
			</g>
			<g>
				<g>
					<g>
						<g>
							<g>
								<path fill="#231F20" d="M437.4,911.9H194.1c-0.7,0-1.2-0.6-1.2-1.2V737.6c0-0.7,0.6-1.2,1.2-1.2h243.3
									c0.7,0,1.2,0.6,1.2,1.2v173.1C438.6,911.4,438.1,911.9,437.4,911.9z M195.3,909.4h240.9V738.9H195.3V909.4z"/>
							</g>
						</g>
					</g>
				</g>
			</g>
		</g>
		<g>
			<g>
				<g>
					<g>
						<g>
							<g>
								<rect x="388.7" y="775.4" fill="#FFFFFF" width="20.4" height="108.2"/>
							</g>
						</g>
					</g>
				</g>
			</g>
			<g>
				<g>
					<g>
						<g>
							<g>
								<path fill="#231F20" d="M409.1,884.8h-20.4c-0.7,0-1.2-0.6-1.2-1.2V775.4c0-0.7,0.6-1.2,1.2-1.2h20.4c0.7,0,1.2,0.6,1.2,1.2
									v108.2C410.3,884.3,409.7,884.8,409.1,884.8z M389.9,882.4h17.9V776.6h-17.9V882.4z"/>
							</g>
						</g>
					</g>
				</g>
			</g>
		</g>
		<g>
			<g>
				<g>
					<g>
						<g>
							<g>
								<rect x="347.9" y="801.1" fill="#FFFFFF" width="20.4" height="82.4"/>
							</g>
						</g>
					</g>
				</g>
			</g>
			<g>
				<g>
					<g>
						<g>
							<g>
								<path fill="#231F20" d="M368.3,884.8h-20.4c-0.7,0-1.2-0.6-1.2-1.2v-82.4c0-0.7,0.6-1.2,1.2-1.2h20.4c0.7,0,1.2,0.6,1.2,1.2
									v82.4C369.5,884.3,368.9,884.8,368.3,884.8z M349.1,882.4H367v-80h-17.9V882.4z"/>
							</g>
						</g>
					</g>
				</g>
			</g>
		</g>
		<g>
			<g>
				<g>
					<g>
						<g>
							<g>
								<rect x="307" y="824.2" fill="#FFFFFF" width="20.4" height="59.4"/>
							</g>
						</g>
					</g>
				</g>
			</g>
			<g>
				<g>
					<g>
						<g>
							<g>
								<path fill="#231F20" d="M327.5,884.8H307c-0.7,0-1.2-0.6-1.2-1.2v-59.4c0-0.7,0.6-1.2,1.2-1.2h20.4c0.7,0,1.2,0.6,1.2,1.2
									v59.4C328.7,884.3,328.1,884.8,327.5,884.8z M308.3,882.4h17.9v-57h-17.9V882.4z"/>
							</g>
						</g>
					</g>
				</g>
			</g>
		</g>
		<g>
			<g>
				<g>
					<g>
						<g>
							<g>
								<rect x="266.2" y="839.3" fill="#FFFFFF" width="20.4" height="44.3"/>
							</g>
						</g>
					</g>
				</g>
			</g>
			<g>
				<g>
					<g>
						<g>
							<g>
								<path fill="#231F20" d="M286.6,884.8h-20.4c-0.7,0-1.2-0.6-1.2-1.2v-44.3c0-0.7,0.6-1.2,1.2-1.2h20.4c0.7,0,1.2,0.6,1.2,1.2
									v44.3C287.9,884.3,287.3,884.8,286.6,884.8z M267.5,882.4h17.9v-41.9h-17.9V882.4z"/>
							</g>
						</g>
					</g>
				</g>
			</g>
		</g>
		<g>
			<g>
				<g>
					<g>
						<g>
							<g>
								<path fill="#FFFFFF" d="M299.6,756.2c0,41.1-33.4,74.5-74.5,74.5c-41.1,0-74.5-33.3-74.5-74.5s33.4-74.5,74.5-74.5
									C266.3,681.7,299.6,715,299.6,756.2z"/>
							</g>
						</g>
					</g>
				</g>
			</g>
			<g>
				<g>
					<g>
						<g>
							<g>
								<path d="M225.1,831.9c-41.8,0-75.7-34-75.7-75.7c0-41.8,34-75.7,75.7-75.7c41.8,0,75.7,34,75.7,75.7
									C300.9,797.9,266.9,831.9,225.1,831.9z M225.1,682.9c-40.4,0-73.3,32.9-73.3,73.3c0,40.4,32.9,73.3,73.3,73.3
									c40.4,0,73.3-32.9,73.3-73.3C298.4,715.8,265.5,682.9,225.1,682.9z"/>
							</g>
						</g>
					</g>
				</g>
			</g>
		</g>
		<g>
			<g>
				<g>
					<g>
						<g>
							<g>
								<g>
									<path fill="#FFFFFF" d="M202.8,705.3h44.6c3.6,6.4,5.7,14.3,5.7,22.9c0,13.5-5.2,25.4-13.1,32.1c-4.3,3.7-9.4,5.8-14.9,5.8
										s-10.6-2.1-14.9-5.8c-7.9-6.7-13.1-18.5-13.1-32.1C197.2,719.5,199.3,711.6,202.8,705.3z"/>
								</g>
							</g>
						</g>
					</g>
				</g>
				<g>
					<g>
						<g>
							<g>
								<g>
									<path d="M225.1,767.2c-5.6,0-11-2.1-15.7-6.1c-8.5-7.2-13.5-19.6-13.5-33c0-8.5,2-16.7,5.8-23.5c0.2-0.4,0.6-0.6,1.1-0.6
										h44.6c0.4,0,0.9,0.2,1.1,0.6c3.8,6.8,5.8,14.9,5.8,23.5c0,13.4-5.1,25.8-13.5,33C236.1,765.1,230.7,767.2,225.1,767.2z
										 M203.6,706.5c-3.4,6.3-5.2,13.8-5.2,21.6c0,12.7,4.7,24.4,12.7,31.1c8.5,7.2,19.7,7.2,28.2,0c7.9-6.8,12.7-18.4,12.7-31.1
										c0-7.9-1.8-15.3-5.2-21.6H203.6z"/>
								</g>
							</g>
						</g>
					</g>
				</g>
			</g>
			<g>
				<g>
					<g>
						<g>
							<g>
								<g>
									<path fill="#FFFFFF" d="M198.8,779.8L198.8,779.8l11.4-19.7h0c4.3,3.7,9.4,5.8,14.9,5.8s10.6-2.1,14.9-5.8l0,0l11.4,19.7h0
										c6,2.8,11.5,6.6,16.2,11.1c3.1,3,6,6.3,8.4,9.8h-16.9l-85,0C180.4,791.8,188.9,784.5,198.8,779.8z"/>
								</g>
							</g>
						</g>
					</g>
				</g>
				<g>
					<g>
						<g>
							<g>
								<g>
									<path d="M174.2,802c-0.5,0-0.9-0.3-1.1-0.7c-0.2-0.4-0.2-0.9,0.1-1.3c6.3-9.1,14.8-16.4,24.8-21.1l11.3-19.3
										c0.2-0.3,0.5-0.5,0.9-0.6c0.4-0.1,0.7,0,1,0.3c8.5,7.2,19.7,7.2,28.2,0c0.3-0.2,0.6-0.3,1-0.3c0.4,0.1,0.7,0.3,0.9,0.6
										l11.3,19.3c5.9,2.8,11.4,6.6,16.2,11.1c3.2,3.1,6.1,6.4,8.6,10c0.3,0.4,0.3,0.9,0.1,1.3c-0.2,0.4-0.6,0.7-1.1,0.7
										L174.2,802z M200,780.3c-0.1,0.3-0.3,0.5-0.6,0.7c-9,4.2-16.8,10.6-22.8,18.5l97.1,0c-2.1-2.7-4.4-5.3-6.9-7.7
										c-4.7-4.5-10.1-8.1-15.9-10.8c-0.3-0.1-0.5-0.4-0.6-0.7L239.7,762c-8.8,6.8-20.2,6.8-29.1,0L200,780.3z"/>
								</g>
							</g>
						</g>
					</g>
				</g>
			</g>
		</g>
	</g>
	<g>
		<g>
			<g>
				<g>
					<g>
						<g>
							<path d="M387.7,696.3h-23.3c-0.7,0-1.2-0.6-1.2-1.2s0.6-1.2,1.2-1.2h23.3c0.7,0,1.2,0.6,1.2,1.2S388.4,696.3,387.7,696.3z"/>
						</g>
					</g>
				</g>
			</g>
		</g>
	</g>
	<g>
		<g>
			<g>
				<g>
					<g>
						<g>
							<path d="M378.6,709.8c-0.7,0-1.2-0.6-1.2-1.2v-27.7c0-0.7,0.6-1.2,1.2-1.2s1.2,0.6,1.2,1.2v27.7
								C379.9,709.3,379.3,709.8,378.6,709.8z"/>
						</g>
					</g>
				</g>
			</g>
		</g>
	</g>
	<g>
		<g>
			<g>
				<g>
					<g>
						<g>
							<path d="M572,797.4h-78.9c-0.7,0-1.2-0.6-1.2-1.2s0.6-1.2,1.2-1.2H572c0.7,0,1.2,0.6,1.2,1.2S572.6,797.4,572,797.4z"/>
						</g>
					</g>
				</g>
			</g>
		</g>
	</g>
	<g>
		<g>
			<g>
				<g>
					<g>
						<g>
							<path d="M706,834.4H493.1c-0.7,0-1.2-0.6-1.2-1.2s0.6-1.2,1.2-1.2H706c0.7,0,1.2,0.6,1.2,1.2S706.6,834.4,706,834.4z"/>
						</g>
					</g>
				</g>
			</g>
		</g>
	</g>
	<g>
		<g>
			<g>
				<g>
					<g>
						<g>
							<path d="M850.6,886.9h-53.4c-0.7,0-1.2-0.6-1.2-1.2s0.6-1.2,1.2-1.2h53.4c0.7,0,1.2,0.6,1.2,1.2S851.3,886.9,850.6,886.9z"/>
						</g>
					</g>
				</g>
			</g>
		</g>
	</g>
	<g>
		<g>
			<g>
				<g>
					<g>
						<g>
							<path d="M764.6,886.9h-39c-0.7,0-1.2-0.6-1.2-1.2s0.6-1.2,1.2-1.2h39c0.7,0,1.2,0.6,1.2,1.2S765.3,886.9,764.6,886.9z"/>
						</g>
					</g>
				</g>
			</g>
		</g>
	</g>
	<g>
		<g>
			<g>
				<g>
					<g>
						<g>
							<path d="M841.7,787.5c-5.9,0-10.7-4.8-10.7-10.7s4.8-10.7,10.7-10.7s10.7,4.8,10.7,10.7S847.7,787.5,841.7,787.5z
								 M841.7,768.5c-4.6,0-8.3,3.7-8.3,8.3c0,4.6,3.7,8.3,8.3,8.3c4.6,0,8.3-3.7,8.3-8.3C850,772.2,846.3,768.5,841.7,768.5z"/>
						</g>
					</g>
				</g>
			</g>
		</g>
	</g>
	<g>
		<g>
			<g>
				<g>
					<g>
						<g>
							<path d="M844.4,816.8h-13.8c-0.7,0-1.2-0.6-1.2-1.2c0-0.7,0.6-1.2,1.2-1.2h13.8c0.7,0,1.2,0.6,1.2,1.2
								C845.6,816.2,845,816.8,844.4,816.8z"/>
						</g>
					</g>
				</g>
			</g>
		</g>
	</g>
	<g>
		<g>
			<g>
				<g>
					<g>
						<g>
							<path d="M974.4,278.1h-13.8c-0.7,0-1.2-0.6-1.2-1.2s0.6-1.2,1.2-1.2h13.8c0.7,0,1.2,0.6,1.2,1.2S975.1,278.1,974.4,278.1z"/>
						</g>
					</g>
				</g>
			</g>
		</g>
	</g>
	<g>
		<g>
			<g>
				<g>
					<g>
						<g>
							<g>
								<path d="M794.1,811.1c-0.3,0-0.6-0.1-0.9-0.4L777.4,795c-0.5-0.5-0.5-1.3,0-1.7c0.5-0.5,1.3-0.5,1.7,0L795,809
									c0.5,0.5,0.5,1.3,0,1.7C794.7,811,794.4,811.1,794.1,811.1z"/>
							</g>
						</g>
					</g>
				</g>
			</g>
		</g>
		<g>
			<g>
				<g>
					<g>
						<g>
							<g>
								<path d="M778.3,811.1c-0.3,0-0.6-0.1-0.9-0.4c-0.5-0.5-0.5-1.3,0-1.7l15.8-15.8c0.5-0.5,1.3-0.5,1.7,0
									c0.5,0.5,0.5,1.3,0,1.7l-15.8,15.8C778.9,811,778.6,811.1,778.3,811.1z"/>
							</g>
						</g>
					</g>
				</g>
			</g>
		</g>
	</g>
	<g>
		<g>
			<g>
				<g>
					<g>
						<g>
							<g>
								<path d="M906.3,223.2c-0.3,0-0.6-0.1-0.9-0.4l-15.8-15.8c-0.5-0.5-0.5-1.3,0-1.7c0.5-0.5,1.3-0.5,1.7,0l15.8,15.8
									c0.5,0.5,0.5,1.3,0,1.7C906.9,223.1,906.6,223.2,906.3,223.2z"/>
							</g>
						</g>
					</g>
				</g>
			</g>
		</g>
		<g>
			<g>
				<g>
					<g>
						<g>
							<g>
								<path d="M890.5,223.2c-0.3,0-0.6-0.1-0.9-0.4c-0.5-0.5-0.5-1.3,0-1.7l15.8-15.8c0.5-0.5,1.3-0.5,1.7,0
									c0.5,0.5,0.5,1.3,0,1.7l-15.8,15.8C891.1,223.1,890.8,223.2,890.5,223.2z"/>
							</g>
						</g>
					</g>
				</g>
			</g>
		</g>
	</g>
</g>
</svg>
