<?xml version="1.0" encoding="utf-8"?>
<!-- Generator: Adobe Illustrator 16.0.0, SVG Export Plug-In . SVG Version: 6.00 Build 0)  -->
<!DOCTYPE svg PUBLIC "-//W3C//DTD SVG 1.1//EN" "http://www.w3.org/Graphics/SVG/1.1/DTD/svg11.dtd">
<svg version="1.1" id="Layer_1" xmlns="http://www.w3.org/2000/svg" xmlns:xlink="http://www.w3.org/1999/xlink" x="0px" y="0px"
	 width="1400px" height="980px" viewBox="0 0 1400 980" enable-background="new 0 0 1400 980" xml:space="preserve">
<g>
	<g>
		<g>
			<rect fill="#FFFFFF" width="1399.993" height="980"/>
		</g>
	</g>
	<g>
		<path fill="#FFFFFF" d="M627.785,195.008L579.828,409.97l-12.953,58.065l-10.764,48.248c10.269,3.521,26.029-2.897,26.222-2.982
			c39.16-23.307,62.516,2.92,62.749,3.195l0.335,0.383l0.08,0.5c0.19,1.243,0.063,2.377-0.233,3.45l0.2,0.165l-0.643,1.269
			c-0.002,0.005-0.005,0.01-0.007,0.013c0,0.002,0,0.002-0.002,0.01l-0.198,0.386l-0.821,1.613l-0.283-0.24
			c-1.476,1.524-3.25,2.215-3.918,2.407l-17.042,8.8l-3.328,1.717l-5.622,2.902l-39.13,20.199
			c-0.958,3.942-2.702,8.057-5.204,12.237c-7.767,12.983-20.149,22.471-20.677,22.863l-8.732,6.36l294.943,65.8l90.56-405.937
			L627.785,195.008z"/>
		<path d="M834.801,668.611c-0.093,0-0.188-0.011-0.278-0.03l-294.945-65.8c-0.49-0.109-0.871-0.497-0.973-0.99
			c-0.103-0.493,0.092-0.998,0.5-1.296l8.732-6.36c0.113-0.085,12.615-9.588,20.332-22.486c2.425-4.053,4.126-8.052,5.057-11.882
			c0.09-0.36,0.328-0.666,0.658-0.836l65.121-33.618c0.425-0.147,2.149-0.675,3.585-2.159c0.145-0.149,0.32-0.258,0.505-0.32
			l0.545-1.073c0.018-0.037,0.035-0.075,0.055-0.11l0.305-0.603c-0.03-0.183-0.022-0.373,0.028-0.558
			c0.285-1.031,0.348-1.96,0.203-2.918l-0.113-0.232c-0.115-0.133-11.029-12.402-30.388-12.402c-9.848,0-20.191,3.185-30.743,9.465
			c-0.232,0.112-10.291,4.216-19.704,4.216c-2.862,0-5.415-0.378-7.589-1.123c-0.618-0.21-0.978-0.854-0.835-1.489l71.674-321.274
			c0.155-0.688,0.833-1.113,1.529-0.973l297.575,66.384c0.333,0.075,0.62,0.278,0.803,0.563c0.183,0.288,0.243,0.636,0.171,0.966
			l-90.56,405.937c-0.075,0.333-0.278,0.621-0.563,0.804C835.281,668.543,835.041,668.611,834.801,668.611z M542.902,600.897
			l290.928,64.903l90.001-403.437l-295.076-65.827L557.62,515.399c1.664,0.436,3.563,0.656,5.665,0.656
			c8.952,0,18.45-3.894,18.543-3.934c10.804-6.44,21.587-9.748,31.903-9.748c20.52,0,32.217,13.161,32.329,13.293l0.32,0.368
			c0.16,0.18,0.263,0.403,0.303,0.641l0.08,0.5c0.168,1.108,0.135,2.21-0.107,3.348c0.133,0.333,0.123,0.714-0.047,1.049
			l-0.643,1.271c-0.02,0.037-0.042,0.077-0.067,0.114l-0.963,1.907c-0.178,0.35-0.505,0.598-0.888,0.676
			c-0.095,0.02-0.155,0.042-0.286,0.024c-1.684,1.449-3.44,2.009-3.813,2.117l-64.375,33.26c-1.019,3.905-2.767,7.946-5.207,12.022
			c-8.1,13.538-20.882,23.139-21.01,23.234L542.902,600.897z"/>
	</g>
	<g>
		<path d="M717.684,252.22c-0.09,0-0.185-0.01-0.277-0.03l-65.85-14.69c-0.69-0.155-1.125-0.838-0.973-1.528
			c0.153-0.691,0.836-1.126,1.529-0.974l65.85,14.69c0.69,0.155,1.126,0.838,0.973,1.528
			C718.803,251.815,718.271,252.22,717.684,252.22z"/>
	</g>
	<g>
		<path d="M783.951,267.005c-0.09,0-0.186-0.01-0.278-0.03l-31.255-6.973c-0.691-0.155-1.126-0.841-0.974-1.529
			s0.836-1.119,1.528-0.974l31.256,6.974c0.69,0.155,1.126,0.84,0.974,1.528C785.069,266.6,784.539,267.005,783.951,267.005z"/>
	</g>
	<g>
		<path d="M878.812,322.293c-0.09,0-0.185-0.01-0.277-0.03l-31.256-6.973c-0.69-0.155-1.126-0.841-0.974-1.529
			c0.152-0.691,0.838-1.126,1.529-0.974l31.256,6.973c0.69,0.155,1.125,0.841,0.973,1.529
			C879.93,321.888,879.399,322.293,878.812,322.293z"/>
	</g>
	<g>
		<path d="M887.316,290.064c-0.09,0-0.186-0.01-0.278-0.03l-73.768-16.456c-0.691-0.155-1.126-0.838-0.974-1.529
			c0.152-0.688,0.838-1.114,1.528-0.974l73.769,16.456c0.69,0.155,1.126,0.838,0.974,1.529
			C888.435,289.659,887.904,290.064,887.316,290.064z"/>
	</g>
	<g>
		<path d="M806.294,306.115c-0.09,0-0.185-0.01-0.277-0.03L644.306,270.01c-0.69-0.155-1.125-0.838-0.973-1.528
			c0.153-0.691,0.836-1.126,1.529-0.974l161.711,36.075c0.69,0.155,1.126,0.838,0.973,1.529
			C807.413,305.709,806.883,306.115,806.294,306.115z"/>
	</g>
	<g>
		<path d="M871.559,354.802c-0.091,0-0.186-0.01-0.278-0.03l-234.228-52.256c-0.69-0.155-1.125-0.84-0.973-1.529
			c0.153-0.69,0.836-1.123,1.529-0.973l234.228,52.256c0.69,0.155,1.126,0.84,0.974,1.528
			C872.677,354.397,872.146,354.802,871.559,354.802z"/>
	</g>
	<g>
		<path d="M864.308,387.312c-0.091,0-0.186-0.01-0.278-0.03l-234.228-52.256c-0.69-0.155-1.125-0.84-0.973-1.529
			c0.153-0.69,0.836-1.123,1.529-0.973l234.228,52.255c0.69,0.155,1.126,0.841,0.974,1.529
			C865.426,386.906,864.896,387.312,864.308,387.312z"/>
	</g>
	<g>
		<path d="M731.71,391.855c-0.09,0-0.185-0.01-0.277-0.03l-108.885-24.29c-0.69-0.155-1.126-0.838-0.973-1.528
			c0.153-0.691,0.838-1.124,1.529-0.974l108.885,24.29c0.69,0.155,1.126,0.838,0.973,1.529
			C732.829,391.45,732.299,391.855,731.71,391.855z"/>
	</g>
	<g>
		<path d="M849.803,452.328c-0.09,0-0.186-0.01-0.277-0.03l-234.229-52.256c-0.69-0.155-1.126-0.84-0.973-1.529
			c0.153-0.69,0.838-1.121,1.529-0.973l234.228,52.255c0.691,0.155,1.126,0.841,0.974,1.529
			C850.921,451.922,850.391,452.328,849.803,452.328z"/>
	</g>
	<g>
		<path d="M842.549,484.834c-0.09,0-0.185-0.01-0.277-0.03l-234.228-52.253c-0.69-0.155-1.126-0.838-0.973-1.529
			c0.152-0.688,0.831-1.121,1.529-0.973l234.228,52.253c0.69,0.155,1.126,0.838,0.974,1.529
			C843.668,484.429,843.137,484.834,842.549,484.834z"/>
	</g>
	<g>
		<path d="M835.296,517.344c-0.09,0-0.186-0.01-0.278-0.03l-234.225-52.255c-0.69-0.155-1.126-0.841-0.973-1.529
			c0.152-0.688,0.831-1.118,1.529-0.973l234.225,52.255c0.69,0.155,1.126,0.841,0.974,1.529
			C836.414,516.938,835.884,517.344,835.296,517.344z"/>
	</g>
	<g>
		<path d="M828.045,549.851c-0.09,0-0.186-0.01-0.277-0.03L716.9,525.088c-0.69-0.155-1.126-0.839-0.973-1.529
			c0.152-0.69,0.83-1.121,1.528-0.973l110.866,24.732c0.69,0.155,1.126,0.838,0.974,1.529
			C829.163,549.445,828.633,549.851,828.045,549.851z"/>
	</g>
	<g>
		<path d="M671.338,514.892c-0.09,0-0.186-0.01-0.278-0.03l-77.521-17.294c-0.69-0.155-1.126-0.838-0.973-1.528
			c0.152-0.688,0.831-1.119,1.529-0.974l77.521,17.294c0.691,0.155,1.126,0.839,0.974,1.529
			C672.457,514.486,671.926,514.892,671.338,514.892z"/>
	</g>
	<g>
		<path d="M820.791,582.359c-0.09,0-0.185-0.01-0.277-0.029l-234.226-52.256c-0.69-0.155-1.126-0.841-0.973-1.528
			c0.152-0.688,0.831-1.116,1.529-0.974l234.226,52.256c0.69,0.154,1.126,0.84,0.973,1.528
			C821.91,581.954,821.379,582.359,820.791,582.359z"/>
	</g>
	<g>
		<path d="M649.538,578.281c-0.09,0-0.185-0.01-0.278-0.029l-70.225-15.668c-0.69-0.155-1.126-0.841-0.973-1.529
			c0.152-0.688,0.833-1.116,1.528-0.974l70.226,15.668c0.69,0.155,1.126,0.841,0.973,1.529
			C650.656,577.876,650.125,578.281,649.538,578.281z"/>
	</g>
	<g>
		<path d="M700.177,589.578c-0.09,0-0.185-0.01-0.277-0.03l-23.965-5.347c-0.69-0.155-1.126-0.841-0.974-1.528
			c0.153-0.688,0.831-1.111,1.529-0.974l23.965,5.347c0.691,0.155,1.125,0.841,0.973,1.529
			C701.295,589.173,700.765,589.578,700.177,589.578z"/>
	</g>
	<g>
		<polygon fill="#693E35" points="421.925,573.803 362.003,673.963 479.212,744.088 539.137,643.928 527.705,637.088 
			433.345,580.639 		"/>
		<path d="M479.212,745.369c-0.23,0-0.458-0.063-0.658-0.183l-117.209-70.125c-0.608-0.363-0.806-1.148-0.44-1.757l59.922-100.16
			c0.173-0.29,0.458-0.5,0.786-0.585c0.325-0.083,0.678-0.033,0.971,0.145l117.212,70.126c0.608,0.362,0.806,1.148,0.44,1.756
			l-59.925,100.16c-0.172,0.29-0.455,0.5-0.786,0.586C479.422,745.356,479.317,745.369,479.212,745.369z M363.76,673.522
			l115.012,68.81l58.608-97.964L422.366,575.56L363.76,673.522z"/>
	</g>
	<g>
		<polygon fill="#9DDBFF" points="446.383,558.843 433.345,580.639 527.705,637.088 540.743,615.297 529.981,608.856 
			456.244,564.74 		"/>
		<path d="M527.705,638.368c-0.226,0-0.453-0.058-0.658-0.183l-94.36-56.449c-0.608-0.362-0.806-1.148-0.44-1.756l13.038-21.796
			c0.363-0.607,1.144-0.811,1.757-0.44l94.36,56.454c0.608,0.363,0.806,1.148,0.44,1.757l-13.038,21.79
			C528.563,638.146,528.14,638.368,527.705,638.368z M435.101,580.195l92.164,55.136l11.722-19.594L446.826,560.6L435.101,580.195z"
			/>
	</g>
	<g>
		<path fill="none" d="M549.055,484.527c-0.297,0.455-0.64,0.898-0.913,1.351c-8.958,14.973,1.872,26.059,1.981,26.164
			c1.526,2.082,3.611,3.431,5.988,4.241l10.764-48.248l-14.062,11.655C551.419,481.204,550.173,482.863,549.055,484.527z"/>
	</g>
	<g>
		<path fill="#FFE9CB" d="M645.264,520.829c0.295-1.073,0.423-2.207,0.233-3.45l-0.08-0.5l-0.335-0.383
			c-0.233-0.275-23.589-26.502-62.749-3.195c-0.193,0.085-15.953,6.503-26.222,2.982c-2.377-0.811-4.461-2.159-5.988-4.241
			c-0.11-0.105-10.939-11.191-1.981-26.164c0.273-0.453,0.616-0.896,0.913-1.351c1.119-1.664,2.365-3.323,3.758-4.836l14.062-11.655
			l12.953-58.065c-5.182-0.11-14.182,0.521-22.221,5.234c-0.368,0.205-0.733,0.408-1.013,0.585l-35.672,19.594l-26.142,14.357
			c-0.255,0.115-6.34,2.998-11.304,11.297c-2.22,3.713-3.878,7.961-4.957,12.7l-12.513,69.76l-9.763,21.242l73.738,44.116
			l1.882-1.504l7.994-5.822l8.732-6.36c0.528-0.393,12.911-9.88,20.677-22.863c2.502-4.181,4.246-8.295,5.204-12.237l39.13-20.199
			l-7.709-13.059l21.37-9.628c0,0,7.622-2.742,17.352,5.487l0.198-0.386c0.002-0.008,0.002-0.008,0.002-0.01
			c0.002-0.003,0.005-0.008,0.007-0.013l0.643-1.269L645.264,520.829z"/>
		<path d="M529.981,610.138c-0.228,0-0.455-0.06-0.658-0.183l-73.738-44.116c-0.561-0.335-0.778-1.038-0.505-1.634l9.695-21.095
			l12.483-69.598c1.116-4.914,2.835-9.313,5.119-13.133c5.222-8.732,11.607-11.685,11.877-11.807l61.723-33.906
			c0.215-0.137,0.581-0.343,0.954-0.553c7.668-4.496,16.108-5.435,21.84-5.435l1.083,0.01c0.383,0.007,0.743,0.188,0.98,0.49
			c0.238,0.303,0.325,0.695,0.243,1.068l-12.953,58.065c-0.063,0.278-0.215,0.528-0.433,0.708l-14.062,11.655
			c-1.096,1.206-2.285,2.74-3.513,4.566l-0.397,0.578c-0.168,0.24-0.335,0.478-0.48,0.718c-8.397,14.034,1.684,24.49,1.786,24.595
			c1.399,1.882,3.205,3.155,5.497,3.936c1.909,0.655,4.184,0.986,6.761,0.986c8.955,0,18.45-3.894,18.543-3.934
			c10.804-6.44,21.587-9.748,31.903-9.748c20.517,0,32.217,13.161,32.329,13.293l0.32,0.368c0.16,0.18,0.263,0.403,0.303,0.641
			l0.08,0.5c0.168,1.108,0.135,2.21-0.107,3.348c0.133,0.333,0.123,0.714-0.047,1.049l-0.643,1.269
			c-0.02,0.04-0.042,0.08-0.067,0.117l-0.143,0.298c-0.18,0.348-0.505,0.594-0.891,0.671c-0.383,0.083-0.778-0.027-1.078-0.277
			c-5.495-4.646-10.221-5.622-13.219-5.622c-1.799,0-2.867,0.359-2.88,0.365l-19.966,9l6.983,11.827
			c0.18,0.303,0.225,0.665,0.127,1.006c-0.098,0.337-0.33,0.62-0.643,0.782l-38.617,19.935c-1.019,3.905-2.767,7.946-5.207,12.022
			c-8.097,13.538-20.882,23.139-21.01,23.234l-18.573,13.658C530.55,610.043,530.267,610.138,529.981,610.138z M457.887,564.229
			l71.989,43.071l1.186-0.948l16.774-12.218c0.113-0.085,12.615-9.588,20.332-22.486c2.425-4.053,4.126-8.052,5.057-11.882
			c0.09-0.36,0.328-0.666,0.658-0.836l37.926-19.576l-7.021-11.893c-0.185-0.313-0.228-0.69-0.117-1.038
			c0.11-0.348,0.363-0.631,0.695-0.78l21.37-9.628c0.573-0.216,7.879-2.6,17.277,4.533c0.005-0.02,0.01-0.04,0.015-0.06
			c0.285-1.031,0.348-1.96,0.203-2.918l-0.113-0.232c-0.115-0.133-11.031-12.402-30.388-12.402c-9.848,0-20.191,3.185-30.743,9.465
			c-0.232,0.112-10.286,4.216-19.704,4.216c-2.86,0-5.415-0.378-7.589-1.123c-2.797-0.953-5.021-2.532-6.605-4.694l0,0
			c-0.025,0-11.527-11.734-2.046-27.58c0.177-0.295,0.377-0.583,0.58-0.873l0.358-0.521c1.311-1.949,2.58-3.583,3.888-5.004
			l13.849-11.492l12.513-56.086c-5.397,0.058-13.066,1.014-19.977,5.067c-0.403,0.225-0.726,0.403-0.976,0.561l-61.884,33.993
			c-0.147,0.07-6.022,2.81-10.821,10.831c-2.144,3.588-3.761,7.736-4.807,12.328l-12.5,69.7c-0.02,0.108-0.053,0.211-0.098,0.311
			L457.887,564.229z"/>
	</g>
	<g>
		<path fill="#DBCAB1" d="M627.262,517.184l-21.37,9.628l7.709,13.059l5.622-2.902l3.328-1.717l17.042-8.8
			c0.668-0.192,2.442-0.883,3.918-2.407l0.283,0.24l0.821-1.613C634.883,514.441,627.262,517.184,627.262,517.184z"/>
		<path fill="#231F20" d="M613.601,541.15c-0.438,0-0.866-0.228-1.104-0.63l-7.709-13.059c-0.185-0.313-0.228-0.69-0.117-1.038
			c0.11-0.348,0.363-0.631,0.695-0.78l21.37-9.628c0.601-0.229,8.627-2.843,18.706,5.677c0.453,0.383,0.583,1.028,0.313,1.559
			l-0.82,1.614c-0.178,0.35-0.505,0.598-0.888,0.676c-0.095,0.02-0.155,0.042-0.286,0.024c-1.684,1.449-3.44,2.009-3.813,2.117
			l-25.759,13.325C614.001,541.105,613.801,541.15,613.601,541.15z M607.721,527.393l6.368,10.783l24.916-12.863
			c0.425-0.147,2.149-0.675,3.585-2.159c0.093-0.095,0.195-0.173,0.305-0.232c-5.114-4.023-9.495-4.894-12.328-4.894
			c-1.799,0-2.867,0.359-2.88,0.365L607.721,527.393z"/>
	</g>
	<g>
		<g>
			<g>
				<polygon fill="#9DDBFF" points="923.398,632.361 910.268,637.245 822.41,669.93 809.603,674.693 819.397,701.021 
					933.191,658.69 				"/>
				<path fill="#231F20" d="M819.397,702.301c-0.521,0-1.008-0.317-1.201-0.833l-9.795-26.326c-0.118-0.32-0.105-0.673,0.035-0.981
					c0.143-0.31,0.4-0.55,0.72-0.668l113.797-42.332c0.317-0.115,0.67-0.101,0.979,0.035c0.31,0.143,0.55,0.4,0.668,0.721
					l9.793,26.329c0.245,0.663-0.09,1.398-0.753,1.646l-113.794,42.329C819.698,702.276,819.545,702.301,819.397,702.301z
					 M811.248,675.446l8.902,23.928l111.395-41.437l-8.899-23.93L811.248,675.446z"/>
			</g>
			<g>
				<path fill="#FFE9CB" d="M903.712,619.633c2.207-3.583,9.974-17.789,4.587-32.276l-26.805-72.042
					c-3.421-9.195-13.691-13.894-22.889-10.471c-5.595,2.087-9.528,6.7-10.975,12.067c-4.471-6.711-13.136-9.741-21.02-6.811
					c-5.817,2.164-9.833,7.075-11.132,12.723c-4.664-5.905-12.773-8.427-20.194-5.667c-5.327,1.984-9.147,6.268-10.749,11.316
					l-21.079-56.667c-3.423-9.197-13.682-13.899-22.879-10.481c-9.205,3.428-13.904,13.699-10.484,22.889l38.808,104.316
					l-7.896,22.821l0.155,0.567c0,0,0.199,0.671,0.62,1.805c2.164,5.81,8.774,19.884,23.279,24.945l26.439,12.58
					c0.577,0.666,2.194,2.59,4.183,5.495c1.349,1.966,4.294,8.108,6.238,12.177l0.49,1.009l87.857-32.685L903.712,619.633z"/>
				<path fill="#231F20" d="M822.41,671.211c-0.478,0-0.931-0.268-1.151-0.721l-0.49-1.009c-1.687-3.527-4.818-10.083-6.143-12.013
					c-1.773-2.592-3.237-4.378-3.923-5.179l-26.194-12.466c-14.895-5.188-21.7-19.671-23.93-25.653
					c-0.438-1.186-0.647-1.887-0.647-1.887l-0.163-0.595c-0.067-0.251-0.06-0.514,0.025-0.756l7.746-22.389l-38.647-103.883
					c-3.668-9.858,1.374-20.865,11.237-24.538c2.137-0.793,4.366-1.196,6.628-1.196c7.939,0,15.133,4.997,17.899,12.43
					l19.946,53.622c2.162-4.151,5.763-7.359,10.234-9.025c6.87-2.557,14.904-0.745,20.063,4.312c1.901-5.239,5.98-9.4,11.262-11.367
					c2.14-0.793,4.371-1.196,6.636-1.196c5.574,0,10.796,2.402,14.395,6.528c2.017-4.861,5.979-8.729,10.964-10.589
					c2.14-0.796,4.371-1.198,6.638-1.198c7.941,0,15.135,4.991,17.9,12.423l26.804,72.041c5.322,14.313-1.594,28.174-4.371,32.857
					l6.341,17.031c0.117,0.32,0.104,0.674-0.035,0.981c-0.143,0.31-0.4,0.55-0.718,0.668l-87.857,32.685
					C822.71,671.186,822.561,671.211,822.41,671.211z M762.396,611.581c0,0,0.192,0.639,0.586,1.696
					c2.102,5.643,8.504,19.297,22.501,24.183l26.566,12.633c0.16,0.075,0.301,0.183,0.418,0.315
					c0.613,0.706,2.255,2.667,4.271,5.612c1.323,1.927,3.95,7.354,6.314,12.303l85.568-31.831l-6.11-16.411
					c-0.138-0.37-0.097-0.783,0.11-1.121c2.35-3.813,9.615-17.334,4.477-31.158l-26.805-72.039
					c-2.393-6.436-8.622-10.757-15.498-10.757c-1.962,0-3.893,0.351-5.742,1.039c-4.989,1.858-8.797,6.047-10.186,11.199
					c-0.131,0.485-0.533,0.851-1.028,0.931c-0.508,0.092-0.996-0.136-1.273-0.554c-3.07-4.605-8.217-7.355-13.767-7.355
					c-1.959,0-3.891,0.348-5.742,1.036c-5.212,1.938-9.075,6.354-10.329,11.81c-0.109,0.48-0.485,0.853-0.968,0.963
					c-0.48,0.103-0.98-0.072-1.286-0.458c-4.329-5.479-12.138-7.719-18.743-5.259c-4.786,1.783-8.422,5.611-9.973,10.503
					c-0.165,0.521-0.644,0.879-1.188,0.894c-0.616,0.021-1.041-0.322-1.233-0.833l-21.08-56.667
					c-2.395-6.438-8.625-10.764-15.498-10.764c-1.957,0-3.886,0.348-5.734,1.036c-8.54,3.18-12.903,12.708-9.729,21.24
					l38.807,104.316c0.104,0.28,0.108,0.586,0.011,0.865l-7.767,22.449L762.396,611.581L762.396,611.581z"/>
			</g>
			<g>
				<polygon fill="#693E35" points="819.397,701.021 805.614,706.149 850.543,826.929 991.915,774.338 946.982,653.556 
					933.191,658.69 				"/>
				<path fill="#231F20" d="M850.543,828.21c-0.183,0-0.365-0.04-0.532-0.115c-0.311-0.143-0.551-0.4-0.668-0.718l-44.93-120.779
					c-0.245-0.663,0.09-1.401,0.753-1.649l141.369-52.593c0.32-0.115,0.676-0.101,0.98,0.034c0.311,0.143,0.551,0.4,0.668,0.719
					l44.933,120.782c0.117,0.32,0.104,0.673-0.035,0.98c-0.143,0.311-0.4,0.551-0.719,0.668L850.991,828.13
					C850.846,828.183,850.693,828.21,850.543,828.21z M807.26,706.902l44.037,118.38l138.972-51.697l-44.039-118.383L807.26,706.902
					z"/>
			</g>
		</g>
		<g>
			<path fill="#DBCAB1" d="M764.185,489.691l-5.142-13.832c-2.404-6.46-9.596-9.753-16.061-7.346
				c-6.463,2.402-9.753,9.593-7.349,16.058l5.145,13.829L764.185,489.691z"/>
			<path fill="#231F20" d="M740.778,499.682c-0.183,0-0.366-0.04-0.533-0.115c-0.311-0.143-0.551-0.4-0.668-0.718l-5.145-13.829
				c-1.281-3.448-1.146-7.188,0.386-10.534s4.271-5.892,7.719-7.173c1.546-0.575,3.162-0.868,4.801-0.868
				c5.723,0,10.909,3.603,12.906,8.967l5.142,13.834c0.245,0.663-0.09,1.399-0.753,1.646l-23.407,8.709
				C741.081,499.654,740.928,499.682,740.778,499.682z M747.338,469.006c-1.333,0-2.646,0.238-3.908,0.708
				c-2.807,1.043-5.036,3.115-6.282,5.837s-1.356,5.768-0.313,8.575l4.696,12.627l21.007-7.816l-4.696-12.633
				C756.218,471.941,751.994,469.006,747.338,469.006z"/>
		</g>
	</g>
	<g>
		<path d="M595.521,340.908c-0.09,0-0.185-0.01-0.277-0.03l-117.529-26.222c-0.691-0.155-1.126-0.841-0.974-1.529
			c0.153-0.688,0.831-1.113,1.529-0.973l117.529,26.222c0.691,0.155,1.126,0.84,0.973,1.529
			C596.639,340.503,596.109,340.908,595.521,340.908z"/>
	</g>
	<g>
		<path d="M604.168,302.146c-0.09,0-0.186-0.01-0.278-0.03l-41.885-9.342c-0.69-0.155-1.125-0.838-0.973-1.529
			c0.153-0.688,0.836-1.119,1.529-0.974l41.884,9.343c0.691,0.155,1.126,0.838,0.974,1.529
			C605.286,301.741,604.756,302.146,604.168,302.146z"/>
	</g>
	<g>
		<path d="M612.908,262.974c-0.09,0-0.186-0.01-0.278-0.03l-80.646-17.993c-0.69-0.155-1.126-0.84-0.973-1.529
			c0.152-0.688,0.835-1.118,1.529-0.973l80.646,17.992c0.691,0.155,1.126,0.841,0.974,1.529
			C614.026,262.569,613.496,262.974,612.908,262.974z"/>
	</g>
	<g>
		<path d="M962.911,500.31c-0.09,0-0.186-0.01-0.278-0.03l-86.271-19.246c-0.69-0.155-1.126-0.838-0.974-1.529
			c0.152-0.69,0.836-1.123,1.529-0.973l86.271,19.246c0.69,0.155,1.126,0.839,0.974,1.529
			C964.029,499.904,963.499,500.31,962.911,500.31z"/>
	</g>
	<g>
		<path d="M933.492,455.683c-0.091,0-0.186-0.01-0.278-0.03l-48.763-10.879c-0.69-0.155-1.126-0.838-0.974-1.529
			c0.153-0.688,0.836-1.118,1.529-0.973l48.763,10.879c0.69,0.155,1.126,0.838,0.974,1.529
			C934.61,455.278,934.08,455.683,933.492,455.683z"/>
	</g>
	<g>
		<g>
			<path d="M595.463,677.971c-0.423,0-0.838-0.21-1.081-0.593l-17.027-26.807c-0.38-0.599-0.202-1.392,0.393-1.77
				c0.603-0.38,1.391-0.202,1.769,0.394l17.026,26.807c0.38,0.598,0.203,1.392-0.393,1.77
				C595.936,677.906,595.698,677.971,595.463,677.971z"/>
		</g>
		<g>
			<path d="M573.548,673.082c-0.423,0-0.838-0.21-1.081-0.593c-0.38-0.599-0.203-1.392,0.393-1.77l26.805-17.028
				c0.601-0.381,1.389-0.205,1.769,0.393s0.203,1.391-0.393,1.769l-26.804,17.029C574.021,673.017,573.783,673.082,573.548,673.082z
				"/>
		</g>
	</g>
	<g>
		<g>
			<path d="M407.013,378.494c-0.317,0-0.633-0.117-0.88-0.353l-23.037-21.858c-0.516-0.485-0.536-1.296-0.047-1.809
				c0.488-0.513,1.298-0.53,1.809-0.047l23.037,21.858c0.516,0.485,0.536,1.296,0.047,1.809
				C407.691,378.359,407.351,378.494,407.013,378.494z"/>
		</g>
		<g>
			<path d="M384.567,379.085c-0.318,0-0.633-0.118-0.881-0.353c-0.515-0.485-0.535-1.296-0.047-1.809l21.855-23.039
				c0.488-0.513,1.298-0.531,1.809-0.048c0.515,0.485,0.535,1.296,0.047,1.809l-21.855,23.039
				C385.245,378.95,384.905,379.085,384.567,379.085z"/>
		</g>
	</g>
	<g>
		<path d="M715.442,668.233c-0.091,0-0.186-0.011-0.278-0.03l-74.601-16.642c-0.691-0.155-1.126-0.838-0.974-1.528
			c0.153-0.688,0.831-1.118,1.529-0.974l74.602,16.642c0.69,0.155,1.126,0.838,0.974,1.528
			C716.561,667.828,716.03,668.233,715.442,668.233z"/>
	</g>
	<g>
		<path d="M761.705,678.557c-0.09,0-0.186-0.01-0.28-0.03l-10.421-2.327c-0.69-0.154-1.123-0.84-0.971-1.531
			c0.157-0.686,0.815-1.118,1.531-0.971l10.421,2.327c0.69,0.155,1.123,0.841,0.971,1.531
			C762.821,678.151,762.293,678.557,761.705,678.557z"/>
	</g>
	<g>
		<path d="M723.562,710.298c-0.091,0-0.186-0.01-0.278-0.03l-71.894-16.041c-0.69-0.154-1.126-0.84-0.973-1.528
			c0.155-0.69,0.833-1.123,1.529-0.974l71.894,16.041c0.69,0.155,1.126,0.841,0.974,1.529
			C724.68,709.893,724.149,710.298,723.562,710.298z"/>
	</g>
	<g>
		<path d="M766.396,737.135c-0.751,0-1.504-0.085-2.242-0.248c-5.514-1.23-9-6.72-7.771-12.234c1.036-4.646,5.24-8.02,9.996-8.02
			c0.748,0,1.504,0.085,2.239,0.248c5.515,1.23,9,6.718,7.771,12.232C775.354,733.762,771.15,737.135,766.396,737.135z
			 M766.379,719.195c-3.565,0-6.718,2.529-7.493,6.013c-0.924,4.138,1.691,8.254,5.827,9.177c4.075,0.926,8.276-1.791,9.175-5.827
			c0.923-4.136-1.691-8.252-5.827-9.175C767.508,719.258,766.942,719.195,766.379,719.195z"/>
	</g>
	<g>
		<path d="M942.606,313.336c-0.09,0-0.185-0.01-0.277-0.03l-13.129-2.927c-0.69-0.155-1.126-0.838-0.973-1.529
			c0.152-0.688,0.838-1.131,1.528-0.974l13.129,2.928c0.69,0.155,1.126,0.838,0.973,1.529
			C943.725,312.93,943.194,313.336,942.606,313.336z"/>
	</g>
	<g>
		<path d="M973.031,320.124c-0.09,0-0.185-0.01-0.279-0.03l-13.129-2.93c-0.69-0.155-1.123-0.841-0.971-1.531
			c0.152-0.686,0.82-1.114,1.531-0.971l13.129,2.93c0.688,0.155,1.123,0.841,0.971,1.531
			C974.147,319.718,973.62,320.124,973.031,320.124z"/>
	</g>
	<g>
		<path d="M953.186,306.615c-0.09,0-0.186-0.01-0.28-0.03c-0.69-0.155-1.124-0.84-0.971-1.531l2.93-13.128
			c0.157-0.688,0.815-1.121,1.531-0.971c0.69,0.155,1.123,0.841,0.971,1.531l-2.93,13.128
			C954.304,306.21,953.773,306.615,953.186,306.615z"/>
	</g>
	<g>
		<path d="M946.397,337.043c-0.09,0-0.186-0.01-0.28-0.03c-0.69-0.155-1.123-0.841-0.971-1.531l2.93-13.128
			c0.152-0.686,0.823-1.111,1.531-0.971c0.69,0.155,1.123,0.841,0.971,1.531l-2.93,13.128
			C947.514,336.637,946.985,337.043,946.397,337.043z"/>
	</g>
	<g>
		<g>
			<path fill="#231F20" d="M1136.627,917.275c-2.598,0-4.859-1.288-5.905-3.359l-20.014-39.271
				c-1.624-3.235-0.288-7.271,2.972-9.002c11.383-6.048,22.524-12.881,33.115-20.307c2.915-2.04,7.269-1.352,9.33,1.458
				l11.79,16.209c1.251,1.733,4.15,1.981,6.115,0.508c11.259-8.484,22.096-17.745,32.211-27.522c2.347-2.26,6.095-6.008,8.354-8.359
				c9.796-10.139,19.059-20.978,27.527-32.22c0.801-1.061,1.154-2.377,0.969-3.612c-0.155-1.039-0.676-1.927-1.469-2.5
				l-16.208-11.787c-2.925-2.135-3.578-6.323-1.462-9.335c7.409-10.562,14.239-21.703,20.305-33.11
				c1.203-2.264,3.522-3.673,6.058-3.673c1.033,0,2.021,0.235,2.938,0.698l39.279,20.014c1.427,0.721,2.5,2.02,3.018,3.653
				c0.626,1.977,0.381,4.241-0.67,6.213c-16.361,30.782-36.934,59.091-61.146,84.142c-2.43,2.537-6.473,6.578-9.008,9.007
				c-25.065,24.226-53.376,44.8-84.142,61.148C1139.347,916.926,1137.976,917.273,1136.627,917.275z M1150.733,846.655
				c-0.889,0-1.739,0.268-2.468,0.778c-10.676,7.488-21.907,14.374-33.385,20.472c-2.041,1.086-2.887,3.591-1.887,5.587
				l20.012,39.263c0.961,1.906,3.991,2.515,6.378,1.251c30.553-16.236,58.668-36.671,83.566-60.732
				c2.517-2.412,6.525-6.421,8.938-8.938c24.05-24.883,44.481-52.999,60.729-83.569c0.73-1.368,0.908-2.912,0.488-4.235
				c-0.305-0.974-0.921-1.734-1.731-2.143l-39.277-20.014c-1.927-0.968-4.531-0.077-5.577,1.892
				c-6.112,11.502-13.001,22.731-20.469,33.383c-1.321,1.879-0.929,4.476,0.873,5.792l16.205,11.782
				c1.352,0.979,2.24,2.47,2.497,4.196c0.286,1.911-0.245,3.928-1.456,5.534c-8.534,11.324-17.862,22.243-27.73,32.454
				c-2.276,2.367-6.055,6.147-8.419,8.425c-10.188,9.848-21.107,19.178-32.449,27.726c-1.312,0.985-2.907,1.528-4.499,1.528
				c-2.142,0-4.051-0.94-5.231-2.579l-11.785-16.201C1153.288,847.258,1152.074,846.655,1150.733,846.655z"/>
		</g>
		<g>
			<path fill="#231F20" d="M1182.637,697.98h-32.057c-0.708,0-1.28-0.573-1.28-1.281v-32.059c0-0.709,0.572-1.281,1.28-1.281h32.057
				c0.708,0,1.281,0.572,1.281,1.281v32.059C1183.918,697.407,1183.345,697.98,1182.637,697.98z M1151.861,695.418h29.494v-29.497
				h-29.494V695.418z"/>
		</g>
		<g>
			<path fill="#231F20" d="M1127.321,697.98h-32.062c-0.708,0-1.281-0.573-1.281-1.281v-32.059c0-0.709,0.573-1.281,1.281-1.281
				h32.062c0.708,0,1.281,0.572,1.281,1.281v32.059C1128.603,697.407,1128.029,697.98,1127.321,697.98z M1096.541,695.418h29.499
				v-29.497h-29.499V695.418z"/>
		</g>
		<g>
			<path fill="#231F20" d="M1071.998,697.98h-32.057c-0.708,0-1.28-0.573-1.28-1.281v-32.059c0-0.709,0.572-1.281,1.28-1.281h32.057
				c0.708,0,1.281,0.572,1.281,1.281v32.059C1073.279,697.407,1072.706,697.98,1071.998,697.98z M1041.223,695.418h29.494v-29.497
				h-29.494V695.418z"/>
		</g>
		<g>
			<path fill="#231F20" d="M1182.637,750.075h-32.057c-0.708,0-1.28-0.572-1.28-1.28v-32.057c0-0.708,0.572-1.281,1.28-1.281h32.057
				c0.708,0,1.281,0.573,1.281,1.281v32.057C1183.918,749.503,1183.345,750.075,1182.637,750.075z M1151.861,747.514h29.494V718.02
				h-29.494V747.514z"/>
		</g>
		<g>
			<path fill="#231F20" d="M1127.321,750.075h-32.062c-0.708,0-1.281-0.572-1.281-1.28v-32.057c0-0.708,0.573-1.281,1.281-1.281
				h32.062c0.708,0,1.281,0.573,1.281,1.281v32.057C1128.603,749.503,1128.029,750.075,1127.321,750.075z M1096.541,747.514h29.499
				V718.02h-29.499V747.514z"/>
		</g>
		<g>
			<path fill="#231F20" d="M1071.998,750.075h-32.057c-0.708,0-1.28-0.572-1.28-1.28v-32.057c0-0.708,0.572-1.281,1.28-1.281h32.057
				c0.708,0,1.281,0.573,1.281,1.281v32.057C1073.279,749.503,1072.706,750.075,1071.998,750.075z M1041.223,747.514h29.494V718.02
				h-29.494V747.514z"/>
		</g>
		<g>
			<path fill="#231F20" d="M1182.637,802.176h-32.057c-0.708,0-1.28-0.572-1.28-1.281v-32.061c0-0.709,0.572-1.281,1.28-1.281
				h32.057c0.708,0,1.281,0.572,1.281,1.281v32.061C1183.918,801.604,1183.345,802.176,1182.637,802.176z M1151.861,799.614h29.494
				v-29.5h-29.494V799.614z"/>
		</g>
		<g>
			<path fill="#231F20" d="M1127.321,802.176h-32.062c-0.708,0-1.281-0.572-1.281-1.281v-32.061c0-0.709,0.573-1.281,1.281-1.281
				h32.062c0.708,0,1.281,0.572,1.281,1.281v32.061C1128.603,801.604,1128.029,802.176,1127.321,802.176z M1096.541,799.614h29.499
				v-29.5h-29.499V799.614z"/>
		</g>
		<g>
			<path fill="#231F20" d="M1071.998,802.176h-32.057c-0.708,0-1.28-0.572-1.28-1.281v-32.061c0-0.709,0.572-1.281,1.28-1.281
				h32.057c0.708,0,1.281,0.572,1.281,1.281v32.061C1073.279,801.604,1072.706,802.176,1071.998,802.176z M1041.223,799.614h29.494
				v-29.5h-29.494V799.614z"/>
		</g>
	</g>
	<g>
		<g>
			<g>
				<path d="M1184.418,159.689h-45.409c-0.708,0-1.281-0.573-1.281-1.281c0-18.708-4.368-36.573-12.983-53.099
					c-0.173-0.333-0.192-0.726-0.053-1.073c0.141-0.348,0.428-0.615,0.783-0.735c10.379-3.465,20.199-8.392,29.187-14.64
					c0.498-0.353,1.182-0.298,1.622,0.13c18.971,18.39,29.416,43.041,29.416,69.417
					C1185.699,159.116,1185.127,159.689,1184.418,159.689z M1140.282,157.127h42.848c-0.33-24.843-10.19-48.042-27.881-65.562
					c-8.539,5.822-17.797,10.489-27.553,13.884C1135.861,121.595,1140.092,138.967,1140.282,157.127z"/>
			</g>
			<g>
				<path d="M1155.392,228.178c-0.255,0-0.51-0.075-0.73-0.23c-8.978-6.238-18.8-11.162-29.191-14.632
					c-0.355-0.12-0.643-0.388-0.783-0.736c-0.14-0.348-0.12-0.741,0.053-1.073c8.617-16.531,12.988-34.396,12.988-53.099
					c0-0.708,0.573-1.281,1.281-1.281h45.409c0.709,0,1.281,0.573,1.281,1.281c0,26.376-10.445,51.027-29.416,69.41
					C1156.037,228.056,1155.715,228.178,1155.392,228.178z M1127.691,211.367c9.769,3.4,19.026,8.062,27.558,13.876
					c17.688-17.515,27.551-40.711,27.881-65.554h-42.848C1140.092,177.844,1135.861,195.216,1127.691,211.367z"/>
			</g>
			<g>
				<path d="M1125.88,105.998c-0.465,0-0.91-0.255-1.136-0.691c-8.517-16.358-21.029-30.62-36.189-41.247
					c-0.458-0.32-0.656-0.903-0.485-1.436c0.167-0.533,0.663-0.893,1.221-0.893h0.003c25.13,0.07,48.922,9.753,66.99,27.26
					c0.274,0.268,0.417,0.643,0.385,1.023c-0.03,0.383-0.23,0.73-0.545,0.948c-9.188,6.388-19.227,11.424-29.838,14.97
					C1126.153,105.978,1126.016,105.998,1125.88,105.998z M1093.363,64.391c13.701,10.343,25.094,23.657,33.14,38.762
					c9.506-3.275,18.528-7.779,26.86-13.403C1136.912,74.319,1115.795,65.412,1093.363,64.391z"/>
			</g>
			<g>
				<path d="M1022.646,228.178c-0.323,0-0.646-0.123-0.892-0.36c-18.97-18.39-29.416-43.038-29.416-69.41
					c0-0.708,0.572-1.281,1.281-1.281h45.404c0.708,0,1.281,0.573,1.281,1.281c0,18.69,4.369,36.558,12.985,53.099
					c0.173,0.333,0.193,0.726,0.053,1.073c-0.14,0.348-0.428,0.616-0.783,0.736c-10.389,3.47-20.209,8.394-29.184,14.632
					C1023.155,228.103,1022.9,228.178,1022.646,228.178z M994.907,159.689c0.33,24.838,10.193,48.035,27.881,65.554
					c8.526-5.815,17.784-10.476,27.55-13.876c-8.167-16.161-12.397-33.533-12.588-51.678H994.907z"/>
			</g>
			<g>
				<path d="M1039.023,159.689h-45.404c-0.709,0-1.281-0.573-1.281-1.281c0-26.377,10.446-51.027,29.416-69.417
					c0.438-0.425,1.124-0.48,1.622-0.13c8.982,6.245,18.8,11.171,29.184,14.64c0.355,0.12,0.644,0.388,0.783,0.735
					c0.141,0.348,0.12,0.741-0.053,1.073c-8.616,16.534-12.985,34.401-12.985,53.099
					C1040.305,159.116,1039.731,159.689,1039.023,159.689z M994.907,157.127h42.843c0.19-18.152,4.421-35.524,12.588-51.678
					c-9.761-3.397-19.016-8.064-27.55-13.884C1005.099,109.085,995.237,132.284,994.907,157.127z"/>
			</g>
			<g>
				<path d="M1052.154,213.381c-0.465,0-0.91-0.255-1.136-0.688c-8.81-16.914-13.276-35.177-13.276-54.285
					c0-0.708,0.573-1.281,1.281-1.281h49.996c0.708,0,1.281,0.573,1.281,1.281v47.699c0,0.708-0.573,1.281-1.281,1.281
					c-12.402,0-24.67,1.994-36.46,5.928C1052.427,213.361,1052.289,213.381,1052.154,213.381z M1040.313,159.689
					c0.189,17.865,4.386,34.959,12.48,50.852c11.324-3.661,23.068-5.58,34.945-5.707v-45.145H1040.313z"/>
			</g>
			<g>
				<path d="M1089.02,159.689h-49.996c-0.708,0-1.281-0.573-1.281-1.281c0-19.116,4.467-37.378,13.276-54.285
					c0.29-0.558,0.946-0.823,1.541-0.623c11.8,3.931,24.067,5.925,36.46,5.925c0.708,0,1.281,0.573,1.281,1.281v47.702
					C1090.301,159.116,1089.728,159.689,1089.02,159.689z M1040.313,157.127h47.426V111.98c-11.867-0.128-23.611-2.047-34.945-5.705
					C1044.698,122.161,1040.502,139.255,1040.313,157.127z"/>
			</g>
			<g>
				<path d="M1139.009,159.689h-49.989c-0.708,0-1.281-0.573-1.281-1.281v-47.702c0-0.708,0.573-1.281,1.281-1.281
					c12.393,0,24.658-1.994,36.455-5.925c0.601-0.198,1.251,0.065,1.541,0.623c8.808,16.896,13.273,35.161,13.273,54.285
					C1140.289,159.116,1139.717,159.689,1139.009,159.689z M1090.301,157.127h47.419c-0.19-17.88-4.386-34.974-12.478-50.852
					c-11.332,3.658-23.074,5.577-34.941,5.705V157.127z"/>
			</g>
			<g>
				<path d="M1125.875,213.381c-0.135,0-0.272-0.02-0.405-0.065c-11.784-3.934-24.05-5.928-36.45-5.928
					c-0.708,0-1.281-0.573-1.281-1.281v-47.699c0-0.708,0.573-1.281,1.281-1.281h49.989c0.708,0,1.28,0.573,1.28,1.281
					c0,19.118-4.468,37.383-13.278,54.285C1126.786,213.125,1126.341,213.381,1125.875,213.381z M1090.301,204.834
					c11.875,0.127,23.617,2.046,34.937,5.707c8.094-15.881,12.292-32.977,12.482-50.852h-47.419V204.834z"/>
			</g>
			<g>
				<path d="M1052.154,105.998c-0.135,0-0.272-0.02-0.405-0.065c-10.616-3.548-20.651-8.584-29.835-14.97
					c-0.314-0.218-0.515-0.565-0.545-0.948c-0.032-0.38,0.11-0.755,0.385-1.023c18.07-17.507,41.862-27.19,66.993-27.26h0.003
					c0.558,0,1.053,0.36,1.221,0.893c0.17,0.533-0.027,1.116-0.485,1.436c-15.16,10.624-27.676,24.888-36.195,41.247
					C1053.065,105.742,1052.62,105.998,1052.154,105.998z M1024.672,89.749c8.329,5.622,17.352,10.126,26.859,13.403
					c8.049-15.107,19.441-28.418,33.145-38.762C1062.245,65.412,1041.128,74.319,1024.672,89.749z"/>
			</g>
			<g>
				<path d="M1089.29,64.293c-0.018,0-0.17-0.005-0.188-0.005l-0.138-0.806l-0.155,0.22l-0.06,0.59c-0.559,0-1.051-0.36-1.222-0.891
					c-0.17-0.531,0.022-1.108,0.476-1.434c0.005-0.003,0.28-0.198,0.285-0.203c0.44-0.306,1.021-0.306,1.461,0l0.271,0.192
					c0.461,0.32,0.658,0.901,0.493,1.436C1090.346,63.93,1089.851,64.293,1089.29,64.293z"/>
			</g>
			<g>
				<path d="M1089.02,111.987c-12.668,0-25.208-2.037-37.271-6.055c-0.355-0.12-0.641-0.388-0.783-0.735
					c-0.14-0.348-0.12-0.741,0.053-1.071c8.71-16.727,21.503-31.304,36.995-42.163c0.796-0.563,2.287,0.07,2.287,1.041v47.702
					C1090.301,111.414,1089.728,111.987,1089.02,111.987z M1053.998,103.971c10.949,3.49,22.286,5.319,33.74,5.447V65.309
					C1073.772,75.492,1062.16,88.798,1053.998,103.971z"/>
			</g>
			<g>
				<path d="M1089.02,111.987c-0.708,0-1.281-0.573-1.281-1.281V63.004c0-0.708,0.573-1.281,1.281-1.281
					c0.263,0,0.791,0.088,1.006,0.24c15.493,10.859,28.286,25.438,36.99,42.163c0.173,0.333,0.193,0.723,0.053,1.071
					c-0.143,0.348-0.428,0.615-0.783,0.735C1114.226,109.951,1101.688,111.987,1089.02,111.987z M1090.301,65.309v44.109
					c11.452-0.127,22.789-1.957,33.735-5.447C1115.877,88.798,1104.268,75.495,1090.301,65.309z"/>
			</g>
			<g>
				<path d="M1089.28,255.083c-0.559,0-1.054-0.363-1.222-0.893c-0.17-0.536,0.028-1.116,0.486-1.436
					c15.152-10.614,27.67-24.875,36.194-41.244c0.29-0.563,0.951-0.821,1.541-0.625c10.624,3.55,20.665,8.582,29.843,14.962
					c0.314,0.218,0.515,0.565,0.545,0.946c0.032,0.383-0.11,0.758-0.385,1.026c-18.07,17.514-41.865,27.197-67.001,27.265H1089.28z
					 M1126.498,213.664c-8.054,15.115-19.445,28.426-33.143,38.759c22.434-1.021,43.554-9.928,60.008-25.363
					C1145.038,221.442,1136.014,216.944,1126.498,213.664z"/>
			</g>
			<g>
				<path d="M1088.75,255.083h-0.003c-25.136-0.067-48.928-9.75-66.993-27.265c-0.274-0.268-0.417-0.643-0.385-1.026
					c0.03-0.38,0.23-0.728,0.545-0.946c9.176-6.38,19.214-11.412,29.835-14.962c0.593-0.193,1.251,0.063,1.541,0.623
					c8.53,16.369,21.045,30.63,36.195,41.247c0.458,0.32,0.655,0.9,0.485,1.436C1089.803,254.72,1089.308,255.083,1088.75,255.083z
					 M1024.672,227.06c16.451,15.435,37.568,24.343,60.004,25.363c-13.693-10.336-25.088-23.647-33.145-38.759
					C1042.019,216.944,1032.994,221.442,1024.672,227.06z"/>
			</g>
			<g>
				<path d="M1089.018,255.268c-0.243,0-0.485-0.068-0.698-0.206c-0.013-0.01-0.198-0.138-0.213-0.147
					c-0.455-0.32-0.698-0.936-0.528-1.466c0.168-0.533,0.613-0.928,1.172-0.928l0.27,0.005l0.261-0.005
					c0.558,0,1.053,0.36,1.221,0.893c0.17,0.533-0.027,1.114-0.482,1.434c-0.011,0.007-0.28,0.2-0.291,0.205
					C1089.513,255.195,1089.265,255.268,1089.018,255.268z"/>
			</g>
			<g>
				<path d="M1089.02,255.088c-0.012,0-0.16-0.003-0.172-0.003c-0.251-0.007-0.629-0.09-0.834-0.235
					c-15.485-10.849-28.278-25.429-36.995-42.157c-0.173-0.333-0.192-0.726-0.053-1.074c0.143-0.348,0.428-0.615,0.783-0.735
					c12.053-4.019,24.593-6.058,37.271-6.058c0.708,0,1.281,0.573,1.281,1.281v47.699
					C1090.301,254.515,1089.728,255.088,1089.02,255.088z M1053.998,212.845c8.17,15.178,19.784,28.484,33.74,38.66v-44.109
					C1076.277,207.523,1064.939,209.355,1053.998,212.845z"/>
			</g>
			<g>
				<path d="M1089.28,255.083c-0.708,0-1.542-0.568-1.542-1.276v-47.699c0-0.708,0.573-1.281,1.281-1.281
					c12.678,0,25.214,2.039,37.261,6.058c0.355,0.12,0.641,0.388,0.783,0.735c0.141,0.348,0.12,0.741-0.053,1.071
					c-8.714,16.733-21.507,31.313-36.995,42.16C1089.801,255.002,1089.543,255.083,1089.28,255.083z M1090.301,207.396v44.101
					c13.957-10.171,25.566-23.474,33.73-38.652C1113.095,209.355,1101.763,207.523,1090.301,207.396z"/>
			</g>
		</g>
		<g>
			<g>
				<path d="M1294.589,289.261h-30.745c-0.708,0-1.281-0.573-1.281-1.281v-32.334c0-0.708,0.573-1.281,1.281-1.281h15.373
					c9.183,0,16.653,7.471,16.653,16.654v16.961C1295.87,288.688,1295.297,289.261,1294.589,289.261z M1265.125,286.699h28.184
					v-15.68c0-7.769-6.323-14.092-14.092-14.092h-14.092V286.699z"/>
			</g>
			<g>
				<path d="M1279.217,353.159h-30.746c-9.182,0-16.653-7.471-16.653-16.654V287.98c0-0.708,0.573-1.281,1.281-1.281h61.49
					c0.708,0,1.281,0.573,1.281,1.281v48.525C1295.87,345.688,1288.399,353.159,1279.217,353.159z M1234.38,289.261v47.244
					c0,7.769,6.322,14.091,14.091,14.091h30.746c7.769,0,14.092-6.323,14.092-14.091v-47.244H1234.38z"/>
			</g>
			<g>
				<path d="M1263.844,289.261h-30.745c-0.708,0-1.281-0.573-1.281-1.281v-16.961c0-9.183,7.472-16.654,16.653-16.654h15.373
					c0.708,0,1.281,0.573,1.281,1.281v32.334C1265.125,288.688,1264.552,289.261,1263.844,289.261z M1234.38,286.699h28.183v-29.772
					h-14.092c-7.769,0-14.091,6.323-14.091,14.092V286.699z"/>
			</g>
		</g>
		<g>
			<path d="M1169.046,310.218h-49.551c-9.032,0-17.688-3.493-23.745-9.581c-5.289-5.314-8.182-12.16-8.146-19.273l0.135-27.563
				c0.003-0.706,0.576-1.276,1.281-1.276c0.003,0,0.005,0,0.005,0c0.708,0.003,1.279,0.581,1.276,1.286l-0.135,27.568
				c-0.033,6.425,2.597,12.623,7.4,17.452c5.582,5.607,13.574,8.825,21.929,8.825h49.551c16.246,0,29.464-13.219,29.464-29.464
				v-41.339c0-17.659,14.367-32.026,32.026-32.026h2.563c17.659,0,32.026,11.687,32.026,26.052v24.768
				c0,0.708-0.573,1.281-1.281,1.281s-1.281-0.573-1.281-1.281v-24.768c0-12.953-13.218-23.49-29.464-23.49h-2.563
				c-16.245,0-29.464,13.219-29.464,29.464v41.339C1201.072,295.851,1186.705,310.218,1169.046,310.218z"/>
		</g>
	</g>
	<g>
		<g>
			<path fill="#231F20" d="M872.501,210.591c-0.65,0-1.206-0.495-1.273-1.156l-0.112-1.141c-0.623-6.137-5.752-10.816-11.93-10.879
				h-0.003c-3.268,0-6.27,1.231-8.56,3.465c-0.658,0.638-1.235,1.336-1.721,2.074l-0.608,0.941c-0.378,0.581-1.151,0.756-1.741,0.4
				l-0.974-0.59c-3.663-2.237-7.006-4.964-9.936-8.109l-0.775-0.828c-0.471-0.503-0.458-1.289,0.027-1.779l0.796-0.801
				c2.299-2.299,3.58-5.322,3.607-8.515c0.061-6.686-5.326-12.183-12.012-12.255c-0.416,0.01-0.879,0.032-1.352,0.075l-1.105,0.123
				c-0.681,0.083-1.321-0.417-1.412-1.111l-0.145-1.136c-0.277-2.327-0.408-4.461-0.397-6.533c0.017-2.177,0.194-4.381,0.522-6.553
				l0.168-1.118c0.103-0.683,0.745-1.144,1.413-1.083l1.126,0.13c0.438,0.053,0.898,0.098,1.356,0.108c3.268,0,6.28-1.221,8.56-3.44
				c2.332-2.272,3.631-5.317,3.66-8.572c0.04-3.223-1.178-6.26-3.436-8.552l-0.803-0.828c-0.482-0.498-0.48-1.289,0.003-1.787
				l0.795-0.816c2.965-3.063,6.36-5.734,10.086-7.939l1.001-0.581c0.598-0.35,1.369-0.157,1.736,0.44l0.601,0.981
				c2.192,3.525,5.995,5.662,10.169,5.707l0,0c3.27,0,6.274-1.218,8.542-3.433c1.979-1.934,3.25-4.496,3.583-7.221l0.137-1.121
				c0.086-0.681,0.656-1.164,1.374-1.121l1.134,0.09c4.331,0.408,8.604,1.408,12.72,2.977l1.081,0.416
				c0.65,0.253,0.981,0.976,0.743,1.631l-0.393,1.086c-0.49,1.344-0.748,2.72-0.766,4.091c-0.058,6.666,5.334,12.15,12.015,12.218
				c2.34,0,4.594-0.646,6.559-1.864l0.968-0.603c0.588-0.373,1.374-0.2,1.757,0.393l0.617,0.96c2.37,3.653,4.234,7.609,5.532,11.75
				l0.343,1.093c0.211,0.661-0.145,1.369-0.801,1.596l-1.08,0.375c-1.704,0.578-3.28,1.546-4.569,2.805
				c-2.334,2.272-3.633,5.31-3.658,8.555c-0.05,5.126,3.165,9.748,8.002,11.507l1.071,0.39c0.65,0.238,0.995,0.946,0.777,1.604
				l-0.354,1.081c-1.337,4.053-3.251,7.941-5.686,11.56l-0.66,0.96c-0.397,0.578-1.186,0.721-1.764,0.343l-0.966-0.64
				c-1.97-1.289-4.238-1.982-6.556-2h-0.003c-3.295,0-6.295,1.221-8.574,3.44c-2.332,2.272-3.63,5.312-3.652,8.56
				c0,1.451,0.237,2.875,0.708,4.221l0.383,1.083c0.234,0.666-0.115,1.399-0.781,1.634l-1.091,0.385
				c-4.094,1.494-8.402,2.424-12.788,2.762l-1.134,0.087C872.571,210.588,872.536,210.591,872.501,210.591z M859.083,194.853
				c7.576,0.078,13.767,5.692,14.572,13.081c4.08-0.323,8.081-1.188,11.899-2.572c-0.538-1.586-0.811-3.253-0.811-4.959
				c0.027-3.946,1.599-7.631,4.429-10.386c2.76-2.687,6.396-4.166,10.238-4.166c2.92,0.022,5.64,0.841,8.012,2.37
				c2.249-3.36,4.028-6.973,5.279-10.734c-5.803-2.154-9.653-7.727-9.593-13.901c0.029-3.934,1.604-7.616,4.431-10.369
				c1.534-1.496,3.408-2.655,5.422-3.358c-1.216-3.851-2.947-7.529-5.148-10.939c-2.348,1.434-5.032,2.189-7.77,2.189
				c-8.156-0.083-14.685-6.726-14.617-14.807c0.022-1.634,0.32-3.26,0.886-4.842c-3.83-1.449-7.809-2.382-11.824-2.77
				c-0.421,3.263-1.952,6.328-4.321,8.642c-2.75,2.685-6.391,4.164-10.251,4.164c-5.132-0.055-9.713-2.612-12.383-6.846
				c-3.455,2.054-6.615,4.541-9.383,7.388c2.688,2.768,4.144,6.423,4.094,10.296c-0.035,3.938-1.611,7.626-4.437,10.381
				c-2.76,2.687-6.407,4.166-10.273,4.166c-0.62-0.01-1.133-0.058-1.618-0.113c-0.301,2.022-0.461,4.066-0.479,6.083
				c-0.01,1.927,0.11,3.918,0.365,6.083c0.513-0.045,0.996-0.067,1.472-0.078c8.137,0.088,14.662,6.746,14.587,14.84
				c-0.032,3.831-1.552,7.458-4.278,10.224c2.731,2.92,5.84,5.455,9.237,7.541c0.575-0.866,1.254-1.676,2.014-2.417
				C851.604,196.342,855.245,194.853,859.083,194.853z"/>
		</g>
		<g>
			<path fill="#231F20" d="M869.752,189.158L869.752,189.158c-7.056,0-13.651-2.782-18.575-7.834
				c-9.971-10.241-9.756-26.687,0.479-36.66c4.867-4.741,11.292-7.354,18.088-7.354c7.056,0,13.651,2.782,18.57,7.834
				c4.831,4.957,7.446,11.5,7.356,18.425c-0.091,6.926-2.87,13.398-7.829,18.23C882.975,186.544,876.55,189.158,869.752,189.158z
				 M869.744,139.873c-6.125,0-11.912,2.352-16.301,6.628c-9.223,8.988-9.418,23.807-0.431,33.038
				c4.437,4.551,10.381,7.058,16.739,7.058c6.127,0,11.914-2.354,16.303-6.633c4.469-4.351,6.974-10.186,7.054-16.426
				s-2.274-12.137-6.631-16.606C882.044,142.38,876.102,139.873,869.744,139.873z"/>
		</g>
	</g>
	<g>
		<g>
			<path fill="#231F20" d="M1245.266,398.793h-234.055c-0.708,0-1.281-0.573-1.281-1.281v-16.356c0-0.708,0.573-1.281,1.281-1.281
				h234.055c0.709,0,1.281,0.573,1.281,1.281v16.356C1246.547,398.221,1245.975,398.793,1245.266,398.793z M1012.492,396.231
				h231.493v-13.794h-231.493V396.231z"/>
		</g>
		<g>
			<path fill="#231F20" d="M1237.72,521.479h-218.958c-0.708,0-1.281-0.573-1.281-1.281V397.513c0-0.708,0.573-1.281,1.281-1.281
				h218.958c0.708,0,1.281,0.573,1.281,1.281v122.686C1239.001,520.906,1238.428,521.479,1237.72,521.479z M1020.043,518.918
				h216.396V398.793h-216.396V518.918z"/>
		</g>
		<g>
			<path fill="#231F20" d="M1128.237,556.719c-20.462,0-37.551-16.003-38.902-36.436c-0.022-0.354,0.101-0.7,0.343-0.96
				c0.243-0.258,0.58-0.405,0.936-0.405h75.25c0.355,0,0.693,0.147,0.936,0.405c0.243,0.26,0.365,0.605,0.343,0.96
				C1165.791,540.716,1148.701,556.719,1128.237,556.719z M1092.008,521.479c1.914,18.433,17.569,32.677,36.229,32.677
				s34.318-14.244,36.232-32.677H1092.008z"/>
		</g>
		<g>
			<path fill="#231F20" d="M1128.237,615.232c-0.708,0-1.281-0.573-1.281-1.281v-58.514c0-0.708,0.573-1.281,1.281-1.281
				s1.281,0.573,1.281,1.281v58.514C1129.519,614.659,1128.945,615.232,1128.237,615.232z"/>
		</g>
		<g>
			<path fill="#231F20" d="M1193.676,615.232h-130.87c-0.708,0-1.281-0.573-1.281-1.281s0.573-1.281,1.281-1.281h130.87
				c0.708,0,1.281,0.573,1.281,1.281S1194.384,615.232,1193.676,615.232z"/>
		</g>
		<g>
			<path fill="#231F20" d="M1030.404,508.899c-0.32,0-0.641-0.12-0.889-0.357c-0.51-0.493-0.525-1.304-0.035-1.812l50.962-52.854
				c0.463-0.483,1.222-0.523,1.737-0.1l31.138,25.644l37.876-42.495c0.463-0.518,1.254-0.573,1.784-0.123l30.192,25.614
				l36.918-41.532c0.468-0.533,1.283-0.576,1.809-0.107c0.531,0.47,0.578,1.281,0.107,1.809l-37.751,42.467
				c-0.46,0.523-1.256,0.578-1.786,0.125l-30.192-25.614l-37.863,42.48c-0.458,0.515-1.241,0.575-1.77,0.135l-31.176-25.673
				l-50.139,52C1031.074,508.77,1030.739,508.899,1030.404,508.899z"/>
		</g>
		<g>
			<path fill="#231F20" d="M1081.839,521.479c-0.708,0-1.281-0.573-1.281-1.281v-50.331c0-0.708,0.573-1.281,1.281-1.281
				s1.281,0.573,1.281,1.281v50.331C1083.12,520.906,1082.547,521.479,1081.839,521.479z"/>
		</g>
		<g>
			<path fill="#231F20" d="M1081.839,441.892c-0.708,0-1.281-0.573-1.281-1.281v-43.098c0-0.708,0.573-1.281,1.281-1.281
				s1.281,0.573,1.281,1.281v43.098C1083.12,441.319,1082.547,441.892,1081.839,441.892z"/>
		</g>
		<g>
			<path fill="#231F20" d="M1152.622,521.479c-0.708,0-1.281-0.573-1.281-1.281v-66.375c0-0.708,0.573-1.281,1.281-1.281
				s1.281,0.573,1.281,1.281v66.375C1153.903,520.906,1153.33,521.479,1152.622,521.479z"/>
		</g>
		<g>
			<path fill="#231F20" d="M1152.622,425.375c-0.708,0-1.281-0.573-1.281-1.281v-26.582c0-0.708,0.573-1.281,1.281-1.281
				s1.281,0.573,1.281,1.281v26.582C1153.903,424.803,1153.33,425.375,1152.622,425.375z"/>
		</g>
	</g>
	<g>
		<g>
			<path fill="#231F20" d="M341.086,428.976H145.53c-0.708,0-1.281-0.573-1.281-1.281V326.043c0-0.708,0.573-1.281,1.281-1.281
				h195.556c0.708,0,1.281,0.573,1.281,1.281v101.651C342.367,428.403,341.794,428.976,341.086,428.976z M146.811,426.414h192.994
				v-99.089H146.811V426.414z"/>
		</g>
		<g>
			<path fill="#231F20" d="M243.308,415.422c-21.26,0-38.554-17.294-38.554-38.552c0-21.26,17.294-38.557,38.554-38.557
				c21.257,0,38.552,17.296,38.552,38.557C281.86,398.128,264.565,415.422,243.308,415.422z M243.308,340.876
				c-19.847,0-35.992,16.148-35.992,35.995c0,19.844,16.146,35.99,35.992,35.99c19.844,0,35.99-16.146,35.99-35.99
				C279.298,357.024,263.152,340.876,243.308,340.876z"/>
		</g>
		<g>
			<path fill="#231F20" d="M326.401,378.151h-31.949c-0.708,0-1.281-0.573-1.281-1.281s0.573-1.281,1.281-1.281h31.949
				c0.708,0,1.281,0.573,1.281,1.281S327.109,378.151,326.401,378.151z"/>
		</g>
		<g>
			<path fill="#231F20" d="M192.156,378.151h-31.949c-0.708,0-1.281-0.573-1.281-1.281s0.573-1.281,1.281-1.281h31.949
				c0.708,0,1.281,0.573,1.281,1.281S192.864,378.151,192.156,378.151z"/>
		</g>
		<g>
			<g>
				<path d="M246.553,382.47v17.302c2.697-0.388,4.964-1.349,6.835-2.86c2.472-1.997,3.701-4.624,3.701-7.876
					c0-3.598-1.449-6.31-4.354-8.134c-1.434-0.863-4.556-1.989-9.368-3.38l-0.843-0.263c-5.427-1.514-8.83-2.925-10.216-4.229
					c-2.214-1.994-3.32-4.571-3.32-7.739c0-3.648,1.273-6.621,3.835-8.917c1.787-1.511,3.883-2.492,6.315-2.927v-7.156h2.344v6.831
					c0.253-0.04,0.513-0.06,0.781-0.06c0.26,0,0.513,0,0.775,0c0.218,0,0.42,0,0.588,0c0.17,0,0.37,0.02,0.585,0.06v-6.831h2.339
					v7.096c2.822,0.43,5.209,1.556,7.161,3.373c2.643,2.392,4.071,5.732,4.289,10.028h-2.082c-0.087-3.643-1.301-6.53-3.646-8.66
					c-1.596-1.463-3.508-2.419-5.722-2.86v18.223l-2.339-0.653v-17.96h-1.301c-0.212,0-0.46,0-0.715,0
					c-0.26,0-0.506,0.02-0.713,0.065v16.914l-2.344-0.648v-15.941c-1.997,0.48-3.628,1.281-4.884,2.407
					c-2.129,1.866-3.185,4.403-3.185,7.616c0,2.427,0.951,4.534,2.857,6.31c1.441,1.296,4.516,2.562,9.245,3.771
					c0.085,0.045,0.2,0.078,0.355,0.103c0.152,0.02,0.333,0.07,0.553,0.157c2.472,0.608,4.559,1.239,6.253,1.889
					c1.688,0.65,3.03,1.281,4.023,1.892c3.303,2.125,4.949,5.134,4.949,9.04c0,4.073-1.409,7.324-4.224,9.758
					c-2.217,1.869-5.059,3.035-8.529,3.511v5.987h-2.339v-5.857h-0.46c-0.34,0-0.713-0.007-1.101-0.025
					c-0.388-0.025-0.781-0.063-1.168-0.105v5.987h-2.344v-6.373c-2.56-0.611-4.731-1.762-6.505-3.453
					c-2.865-2.732-4.469-6.48-4.822-11.252h2.154c0.25,4.116,1.646,7.371,4.164,9.758c1.336,1.349,3.013,2.322,5.009,2.927v-19.714
					l2.344,0.653v19.516c0.781,0.127,1.556,0.198,2.334,0.198h0.396v-18.087L246.553,382.47z"/>
			</g>
		</g>
		<g>
			<path fill="#231F20" d="M192.409,473.51h-53.404c-0.708,0-1.281-0.573-1.281-1.281s0.573-1.281,1.281-1.281h52.123v-43.253
				c0-0.708,0.573-1.281,1.281-1.281s1.281,0.573,1.281,1.281v44.534C193.689,472.937,193.117,473.51,192.409,473.51z"/>
		</g>
		<g>
			<path fill="#231F20" d="M139.004,499.404H68.819c-0.708,0-1.281-0.573-1.281-1.281v-51.788c0-0.708,0.573-1.281,1.281-1.281
				h70.185c0.708,0,1.281,0.573,1.281,1.281v51.788C140.286,498.831,139.712,499.404,139.004,499.404z M70.1,496.842h67.624v-49.226
				H70.1V496.842z"/>
		</g>
		<g>
			<path fill="#231F20" d="M348.112,473.51h-53.404c-0.708,0-1.281-0.573-1.281-1.281v-44.534c0-0.708,0.573-1.281,1.281-1.281
				s1.281,0.573,1.281,1.281v43.253h52.123c0.708,0,1.281,0.573,1.281,1.281S348.82,473.51,348.112,473.51z"/>
		</g>
		<g>
			<path fill="#231F20" d="M418.297,499.404h-70.186c-0.708,0-1.281-0.573-1.281-1.281v-51.788c0-0.708,0.573-1.281,1.281-1.281
				h70.186c0.708,0,1.281,0.573,1.281,1.281v51.788C419.578,498.831,419.005,499.404,418.297,499.404z M349.393,496.842h67.623
				v-49.226h-67.623V496.842z"/>
		</g>
		<g>
			<path fill="#231F20" d="M278.402,556.599h-70.188c-0.708,0-1.281-0.573-1.281-1.281v-51.79c0-0.708,0.573-1.281,1.281-1.281
				h70.188c0.708,0,1.281,0.573,1.281,1.281v51.79C279.683,556.025,279.11,556.599,278.402,556.599z M209.495,554.036h67.626
				v-49.228h-67.626V554.036z"/>
		</g>
		<g>
			<path fill="#231F20" d="M243.308,504.809c-0.708,0-1.281-0.573-1.281-1.281v-75.833c0-0.708,0.573-1.281,1.281-1.281
				s1.281,0.573,1.281,1.281v75.833C244.589,504.235,244.016,504.809,243.308,504.809z"/>
		</g>
	</g>
	<g>
		<g>
			<path d="M302.332,788.795H114.097c-2.365,0-4.286-1.922-4.286-4.286V596.262c0-2.362,1.921-4.284,4.286-4.284H264.29
				c1.141,0,2.217,0.448,3.033,1.259l38.044,38.041c0.806,0.804,1.251,1.879,1.251,3.027v150.204
				C306.618,786.873,304.696,788.795,302.332,788.795z M114.097,594.54c-0.951,0-1.724,0.773-1.724,1.722v188.247
				c0,0.951,0.773,1.724,1.724,1.724h188.235c0.966,0,1.724-0.758,1.724-1.724V634.305c0-0.463-0.178-0.893-0.498-1.213
				l-38.044-38.041c-0.33-0.328-0.766-0.511-1.224-0.511H114.097z"/>
		</g>
		<g>
			<path d="M250.909,653.596h-99.377c-0.708,0-1.281-0.572-1.281-1.28v-59.057c0-0.708,0.573-1.281,1.281-1.281h99.377
				c0.708,0,1.281,0.573,1.281,1.281v59.057C252.19,653.023,251.617,653.596,250.909,653.596z M152.813,651.034h96.815V594.54
				h-96.815V651.034z"/>
		</g>
		<g>
			<path d="M208.214,729.579c-16.441,0-29.817-13.376-29.817-29.817s13.376-29.817,29.817-29.817
				c16.441,0,29.817,13.376,29.817,29.817S224.655,729.579,208.214,729.579z M208.214,672.507
				c-15.027,0-27.255,12.228-27.255,27.255s12.228,27.255,27.255,27.255s27.255-12.228,27.255-27.255
				S223.241,672.507,208.214,672.507z"/>
		</g>
		<g>
			<path d="M250.909,746.107h-99.377c-0.708,0-1.281-0.573-1.281-1.281s0.573-1.281,1.281-1.281h99.377
				c0.708,0,1.281,0.573,1.281,1.281S251.617,746.107,250.909,746.107z"/>
		</g>
		<g>
			<path d="M250.909,768.451h-99.377c-0.708,0-1.281-0.573-1.281-1.281s0.573-1.281,1.281-1.281h99.377
				c0.708,0,1.281,0.573,1.281,1.281S251.617,768.451,250.909,768.451z"/>
		</g>
		<g>
			<path d="M238.396,641.551h-20.244c-0.708,0-1.281-0.572-1.281-1.28v-34.967c0-0.708,0.573-1.281,1.281-1.281h20.244
				c0.708,0,1.281,0.573,1.281,1.281v34.967C239.678,640.979,239.104,641.551,238.396,641.551z M219.433,638.989h17.682v-32.404
				h-17.682V638.989z"/>
		</g>
	</g>
	<g>
		<g>
			<path fill="#FFFFFF" d="M267.979,792.801c-6.603,0-11.955,5.352-11.955,11.955v-6.898c0-6.603-5.35-11.952-11.952-11.952
				c-6.601,0-11.953,5.35-11.953,11.952v-6.383c0-6.605-5.349-11.952-11.952-11.952c-6.601,0-11.953,5.347-11.953,11.952v-46.04
				c0-6.601-5.349-11.953-11.952-11.953s-11.952,5.353-11.952,11.953v72.156v14.237l-9.248-16.879
				c-3.315-6.05-10.909-8.267-16.956-4.954c-6.053,3.317-8.27,10.909-4.954,16.961l31.158,55.269v9.442h95.619v-34.679v-39.397
				v-12.835C279.928,798.152,274.576,792.801,267.979,792.801z"/>
			<path d="M279.928,892.948H184.31c-0.708,0-1.281-0.573-1.281-1.281v-9.107l-30.993-54.976
				c-3.655-6.673-1.206-15.062,5.455-18.713c2.024-1.108,4.309-1.696,6.603-1.696c5.039,0,9.673,2.745,12.092,7.159l6.843,12.49
				v-81.39c0-7.296,5.938-13.233,13.233-13.233s13.233,5.938,13.233,13.233v38.221c2.41-3.28,6.295-5.414,10.671-5.414
				c6.843,0,12.49,5.222,13.166,11.893c2.405-3.335,6.323-5.51,10.739-5.51c7,0,12.75,5.465,13.203,12.353
				c2.41-3.305,6.31-5.457,10.704-5.457c7.296,0,13.23,5.938,13.23,13.236v86.911C281.209,892.375,280.636,892.948,279.928,892.948z
				 M185.59,890.386h93.057v-85.63c0-5.885-4.786-10.674-10.668-10.674c-5.885,0-10.674,4.789-10.674,10.674
				c0,0.708-0.573,1.281-1.281,1.281s-1.281-0.573-1.281-1.281v-6.898c0-5.885-4.786-10.671-10.671-10.671
				c-5.885,0-10.671,4.786-10.671,10.671c0,0.708-0.573,1.281-1.281,1.281s-1.281-0.573-1.281-1.281v-6.383
				c0-5.885-4.787-10.671-10.671-10.671s-10.671,4.786-10.671,10.671c0,0.708-0.573,1.281-1.281,1.281
				c-0.708,0-1.281-0.573-1.281-1.281v-46.04c0-5.885-4.787-10.672-10.671-10.672s-10.671,4.787-10.671,10.672v86.394
				c0,0.585-0.395,1.096-0.963,1.241c-0.563,0.145-1.161-0.113-1.441-0.626l-9.248-16.879c-1.969-3.593-5.742-5.827-9.846-5.827
				c-1.867,0-3.723,0.478-5.372,1.381c-5.422,2.973-7.416,9.801-4.446,15.223l31.151,55.256c0.107,0.189,0.165,0.407,0.165,0.628
				V890.386z"/>
		</g>
		<g>
			<line fill="#FFFFFF" x1="208.214" y1="791.475" x2="208.214" y2="803.094"/>
			<path d="M208.214,804.375c-0.708,0-1.281-0.572-1.281-1.281v-11.619c0-0.708,0.573-1.281,1.281-1.281
				c0.708,0,1.281,0.573,1.281,1.281v11.619C209.495,803.803,208.922,804.375,208.214,804.375z"/>
		</g>
		<g>
			<line fill="#FFFFFF" x1="232.119" y1="797.857" x2="232.119" y2="803.094"/>
			<path d="M232.119,804.375c-0.708,0-1.281-0.572-1.281-1.281v-5.236c0-0.708,0.573-1.281,1.281-1.281s1.281,0.573,1.281,1.281
				v5.236C233.4,803.803,232.827,804.375,232.119,804.375z"/>
		</g>
	</g>
	<g>
		<path d="M383.203,770.114c-7.481,0-13.566-6.087-13.566-13.568s6.085-13.568,13.566-13.568c7.484,0,13.571,6.087,13.571,13.568
			S390.687,770.114,383.203,770.114z M383.203,745.539c-6.067,0-11.004,4.937-11.004,11.007s4.937,11.007,11.004,11.007
			c6.07,0,11.009-4.937,11.009-11.007S389.273,745.539,383.203,745.539z"/>
	</g>
	<g>
		<path d="M418.295,302.352c-7.481,0-13.566-6.087-13.566-13.568c0-7.481,6.085-13.569,13.566-13.569
			c7.483,0,13.571,6.087,13.571,13.569C431.866,296.264,425.778,302.352,418.295,302.352z M418.295,277.776
			c-6.068,0-11.004,4.937-11.004,11.007c0,6.07,4.937,11.006,11.004,11.006c6.07,0,11.009-4.937,11.009-11.006
			C429.304,282.713,424.365,277.776,418.295,277.776z"/>
	</g>
	<g>
		<path d="M354.247,719.195h-23.059c-0.708,0-1.281-0.573-1.281-1.281s0.573-1.281,1.281-1.281h23.059
			c0.708,0,1.281,0.573,1.281,1.281S354.955,719.195,354.247,719.195z"/>
	</g>
	<g>
		<path d="M446.926,340.908h-23.059c-0.708,0-1.281-0.573-1.281-1.281s0.573-1.281,1.281-1.281h23.059
			c0.708,0,1.281,0.573,1.281,1.281S447.634,340.908,446.926,340.908z"/>
	</g>
	<g>
		<path d="M421.02,400.072H397.96c-0.708,0-1.281-0.573-1.281-1.281s0.573-1.281,1.281-1.281h23.059
			c0.708,0,1.281,0.573,1.281,1.281S421.728,400.072,421.02,400.072z"/>
	</g>
	<g>
		<path d="M444.774,757.827h-29.892c-0.708,0-1.281-0.573-1.281-1.281s0.573-1.281,1.281-1.281h29.892
			c0.708,0,1.281,0.573,1.281,1.281S445.482,757.827,444.774,757.827z"/>
	</g>
	<g>
		<g>
			<path d="M263.379,206.37c-6.65,0-12.06-5.412-12.06-12.063s5.41-12.06,12.06-12.06s12.06,5.41,12.06,12.06
				S270.03,206.37,263.379,206.37z M263.379,184.81c-5.237,0-9.498,4.261-9.498,9.498c0,5.239,4.261,9.5,9.498,9.5
				s9.498-4.261,9.498-9.5C272.877,189.071,268.616,184.81,263.379,184.81z"/>
		</g>
		<g>
			<path d="M311.632,206.37c-6.65,0-12.06-5.412-12.06-12.063s5.41-12.06,12.06-12.06s12.06,5.41,12.06,12.06
				S318.282,206.37,311.632,206.37z M311.632,184.81c-5.237,0-9.498,4.261-9.498,9.498c0,5.239,4.261,9.5,9.498,9.5
				s9.498-4.261,9.498-9.5C321.129,189.071,316.869,184.81,311.632,184.81z"/>
		</g>
		<g>
			<path d="M359.881,206.37c-6.65,0-12.06-5.412-12.06-12.063s5.409-12.06,12.06-12.06c6.651,0,12.06,5.41,12.06,12.06
				S366.532,206.37,359.881,206.37z M359.881,184.81c-5.237,0-9.498,4.261-9.498,9.498c0,5.239,4.261,9.5,9.498,9.5
				s9.498-4.261,9.498-9.5C369.379,189.071,365.118,184.81,359.881,184.81z"/>
		</g>
		<g>
			<path fill="none" d="M182.575,187.875c0,1.869,0.09,3.715,0.23,5.554c8.82-15.925,25.781-26.717,45.277-26.717
				c4.446,0,8.74,0.621,12.86,1.679c8.27-21.63,26.27-38.417,48.633-45.089c-10.156-5.359-21.728-8.412-34.013-8.412
				C215.252,114.89,182.575,147.572,182.575,187.875z"/>
		</g>
		<g>
			<path fill="none" d="M255.563,260.865c25.511,0,47.945-13.098,60.993-32.922h-121.99
				C207.614,247.767,230.055,260.865,255.563,260.865z"/>
		</g>
		<g>
			<path d="M247.083,297.62c-0.032,0-0.065,0-0.098-0.005c-5.834-0.45-11.609-1.356-17.164-2.695
				c-0.588-0.143-0.996-0.675-0.981-1.281l0.416-15.075l-5.705-1.847l-8.542,12.453c-0.345,0.495-0.988,0.683-1.546,0.458
				c-5.37-2.229-10.571-4.884-15.465-7.892c-0.515-0.315-0.738-0.951-0.535-1.521l5.059-14.219l-4.856-3.521l-11.94,9.183
				c-0.48,0.371-1.151,0.351-1.614-0.042c-4.389-3.748-8.522-7.879-12.283-12.277c-0.393-0.46-0.41-1.134-0.042-1.614l9.192-11.945
				l-3.53-4.846l-14.222,5.057c-0.578,0.203-1.206-0.02-1.521-0.536c-3.03-4.926-5.682-10.133-7.889-15.468
				c-0.233-0.56-0.04-1.203,0.458-1.546l12.46-8.545l-1.856-5.707l-15.08,0.42c-0.593,0.042-1.138-0.396-1.281-0.981
				c-1.336-5.569-2.245-11.342-2.692-17.159c-0.047-0.603,0.333-1.156,0.913-1.326l14.45-4.258l-0.002-6.002l-14.447-4.261
				c-0.581-0.17-0.96-0.723-0.913-1.326c0.448-5.797,1.351-11.57,2.687-17.157c0.14-0.59,0.678-1.051,1.281-0.983l15.085,0.416
				l1.849-5.7l-12.458-8.55c-0.498-0.343-0.69-0.986-0.458-1.546c2.212-5.344,4.867-10.546,7.889-15.46
				c0.315-0.513,0.953-0.73,1.519-0.536l14.227,5.054l3.523-4.854l-9.185-11.94c-0.368-0.48-0.351-1.151,0.042-1.611
				c3.748-4.391,7.879-8.524,12.28-12.288c0.462-0.395,1.136-0.41,1.614-0.042l11.945,9.193l4.844-3.525l-5.052-14.227
				c-0.203-0.568,0.02-1.203,0.536-1.519c4.887-3.007,10.091-5.662,15.465-7.894c0.553-0.23,1.204-0.04,1.546,0.458l8.544,12.462
				l5.697-1.846l-0.411-15.087c-0.015-0.605,0.393-1.139,0.983-1.281c5.582-1.338,11.354-2.244,17.154-2.692
				c0.613-0.07,1.156,0.335,1.326,0.914l4.266,14.452h5.988l4.266-14.452c0.173-0.581,0.726-0.991,1.326-0.914
				c5.797,0.448,11.57,1.354,17.159,2.692c0.59,0.14,0.999,0.676,0.983,1.281l-0.418,15.085l5.705,1.836l8.54-12.45
				c0.343-0.498,0.991-0.691,1.546-0.458c5.39,2.237,10.594,4.894,15.465,7.894c0.516,0.318,0.738,0.951,0.536,1.519l-5.054,14.224
				l4.856,3.508l11.937-9.173c0.478-0.368,1.151-0.353,1.611,0.04c4.379,3.736,8.512,7.872,12.283,12.29
				c0.396,0.46,0.411,1.134,0.042,1.611l-4.864,6.315c-0.328,0.43-0.878,0.598-1.399,0.443c-13.926-4.358-28.958-4.496-43.133-0.268
				c-0.323,0.092-0.668,0.06-0.963-0.095c-10.243-5.407-21.8-8.264-33.415-8.264c-39.54,0-71.707,32.167-71.707,71.704
				c0,1.671,0.075,3.458,0.228,5.457c0.908,12.082,4.904,23.807,11.552,33.908c13.331,20.251,35.734,32.344,59.927,32.344
				c24.19,0,46.591-12.093,59.922-32.347c0.238-0.358,0.641-0.576,1.071-0.576h37.318c0.258,0,0.511,0.078,0.723,0.223l2.252,1.542
				c0.5,0.343,0.693,0.988,0.46,1.549c-2.22,5.359-4.876,10.563-7.892,15.465c-0.315,0.515-0.948,0.743-1.519,0.535l-14.219-5.052
				l-3.513,4.856l9.17,11.935c0.368,0.48,0.351,1.153-0.042,1.614c-3.766,4.406-7.896,8.537-12.277,12.28
				c-0.46,0.398-1.134,0.413-1.614,0.042l-11.935-9.185l-4.847,3.528l5.047,14.217c0.203,0.568-0.02,1.204-0.536,1.519
				c-4.917,3.022-10.118,5.68-15.465,7.899c-0.551,0.228-1.206,0.04-1.546-0.46l-8.537-12.463l-5.7,1.867l0.413,15.067
				c0.015,0.605-0.393,1.138-0.981,1.281c-5.57,1.336-11.344,2.245-17.164,2.695c-0.648,0.063-1.159-0.335-1.329-0.913
				l-4.259-14.447l-5.995,0.01l-4.259,14.437C248.149,297.25,247.646,297.62,247.083,297.62z M231.431,292.666
				c4.784,1.101,9.726,1.876,14.72,2.312l4.233-14.354c0.16-0.543,0.658-0.918,1.226-0.918l7.912-0.015h0.002
				c0.568,0,1.068,0.373,1.229,0.918l4.233,14.367c4.987-0.433,9.928-1.208,14.722-2.31l-0.41-14.979
				c-0.015-0.565,0.343-1.076,0.883-1.254l7.519-2.462c0.541-0.17,1.133,0.027,1.454,0.496l8.489,12.393
				c4.566-1.947,9.02-4.221,13.264-6.773l-5.017-14.137c-0.19-0.533-0.008-1.128,0.453-1.464l6.393-4.656
				c0.453-0.333,1.081-0.33,1.534,0.02l11.87,9.135c3.728-3.25,7.264-6.788,10.531-10.537l-9.118-11.865
				c-0.345-0.45-0.355-1.073-0.022-1.531l4.636-6.408c0.333-0.463,0.928-0.648,1.466-0.455l14.142,5.024
				c2.547-4.231,4.819-8.685,6.766-13.261l-1.061-0.729h-36.237c-13.849,20.627-36.853,32.922-61.678,32.922
				c-25.058,0-48.262-12.523-62.068-33.498c-6.886-10.464-11.024-22.609-11.968-35.124c-0.155-2.064-0.232-3.913-0.232-5.649
				c0-40.952,33.317-74.267,74.269-74.267c11.857,0,23.652,2.875,34.148,8.317c14.216-4.141,29.264-4.041,43.273,0.166l3.686-4.787
				c-3.272-3.758-6.808-7.296-10.536-10.539l-11.865,9.117c-0.453,0.348-1.068,0.358-1.531,0.022l-6.41-4.628
				c-0.46-0.333-0.648-0.931-0.456-1.466l5.026-14.146c-4.208-2.535-8.662-4.807-13.263-6.769l-8.49,12.375
				c-0.32,0.465-0.911,0.668-1.448,0.493l-7.526-2.422c-0.541-0.172-0.903-0.686-0.888-1.253l0.415-15.002
				c-4.811-1.101-9.75-1.876-14.717-2.31l-4.241,14.372c-0.16,0.545-0.661,0.918-1.229,0.918h-7.904
				c-0.568,0-1.068-0.373-1.229-0.918l-4.241-14.372c-4.966,0.433-9.908,1.208-14.712,2.31l0.408,15.002
				c0.015,0.568-0.345,1.078-0.886,1.253l-7.519,2.437c-0.541,0.175-1.131-0.025-1.451-0.493l-8.495-12.391
				c-4.589,1.957-9.042,4.229-13.264,6.769l5.024,14.146c0.19,0.533,0.007,1.131-0.453,1.464l-6.395,4.651
				c-0.46,0.331-1.083,0.326-1.534-0.02l-11.875-9.14c-3.746,3.265-7.283,6.803-10.536,10.539l9.133,11.872
				c0.345,0.451,0.355,1.074,0.02,1.534l-4.646,6.405c-0.333,0.458-0.928,0.643-1.464,0.453l-14.149-5.027
				c-2.55,4.241-4.822,8.692-6.766,13.259l12.388,8.5c0.468,0.32,0.668,0.911,0.493,1.451l-2.439,7.521
				c-0.178,0.541-0.73,0.891-1.253,0.886l-15-0.413c-1.098,4.809-1.872,9.748-2.304,14.714l14.367,4.236
				c0.543,0.16,0.918,0.661,0.918,1.229l0.002,7.919c0,0.568-0.373,1.068-0.918,1.229l-14.369,4.233
				c0.433,4.981,1.208,9.92,2.309,14.714l14.995-0.417c0.528-0.045,1.076,0.343,1.253,0.886l2.447,7.528
				c0.175,0.541-0.025,1.131-0.493,1.451l-12.39,8.497c1.939,4.559,4.211,9.013,6.766,13.264l14.142-5.029
				c0.543-0.192,1.133-0.007,1.466,0.453l4.656,6.397c0.335,0.458,0.325,1.083-0.02,1.534l-9.14,11.875
				c3.265,3.743,6.803,7.278,10.539,10.534l11.87-9.13c0.45-0.348,1.073-0.355,1.531-0.023l6.408,4.644
				c0.46,0.335,0.648,0.933,0.456,1.469l-5.032,14.142c4.226,2.54,8.68,4.812,13.263,6.766l8.492-12.38
				c0.32-0.47,0.916-0.666,1.451-0.493l7.526,2.437c0.54,0.175,0.9,0.686,0.886,1.253L231.431,292.666z"/>
		</g>
		<g>
			<path fill="#231F20" d="M443.893,202.419c-0.105,0-0.21-0.013-0.315-0.04c-0.413-0.105-0.748-0.408-0.891-0.813
				c-0.979-2.75-2.042-5.159-3.253-7.358c-0.283-0.518-0.178-1.164,0.258-1.564c0.015-0.012,0.22-0.19,0.232-0.2
				c7.634-7.421,7.789-19.383,0.531-26.83c-3.581-3.675-8.377-5.7-13.509-5.7c-4.944,0-9.618,1.902-13.158,5.352
				c-1.221,1.186-2.294,2.577-3.188,4.133c-0.292,0.513-0.896,0.758-1.463,0.593c-2.412-0.691-4.924-1.206-7.464-1.534
				c-0.43-0.055-0.8-0.323-0.991-0.713c-0.188-0.388-0.167-0.846,0.055-1.216c0.918-1.531,1.391-3.165,1.406-4.862
				c0.03-2.572-0.941-4.994-2.74-6.82l-0.658-0.676c-0.485-0.498-0.483-1.291,0.002-1.789l0.653-0.668
				c2.438-2.52,5.227-4.716,8.287-6.528l0.823-0.473c0.603-0.351,1.371-0.155,1.731,0.438l0.493,0.803
				c1.747,2.813,4.782,4.517,8.112,4.554l0,0c2.612,0,5.004-0.973,6.813-2.74c1.582-1.543,2.597-3.59,2.862-5.762l0.115-0.923
				c0.085-0.683,0.71-1.146,1.378-1.116l0.923,0.078c3.558,0.338,7.071,1.161,10.454,2.444l0.883,0.34
				c0.648,0.25,0.981,0.974,0.746,1.629l-0.318,0.886c-0.393,1.076-0.6,2.174-0.618,3.275c-0.045,5.312,4.261,9.688,9.595,9.748
				c1.847,0,3.65-0.516,5.232-1.491l0.786-0.493c0.583-0.373,1.376-0.203,1.759,0.393l0.503,0.783
				c1.944,2.995,3.476,6.245,4.546,9.66l0.283,0.888c0.21,0.661-0.143,1.366-0.796,1.597l-0.883,0.31
				c-1.361,0.46-2.62,1.233-3.656,2.239c-1.861,1.814-2.897,4.239-2.917,6.823c-0.04,4.091,2.527,7.781,6.385,9.185l0.876,0.318
				c0.653,0.235,1,0.948,0.78,1.609l-0.295,0.885c-1.096,3.326-2.667,6.523-4.671,9.498l-0.541,0.786
				c-0.396,0.578-1.184,0.721-1.764,0.343l-0.789-0.523c-1.574-1.028-3.385-1.581-5.229-1.594c0,0,0,0-0.002,0
				c-2.459,0-4.747,0.891-6.538,2.504C444.514,202.304,444.206,202.419,443.893,202.419z M442.157,193.86
				c0.838,1.614,1.609,3.333,2.332,5.199c1.992-1.324,4.316-2.037,6.703-2.037c2.349,0.015,4.543,0.653,6.475,1.849
				c1.729-2.61,3.103-5.407,4.088-8.312c-4.716-1.852-7.829-6.436-7.779-11.504c0.025-3.271,1.336-6.34,3.693-8.637
				c1.231-1.196,2.712-2.132,4.304-2.717c-0.963-2.987-2.304-5.835-3.988-8.477c-1.927,1.119-4.091,1.707-6.29,1.707
				c-6.786-0.075-12.225-5.612-12.17-12.34c0.021-1.293,0.246-2.572,0.663-3.815c-2.972-1.101-6.055-1.824-9.162-2.147
				c-0.391,2.63-1.651,5.099-3.573,6.973c-2.289,2.24-5.322,3.471-8.532,3.471c-4.208-0.048-7.964-2.102-10.201-5.515
				c-2.662,1.604-5.106,3.53-7.266,5.725c2.137,2.285,3.291,5.262,3.253,8.415c-0.013,1.543-0.323,3.045-0.923,4.481
				c1.729,0.283,3.44,0.648,5.112,1.091c0.903-1.421,1.946-2.709,3.107-3.838c4.021-3.918,9.328-6.078,14.945-6.078
				c5.83,0,11.279,2.299,15.345,6.476C450.449,172.199,450.361,185.595,442.157,193.86z"/>
		</g>
		<g>
			<path fill="#231F20" d="M440.59,194.78c-0.06,0-0.117-0.005-0.172-0.015c-0.378-0.07-0.798-0.223-0.983-0.561
				c-6.425-11.7-17.469-20.527-30.297-24.212c-0.38-0.108-0.686-0.385-0.836-0.75c-0.147-0.366-0.118-0.776,0.078-1.119
				c1.014-1.764,2.232-3.343,3.623-4.694c4.021-3.918,9.328-6.078,14.945-6.078c5.83,0,11.279,2.299,15.345,6.476
				c3.991,4.096,6.147,9.502,6.075,15.222c-0.075,5.723-2.372,11.072-6.468,15.065c-0.1,0.1-0.212,0.195-0.325,0.291
				C441.324,194.615,440.933,194.78,440.59,194.78z M411.467,168.026c12.248,3.956,22.809,12.398,29.374,23.472
				c3.2-3.522,4.904-7.864,4.964-12.48c0.065-5.037-1.834-9.798-5.349-13.404c-3.581-3.675-8.377-5.7-13.509-5.7
				c-4.944,0-9.618,1.902-13.158,5.352C412.938,166.092,412.162,167.015,411.467,168.026z"/>
		</g>
		<g>
			<path d="M446.018,229.224H194.565c-0.431,0-0.833-0.217-1.071-0.578c-6.886-10.461-11.024-22.606-11.968-35.122
				c-0.017-0.248,0.038-0.498,0.158-0.715c9.353-16.887,27.132-27.378,46.398-27.378c3.948,0,8.004,0.485,12.077,1.449
				c8.585-21.475,26.842-38.179,49.051-44.807c14.649-4.374,30.212-4.229,44.629,0.277c21.831,6.838,39.758,23.535,48.167,44.785
				c4.391-1.131,8.817-1.704,13.176-1.704c2.067,0,4.233,0.155,6.815,0.485c2.667,0.346,5.307,0.889,7.844,1.614
				c13.481,3.873,25.085,13.146,31.839,25.443c1.276,2.322,2.394,4.852,3.417,7.736c2.062,5.802,3.108,11.772,3.108,17.745
				c0,3.163-0.306,6.343-0.931,9.72C447.164,228.784,446.636,229.224,446.018,229.224z M195.261,226.662h249.681
				c0.473-2.834,0.703-5.529,0.703-8.207c0-5.68-0.996-11.359-2.957-16.889c-0.979-2.75-2.042-5.159-3.253-7.358
				c-6.425-11.702-17.469-20.529-30.297-24.215c-2.415-0.691-4.924-1.206-7.464-1.534c-2.472-0.318-4.536-0.465-6.49-0.465
				c-4.496,0-9.075,0.643-13.611,1.911c-0.635,0.186-1.309-0.157-1.543-0.78c-7.947-21.038-25.499-37.609-46.954-44.327
				c-13.926-4.358-28.958-4.496-43.133-0.268c-21.811,6.508-39.68,23.074-47.802,44.319c-0.233,0.608-0.886,0.948-1.514,0.783
				c-4.234-1.088-8.455-1.639-12.543-1.639c-18.208,0-35.021,9.845-43.969,25.724C185.06,205.434,188.908,216.801,195.261,226.662z"
				/>
		</g>
	</g>
	<g>
		<g>
			<path d="M572.642,837.024c-3.65,0-7.333-0.362-10.946-1.078c-14.675-2.905-27.34-11.354-35.662-23.787
				c-8.322-12.436-11.304-27.367-8.396-42.045c5.179-26.153,28.261-45.137,54.885-45.137c3.648,0,7.329,0.362,10.937,1.078
				c30.303,6.003,50.071,35.529,44.072,65.822C622.348,818.039,599.264,837.024,572.642,837.024z M572.521,727.539
				c-25.403,0-47.429,18.115-52.373,43.071c-2.772,14.009,0.073,28.255,8.014,40.123c7.942,11.867,20.029,19.929,34.031,22.701
				c3.45,0.683,6.966,1.028,10.448,1.028c25.404,0,47.429-18.118,52.376-43.083c5.725-28.906-13.141-57.085-42.055-62.813
				C579.515,727.888,576.002,727.539,572.521,727.539z"/>
		</g>
		<g>
			<path d="M559.926,807.426c-0.083,0-0.165-0.008-0.248-0.025c-0.335-0.065-0.628-0.261-0.818-0.543l-20.062-29.978
				c-0.393-0.588-0.235-1.384,0.353-1.778c0.59-0.394,1.383-0.235,1.779,0.353l19.349,28.914l50.506-33.811
				c0.591-0.398,1.384-0.238,1.777,0.351c0.395,0.588,0.237,1.383-0.351,1.776l-51.572,34.523
				C560.427,807.351,560.179,807.426,559.926,807.426z"/>
		</g>
	</g>
</g>
</svg>
