<?xml version="1.0" encoding="utf-8"?>
<!-- Generator: Adobe Illustrator 16.0.0, SVG Export Plug-In . SVG Version: 6.00 Build 0)  -->
<!DOCTYPE svg PUBLIC "-//W3C//DTD SVG 1.1//EN" "http://www.w3.org/Graphics/SVG/1.1/DTD/svg11.dtd">
<svg version="1.1" id="Layer_1" xmlns="http://www.w3.org/2000/svg" xmlns:xlink="http://www.w3.org/1999/xlink" x="0px" y="0px"
	 width="1400px" height="980px" viewBox="0 0 1400 980" enable-background="new 0 0 1400 980" xml:space="preserve">
<g>
	<g>
		<g>
			<rect fill="#FFFFFF" width="1400" height="980"/>
		</g>
	</g>
	<g>
		<path fill="#BCBEC0" d="M999.6,663.1V296.3c0-13.1-10.7-23.7-23.7-23.7H424.2c-13,0-23.7,10.7-23.7,23.7v366.8H999.6z"/>
		<path d="M999.6,665.8H400.4c-1.5,0-2.7-1.2-2.7-2.7V296.3c0-14.6,11.8-26.4,26.4-26.4h551.7c14.6,0,26.4,11.8,26.4,26.4v366.8
			C1002.2,664.6,1001,665.8,999.6,665.8z M403.1,660.4h593.7V296.3c0-11.6-9.4-21-21-21H424.2c-11.6,0-21,9.4-21,21V660.4z"/>
	</g>
	<g>
		<rect x="437.1" y="310.2" fill="#C4A8FF" width="525.8" height="315.4"/>
		<path d="M962.9,628.2H437.1c-1.5,0-2.7-1.2-2.7-2.7V310.2c0-1.5,1.2-2.7,2.7-2.7h525.8c1.5,0,2.7,1.2,2.7,2.7v315.4
			C965.6,627,964.4,628.2,962.9,628.2z M439.8,622.9h520.4v-310H439.8V622.9z"/>
	</g>
	<g>
		<g>
			<polygon fill="#FFFEC7" points="549.5,393.3 646.4,446.1 743.2,393.3 646.4,340.6 			"/>
			<path d="M646.4,448.8c-0.4,0-0.9-0.1-1.3-0.3l-96.9-52.8c-0.9-0.5-1.4-1.4-1.4-2.4s0.5-1.9,1.4-2.4l96.9-52.8
				c0.8-0.4,1.8-0.4,2.6,0l96.9,52.8c0.9,0.5,1.4,1.4,1.4,2.4s-0.5,1.9-1.4,2.4l-96.9,52.8C647.3,448.7,646.8,448.8,646.4,448.8z
				 M555.1,393.3l91.2,49.7l91.2-49.7l-91.2-49.7L555.1,393.3z"/>
		</g>
		<g>
			<polygon fill="#FFFEC7" points="549.5,393.3 549.5,490.2 646.4,543 646.4,446.1 			"/>
			<path d="M646.4,545.7c-0.4,0-0.9-0.1-1.3-0.3l-96.9-52.8c-0.9-0.5-1.4-1.4-1.4-2.4v-96.9c0-0.9,0.5-1.8,1.3-2.3
				c0.8-0.5,1.8-0.5,2.7-0.1l96.9,52.8c0.9,0.5,1.4,1.4,1.4,2.4V543c0,1-0.5,1.8-1.3,2.3C647.3,545.5,646.9,545.7,646.4,545.7z
				 M552.2,488.6l91.5,49.8v-90.7l-91.5-49.8V488.6z"/>
		</g>
		<g>
			<polygon fill="#FFFEC7" points="646.4,543 743.2,490.2 743.2,393.3 646.4,446.1 			"/>
			<path d="M646.4,545.7c-0.5,0-0.9-0.1-1.4-0.4c-0.8-0.5-1.3-1.4-1.3-2.3v-96.9c0-1,0.5-1.9,1.4-2.4L742,391
				c0.8-0.4,1.8-0.4,2.7,0.1c0.8,0.5,1.3,1.4,1.3,2.3v96.9c0,1-0.5,1.9-1.4,2.4l-96.9,52.8C647.3,545.5,646.8,545.7,646.4,545.7z
				 M649.1,447.7v90.7l91.5-49.8v-90.8L649.1,447.7z"/>
		</g>
	</g>
	<g>
		<g>
			<polygon fill="#FFFFFF" points="418.5,108.5 492.3,148.6 566,108.5 492.3,68.3 			"/>
			<path d="M492.3,151.3c-0.4,0-0.9-0.1-1.3-0.3l-73.7-40.1c-0.9-0.5-1.4-1.4-1.4-2.4s0.5-1.9,1.4-2.4L491,66c0.8-0.4,1.8-0.4,2.6,0
				l73.7,40.1c0.9,0.5,1.4,1.4,1.4,2.4s-0.5,1.9-1.4,2.4L493.6,151C493.2,151.2,492.7,151.3,492.3,151.3z M424.2,108.5l68.1,37.1
				l68.1-37.1l-68.1-37.1L424.2,108.5z"/>
		</g>
		<g>
			<polygon fill="#FFFFFF" points="418.5,108.5 418.5,182.2 492.3,222.3 492.3,148.6 			"/>
			<path d="M492.3,225c-0.4,0-0.9-0.1-1.3-0.3l-73.7-40.1c-0.9-0.5-1.4-1.4-1.4-2.4v-73.7c0-0.9,0.5-1.8,1.3-2.3
				c0.8-0.5,1.8-0.5,2.7-0.1l73.7,40.1c0.9,0.5,1.4,1.4,1.4,2.4v73.7c0,1-0.5,1.8-1.3,2.3C493.2,224.9,492.7,225,492.3,225z
				 M421.2,180.6l68.3,37.2v-67.6L421.2,113V180.6z"/>
		</g>
		<g>
			<polygon fill="#FFFFFF" points="492.3,222.3 566,182.2 566,108.5 492.3,148.6 			"/>
			<path d="M492.3,225c-0.5,0-0.9-0.1-1.4-0.4c-0.8-0.5-1.3-1.4-1.3-2.3v-73.7c0-1,0.5-1.9,1.4-2.4l73.7-40.1
				c0.8-0.4,1.8-0.4,2.7,0.1c0.8,0.5,1.3,1.4,1.3,2.3v73.7c0,1-0.5,1.9-1.4,2.4l-73.7,40.1C493.1,224.9,492.7,225,492.3,225z
				 M495,150.2v67.6l68.3-37.2V113L495,150.2z"/>
		</g>
	</g>
	<g>
		<g>
			<polygon fill="#FFFFFF" points="1210.4,411.9 1278.7,449.1 1347.1,411.9 1278.7,374.7 			"/>
			<path d="M1278.7,451.8c-0.4,0-0.9-0.1-1.3-0.3l-68.4-37.2c-0.9-0.5-1.4-1.4-1.4-2.4c0-1,0.5-1.9,1.4-2.4l68.4-37.2
				c0.8-0.4,1.8-0.4,2.6,0l68.4,37.2c0.9,0.5,1.4,1.4,1.4,2.4c0,1-0.5,1.9-1.4,2.4l-68.4,37.2
				C1279.6,451.7,1279.2,451.8,1278.7,451.8z M1216,411.9l62.8,34.2l62.8-34.2l-62.8-34.2L1216,411.9z"/>
		</g>
		<g>
			<polygon fill="#FFFFFF" points="1210.4,411.9 1210.4,480.3 1278.7,517.5 1278.7,449.1 			"/>
			<path d="M1278.7,520.2c-0.4,0-0.9-0.1-1.3-0.3l-68.4-37.2c-0.9-0.5-1.4-1.4-1.4-2.4v-68.4c0-0.9,0.5-1.8,1.3-2.3
				c0.8-0.5,1.8-0.5,2.7-0.1l68.4,37.2c0.9,0.5,1.4,1.4,1.4,2.4v68.4c0,1-0.5,1.8-1.3,2.3C1279.7,520.1,1279.2,520.2,1278.7,520.2z
				 M1213,478.7l63,34.3v-62.3l-63-34.3V478.7z"/>
		</g>
		<g>
			<polygon fill="#FFFFFF" points="1278.7,517.5 1347.1,480.3 1347.1,411.9 1278.7,449.1 			"/>
			<path d="M1278.7,520.2c-0.5,0-1-0.1-1.4-0.4c-0.8-0.5-1.3-1.4-1.3-2.3v-68.4c0-1,0.5-1.9,1.4-2.4l68.4-37.2
				c0.8-0.4,1.8-0.4,2.7,0.1c0.8,0.5,1.3,1.4,1.3,2.3v68.4c0,1-0.5,1.9-1.4,2.4l-68.4,37.2C1279.6,520.1,1279.2,520.2,1278.7,520.2z
				 M1281.4,450.7V513l63-34.3v-62.3L1281.4,450.7z"/>
		</g>
	</g>
	<g>
		<g>
			<path d="M850.5,597.8c-0.7,0-1.4-0.3-1.9-0.8l-25.9-25.9c-1-1-1-2.8,0-3.8c1-1,2.7-1,3.8,0l25.9,25.9c1,1,1,2.8,0,3.8
				C851.9,597.6,851.2,597.8,850.5,597.8z"/>
		</g>
		<g>
			<polygon fill="#FFFFFF" points="805,588.9 790.6,535.2 844.3,549.6 			"/>
			<path d="M805,591.6c-0.2,0-0.5,0-0.7-0.1c-0.9-0.3-1.6-1-1.9-1.9L788,535.9c-0.2-0.9,0-1.9,0.7-2.6s1.7-0.9,2.6-0.7L845,547
				c0.9,0.3,1.7,1,1.9,1.9c0.2,0.9,0,1.9-0.7,2.6l-39.3,39.3C806.4,591.3,805.7,591.6,805,591.6z M794.4,539l12,44.7l32.7-32.7
				L794.4,539z"/>
		</g>
		<g>
			<path d="M766.1,513.5c-0.7,0-1.4-0.3-1.9-0.8l-8.4-8.4c-1-1-1-2.8,0-3.8c1-1,2.7-1,3.8,0l8.4,8.4c1,1,1,2.8,0,3.8
				C767.5,513.2,766.8,513.5,766.1,513.5z"/>
		</g>
		<g>
			<path d="M795.6,512.8c-0.7,0-1.4-0.3-1.9-0.8c-1-1-1-2.8,0-3.8l8.4-8.4c1-1,2.8-1,3.8,0c1,1,1,2.8,0,3.8l-8.4,8.4
				C797,512.5,796.3,512.8,795.6,512.8z"/>
		</g>
		<g>
			<path d="M757.1,551.3c-0.7,0-1.4-0.3-1.9-0.8c-1-1-1-2.7,0-3.8l8.4-8.4c1-1,2.7-1,3.8,0s1,2.8,0,3.8l-8.4,8.4
				C758.4,551.1,757.8,551.3,757.1,551.3z"/>
		</g>
		<g>
			<path d="M780.5,506.5c-1.5,0-2.7-1.2-2.7-2.7V492c0-1.5,1.2-2.7,2.7-2.7c1.5,0,2.7,1.2,2.7,2.7v11.8
				C783.2,505.3,782,506.5,780.5,506.5z"/>
		</g>
		<g>
			<path d="M759.2,527.9h-11.8c-1.5,0-2.7-1.2-2.7-2.7c0-1.5,1.2-2.7,2.7-2.7h11.8c1.5,0,2.7,1.2,2.7,2.7
				C761.9,526.7,760.7,527.9,759.2,527.9z"/>
		</g>
	</g>
	<g>
		<path d="M740.3,647h-80.6c-1.5,0-2.7-1.2-2.7-2.7s1.2-2.7,2.7-2.7h80.6c1.5,0,2.7,1.2,2.7,2.7S741.8,647,740.3,647z"/>
	</g>
	<g>
		<path d="M773.7,705.4H626.3c-1.5,0-2.7-1.2-2.7-2.7v-39.6c0-1.5,1.2-2.7,2.7-2.7h147.5c1.5,0,2.7,1.2,2.7,2.7v39.6
			C776.4,704.2,775.2,705.4,773.7,705.4z M629,700.1H771v-34.3H629V700.1z"/>
	</g>
	<g>
		<polygon fill="#E6E7E8" points="820.4,732.3 579.6,732.3 585,702.8 815,702.8 		"/>
		<path d="M820.5,735c0,0-0.1,0-0.1,0H579.6c-0.8,0-1.6-0.4-2.1-1c-0.5-0.6-0.7-1.4-0.6-2.2l5.4-29.6c0.2-1.3,1.3-2.2,2.6-2.2H815
			c1.3,0,2.4,0.9,2.6,2.2l5.2,28.8c0.2,0.4,0.3,0.8,0.3,1.2C823.2,733.8,822,735,820.5,735z M582.8,729.6h234.4l-4.4-24.2H587.2
			L582.8,729.6z"/>
	</g>
	<g>
		<path d="M1099.9,665.8H999.6c-1.5,0-2.7-1.2-2.7-2.7s1.2-2.7,2.7-2.7h100.4c1.5,0,2.7,1.2,2.7,2.7S1101.4,665.8,1099.9,665.8z"/>
	</g>
	<g>
		<path d="M1179.2,665.8h-47c-1.5,0-2.7-1.2-2.7-2.7s1.2-2.7,2.7-2.7h47c1.5,0,2.7,1.2,2.7,2.7S1180.7,665.8,1179.2,665.8z"/>
	</g>
	<g>
		<path d="M400.4,665.8h-64c-1.5,0-2.7-1.2-2.7-2.7s1.2-2.7,2.7-2.7h64c1.5,0,2.7,1.2,2.7,2.7S401.9,665.8,400.4,665.8z"/>
	</g>
	<g>
		<path d="M876.9,735h-56.5c-1.5,0-2.7-1.2-2.7-2.7c0-1.5,1.2-2.7,2.7-2.7h56.5c1.5,0,2.7,1.2,2.7,2.7
			C879.6,733.8,878.4,735,876.9,735z"/>
	</g>
	<g>
		<path d="M579.6,735H537c-1.5,0-2.7-1.2-2.7-2.7c0-1.5,1.2-2.7,2.7-2.7h42.5c1.5,0,2.7,1.2,2.7,2.7
			C582.3,733.8,581.1,735,579.6,735z"/>
	</g>
	<g>
		<rect x="770.4" y="393.3" fill="#B49AEB" width="169.7" height="27.9"/>
	</g>
	<g>
		<rect x="770.4" y="446.1" fill="#B49AEB" width="169.7" height="27.9"/>
	</g>
	<g>
		<rect x="459.9" y="393.3" fill="#B49AEB" width="65.2" height="27.9"/>
	</g>
	<g>
		<rect x="459.9" y="446.1" fill="#B49AEB" width="65.2" height="27.9"/>
	</g>
	<g>
		<polygon fill="#B49AEB" points="634.5,583.2 459.9,583.2 459.9,535.2 542.9,535.2 		"/>
	</g>
	<g>
		<polygon fill="#B49AEB" points="732.5,548.1 665.5,583.2 732.5,583.2 		"/>
	</g>
	<g>
		<rect x="875.1" y="535.2" fill="#B49AEB" width="65" height="48"/>
	</g>
	<g>
		<rect x="608.7" y="94.9" fill="#F1F2F2" width="338.6" height="25.4"/>
	</g>
	<g>
		<rect x="608.7" y="148.6" fill="#F1F2F2" width="338.6" height="25.4"/>
	</g>
	<g>
		<rect x="608.7" y="202.4" fill="#F1F2F2" width="338.6" height="25.4"/>
	</g>
	<g>
		<path d="M965.1,97.6H608.7c-1.5,0-2.7-1.2-2.7-2.7c0-1.5,1.2-2.7,2.7-2.7h356.4c1.5,0,2.7,1.2,2.7,2.7
			C967.8,96.4,966.6,97.6,965.1,97.6z"/>
	</g>
	<g>
		<path d="M965.1,151.3H608.7c-1.5,0-2.7-1.2-2.7-2.7c0-1.5,1.2-2.7,2.7-2.7h356.4c1.5,0,2.7,1.2,2.7,2.7
			C967.8,150.1,966.6,151.3,965.1,151.3z"/>
	</g>
	<g>
		<path d="M965.1,205H608.7c-1.5,0-2.7-1.2-2.7-2.7c0-1.5,1.2-2.7,2.7-2.7h356.4c1.5,0,2.7,1.2,2.7,2.7
			C967.8,203.8,966.6,205,965.1,205z"/>
	</g>
	<g>
		<path d="M1123.3,327.5h-73.5c-1.5,0-2.7-1.2-2.7-2.7v-31.2c0-1.5,1.2-2.7,2.7-2.7h73.5c1.5,0,2.7,1.2,2.7,2.7v31.2
			C1126,326.3,1124.8,327.5,1123.3,327.5z M1052.4,322.1h68.2v-25.8h-68.2V322.1z"/>
	</g>
	<g>
		<path d="M1123.3,384.5h-73.5c-1.5,0-2.7-1.2-2.7-2.7v-31.2c0-1.5,1.2-2.7,2.7-2.7h73.5c1.5,0,2.7,1.2,2.7,2.7v31.2
			C1126,383.3,1124.8,384.5,1123.3,384.5z M1052.4,379.1h68.2v-25.8h-68.2V379.1z"/>
	</g>
	<g>
		<path d="M1123.3,441.5h-73.5c-1.5,0-2.7-1.2-2.7-2.7v-31.2c0-1.5,1.2-2.7,2.7-2.7h73.5c1.5,0,2.7,1.2,2.7,2.7v31.2
			C1126,440.3,1124.8,441.5,1123.3,441.5z M1052.4,436.1h68.2v-25.8h-68.2V436.1z"/>
	</g>
	<g>
		<path d="M1123.3,498.5h-73.5c-1.5,0-2.7-1.2-2.7-2.7v-31.2c0-1.5,1.2-2.7,2.7-2.7h73.5c1.5,0,2.7,1.2,2.7,2.7v31.2
			C1126,497.3,1124.8,498.5,1123.3,498.5z M1052.4,493.1h68.2v-25.8h-68.2V493.1z"/>
	</g>
	<g>
		<path d="M1123.3,555.5h-73.5c-1.5,0-2.7-1.2-2.7-2.7v-31.2c0-1.5,1.2-2.7,2.7-2.7h73.5c1.5,0,2.7,1.2,2.7,2.7v31.2
			C1126,554.3,1124.8,555.5,1123.3,555.5z M1052.4,550.2h68.2v-25.8h-68.2V550.2z"/>
	</g>
	<g>
		<path d="M1123.3,612.5h-73.5c-1.5,0-2.7-1.2-2.7-2.7v-31.2c0-1.5,1.2-2.7,2.7-2.7h73.5c1.5,0,2.7,1.2,2.7,2.7v31.2
			C1126,611.3,1124.8,612.5,1123.3,612.5z M1052.4,607.2h68.2v-25.8h-68.2V607.2z"/>
	</g>
	<g>
		<g>
			<path d="M1145.2,513.2c0.5,0.1,0.9,0.1,1.4,0.1c0.5,0,0.9,0,1.4,0c8.7,0,13-3.9,13-11.6c0-4.1-1.1-10.1-3.4-18.1
				c-2.2-7.8-3.4-13.8-3.4-18c0-7.2,3.3-11.4,10-12.5c-6.5-1.5-9.8-5.6-9.8-12.2c0-3.9,1.2-9.8,3.6-17.7c2.4-7.8,3.6-13.7,3.6-17.5
				c0-8.3-5.5-12.4-16.5-12.3v-4.8c14.7-0.3,22,4.9,22,15.4c0,3.9-1.2,9.9-3.6,17.9c-2.4,8.1-3.6,14.1-3.6,18
				c0,7.6,4.9,11.2,14.7,10.8l3.1-0.1v5c-11.8-0.7-17.7,3.3-17.7,12.1c0,4.2,1.2,10.1,3.5,17.7c2.2,7.9,3.4,13.8,3.4,17.8
				c0,9.8-6.5,14.7-19.5,14.7h-2.2V513.2z"/>
		</g>
	</g>
	<g>
		<g>
			<rect x="109" y="110.3" fill="#FFFFFF" width="64.7" height="64.7"/>
			<path d="M173.7,177.7H109c-1.5,0-2.7-1.2-2.7-2.7v-64.7c0-1.5,1.2-2.7,2.7-2.7h64.7c1.5,0,2.7,1.2,2.7,2.7V175
				C176.3,176.5,175.1,177.7,173.7,177.7z M111.7,172.3H171V113h-59.3V172.3z"/>
		</g>
		<g>
			<rect x="254.5" y="110.3" fill="#FFFFFF" width="64.7" height="64.7"/>
			<path d="M319.2,177.7h-64.7c-1.5,0-2.7-1.2-2.7-2.7v-64.7c0-1.5,1.2-2.7,2.7-2.7h64.7c1.5,0,2.7,1.2,2.7,2.7V175
				C321.9,176.5,320.7,177.7,319.2,177.7z M257.2,172.3h59.3V113h-59.3V172.3z"/>
		</g>
		<g>
			<rect x="109" y="255.1" fill="#FFFFFF" width="64.7" height="64.7"/>
			<path d="M173.7,322.5H109c-1.5,0-2.7-1.2-2.7-2.7v-64.7c0-1.5,1.2-2.7,2.7-2.7h64.7c1.5,0,2.7,1.2,2.7,2.7v64.7
				C176.3,321.3,175.1,322.5,173.7,322.5z M111.7,317.1H171v-59.3h-59.3V317.1z"/>
		</g>
		<g>
			<rect x="254.5" y="255.1" fill="#FFFFFF" width="64.7" height="64.7"/>
			<path d="M319.2,322.5h-64.7c-1.5,0-2.7-1.2-2.7-2.7v-64.7c0-1.5,1.2-2.7,2.7-2.7h64.7c1.5,0,2.7,1.2,2.7,2.7v64.7
				C321.9,321.3,320.7,322.5,319.2,322.5z M257.2,317.1h59.3v-59.3h-59.3V317.1z"/>
		</g>
		<g>
			<path d="M364,217.7H64.1c-1.5,0-2.7-1.2-2.7-2.7c0-1.5,1.2-2.7,2.7-2.7H364c1.5,0,2.7,1.2,2.7,2.7
				C366.7,216.5,365.5,217.7,364,217.7z"/>
		</g>
		<g>
			<path d="M214.1,367.7c-1.5,0-2.7-1.2-2.7-2.7V65.1c0-1.5,1.2-2.7,2.7-2.7c1.5,0,2.7,1.2,2.7,2.7V365
				C216.8,366.5,215.6,367.7,214.1,367.7z"/>
		</g>
		<g>
			<polyline fill="#FFFFFF" points="119.4,141.8 136.1,158.5 163.2,131.3 			"/>
			<path d="M136.1,161.1c-0.7,0-1.4-0.3-1.9-0.8l-16.7-16.7c-1-1-1-2.8,0-3.8c1-1,2.8-1,3.8,0l14.8,14.8l25.3-25.3c1-1,2.8-1,3.8,0
				c1,1,1,2.8,0,3.8L138,160.4C137.4,160.9,136.8,161.1,136.1,161.1z"/>
		</g>
		<g>
			<polyline fill="#FFFFFF" points="264.9,141.8 281.6,158.5 308.8,131.3 			"/>
			<path d="M281.6,161.1c-0.7,0-1.4-0.3-1.9-0.8L263,143.7c-1-1-1-2.8,0-3.8c1-1,2.8-1,3.8,0l14.8,14.8l25.3-25.3c1-1,2.8-1,3.8,0
				c1,1,1,2.8,0,3.8l-27.2,27.2C283,160.9,282.3,161.1,281.6,161.1z"/>
		</g>
		<g>
			<polyline fill="#FFFFFF" points="264.9,284.4 281.6,301.1 308.8,273.9 			"/>
			<path d="M281.6,303.7c-0.7,0-1.4-0.3-1.9-0.8L263,286.3c-1-1-1-2.8,0-3.8c1-1,2.8-1,3.8,0l14.8,14.8l25.3-25.3c1-1,2.8-1,3.8,0
				c1,1,1,2.8,0,3.8L283.5,303C283,303.5,282.3,303.7,281.6,303.7z"/>
		</g>
		<g>
			<g>
				<path d="M158.4,307.2c-0.7,0-1.4-0.3-1.9-0.8l-34.2-34.2c-1-1-1-2.7,0-3.8c1-1,2.8-1,3.8,0l34.2,34.2c1,1,1,2.8,0,3.8
					C159.8,307,159.1,307.2,158.4,307.2z"/>
			</g>
			<g>
				<path d="M124.2,307.2c-0.7,0-1.4-0.3-1.9-0.8c-1-1-1-2.7,0-3.8l34.2-34.2c1-1,2.8-1,3.8,0c1,1,1,2.8,0,3.8l-34.2,34.2
					C125.6,307,124.9,307.2,124.2,307.2z"/>
			</g>
		</g>
	</g>
	<g>
		<g>
			<g>
				<polygon fill="#FFFFFF" points="1186.8,102.4 1229,125.3 1271.2,102.4 1229,79.4 				"/>
				<path d="M1229,128c-0.4,0-0.9-0.1-1.3-0.3l-42.2-23c-0.9-0.5-1.4-1.4-1.4-2.4c0-1,0.5-1.9,1.4-2.4l42.2-23
					c0.8-0.4,1.8-0.4,2.6,0l42.2,23c0.9,0.5,1.4,1.4,1.4,2.4c0,1-0.5,1.9-1.4,2.4l-42.2,23C1229.9,127.9,1229.4,128,1229,128z
					 M1192.4,102.4l36.6,19.9l36.6-19.9L1229,82.4L1192.4,102.4z"/>
			</g>
			<g>
				<polygon fill="#FFFFFF" points="1186.8,102.4 1186.8,144.6 1229,167.6 1229,125.3 				"/>
				<path d="M1229,170.3c-0.4,0-0.9-0.1-1.3-0.3l-42.2-23c-0.9-0.5-1.4-1.4-1.4-2.4v-42.2c0-1,0.5-1.8,1.3-2.3
					c0.8-0.5,1.8-0.5,2.7-0.1l42.2,23c0.9,0.5,1.4,1.4,1.4,2.4v42.2c0,0.9-0.5,1.8-1.3,2.3C1229.9,170.1,1229.5,170.3,1229,170.3z
					 M1189.4,143l36.8,20.1v-36.1l-36.8-20.1V143z"/>
			</g>
			<g>
				<polygon fill="#FFFFFF" points="1229,167.6 1271.2,144.6 1271.2,102.4 1229,125.3 				"/>
				<path d="M1229,170.3c-0.5,0-1-0.1-1.4-0.4c-0.8-0.5-1.3-1.4-1.3-2.3v-42.2c0-1,0.5-1.9,1.4-2.4l42.2-23c0.8-0.4,1.8-0.4,2.7,0.1
					s1.3,1.4,1.3,2.3v42.2c0,1-0.5,1.9-1.4,2.4l-42.2,23C1229.9,170.1,1229.4,170.3,1229,170.3z M1231.7,126.9V163l36.8-20.1v-36.1
					L1231.7,126.9z"/>
			</g>
		</g>
		<g>
			<path fill="#FFFFFF" d="M1277.2,340.6V253c34.1-17.5,57.5-53,57.5-94c0-38.5-20.6-72.2-51.3-90.6v82.7
				c0,27.2-22.1,49.3-49.3,49.3h-10.3c-27.2,0-49.3-22.1-49.3-49.3V68.3c-30.7,18.5-51.3,52.2-51.3,90.6c0,41,23.4,76.5,57.5,94v57"
				/>
			<path d="M1277.2,343.3c-1.5,0-2.7-1.2-2.7-2.7V253c0-1,0.6-1.9,1.5-2.4c34.5-17.8,56-52.9,56-91.7c0-34.9-17.1-66.6-45.9-85.8
				v77.9c0,28.7-23.3,52-52,52h-10.3c-28.7,0-52-23.3-52-52V73.2C1143,92.4,1126,124.1,1126,159c0,38.8,21.5,73.9,56,91.7
				c0.9,0.5,1.5,1.4,1.5,2.4v57c0,1.5-1.2,2.7-2.7,2.7c-1.5,0-2.7-1.2-2.7-2.7v-55.3c-35.5-18.9-57.5-55.4-57.5-95.7
				c0-37.8,20.2-73.4,52.6-92.9c0.8-0.5,1.9-0.5,2.7,0c0.8,0.5,1.4,1.4,1.4,2.3v82.7c0,25.7,20.9,46.6,46.6,46.6h10.3
				c25.7,0,46.6-20.9,46.6-46.6V68.3c0-1,0.5-1.9,1.4-2.3c0.8-0.5,1.9-0.5,2.7,0c32.9,19.8,52.6,54.5,52.6,92.9
				c0,40.3-22,76.8-57.5,95.7v86C1279.9,342.1,1278.7,343.3,1277.2,343.3z"/>
		</g>
		<g>
			<path d="M1241,358.1c-1.5,0-2.7-1.2-2.7-2.7V253.5c0-1.5,1.2-2.7,2.7-2.7s2.7,1.2,2.7,2.7v101.8
				C1243.7,356.9,1242.5,358.1,1241,358.1z"/>
		</g>
	</g>
	<g>
		<path d="M1128.7,128h-55.7c-1.5,0-2.7-1.2-2.7-2.7c0-1.5,1.2-2.7,2.7-2.7h55.7c1.5,0,2.7,1.2,2.7,2.7
			C1131.4,126.8,1130.2,128,1128.7,128z"/>
	</g>
	<g>
		<path d="M1124.8,179.3h-80.6c-1.5,0-2.7-1.2-2.7-2.7c0-1.5,1.2-2.7,2.7-2.7h80.6c1.5,0,2.7,1.2,2.7,2.7
			C1127.5,178.1,1126.3,179.3,1124.8,179.3z"/>
	</g>
	<g>
		<path d="M1147.4,229.1h-54.9c-1.5,0-2.7-1.2-2.7-2.7c0-1.5,1.2-2.7,2.7-2.7h54.9c1.5,0,2.7,1.2,2.7,2.7
			C1150.1,227.9,1148.9,229.1,1147.4,229.1z"/>
	</g>
	<g>
		<path d="M364,710.8H64.1c-1.5,0-2.7-1.2-2.7-2.7c0-1.5,1.2-2.7,2.7-2.7H364c1.5,0,2.7,1.2,2.7,2.7
			C366.7,709.6,365.5,710.8,364,710.8z"/>
	</g>
	<g>
		<g>
			<path d="M193.6,697.9c-1.5,0-2.7-1.2-2.7-2.7v-135c0-1.5,1.2-2.7,2.7-2.7h12.2l-37.2-48.9l-37.2,48.9h12.2c1.5,0,2.7,1.2,2.7,2.7
				v85.3c0,1.5-1.2,2.7-2.7,2.7c-1.5,0-2.7-1.2-2.7-2.7v-82.6h-14.9c-1,0-2-0.6-2.4-1.5c-0.5-0.9-0.3-2,0.3-2.8l42.7-56
				c1-1.3,3.3-1.3,4.3,0l42.7,56c0.6,0.8,0.7,1.9,0.3,2.8c-0.5,0.9-1.4,1.5-2.4,1.5h-14.9v132.3
				C196.3,696.7,195.1,697.9,193.6,697.9z"/>
		</g>
		<g>
			<path d="M234.6,697.9c-1.5,0-2.7-1.2-2.7-2.7v-77.7H217c-1,0-2-0.6-2.4-1.5c-0.5-0.9-0.3-2,0.3-2.8l42.7-56c1-1.3,3.3-1.3,4.3,0
				l42.7,56c0.6,0.8,0.7,1.9,0.3,2.8c-0.5,0.9-1.4,1.5-2.4,1.5h-14.9v43.4c0,1.5-1.2,2.7-2.7,2.7c-1.5,0-2.7-1.2-2.7-2.7v-46.1
				c0-1.5,1.2-2.7,2.7-2.7h12.2l-37.2-48.9l-37.2,48.9h12.2c1.5,0,2.7,1.2,2.7,2.7v80.4C237.3,696.7,236.1,697.9,234.6,697.9z"/>
		</g>
		<g>
			<path d="M239.2,564.2c-1.5,0-2.7-1.2-2.7-2.7v-95.2c0-1.5,1.2-2.7,2.7-2.7h12.2l-37.2-48.9l-37.2,48.9H189c1.5,0,2.7,1.2,2.7,2.7
				v39.8c0,1.5-1.2,2.7-2.7,2.7c-1.5,0-2.7-1.2-2.7-2.7V469h-14.9c-1,0-2-0.6-2.4-1.5c-0.5-0.9-0.3-2,0.3-2.8l42.7-56
				c1-1.3,3.3-1.3,4.3,0l42.7,56c0.6,0.8,0.7,1.9,0.3,2.8c-0.5,0.9-1.4,1.5-2.4,1.5h-14.9v92.6C241.9,563,240.7,564.2,239.2,564.2z"
				/>
		</g>
	</g>
	<g>
		<path d="M302.3,403.1h-25.2c-1.5,0-2.7-1.2-2.7-2.7c0-1.5,1.2-2.7,2.7-2.7h25.2c1.5,0,2.7,1.2,2.7,2.7
			C305,401.9,303.8,403.1,302.3,403.1z"/>
	</g>
	<g>
		<path d="M344.4,458.1h-25.2c-1.5,0-2.7-1.2-2.7-2.7c0-1.5,1.2-2.7,2.7-2.7h25.2c1.5,0,2.7,1.2,2.7,2.7
			C347.1,456.9,345.9,458.1,344.4,458.1z"/>
	</g>
	<g>
		<path d="M1231.3,555.5h-25.2c-1.5,0-2.7-1.2-2.7-2.7c0-1.5,1.2-2.7,2.7-2.7h25.2c1.5,0,2.7,1.2,2.7,2.7
			C1234,554.3,1232.8,555.5,1231.3,555.5z"/>
	</g>
	<g>
		<path d="M84,537.9H58.7c-1.5,0-2.7-1.2-2.7-2.7c0-1.5,1.2-2.7,2.7-2.7H84c1.5,0,2.7,1.2,2.7,2.7C86.7,536.7,85.5,537.9,84,537.9z"
			/>
	</g>
	<g>
		<path d="M129,492.7h-25.2c-1.5,0-2.7-1.2-2.7-2.7s1.2-2.7,2.7-2.7H129c1.5,0,2.7,1.2,2.7,2.7S130.5,492.7,129,492.7z"/>
	</g>
	<g>
		<path d="M1243.9,602.4h-25.2c-1.5,0-2.7-1.2-2.7-2.7c0-1.5,1.2-2.7,2.7-2.7h25.2c1.5,0,2.7,1.2,2.7,2.7
			C1246.6,601.2,1245.4,602.4,1243.9,602.4z"/>
	</g>
	<g>
		<path d="M1275.5,705.4h-25.2c-1.5,0-2.7-1.2-2.7-2.7s1.2-2.7,2.7-2.7h25.2c1.5,0,2.7,1.2,2.7,2.7S1276.9,705.4,1275.5,705.4z"/>
	</g>
	<g>
		<path d="M293.2,525.3c-8.9,0-16.1-7.2-16.1-16.1s7.2-16.1,16.1-16.1s16.1,7.2,16.1,16.1S302.1,525.3,293.2,525.3z M293.2,498.4
			c-5.9,0-10.7,4.8-10.7,10.7s4.8,10.7,10.7,10.7s10.7-4.8,10.7-10.7S299.1,498.4,293.2,498.4z"/>
	</g>
	<g>
		<path d="M1305.6,582.4c-8.9,0-16.1-7.2-16.1-16.1s7.2-16.1,16.1-16.1s16.1,7.2,16.1,16.1S1314.5,582.4,1305.6,582.4z
			 M1305.6,555.5c-5.9,0-10.7,4.8-10.7,10.7s4.8,10.7,10.7,10.7s10.7-4.8,10.7-10.7S1311.5,555.5,1305.6,555.5z"/>
	</g>
	<g>
		<path d="M1305.6,772.7c-8.9,0-16.1-7.2-16.1-16.1s7.2-16.1,16.1-16.1s16.1,7.2,16.1,16.1S1314.5,772.7,1305.6,772.7z
			 M1305.6,745.8c-5.9,0-10.7,4.8-10.7,10.7s4.8,10.7,10.7,10.7s10.7-4.8,10.7-10.7S1311.5,745.8,1305.6,745.8z"/>
	</g>
	<g>
		<path d="M103.8,439.9c-8.9,0-16.1-7.2-16.1-16.1s7.2-16.1,16.1-16.1s16.1,7.2,16.1,16.1S112.6,439.9,103.8,439.9z M103.8,413
			c-5.9,0-10.7,4.8-10.7,10.7s4.8,10.7,10.7,10.7s10.7-4.8,10.7-10.7S109.7,413,103.8,413z"/>
	</g>
	<g>
		<g>
			<path d="M109,613.8H71.4c-1.5,0-2.7-1.2-2.7-2.7c0-1.5,1.2-2.7,2.7-2.7H109c1.5,0,2.7,1.2,2.7,2.7
				C111.7,612.6,110.5,613.8,109,613.8z"/>
		</g>
		<g>
			<path d="M90.2,632.6c-1.5,0-2.7-1.2-2.7-2.7v-37.6c0-1.5,1.2-2.7,2.7-2.7c1.5,0,2.7,1.2,2.7,2.7v37.6
				C92.9,631.4,91.7,632.6,90.2,632.6z"/>
		</g>
	</g>
	<g>
		<g>
			<path d="M1311,647h-37.6c-1.5,0-2.7-1.2-2.7-2.7s1.2-2.7,2.7-2.7h37.6c1.5,0,2.7,1.2,2.7,2.7S1312.5,647,1311,647z"/>
		</g>
		<g>
			<path d="M1292.2,665.8c-1.5,0-2.7-1.2-2.7-2.7v-37.6c0-1.5,1.2-2.7,2.7-2.7c1.5,0,2.7,1.2,2.7,2.7v37.6
				C1294.9,664.6,1293.7,665.8,1292.2,665.8z"/>
		</g>
	</g>
	<g>
		<g>
			<path d="M1250.2,810.6h-48.9c-1.5,0-2.7-1.2-2.7-2.7c0-19.9-4.7-39-13.8-56.6c-0.4-0.7-0.4-1.5-0.1-2.2c0.3-0.7,0.9-1.3,1.6-1.5
				c11-3.7,21.5-8.9,31.1-15.6c1-0.7,2.5-0.6,3.4,0.3c20.7,20.1,32.1,47,32.1,75.7C1252.9,809.4,1251.7,810.6,1250.2,810.6z
				 M1204,805.2h43.5c-0.7-25.6-10.8-49.4-28.9-67.6c-8.6,5.8-17.9,10.5-27.7,14C1199.2,768.4,1203.6,786.5,1204,805.2z"/>
		</g>
		<g>
			<path d="M1218.9,884.4c-0.5,0-1.1-0.2-1.5-0.5c-9.6-6.6-20-11.9-31.1-15.6c-0.7-0.3-1.3-0.8-1.6-1.5s-0.3-1.6,0.1-2.2
				c9.2-17.6,13.8-36.7,13.8-56.6c0-1.5,1.2-2.7,2.7-2.7h48.9c1.5,0,2.7,1.2,2.7,2.7c0,28.8-11.4,55.7-32.1,75.7
				C1220.3,884.1,1219.6,884.4,1218.9,884.4z M1190.9,864.2c9.8,3.5,19.1,8.2,27.7,14c18-18.2,28.2-42.1,28.9-67.6H1204
				C1203.6,829.4,1199.2,847.4,1190.9,864.2z"/>
		</g>
		<g>
			<path d="M1187.1,752.8c-1,0-1.9-0.5-2.4-1.4c-9.1-17.4-22.4-32.6-38.6-44c-1-0.7-1.4-1.9-1-3c0.4-1.1,1.3-1.8,2.6-1.9
				c27.4,0.1,53.4,10.6,73.1,29.7c0.6,0.6,0.9,1.3,0.8,2.1c-0.1,0.8-0.5,1.5-1.1,2c-10,7-20.9,12.5-32.5,16.3
				C1187.7,752.7,1187.4,752.8,1187.1,752.8z M1156.3,708.2c13.1,10.6,24.1,23.8,32.2,38.6c9.2-3.3,18-7.6,26.2-13
				C1198.4,719,1178,710.1,1156.3,708.2z"/>
		</g>
		<g>
			<path d="M1075.9,884.4c-0.7,0-1.4-0.3-1.9-0.8c-20.7-20-32.1-46.9-32.1-75.7c0-1.5,1.2-2.7,2.7-2.7h48.9c1.5,0,2.7,1.2,2.7,2.7
				c0,19.9,4.7,38.9,13.8,56.6c0.4,0.7,0.4,1.5,0.1,2.2s-0.9,1.3-1.6,1.5c-11.1,3.7-21.5,9-31.1,15.6
				C1077,884.2,1076.5,884.4,1075.9,884.4z M1047.4,810.6c0.7,25.6,10.8,49.4,28.9,67.6c8.6-5.8,17.9-10.5,27.7-14
				c-8.3-16.8-12.6-34.8-13-53.6H1047.4z"/>
		</g>
		<g>
			<path d="M1093.6,810.6h-48.9c-1.5,0-2.7-1.2-2.7-2.7c0-28.8,11.4-55.7,32.1-75.7c0.9-0.9,2.4-1,3.4-0.3
				c9.6,6.7,20.1,11.9,31.1,15.6c0.7,0.3,1.3,0.8,1.6,1.5c0.3,0.7,0.3,1.5-0.1,2.2c-9.2,17.7-13.8,36.7-13.8,56.6
				C1096.3,809.4,1095.1,810.6,1093.6,810.6z M1047.4,805.2h43.5c0.4-18.8,4.8-36.8,13-53.6c-9.7-3.5-19-8.2-27.7-14
				C1058.2,755.8,1048.1,779.7,1047.4,805.2z"/>
		</g>
		<g>
			<path d="M1107.7,868.5c-1,0-1.9-0.5-2.4-1.4c-9.6-18.4-14.4-38.3-14.4-59.1c0-1.5,1.2-2.7,2.7-2.7h53.8c1.5,0,2.7,1.2,2.7,2.7
				v51.4c0,1.5-1.2,2.7-2.7,2.7c-13.2,0-26.3,2.1-38.9,6.3C1108.3,868.4,1108,868.5,1107.7,868.5z M1096.3,810.6
				c0.4,18.2,4.7,35.6,12.8,51.9c11.6-3.6,23.6-5.6,35.7-5.9v-46H1096.3z"/>
		</g>
		<g>
			<path d="M1147.4,810.6h-53.8c-1.5,0-2.7-1.2-2.7-2.7c0-20.8,4.9-40.7,14.4-59.1c0.6-1.2,2-1.7,3.2-1.3
				c12.6,4.2,25.7,6.3,38.9,6.3c1.5,0,2.7,1.2,2.7,2.7v51.4C1150.1,809.4,1148.9,810.6,1147.4,810.6z M1096.3,805.2h48.4v-46
				c-12.1-0.3-24.1-2.2-35.7-5.9C1101,769.6,1096.7,787.1,1096.3,805.2z"/>
		</g>
		<g>
			<path d="M1201.3,810.6h-53.9c-1.5,0-2.7-1.2-2.7-2.7v-51.4c0-1.5,1.2-2.7,2.7-2.7c13.2,0,26.3-2.1,38.9-6.3
				c1.2-0.4,2.6,0.1,3.2,1.3c9.6,18.4,14.4,38.3,14.4,59.1C1204,809.4,1202.8,810.6,1201.3,810.6z M1150.1,805.2h48.5
				c-0.4-18.2-4.7-35.6-12.8-51.9c-11.6,3.6-23.6,5.6-35.7,5.9V805.2z"/>
		</g>
		<g>
			<path d="M1187.1,868.5c-0.3,0-0.6,0-0.9-0.1c-12.6-4.2-25.7-6.3-38.9-6.3c-1.5,0-2.7-1.2-2.7-2.7v-51.4c0-1.5,1.2-2.7,2.7-2.7
				h53.9c1.5,0,2.7,1.2,2.7,2.7c0,20.8-4.9,40.7-14.4,59.1C1189.1,867.9,1188.1,868.5,1187.1,868.5z M1150.1,856.7
				c12.1,0.3,24.1,2.2,35.7,5.9c8.1-16.3,12.4-33.7,12.8-51.9h-48.5V856.7z"/>
		</g>
		<g>
			<path d="M1107.7,752.8c-0.3,0-0.6,0-0.9-0.1c-11.5-3.8-22.4-9.3-32.5-16.3c-0.7-0.5-1.1-1.2-1.1-2c-0.1-0.8,0.2-1.6,0.8-2.2
				c19.7-19.1,45.6-29.6,73.1-29.7c0,0,0,0,0,0c1.2,0,2.2,0.8,2.6,1.9c0.4,1.1-0.1,2.3-1,3c-16.1,11.3-29.5,26.5-38.6,44
				C1109.6,752.2,1108.7,752.8,1107.7,752.8z M1080.2,733.8c8.2,5.4,17,9.7,26.2,13c8.1-14.8,19.1-28,32.2-38.6
				C1116.9,710.1,1096.5,719,1080.2,733.8z"/>
		</g>
		<g>
			<path d="M1147.7,707.8c-1.2,0-2.7-0.8-3-2c-0.3-1.2,0-2.4,1.1-3c0.8-0.5,2.2-0.7,3.1-0.2l-1.1,2.3l1.5-2c0.9,0.7,1.3,1.9,1,3
				C1149.9,707.1,1148.9,707.8,1147.7,707.8z"/>
		</g>
		<g>
			<path d="M1147.4,759.2c-13.8,0-27.4-2.2-40.6-6.6c-0.7-0.3-1.3-0.8-1.6-1.5s-0.3-1.6,0.1-2.3c9.5-18.2,23.4-34.1,40.3-45.9
				c1.7-1.2,4.5,0.2,4.5,2.2v51.4C1150.1,758,1148.9,759.2,1147.4,759.2z M1111.6,748.5c10.8,3.3,21.9,5.1,33.1,5.3v-43.6
				C1131.2,720.6,1119.9,733.7,1111.6,748.5z"/>
		</g>
		<g>
			<path d="M1147.4,759.2c-1.5,0-2.7-1.2-2.7-2.7v-51.4c0-1.5,1.2-2.7,2.7-2.7c0.6,0,1.4,0.2,1.8,0.5c16.9,11.8,30.8,27.7,40.3,45.9
				c0.4,0.7,0.4,1.5,0.1,2.2s-0.9,1.3-1.6,1.5C1174.9,757,1161.2,759.2,1147.4,759.2z M1150.1,710.2v43.6c11.2-0.2,22.4-2,33.1-5.3
				C1175,733.7,1163.7,720.5,1150.1,710.2z"/>
		</g>
		<g>
			<path d="M1147.7,913.4c-1.2,0-2.2-0.8-2.6-1.9c-0.4-1.1,0.1-2.3,1-3c16.1-11.3,29.5-26.5,38.6-44c0.6-1.2,2-1.7,3.2-1.3
				c11.6,3.9,22.5,9.3,32.5,16.3c0.7,0.5,1.1,1.2,1.1,2c0.1,0.8-0.2,1.6-0.8,2.2C1201.1,902.7,1175.2,913.3,1147.7,913.4
				C1147.7,913.4,1147.7,913.4,1147.7,913.4z M1188.4,869.1c-8.1,14.8-19.1,28-32.2,38.6c21.7-1.9,42.1-10.8,58.4-25.6
				C1206.5,876.7,1197.7,872.3,1188.4,869.1z"/>
		</g>
		<g>
			<path d="M1147.2,913.4C1147.1,913.4,1147.1,913.4,1147.2,913.4c-27.4-0.1-53.4-10.6-73.1-29.7c-0.6-0.6-0.9-1.3-0.8-2.2
				c0.1-0.8,0.5-1.5,1.1-2c10-6.9,20.9-12.4,32.5-16.3c1.3-0.4,2.6,0.1,3.2,1.3c9.1,17.5,22.4,32.7,38.6,44c1,0.7,1.4,1.9,1,3
				C1149.4,912.6,1148.3,913.4,1147.2,913.4z M1080.2,882.1c16.3,14.8,36.6,23.7,58.4,25.6c-13.1-10.6-24.1-23.8-32.2-38.6
				C1097.2,872.3,1088.4,876.7,1080.2,882.1z"/>
		</g>
		<g>
			<path d="M1147.3,913.5c-0.6,0-1.2-0.2-1.6-0.5l1.4-1.7l-1.5,1.7c-1.1-0.6-1.5-1.8-1.2-3c0.3-1.2,1.5-2,2.7-2h0.6
				c1.2,0,2.3,0.8,2.6,2c0.3,1.2-0.2,2.4-1.2,3C1148.6,913.3,1148,913.5,1147.3,913.5z"/>
		</g>
		<g>
			<path d="M1147.4,913.4h-0.3c-0.6,0-1.1-0.2-1.5-0.5c-16.8-11.8-30.8-27.7-40.3-45.9c-0.4-0.7-0.4-1.5-0.1-2.3
				c0.3-0.7,0.9-1.3,1.6-1.5c13.1-4.4,26.8-6.6,40.6-6.6c1.5,0,2.7,1.2,2.7,2.7v51.4C1150.1,912.2,1148.9,913.4,1147.4,913.4z
				 M1111.6,867.3c8.2,14.9,19.6,28,33.1,38.3V862C1133.5,862.3,1122.4,864.1,1111.6,867.3z"/>
		</g>
		<g>
			<path d="M1147.7,913.4h-0.3c-1.5,0-2.7-1.2-2.7-2.7v-51.4c0-1.5,1.2-2.7,2.7-2.7c13.8,0,27.4,2.2,40.6,6.6
				c0.7,0.3,1.3,0.8,1.6,1.5c0.3,0.7,0.3,1.6-0.1,2.3c-9.5,18.2-23.4,34.1-40.3,45.9C1148.8,913.2,1148.3,913.4,1147.7,913.4z
				 M1150.1,862v43.6c13.5-10.3,24.9-23.4,33.1-38.3C1172.5,864.1,1161.4,862.3,1150.1,862z"/>
		</g>
	</g>
	<g>
		<g>
			<polygon fill="#FFFFFF" points="1218.2,829.3 1273.4,859.4 1328.5,829.3 1273.4,799.3 			"/>
			<path d="M1273.4,862.1c-0.4,0-0.9-0.1-1.3-0.3l-55.2-30c-0.9-0.5-1.4-1.4-1.4-2.4c0-1,0.5-1.9,1.4-2.4l55.2-30
				c0.8-0.4,1.8-0.4,2.6,0l55.2,30c0.9,0.5,1.4,1.4,1.4,2.4c0,1-0.5,1.9-1.4,2.4l-55.2,30C1274.2,861.9,1273.8,862.1,1273.4,862.1z
				 M1223.8,829.3l49.5,27l49.5-27l-49.5-27L1223.8,829.3z"/>
		</g>
		<g>
			<polygon fill="#FFFFFF" points="1218.2,829.3 1218.2,884.5 1273.4,914.5 1273.4,859.4 			"/>
			<path d="M1273.4,917.2c-0.4,0-0.9-0.1-1.3-0.3l-55.2-30c-0.9-0.5-1.4-1.4-1.4-2.4v-55.2c0-0.9,0.5-1.8,1.3-2.3
				c0.8-0.5,1.8-0.5,2.7-0.1l55.2,30c0.9,0.5,1.4,1.4,1.4,2.4v55.2c0,0.9-0.5,1.8-1.3,2.3C1274.3,917.1,1273.8,917.2,1273.4,917.2z
				 M1220.9,882.9l49.8,27.1v-49l-49.8-27.1V882.9z"/>
		</g>
		<g>
			<polygon fill="#FFFFFF" points="1273.4,914.5 1328.5,884.5 1328.5,829.3 1273.4,859.4 			"/>
			<path d="M1273.4,917.2c-0.5,0-0.9-0.1-1.4-0.4c-0.8-0.5-1.3-1.4-1.3-2.3v-55.2c0-1,0.5-1.9,1.4-2.4l55.2-30
				c0.8-0.4,1.9-0.4,2.7,0.1c0.8,0.5,1.3,1.4,1.3,2.3v55.2c0,1-0.5,1.9-1.4,2.4l-55.2,30C1274.2,917.1,1273.8,917.2,1273.4,917.2z
				 M1276,861v49l49.8-27.1v-49.1L1276,861z"/>
		</g>
	</g>
	<g>
		<rect x="71.4" y="756.5" fill="#FFFFFF" width="437" height="154.4"/>
		<path d="M508.4,913.6h-437c-1.5,0-2.7-1.2-2.7-2.7V756.5c0-1.5,1.2-2.7,2.7-2.7h437c1.5,0,2.7,1.2,2.7,2.7v154.4
			C511.1,912.4,509.9,913.6,508.4,913.6z M74.1,908.2h431.6v-149H74.1V908.2z"/>
	</g>
	<g>
		<rect x="246.9" y="794.2" fill="#F1F2F2" width="218.6" height="25.4"/>
	</g>
	<g>
		<rect x="246.9" y="847.9" fill="#F1F2F2" width="218.6" height="25.4"/>
	</g>
	<g>
		<path d="M477.1,796.8H246.9c-1.5,0-2.7-1.2-2.7-2.7s1.2-2.7,2.7-2.7h230.2c1.5,0,2.7,1.2,2.7,2.7S478.6,796.8,477.1,796.8z"/>
	</g>
	<g>
		<path d="M477.1,850.6H246.9c-1.5,0-2.7-1.2-2.7-2.7s1.2-2.7,2.7-2.7h230.2c1.5,0,2.7,1.2,2.7,2.7S478.6,850.6,477.1,850.6z"/>
	</g>
	<g>
		<rect x="566.1" y="794.2" fill="#FFFFFF" width="224.5" height="116.1"/>
		<path d="M790.6,912.9H566.1c-1.5,0-2.7-1.2-2.7-2.7V794.2c0-1.5,1.2-2.7,2.7-2.7h224.5c1.5,0,2.7,1.2,2.7,2.7v116.1
			C793.3,911.7,792.1,912.9,790.6,912.9z M568.8,907.5h219.2V796.8H568.8V907.5z"/>
	</g>
	<g>
		<polyline fill="#FFFFFF" points="603,886.5 637.3,852.2 603,817.8 		"/>
		<path d="M603,889.2c-0.7,0-1.4-0.3-1.9-0.8c-1-1-1-2.8,0-3.8l32.5-32.5l-32.5-32.5c-1-1-1-2.7,0-3.8c1-1,2.8-1,3.8,0l34.4,34.4
			c1,1,1,2.7,0,3.8l-34.4,34.4C604.3,889,603.6,889.2,603,889.2z"/>
	</g>
	<g>
		<line fill="#FFFFFF" x1="647.3" y1="886.5" x2="688.3" y2="886.5"/>
		<path d="M688.3,889.2h-41c-1.5,0-2.7-1.2-2.7-2.7c0-1.5,1.2-2.7,2.7-2.7h41c1.5,0,2.7,1.2,2.7,2.7
			C690.9,888,689.7,889.2,688.3,889.2z"/>
	</g>
	<g>
		<path fill="#FFFFFF" d="M207,837.4c0.1-1.2,0.2-2.5,0.2-3.7c0-1.3-0.1-2.5-0.2-3.7l13.7-9l-4.1-6.7l-0.7-7.8l-16.4,0.7
			c-1.3-2.1-2.8-4.1-4.4-6l5.8-15.4l-7.2-3l-5.1-5.9L175.8,787c-2.3-0.9-4.7-1.7-7.1-2.3l-4.4-15.8l-7.6,1.8l-7.6-1.8l-4.4,15.8
			c-2.4,0.6-4.8,1.4-7.1,2.3l-12.8-10.2l-5.1,5.9l-7.2,3l5.8,15.4c-1.6,1.9-3.1,3.9-4.4,6l-16.4-0.7l-0.7,7.8l-4.1,6.7l13.7,9
			c-0.1,1.2-0.2,2.5-0.2,3.7c0,1.3,0.1,2.5,0.2,3.7l-13.7,9l4.1,6.7l0.7,7.8l16.4-0.7c1.3,2.1,2.8,4.1,4.4,6l-5.8,15.4l7.2,3
			l5.1,5.9l12.8-10.2c2.3,0.9,4.7,1.7,7.1,2.3l4.4,15.8l7.6-1.8l7.6,1.8l4.4-15.8c2.4-0.6,4.8-1.4,7.1-2.3l12.8,10.2l5.1-5.9l7.2-3
			l-5.8-15.4c1.6-1.9,3.1-3.9,4.4-6L216,861l0.7-7.8l4.1-6.7L207,837.4z M156.7,869.2c-19.6,0-35.4-15.9-35.4-35.4
			c0-19.6,15.9-35.4,35.4-35.4s35.4,15.9,35.4,35.4C192.1,853.3,176.2,869.2,156.7,869.2z"/>
		<path d="M149,901.2c-1.2,0-2.3-0.8-2.6-2l-3.9-14.3c-1.5-0.4-3-0.9-4.5-1.4l-11.6,9.3c-1.1,0.9-2.8,0.8-3.7-0.3L118,887l-6.7-2.8
			c-1.3-0.6-2-2.1-1.5-3.4l5.2-13.9c-1-1.2-1.9-2.5-2.7-3.8l-14.9,0.7c0,0-0.1,0-0.1,0c-1.4,0-2.6-1.1-2.7-2.5l-0.6-7.2l-3.7-6.2
			c-0.7-1.2-0.4-2.8,0.8-3.6l12.4-8.2c0-0.8-0.1-1.6-0.1-2.3c0-0.8,0-1.6,0.1-2.3l-12.4-8.2c-1.2-0.8-1.6-2.4-0.8-3.6l3.7-6.2
			l0.6-7.2c0.1-1.4,1.2-2.5,2.8-2.5l14.9,0.7c0.9-1.3,1.8-2.6,2.7-3.8l-5.2-13.9c-0.5-1.3,0.1-2.9,1.5-3.4l6.7-2.8l4.7-5.5
			c0.9-1.1,2.6-1.2,3.7-0.3L138,784c1.5-0.5,2.9-1,4.5-1.4l3.9-14.3c0.4-1.4,1.8-2.3,3.2-1.9l7,1.6l7-1.6c1.4-0.4,2.8,0.5,3.2,1.9
			l3.9,14.3c1.5,0.4,3,0.9,4.5,1.4l11.6-9.3c1.1-0.9,2.8-0.8,3.7,0.3l4.7,5.5l6.7,2.8c1.3,0.6,2,2.1,1.5,3.4l-5.2,13.9
			c1,1.2,1.9,2.5,2.8,3.8l14.9-0.7c1.7-0.1,2.7,1,2.8,2.5l0.6,7.2l3.7,6.2c0.7,1.2,0.4,2.8-0.8,3.6l-12.4,8.2c0,0.8,0.1,1.6,0.1,2.3
			c0,0.8,0,1.6-0.1,2.3l12.4,8.2c1.2,0.8,1.6,2.4,0.8,3.6l-3.7,6.2l-0.6,7.2c-0.1,1.4-1.3,2.5-2.7,2.5c0,0-0.1,0-0.1,0L201,863
			c-0.9,1.3-1.8,2.6-2.7,3.8l5.2,13.9c0.5,1.3-0.1,2.9-1.5,3.4l-6.7,2.8l-4.7,5.5c-0.9,1.1-2.6,1.2-3.7,0.3l-11.6-9.3
			c-1.5,0.5-2.9,1-4.5,1.4l-3.9,14.3c-0.4,1.4-1.8,2.3-3.2,1.9l-7-1.6l-7,1.6C149.4,901.2,149.2,901.2,149,901.2z M156.7,894.1
			c0.2,0,0.4,0,0.6,0.1l5.1,1.2l3.7-13.3c0.3-0.9,1-1.7,2-1.9c2.3-0.6,4.6-1.3,6.7-2.2c0.9-0.4,1.9-0.2,2.7,0.4l10.8,8.6l3.4-4
			c0.3-0.3,0.6-0.6,1-0.7l4.8-2l-4.9-13c-0.3-0.9-0.2-1.9,0.5-2.7c1.5-1.8,2.9-3.7,4.2-5.7c0.5-0.8,1.4-1.3,2.4-1.3l13.8,0.6
			l0.4-5.2c0-0.4,0.2-0.8,0.4-1.2l2.7-4.5l-11.6-7.6c-0.8-0.5-1.3-1.5-1.2-2.4c0.1-1.2,0.1-2.3,0.1-3.5c0-1.2-0.1-2.4-0.1-3.5
			c-0.1-1,0.4-1.9,1.2-2.4l11.6-7.6l-2.7-4.5c-0.2-0.4-0.3-0.8-0.4-1.2l-0.4-5.2l-13.8,0.6c-1,0.1-1.9-0.4-2.4-1.3
			c-1.2-2-2.6-3.9-4.2-5.7c-0.6-0.7-0.8-1.8-0.5-2.7l4.9-13l-4.8-2c-0.4-0.2-0.7-0.4-1-0.7l-3.4-4l-10.8,8.6
			c-0.8,0.6-1.8,0.8-2.7,0.4c-2.2-0.9-4.4-1.6-6.7-2.2c-0.9-0.2-1.7-1-2-1.9l-3.7-13.3l-5.1,1.2c-0.4,0.1-0.8,0.1-1.2,0l-5.1-1.2
			l-3.7,13.3c-0.3,0.9-1,1.7-2,1.9c-2.3,0.6-4.6,1.3-6.7,2.2c-0.9,0.4-1.9,0.2-2.7-0.4l-10.8-8.6l-3.4,4c-0.3,0.3-0.6,0.6-1,0.7
			l-4.8,2l4.9,13c0.3,0.9,0.2,1.9-0.5,2.7c-1.5,1.8-2.9,3.7-4.2,5.7c-0.5,0.8-1.4,1.4-2.4,1.3l-13.8-0.6l-0.4,5.2
			c0,0.4-0.2,0.8-0.4,1.2l-2.7,4.5l11.6,7.6c0.8,0.5,1.3,1.5,1.2,2.4c-0.1,1.2-0.1,2.3-0.1,3.5c0,1.2,0.1,2.4,0.1,3.5
			c0.1,1-0.4,1.9-1.2,2.4l-11.6,7.6l2.7,4.5c0.2,0.4,0.3,0.8,0.4,1.2l0.4,5.2l13.8-0.6c1-0.2,1.9,0.4,2.4,1.3c1.2,2,2.6,3.9,4.2,5.7
			c0.6,0.7,0.8,1.8,0.5,2.7l-4.9,13l4.9,2c0.4,0.2,0.7,0.4,1,0.7l3.4,4l10.8-8.6c0.8-0.6,1.8-0.8,2.7-0.4c2.2,0.9,4.4,1.6,6.7,2.2
			c0.9,0.2,1.7,1,2,1.9l3.7,13.3l5.1-1.2C156.2,894.1,156.5,894.1,156.7,894.1z M156.7,871.8c-21,0-38.1-17.1-38.1-38.1
			s17.1-38.1,38.1-38.1s38.1,17.1,38.1,38.1S177.7,871.8,156.7,871.8z M156.7,801c-18.1,0-32.7,14.7-32.7,32.8s14.7,32.8,32.7,32.8
			c18.1,0,32.7-14.7,32.7-32.8S174.7,801,156.7,801z"/>
	</g>
	<g>
		<rect x="843.4" y="754" fill="#FFFFFF" width="156.2" height="156.2"/>
		<path d="M999.6,912.9H843.4c-1.5,0-2.7-1.2-2.7-2.7V754c0-1.5,1.2-2.7,2.7-2.7h156.2c1.5,0,2.7,1.2,2.7,2.7v156.2
			C1002.2,911.7,1001,912.9,999.6,912.9z M846.1,907.5h150.8V756.7H846.1V907.5z"/>
	</g>
	<g>
		<polyline fill="#FFFFFF" points="863.6,833.1 903.7,873.2 976.2,800.6 		"/>
		<path d="M903.7,875.9c-0.7,0-1.4-0.3-1.9-0.8L861.7,835c-1-1-1-2.8,0-3.8c1-1,2.8-1,3.8,0l38.2,38.2l70.6-70.6c1-1,2.7-1,3.8,0
			s1,2.8,0,3.8l-72.5,72.5C905.1,875.6,904.4,875.9,903.7,875.9z"/>
	</g>
</g>
</svg>
